<?xml version="1.0" encoding="utf-8"?>
<!-- Generator: Adobe Illustrator 19.1.0, SVG Export Plug-In . SVG Version: 6.00 Build 0)  -->
<svg version="1.1" id="Calque_1" xmlns="http://www.w3.org/2000/svg" xmlns:xlink="http://www.w3.org/1999/xlink" x="0px" y="0px"
	 viewBox="0 0 850.4 237.5" style="enable-background:new 0 0 850.4 237.5;" xml:space="preserve">
<style type="text/css">
	.st0{fill:none;stroke:#FFFFFF;stroke-width:2;stroke-linecap:round;stroke-linejoin:round;stroke-miterlimit:10;}
	.st1{fill:#1D1D1B;}
	.st2{fill:none;stroke:#FFFFFF;stroke-width:2;stroke-linecap:round;stroke-linejoin:round;}
	.st3{fill:#FFFFFF;}
	.st4{clip-path:url(#SVGID_2_);}
	.st5{opacity:0.97;clip-path:url(#SVGID_4_);}
	.st6{clip-path:url(#SVGID_6_);fill:#1D1D1B;}
	.st7{clip-path:url(#SVGID_2_);fill:#FFFFFF;}
	.st8{clip-path:url(#SVGID_2_);fill:none;stroke:#FFFFFF;stroke-width:0.9;stroke-linecap:round;stroke-linejoin:round;}
	
		.st9{clip-path:url(#SVGID_8_);fill:none;stroke:#FFFFFF;stroke-width:0.9;stroke-linecap:round;stroke-linejoin:round;stroke-miterlimit:10;}
	.st10{fill:none;stroke:#FFFFFF;stroke-width:0.9;stroke-linecap:round;stroke-linejoin:round;}
	.st11{fill:none;stroke:#FFFFFF;stroke-width:0.9;stroke-linecap:round;stroke-linejoin:round;stroke-miterlimit:10;}
	.st12{clip-path:url(#SVGID_10_);}
	.st13{fill:none;stroke:#FFFFFF;stroke-width:0.45;stroke-miterlimit:10;}
	.st14{clip-path:url(#SVGID_12_);}
	.st15{clip-path:url(#SVGID_14_);}
	.st16{font-family:'GTPressura';}
	.st17{font-size:8px;}
	.st18{fill:none;stroke:#FFFFFF;stroke-width:0.7;stroke-linecap:round;stroke-linejoin:round;}
	.st19{fill:none;stroke:#FFFFFF;stroke-width:0.7;stroke-linecap:round;stroke-linejoin:round;stroke-miterlimit:10;}
	.st20{clip-path:url(#SVGID_16_);fill:none;stroke:#FFFFFF;stroke-width:0.45;stroke-miterlimit:10;}
	.st21{clip-path:url(#SVGID_18_);fill:none;stroke:#FFFFFF;stroke-width:0.3;stroke-miterlimit:10;}
	.st22{fill:none;stroke:#FFFFFF;stroke-width:0.7;stroke-miterlimit:10;}
	.st23{clip-path:url(#SVGID_20_);}
	.st24{fill:none;stroke:#FFFFFF;stroke-width:0.3;stroke-linecap:round;stroke-linejoin:round;stroke-miterlimit:10;}
	.st25{clip-path:url(#SVGID_22_);}
	.st26{clip-path:url(#SVGID_24_);}
	.st27{clip-path:url(#SVGID_26_);}
</style>
<text transform="matrix(1 0 0 1 48.2733 76.4646)" class="st3 st16 st17">Yverdon</text>
<text transform="matrix(1 0 0 1 132.1776 161.3197)" class="st3 st16 st17">Ependes</text>
<text transform="matrix(1 0 0 1 260.2113 191.1051)" class="st3 st16 st17">Chavornay</text>
<text transform="matrix(1 0 0 1 472.7149 160.9652)" class="st3 st16 st17">Daillens</text>
<text transform="matrix(1 0 0 1 542.1639 151.9632)" class="st3 st16 st17">Cossonay</text>
<text transform="matrix(1 0 0 1 635.0204 126.1979)" class="st3 st16 st17">Vufflens-la-Ville</text>
<text transform="matrix(1 0 0 1 693.6744 148.4122)" class="st3 st16 st17">Bussigny</text>
<text transform="matrix(1 0 0 1 764.6385 82.4286)"><tspan x="0" y="0" class="st3 st16 st17">St-Sulpic</tspan><tspan x="30.2" y="0" class="st3 st16 st17">e</tspan></text>
<line class="st18" x1="238.3" y1="62.4" x2="374.5" y2="82"/>
<polyline class="st18" points="241.6,66.6 238.3,62.4 242.7,59.4 "/>
<text transform="matrix(0.9926 0.1219 -0.1219 0.9926 226.6017 63.2471)" class="st3 st16 st17">N</text>
<path class="st19" d="M811.3,97.8c-3.3,0-6.3-1.6-9.4-2.2c-0.8,1-0.4,2-0.1,2.8c0.8,2-0.2,3.3-1.8,4c-1.4,0.7-3.2,0.6-4.1-1
	c-0.7-1.1-1.6-1.7-2.6-2.4c-2.3-1.5-4.3-2.8-6.7,0.2c-1.4,1.7-3.8,2.3-5.9,0.2c-0.3-0.3-0.8-0.5-1.2-0.7c-4-2.8-5.4-2.8-9.3-0.1
	c-3,2.1-6.1,3.4-9.7,1.3c-2.9-1.7-6-0.2-8.5,0.5c-4.8,1.5-8.4,0.1-11.9-2.7c-2.3-1.9-4.3-4.1-7.7-4.2c-2.3,0-4.2,0.5-5.4,2.6
	c-0.8,1.5-2.1,2.6-3.5,3.5c-1.2,0.8-2.5,1.1-3.9,0.5c-3.1-1.3-5.7-0.3-8.3,1.3c-1.5,1-3,2-4.7,2.7c-2.2,1-2,3.2-2.1,4.9
	c-0.3,5.3-3.2,8.9-7.3,11.6c-1.4,0.9-2.7,1.8-3.6,3.2c-1,1.6-1.5,2.8,0,4.7c1.7,2.1,1,4.5-1.4,6.2c-1.3,0.9-1.9,1.8-1.5,3.4
	c0.5,1.9-0.5,3.4-2,4.1c-2.7,1.3-4.3,3.3-5.2,6c-2.3,6.6-9,4.8-12.1,0.9c-3.1-3.8-7.6-5.2-12-6.7c-2.8-1-4.8,0.6-5.3,3.5
	c-0.2,1-0.3,2-0.4,3c-0.3,4.6-2.8,6.6-7.4,6.4c-3.6-0.1-7.1-0.4-10.6-1.2c-4.6-1-8.7,0.5-11.3,4.3c-2.4,3.5-6,5.9-8.8,9.1
	c-1,1.1-2.2,1.6-3.4,1.1c-2.9-1.4-5.4-0.2-7.7,1.2c-3.9,2.5-4.4,2.6-8-0.1c-1.8-1.3-3.6-2.3-6-1.3c-1.1,0.5-2-0.2-2.9-0.9
	c-1.2-0.9-2.3-2-2.9-3.1c-3-6-8.8-6.3-14.1-7.1c-4-0.6-6.7,2.8-5.6,6.9c1.4,5,1,9.7-2.6,13.5c-3.1,3.4-5.1,7.3-6.8,11.4
	c-0.6,1.4-1.6,2.1-2.8,2.6c-2.8,1-4.7,2.8-6,5.4c-2,3.9-5.8,6.1-8.9,9c-2.1,2-5.9,1.2-8.3-2c-4-5.4-8.9-7.6-15.5-6.3
	c-6.4,1.3-10.2-3-12.9-7.6c-4.5-7.5-11.2-12.4-18-17.2c-4.3-3-8.2-6.6-13.7-8c-7.5-1.9-14.6-3.2-21.6,1.8c-2.3,1.7-5.3,2.5-8.1,3.3
	c-3.2,1-6.4,0.4-9.3-1.4c-3.8-2.3-7.6-4.5-11.5-6.6c-4.1-2.2-8.7-2.8-12.6-0.2c-4.8,3.1-6.4,8-5.1,13.7c0.5,2.2,0.8,4.3,0.3,6.6
	c-0.8,3.1-1.5,3.5-4.7,2.8c-4.2-1-7.9-3.4-12-4.5c-1.9-0.5-3.8-0.7-5.8-0.6c-7.4,0.5-14.1,3.2-20.9,6.1c-5.3,2.2-10.5,4.7-16.1,6.1
	c-5,1.2-9.7,3.6-14.8,4.8c-9.4,2.2-18.6,4.7-28.3,5.5c-5.6,0.5-11.3,1.7-16.8,0.4c-13.8-3.4-27.5-6.9-40.9-12.1
	c-7.7-3-15.5-6-23.5-8.1c-4.9-1.3-10-2.3-14.8-4c-5.4-1.9-10.6-4.5-15.7-7.1c-10.9-5.5-18.8-14.2-26.5-23.3
	c-2.8-3.2-3.9-6.2-3.1-10.3c0.8-3.7-1-5.8-4.4-7.9c-6.4-4.1-13-8.1-18.7-13.2c-1.7-1.5-3.8-2.6-5.7-3.9c-6.3-4.4-12.7-8.7-19.7-12
	c-1.1-0.5-2-0.9-3.1-0.5c-6.1,1.9-11.7,0.1-17.4-1.9c-5.1-1.8-9.9-4.1-14.4-7.2c-3.6-2.5-7.4-4.9-11.5-6.6c-2-0.8-4-1.3-6.1-0.6
	c-4,1.4-8.3,1.3-12.4,2.3c-2.1,0.5-3.9-0.7-5.1-2.1"/>
<g>
	<defs>
		<path id="SVGID_15_" d="M14,158c0-7.1,15-15.6,16.7-16.6c3.8-2.3,7.2-5.7,10.3-8.8c-1-1.2,0-2.5,0.7-3.8c1-2.1,2.2-4,3.6-5.8
			c5.1-6.7,5.8-14.9,6.8-22.9c0.6-4.6-3.9-9.7-8.5-11.2c-1.3-0.4-2.3-1.2-3.2-2.3c-2.7-3.4-1.1-5.6-2.7-9.8
			c-0.7-1.8,3.7-6.3,2.1-6.7c-2.6-0.7-4.1-2.5-5.6-4.4c-1.1-1.5-7.8-5.9-9.6-6.5c-1.8-0.6-1.7-2.4-2-3.6c-1-3.6-8.3-1.4-8.4-5.3"/>
	</defs>
	<clipPath id="SVGID_2_">
		<use xlink:href="#SVGID_15_"  style="overflow:visible;"/>
	</clipPath>
	
		<line style="clip-path:url(#SVGID_2_);fill:none;stroke:#FFFFFF;stroke-width:0.45;stroke-miterlimit:10;" x1="54.4" y1="165.1" x2="12.4" y2="123"/>
	
		<line style="clip-path:url(#SVGID_2_);fill:none;stroke:#FFFFFF;stroke-width:0.45;stroke-miterlimit:10;" x1="54.4" y1="179.1" x2="12.4" y2="137"/>
	
		<line style="clip-path:url(#SVGID_2_);fill:none;stroke:#FFFFFF;stroke-width:0.45;stroke-miterlimit:10;" x1="54.4" y1="151.1" x2="12.4" y2="109"/>
	
		<line style="clip-path:url(#SVGID_2_);fill:none;stroke:#FFFFFF;stroke-width:0.45;stroke-miterlimit:10;" x1="54.4" y1="137" x2="12.4" y2="95"/>
	
		<line style="clip-path:url(#SVGID_2_);fill:none;stroke:#FFFFFF;stroke-width:0.45;stroke-miterlimit:10;" x1="54.4" y1="123" x2="12.4" y2="80.9"/>
	
		<line style="clip-path:url(#SVGID_2_);fill:none;stroke:#FFFFFF;stroke-width:0.45;stroke-miterlimit:10;" x1="54.4" y1="95" x2="12.4" y2="52.9"/>
	
		<line style="clip-path:url(#SVGID_2_);fill:none;stroke:#FFFFFF;stroke-width:0.45;stroke-miterlimit:10;" x1="54.4" y1="109" x2="12.4" y2="66.9"/>
	
		<line style="clip-path:url(#SVGID_2_);fill:none;stroke:#FFFFFF;stroke-width:0.45;stroke-miterlimit:10;" x1="54.4" y1="81" x2="12.4" y2="38.9"/>
	
		<line style="clip-path:url(#SVGID_2_);fill:none;stroke:#FFFFFF;stroke-width:0.45;stroke-miterlimit:10;" x1="54.4" y1="67" x2="12.4" y2="24.9"/>
	
		<line style="clip-path:url(#SVGID_2_);fill:none;stroke:#FFFFFF;stroke-width:0.45;stroke-miterlimit:10;" x1="54.4" y1="53" x2="12.4" y2="10.9"/>
</g>
<g>
	<defs>
		<path id="SVGID_17_" d="M835.6,54.4c-7.5,11.7-17.9,10.2-29,23.2c-3.2,3.7,0.6,9.9,2.5,14.5c1.7,4.4,3.1,9,4,13.6
			c1.4,6.8,4.4,13,6.7,19.5c2.2,6.2,1.6,12.2-0.9,18.4c-2.1,5.3-8,10.2-6.7,15.7c2,8.7,6.8,41.3,24,50.5"/>
	</defs>
	<clipPath id="SVGID_4_">
		<use xlink:href="#SVGID_17_"  style="overflow:visible;"/>
	</clipPath>
	
		<line style="clip-path:url(#SVGID_4_);fill:none;stroke:#FFFFFF;stroke-width:0.3;stroke-miterlimit:10;" x1="847.5" y1="242.5" x2="805.4" y2="200.4"/>
	
		<line style="clip-path:url(#SVGID_4_);fill:none;stroke:#FFFFFF;stroke-width:0.3;stroke-miterlimit:10;" x1="847.5" y1="256.5" x2="805.4" y2="214.5"/>
	
		<line style="clip-path:url(#SVGID_4_);fill:none;stroke:#FFFFFF;stroke-width:0.3;stroke-miterlimit:10;" x1="847.5" y1="228.5" x2="805.4" y2="186.4"/>
	
		<line style="clip-path:url(#SVGID_4_);fill:none;stroke:#FFFFFF;stroke-width:0.3;stroke-miterlimit:10;" x1="847.5" y1="214.5" x2="805.4" y2="172.4"/>
	
		<line style="clip-path:url(#SVGID_4_);fill:none;stroke:#FFFFFF;stroke-width:0.3;stroke-miterlimit:10;" x1="847.5" y1="200.5" x2="805.4" y2="158.4"/>
	
		<line style="clip-path:url(#SVGID_4_);fill:none;stroke:#FFFFFF;stroke-width:0.3;stroke-miterlimit:10;" x1="847.5" y1="172.5" x2="805.4" y2="130.4"/>
	
		<line style="clip-path:url(#SVGID_4_);fill:none;stroke:#FFFFFF;stroke-width:0.3;stroke-miterlimit:10;" x1="847.5" y1="186.5" x2="805.4" y2="144.4"/>
	
		<line style="clip-path:url(#SVGID_4_);fill:none;stroke:#FFFFFF;stroke-width:0.3;stroke-miterlimit:10;" x1="847.5" y1="158.5" x2="805.4" y2="116.4"/>
	
		<line style="clip-path:url(#SVGID_4_);fill:none;stroke:#FFFFFF;stroke-width:0.3;stroke-miterlimit:10;" x1="847.5" y1="144.4" x2="805.4" y2="102.4"/>
	
		<line style="clip-path:url(#SVGID_4_);fill:none;stroke:#FFFFFF;stroke-width:0.3;stroke-miterlimit:10;" x1="847.5" y1="130.4" x2="805.4" y2="88.3"/>
	
		<line style="clip-path:url(#SVGID_4_);fill:none;stroke:#FFFFFF;stroke-width:0.3;stroke-miterlimit:10;" x1="847.5" y1="102.8" x2="805.4" y2="60.7"/>
	
		<line style="clip-path:url(#SVGID_4_);fill:none;stroke:#FFFFFF;stroke-width:0.3;stroke-miterlimit:10;" x1="847.5" y1="116.8" x2="805.4" y2="74.8"/>
	
		<line style="clip-path:url(#SVGID_4_);fill:none;stroke:#FFFFFF;stroke-width:0.3;stroke-miterlimit:10;" x1="847.5" y1="88.8" x2="805.4" y2="46.7"/>
	
		<line style="clip-path:url(#SVGID_4_);fill:none;stroke:#FFFFFF;stroke-width:0.3;stroke-miterlimit:10;" x1="847.5" y1="74.8" x2="805.4" y2="32.7"/>
	
		<line style="clip-path:url(#SVGID_4_);fill:none;stroke:#FFFFFF;stroke-width:0.3;stroke-miterlimit:10;" x1="847.5" y1="60.8" x2="805.4" y2="18.7"/>
	
		<line style="clip-path:url(#SVGID_4_);fill:none;stroke:#FFFFFF;stroke-width:0.3;stroke-miterlimit:10;" x1="847.5" y1="32.8" x2="805.4" y2="-9.3"/>
	
		<line style="clip-path:url(#SVGID_4_);fill:none;stroke:#FFFFFF;stroke-width:0.3;stroke-miterlimit:10;" x1="847.5" y1="46.8" x2="805.4" y2="4.7"/>
	
		<line style="clip-path:url(#SVGID_4_);fill:none;stroke:#FFFFFF;stroke-width:0.3;stroke-miterlimit:10;" x1="847.5" y1="18.7" x2="805.4" y2="-23.3"/>
	
		<line style="clip-path:url(#SVGID_4_);fill:none;stroke:#FFFFFF;stroke-width:0.3;stroke-miterlimit:10;" x1="847.5" y1="4.7" x2="805.4" y2="-37.3"/>
</g>
<path class="st22" d="M836.4,53.4c-7.5,11.7-18.7,11.2-29.8,24.2c-3.2,3.7,0.6,9.9,2.5,14.5c1.7,4.4,3.1,9,4,13.6
	c1.4,6.8,4.4,13,6.7,19.5c2.2,6.2,1.6,12.2-0.9,18.4c-2.1,5.3-8,10.2-6.7,15.7c2,8.7,6.8,41.3,24,50.5"/>
<g>
	<defs>
		<path id="SVGID_19_" d="M14,158c0-7.1,15-15.6,16.7-16.6c3.8-2.3,7.2-5.7,10.3-8.8c-1-1.2,0-2.5,0.7-3.8c1-2.1,2.2-4,3.6-5.8
			c5.1-6.7,5.8-14.9,6.8-22.9c0.6-4.6-3.9-9.7-8.5-11.2c-1.3-0.4-2.3-1.2-3.2-2.3c-2.7-3.4-1.1-5.6-2.7-9.8
			c-0.7-1.8,3.7-6.3,2.1-6.7c-2.6-0.7-4.1-2.5-5.6-4.4c-1.1-1.5-7.8-5.9-9.6-6.5c-1.8-0.6-1.7-2.4-2-3.6c-1-3.6-8.3-1.4-8.4-5.3"/>
	</defs>
	<clipPath id="SVGID_6_">
		<use xlink:href="#SVGID_19_"  style="overflow:visible;"/>
	</clipPath>
	<g style="clip-path:url(#SVGID_6_);">
		<line class="st24" x1="54.4" y1="165.1" x2="12.4" y2="123"/>
		<line class="st24" x1="54.4" y1="179.1" x2="12.4" y2="137"/>
		<line class="st24" x1="54.4" y1="151.1" x2="12.4" y2="109"/>
		<line class="st24" x1="54.4" y1="137" x2="12.4" y2="95"/>
		<line class="st24" x1="54.4" y1="123" x2="12.4" y2="80.9"/>
		<line class="st24" x1="54.4" y1="95" x2="12.4" y2="52.9"/>
		<line class="st24" x1="54.4" y1="109" x2="12.4" y2="66.9"/>
		<line class="st24" x1="54.4" y1="81" x2="12.4" y2="38.9"/>
		<line class="st24" x1="54.4" y1="67" x2="12.4" y2="24.9"/>
		<line class="st24" x1="54.4" y1="53" x2="12.4" y2="10.9"/>
	</g>
	
		<use xlink:href="#SVGID_19_"  style="overflow:visible;fill:none;stroke:#FFFFFF;stroke-width:0.7;stroke-linecap:round;stroke-linejoin:round;stroke-miterlimit:10;"/>
</g>
</svg>
