<?xml version="1.0" encoding="utf-8"?>
<!-- Generator: Adobe Illustrator 20.1.0, SVG Export Plug-In . SVG Version: 6.00 Build 0)  -->
<svg version="1.1" id="Calque_1" xmlns="http://www.w3.org/2000/svg" xmlns:xlink="http://www.w3.org/1999/xlink" x="0px" y="0px"
	 viewBox="0 0 850.4 237.5" style="enable-background:new 0 0 850.4 237.5;" xml:space="preserve">
<style type="text/css">
	.st0{fill:#2846FA;}
	.st1{fill:#FFFFFF;}
	.st2{fill:none;stroke:#FFFFFF;stroke-width:1.1;stroke-linecap:round;stroke-linejoin:round;}
	.st3{clip-path:url(#SVGID_2_);fill:none;stroke:#FFFFFF;stroke-width:0.45;stroke-miterlimit:10;}
	.st4{clip-path:url(#SVGID_4_);fill:none;stroke:#FFFFFF;stroke-width:0.45;stroke-miterlimit:10;}
	.st5{clip-path:url(#SVGID_6_);fill:none;stroke:#FFFFFF;stroke-width:0.45;stroke-miterlimit:10;}
	.st6{clip-path:url(#SVGID_8_);fill:none;stroke:#FFFFFF;stroke-width:0.45;stroke-miterlimit:10;}
	.st7{clip-path:url(#SVGID_10_);fill:none;stroke:#FFFFFF;stroke-width:0.45;stroke-miterlimit:10;}
	.st8{clip-path:url(#SVGID_12_);fill:none;stroke:#FFFFFF;stroke-width:0.45;stroke-miterlimit:10;}
	.st9{clip-path:url(#SVGID_14_);fill:none;stroke:#FFFFFF;stroke-width:0.45;stroke-miterlimit:10;}
	.st10{clip-path:url(#SVGID_16_);fill:none;stroke:#FFFFFF;stroke-width:0.45;stroke-miterlimit:10;}
	.st11{clip-path:url(#SVGID_18_);fill:none;stroke:#FFFFFF;stroke-width:0.45;stroke-miterlimit:10;}
	.st12{clip-path:url(#SVGID_20_);fill:none;stroke:#FFFFFF;stroke-width:0.45;stroke-miterlimit:10;}
	.st13{clip-path:url(#SVGID_22_);fill:none;stroke:#FFFFFF;stroke-width:0.45;stroke-miterlimit:10;}
	.st14{clip-path:url(#SVGID_24_);fill:none;stroke:#FFFFFF;stroke-width:0.3;stroke-miterlimit:10;}
	.st15{clip-path:url(#SVGID_27_);fill:none;stroke:#FFFFFF;stroke-width:0.3;stroke-miterlimit:10;}
	.st16{clip-path:url(#SVGID_29_);fill:none;stroke:#FFFFFF;stroke-width:0.3;stroke-miterlimit:10;}
	.st17{clip-path:url(#SVGID_31_);fill:none;stroke:#FFFFFF;stroke-width:0.4;stroke-miterlimit:10;}
	.st18{clip-path:url(#SVGID_33_);fill:none;stroke:#FFFFFF;stroke-width:0.4;stroke-miterlimit:10;}
	.st19{clip-path:url(#SVGID_35_);fill:none;stroke:#FFFFFF;stroke-width:0.4;stroke-miterlimit:10;}
	.st20{clip-path:url(#SVGID_37_);fill:none;stroke:#FFFFFF;stroke-width:0.4;stroke-miterlimit:10;}
	.st21{clip-path:url(#SVGID_39_);fill:none;stroke:#FFFFFF;stroke-width:0.4;stroke-miterlimit:10;}
	.st22{clip-path:url(#SVGID_41_);fill:none;stroke:#FFFFFF;stroke-width:0.4;stroke-miterlimit:10;}
	.st23{clip-path:url(#SVGID_43_);fill:none;stroke:#FFFFFF;stroke-width:0.4;stroke-miterlimit:10;}
	.st24{clip-path:url(#SVGID_45_);fill:none;stroke:#FFFFFF;stroke-width:0.4;stroke-miterlimit:10;}
	.st25{clip-path:url(#SVGID_47_);fill:none;stroke:#FFFFFF;stroke-width:0.4;stroke-miterlimit:10;}
	.st26{clip-path:url(#SVGID_49_);fill:none;stroke:#FFFFFF;stroke-width:0.4;stroke-miterlimit:10;}
	.st27{clip-path:url(#SVGID_51_);fill:none;stroke:#FFFFFF;stroke-width:0.4;stroke-miterlimit:10;}
	.st28{clip-path:url(#SVGID_53_);fill:none;stroke:#FFFFFF;stroke-width:0.3;stroke-miterlimit:10;}
	.st29{clip-path:url(#SVGID_55_);fill:none;stroke:#FFFFFF;stroke-width:0.3;stroke-miterlimit:10;}
	.st30{clip-path:url(#SVGID_57_);fill:none;stroke:#FFFFFF;stroke-width:0.3;stroke-miterlimit:10;}
	.st31{clip-path:url(#SVGID_59_);fill:none;stroke:#FFFFFF;stroke-width:0.3;stroke-miterlimit:10;}
	.st32{clip-path:url(#SVGID_61_);fill:none;stroke:#FFFFFF;stroke-width:0.3;stroke-miterlimit:10;}
	.st33{fill:none;stroke:#FFFFFF;stroke-width:1.1;stroke-miterlimit:10;}
	.st34{fill:none;stroke:#FFFFFF;stroke-width:1.1;stroke-linecap:round;stroke-linejoin:round;stroke-miterlimit:10;}
</style>
<g>
	<path class="st0" d="M0,0v237.5h850.4V0H0z M811.3,98.3c-2.1,0-4.1-0.7-6-1.3c-1.1-0.3-2.1-0.7-3.1-0.9c-0.4,0.7-0.2,1.3,0.1,2
		c0.8,2,0.1,3.6-2,4.6c-1.6,0.8-3.7,0.7-4.8-1.2c-0.5-0.9-1.3-1.5-2.2-2l-0.3-0.2c-2.4-1.6-3.9-2.5-6,0.1c-0.9,1.1-2,1.7-3.3,1.7
		c-1.2,0-2.4-0.5-3.4-1.5c-0.1-0.1-0.3-0.3-0.6-0.4c-0.2-0.1-0.3-0.2-0.5-0.3c-3.9-2.7-5-2.7-8.8-0.1c-3,2-6.3,3.6-10.2,1.3
		c-2.3-1.3-4.7-0.5-7,0.2c-0.4,0.1-0.7,0.3-1.1,0.4c-4.5,1.4-8.3,0.5-12.4-2.8c-0.3-0.3-0.7-0.6-1-0.9c-1.9-1.6-3.7-3.1-6.3-3.2
		c-2.5,0-4,0.7-4.9,2.4c-0.8,1.4-1.9,2.6-3.7,3.7c-1.5,1-3,1.1-4.3,0.6c-2.5-1-4.8-0.7-7.9,1.3l-0.4,0.3c-1.4,0.9-2.8,1.8-4.3,2.5
		c-1.7,0.8-1.7,2.3-1.8,3.8c0,0.2,0,0.4,0,0.6c-0.3,4.9-2.7,8.8-7.5,12c-1.3,0.9-2.6,1.7-3.4,3c-1,1.6-1.3,2.5,0,4.1
		c0.8,1,1.2,2.1,1,3.3c-0.2,1.3-1.1,2.6-2.5,3.7c-1.3,0.9-1.6,1.6-1.3,2.9c0.5,1.9-0.4,3.8-2.3,4.6c-2.4,1.1-4,3-4.9,5.7
		c-1.2,3.3-3.3,4.4-4.8,4.6c-2.7,0.5-6-1-8.1-3.6c-2.8-3.5-7-4.9-11.1-6.3l-0.6-0.2c-1.1-0.4-2.1-0.3-2.9,0.1
		c-0.9,0.5-1.5,1.6-1.8,3c-0.2,0.8-0.3,1.9-0.4,3c-0.3,4.7-2.9,7.1-7.9,6.9c-4.2-0.1-7.6-0.5-10.7-1.2c-4.4-1-8.2,0.5-10.7,4.1
		c-1.5,2.1-3.3,3.8-5.1,5.5c-1.3,1.1-2.6,2.3-3.7,3.6c-1.2,1.4-2.7,1.8-4,1.2c-2.8-1.3-5.1-0.1-7.2,1.2c-4,2.5-4.7,2.7-8.6-0.2
		c-1.9-1.4-3.5-2.1-5.5-1.2c-1.3,0.6-2.4-0.2-3.4-0.9c-0.9-0.7-2.4-1.9-3.1-3.3c-2.6-5.3-7.6-6-12.4-6.7c-0.5-0.1-0.9-0.1-1.4-0.2
		c-1.7-0.3-3.1,0.2-4.1,1.3c-1.1,1.2-1.4,3-0.9,4.9c1.6,5.8,0.7,10.3-2.7,14c-2.9,3.2-4.8,6.8-6.7,11.2c-0.6,1.4-1.5,2.3-3.1,2.8
		c-2.6,1-4.4,2.6-5.8,5.2c-1.5,2.8-3.9,4.8-6.2,6.7c-0.9,0.8-1.9,1.6-2.8,2.4c-0.9,0.8-2,1.3-3.2,1.3c-0.2,0-0.3,0-0.5,0
		c-2-0.2-3.9-1.4-5.3-3.3c-4-5.4-8.8-7.3-15-6.1c-7.1,1.4-11.1-3.8-13.5-7.8c-4.3-7.2-10.6-12-17.8-17c-0.9-0.6-1.8-1.3-2.7-1.9
		c-3.2-2.4-6.6-4.9-10.8-5.9c-7.9-2-14.5-3.1-21.2,1.7c-2.2,1.6-5,2.4-7.7,3.2l-0.6,0.2c-3.2,1-6.5,0.5-9.7-1.4
		c-3.6-2.2-7.6-4.5-11.5-6.6c-4.4-2.3-8.7-2.4-12.1-0.2c-4.4,2.8-6.1,7.5-4.9,13.2c0.4,2,0.9,4.3,0.3,6.8c-0.8,3.4-1.8,4-5.3,3.2
		c-2.3-0.5-4.4-1.5-6.5-2.4c-1.8-0.8-3.6-1.6-5.6-2.1c-1.9-0.5-3.8-0.7-5.6-0.6c-7.1,0.5-13.3,2.9-20.7,6c-0.9,0.4-1.8,0.8-2.7,1.2
		c-4.3,1.9-8.8,3.8-13.5,5c-2.4,0.6-4.8,1.5-7.2,2.3c-2.5,0.9-5,1.8-7.7,2.5c-1.5,0.3-3,0.7-4.5,1.1c-7.7,1.8-15.7,3.7-23.9,4.5
		c-1.3,0.1-2.5,0.3-3.8,0.4c-4.3,0.5-8.8,1-13.2,0c-13.2-3.2-27.3-6.8-40.9-12.1l-0.6-0.3c-7.4-2.9-15-5.8-22.8-7.8
		c-1.4-0.4-2.7-0.7-4.1-1c-3.6-0.9-7.2-1.8-10.7-3c-5.4-1.9-10.7-4.6-15.8-7.1c-10.7-5.4-18.4-13.8-26.7-23.4
		c-3.1-3.6-4-6.7-3.2-10.8c0.7-3.5-1-5.4-4.2-7.4c-1-0.7-2.1-1.3-3.1-2c-5.3-3.4-10.8-6.9-15.7-11.2c-1.1-1-2.3-1.7-3.5-2.5
		c-0.7-0.4-1.4-0.9-2.1-1.4c-5.7-4-12.4-8.6-19.6-12c-1-0.5-1.8-0.8-2.8-0.5c-6.1,1.9-11.6,0.3-17.7-1.9C83,97.2,78.2,94.9,74,91.9
		c-4.3-3-7.9-5-11.4-6.6c-1.6-0.7-3.6-1.3-5.7-0.6c-2.4,0.9-5,1.2-7.4,1.5c-1.7,0.2-3.4,0.4-5,0.8c-2,0.5-3.9-0.3-5.6-2.3
		c-0.2-0.2-0.1-0.5,0.1-0.7s0.5-0.1,0.7,0.1c1.4,1.7,3,2.3,4.6,2c1.7-0.4,3.4-0.6,5.1-0.8c2.4-0.3,4.9-0.6,7.2-1.4
		c2.5-0.9,4.8-0.2,6.5,0.6c3.6,1.5,7.3,3.7,11.6,6.7c4.2,2.9,8.9,5.3,14.2,7.1c5.9,2.1,11.3,3.6,17.1,1.8c1.3-0.4,2.3,0,3.5,0.6
		c7.3,3.4,14,8,19.8,12.1c0.7,0.5,1.4,0.9,2.1,1.3c1.2,0.8,2.5,1.6,3.7,2.6c4.8,4.2,10.3,7.7,15.5,11.1c1,0.7,2.1,1.3,3.1,2
		c3.5,2.2,5.4,4.4,4.6,8.5c-0.8,3.8,0.1,6.5,3,9.9c8.2,9.5,15.8,17.9,26.4,23.1c5.1,2.5,10.3,5.2,15.7,7.1c3.4,1.2,7.1,2.1,10.6,3
		c1.4,0.3,2.7,0.7,4.1,1c7.8,2,15.5,5,22.9,7.9l0.7,0.3c13.6,5.3,27.6,8.8,40.8,12c4.2,1,8.6,0.5,12.8,0c1.3-0.1,2.5-0.3,3.8-0.4
		c8.1-0.7,16-2.6,23.7-4.4c1.5-0.4,3-0.7,4.5-1.1c2.6-0.6,5.1-1.5,7.6-2.4c2.4-0.9,4.8-1.8,7.3-2.4c4.7-1.1,9.1-3.1,13.4-4.9
		c0.9-0.4,1.8-0.8,2.7-1.2c7.2-3.1,13.8-5.7,21-6.1c2-0.1,3.9,0.1,6,0.6c2,0.5,3.9,1.4,5.7,2.2c2,0.9,4.1,1.8,6.3,2.3
		c3,0.7,3.4,0.4,4.1-2.4c0.6-2.3,0.2-4.5-0.3-6.4c-1.3-6.1,0.5-11.1,5.3-14.2c3.7-2.4,8.3-2.3,13.1,0.2c4,2.1,7.9,4.4,11.6,6.6
		c2.9,1.8,5.9,2.2,8.9,1.3l0.6-0.2c2.6-0.8,5.3-1.6,7.4-3c7-5,14.1-3.8,22-1.9c4.4,1.1,7.9,3.6,11.2,6.1c0.9,0.7,1.8,1.3,2.6,1.9
		c7.3,5.1,13.7,9.9,18.1,17.3c2.4,4.1,6,8.6,12.4,7.3c6.7-1.3,11.8,0.7,16,6.5c1.2,1.7,3,2.7,4.6,2.9c1.1,0.1,2.2-0.2,2.9-1
		c0.9-0.9,1.9-1.7,2.9-2.5c2.2-1.9,4.5-3.8,5.9-6.4c1.5-2.8,3.5-4.6,6.3-5.7c1.3-0.5,2-1.1,2.5-2.3c1.7-3.9,3.7-8.1,6.9-11.5
		c3.1-3.4,3.9-7.6,2.5-13c-0.6-2.2-0.2-4.3,1.1-5.8c1.2-1.4,3-2,5-1.7c0.4,0.1,0.9,0.1,1.3,0.2c5.1,0.7,10.3,1.5,13.2,7.2
		c0.4,0.9,1.4,2,2.7,2.9c1.1,0.8,1.7,1.2,2.4,0.8c2.7-1.2,4.8,0.1,6.5,1.3c3.5,2.6,3.6,2.5,7.5,0.1c2.3-1.4,5-2.8,8.2-1.3
		c0.9,0.4,1.9,0.1,2.8-0.9c1.2-1.3,2.5-2.5,3.8-3.7c1.8-1.6,3.6-3.3,5-5.3c2.7-4,6.9-5.6,11.8-4.5c3,0.7,6.3,1,10.5,1.2
		c4.4,0.1,6.6-1.8,6.9-6c0.1-1.1,0.3-2.2,0.4-3.1c0.3-1.7,1.1-3,2.3-3.7c1-0.6,2.3-0.7,3.7-0.2l0.6,0.2c4.2,1.4,8.5,2.9,11.6,6.6
		c1.9,2.3,4.8,3.7,7.2,3.3c1.9-0.3,3.3-1.7,4.1-4c1-3,2.8-5,5.5-6.3c1.1-0.5,2.2-1.7,1.7-3.5c-0.5-1.9,0.3-2.9,1.7-3.9
		c1.2-0.9,2-1.9,2.1-3c0.1-0.9-0.2-1.7-0.8-2.5c-1.8-2.2-1.1-3.7-0.1-5.3c0.9-1.5,2.3-2.4,3.7-3.3c4.6-3.1,6.9-6.6,7.1-11.3
		c0-0.2,0-0.4,0-0.6c0.1-1.6,0.1-3.7,2.3-4.7c1.4-0.7,2.8-1.6,4.2-2.4l0.4-0.3c2.2-1.4,5.2-2.9,8.8-1.4c1,0.4,2.2,0.3,3.4-0.5
		c1.6-1,2.6-2,3.3-3.3c1.4-2.7,4-2.9,5.8-2.9c3,0.1,5,1.8,6.9,3.4c0.3,0.3,0.7,0.6,1,0.9c3.8,3.1,7.3,3.9,11.5,2.6
		c0.3-0.1,0.7-0.2,1.1-0.4c2.3-0.8,5.1-1.7,7.8-0.1c3.3,1.9,6,0.9,9.1-1.3c4.1-2.8,5.7-2.8,9.9,0.1c0.1,0.1,0.3,0.2,0.4,0.2
		c0.3,0.1,0.6,0.3,0.8,0.6c0.8,0.8,1.7,1.3,2.6,1.2c0.9,0,1.8-0.5,2.5-1.4c2.8-3.3,5.2-1.7,7.4-0.2l0.3,0.2c0.9,0.6,1.8,1.2,2.5,2.3
		c0.8,1.4,2.4,1.3,3.5,0.8c1.6-0.8,2.1-1.9,1.5-3.4c-0.3-0.8-0.8-2,0.2-3.3c0.1-0.2,0.3-0.2,0.5-0.2c1.2,0.2,2.4,0.6,3.5,1
		c1.9,0.6,3.8,1.2,5.7,1.2c0.3,0,0.5,0.2,0.5,0.5C811.8,98.1,811.5,98.2,811.3,98.3z"/>
	<g>
		<path class="st1" d="M48.8,73.5C48.8,73.5,48.8,73.5,48.8,73.5l1.3-3.4c0-0.1,0.1-0.2,0.2-0.2H51c0.1,0,0.2,0.1,0.2,0.3l-1.8,4.7
			v2.4c0,0.1-0.1,0.2-0.2,0.2h-0.6c-0.1,0-0.2-0.1-0.2-0.2V75l-1.9-4.8c-0.1-0.2,0-0.3,0.2-0.3h0.7c0.1,0,0.2,0,0.2,0.2L48.8,73.5z"
			/>
		<path class="st1" d="M55.3,72.3c0-0.1,0.1-0.2,0.2-0.2h0.7c0.2,0,0.3,0.1,0.2,0.3l-1.9,5.1c0,0.1-0.1,0.2-0.2,0.2h-0.6
			c-0.1,0-0.2-0.1-0.2-0.2l-1.9-5.1c0-0.1,0-0.3,0.2-0.3h0.7c0.1,0,0.2,0,0.2,0.2l1.3,3.7c0,0.1,0.1,0.1,0.2,0L55.3,72.3z"/>
		<path class="st1" d="M58.1,75.2c-0.1,0-0.1,0-0.1,0.1c0,1,0.5,1.4,1.3,1.4c0.6,0,1-0.3,1.1-0.7c0-0.1,0.2-0.2,0.3-0.2h0.6
			c0.1,0,0.2,0.1,0.2,0.2c-0.1,1-1,1.6-2.1,1.6c-1.3,0-2.2-0.9-2.3-2.1c0-0.4,0-1.1,0-1.5c0.1-1.2,0.9-2.1,2.3-2.1
			c1.3,0,2.2,0.8,2.2,2.2v0.8c0,0.1-0.1,0.2-0.2,0.2L58.1,75.2L58.1,75.2z M58,74.2c0,0.1,0,0.1,0.1,0.1h2.3c0.1,0,0.1,0,0.1-0.1
			c0-0.8-0.6-1.2-1.2-1.2C58.5,73,58,73.5,58,74.2z"/>
		<path class="st1" d="M65.2,73.1c-0.9,0-1.6,0.5-1.6,1.7v2.6c0,0.1-0.1,0.2-0.2,0.2h-0.6c-0.1,0-0.2-0.1-0.2-0.2v-5.1
			c0-0.1,0.1-0.2,0.2-0.2h0.4c0.1,0,0.2,0.1,0.2,0.2c0,0.1,0,0.4,0.2,0.4c0.3,0,0.5-0.6,1.6-0.6h0.2c0.1,0,0.2,0.1,0.2,0.2v0.5
			c0,0.1-0.1,0.2-0.2,0.2L65.2,73.1L65.2,73.1z"/>
		<path class="st1" d="M66.2,75.6c0-0.4,0-1.1,0-1.5c0.1-1.2,0.9-2.1,2.1-2.1c0.5,0,0.8,0.3,1,0.3c0.2,0,0.2-0.1,0.2-0.3V70
			c0-0.1,0.1-0.2,0.2-0.2h0.6c0.1,0,0.2,0.1,0.2,0.2v7.3c0,0.1-0.1,0.2-0.2,0.2H70c-0.1,0-0.1,0-0.2-0.1c-0.1-0.1-0.2-0.2-0.3-0.2
			c-0.3,0-0.4,0.4-1.2,0.4C67.1,77.7,66.3,76.8,66.2,75.6z M67.1,75.6c0,0.6,0.5,1.1,1.3,1.1c0.8,0,1.2-0.5,1.3-1.1
			c0-0.5,0-1.1,0-1.5c0-0.6-0.5-1.1-1.3-1.1c-0.8,0-1.2,0.5-1.3,1.1C67.1,74.5,67.1,75.2,67.1,75.6z"/>
		<path class="st1" d="M71.8,74.1c0.1-1.2,0.9-2.1,2.3-2.1s2.2,0.9,2.3,2.1c0,0.4,0,1.1,0,1.5c-0.1,1.2-0.9,2.1-2.3,2.1
			c-1.3,0-2.2-0.9-2.3-2.1C71.7,75.2,71.7,74.5,71.8,74.1z M72.7,75.6c0,0.6,0.5,1.1,1.3,1.1s1.2-0.5,1.3-1.1c0-0.5,0-1.1,0-1.5
			c0-0.6-0.5-1.1-1.3-1.1s-1.2,0.5-1.3,1.1C72.7,74.5,72.7,75.2,72.7,75.6z"/>
		<path class="st1" d="M81.8,77.4c0,0.1-0.1,0.2-0.2,0.2H81c-0.1,0-0.2-0.1-0.2-0.2v-3.3c0-0.7-0.5-1.1-1.2-1.1
			c-0.7,0-1.2,0.4-1.2,1v3.4c0,0.1-0.1,0.2-0.2,0.2h-0.6c-0.1,0-0.2-0.1-0.2-0.2v-5.1c0-0.1,0.1-0.2,0.2-0.2h0.5
			c0.1,0,0.1,0,0.2,0.1c0.1,0.1,0.2,0.2,0.3,0.2c0.3,0,0.4-0.4,1.2-0.4c1.2,0,2.1,0.8,2.1,2.1L81.8,77.4L81.8,77.4z"/>
		<path class="st1" d="M86.4,74.1c0.1,0,0.2,0.1,0.2,0.2V75c0,0.1-0.1,0.2-0.2,0.2h-3c-0.1,0-0.2-0.1-0.2-0.2v-0.7
			c0-0.1,0.1-0.2,0.2-0.2H86.4z"/>
		<path class="st1" d="M89.1,77.4c0,0.1-0.1,0.2-0.2,0.2h-0.6c-0.1,0-0.2-0.1-0.2-0.2V70c0-0.1,0.1-0.2,0.2-0.2h0.6
			c0.1,0,0.2,0.1,0.2,0.2V77.4z"/>
		<path class="st1" d="M91.4,75.2c-0.1,0-0.1,0-0.1,0.1c0,1,0.5,1.4,1.3,1.4c0.6,0,1-0.3,1.1-0.7c0-0.1,0.2-0.2,0.3-0.2h0.6
			c0.1,0,0.2,0.1,0.2,0.2c-0.1,1-1,1.6-2.1,1.6c-1.3,0-2.2-0.9-2.3-2.1c0-0.4,0-1.1,0-1.5c0.1-1.2,0.9-2.1,2.3-2.1
			c1.3,0,2.2,0.8,2.2,2.2v0.8c0,0.1-0.1,0.2-0.2,0.2L91.4,75.2L91.4,75.2z M91.3,74.2c0,0.1,0,0.1,0.1,0.1h2.3c0.1,0,0.1,0,0.1-0.1
			c0-0.8-0.6-1.2-1.2-1.2C91.8,73,91.3,73.5,91.3,74.2z"/>
		<path class="st1" d="M99.6,73.9H99c-0.1,0-0.2-0.1-0.2-0.2c0-0.4-0.3-0.7-1-0.7c-0.7,0-1,0.3-1,0.7c0,0.4,0.4,0.6,1,0.7
			c0.9,0.2,2.2,0.4,2.2,1.7c0,1.2-1,1.8-2.2,1.8c-1.1,0-2.2-0.6-2.2-1.8v-0.1c0-0.1,0.1-0.2,0.2-0.2h0.6c0.1,0,0.2,0.1,0.2,0.2v0.1
			c0,0.7,0.7,0.8,1.2,0.8c0.6,0,1.2-0.2,1.2-0.8c0-0.5-0.5-0.6-1.2-0.7c-0.9-0.2-2-0.4-2-1.7c0-1,1-1.6,2-1.6c1,0,2,0.6,2,1.6
			C99.8,73.8,99.7,73.9,99.6,73.9z"/>
		<path class="st1" d="M104.3,74.1c0.1,0,0.2,0.1,0.2,0.2V75c0,0.1-0.1,0.2-0.2,0.2h-3c-0.1,0-0.2-0.1-0.2-0.2v-0.7
			c0-0.1,0.1-0.2,0.2-0.2H104.3z"/>
		<path class="st1" d="M110.4,71.9c0,0.5-0.2,1.1-0.6,1.5c-0.1,0.1-0.1,0.2,0,0.2c0.5,0.4,0.8,1.1,0.8,1.7c0,1.3-1,2.2-2.3,2.2h-2
			c-0.1,0-0.2-0.1-0.2-0.2v-7.3c0-0.1,0.1-0.2,0.2-0.2h2C109.4,69.9,110.4,70.8,110.4,71.9z M108.2,73.1c0.7,0,1.1-0.5,1.1-1.1
			c0-0.6-0.5-1-1.1-1h-1.1c-0.1,0-0.1,0-0.1,0.1V73c0,0.1,0,0.1,0.1,0.1L108.2,73.1L108.2,73.1z M107.1,74.1c-0.1,0-0.1,0-0.1,0.1
			v2.3c0,0.1,0,0.1,0.1,0.1h1.1c0.7,0,1.3-0.5,1.3-1.2c0-0.8-0.6-1.3-1.3-1.3L107.1,74.1L107.1,74.1z"/>
		<path class="st1" d="M112.5,73.6c0,0.2-0.2,0.2-0.3,0.2h-0.5c-0.2,0-0.2-0.1-0.2-0.2c0-1,1.1-1.5,2-1.5c1.2,0,2,0.5,2,1.8v3.6
			c0,0.1-0.1,0.2-0.2,0.2H115c-0.1,0-0.1,0-0.2-0.1c-0.1-0.1-0.1-0.2-0.2-0.2c-0.2,0-0.5,0.4-1.3,0.4c-1.4,0-2-0.8-2-1.8
			c0-0.9,0.7-1.7,1.8-1.7h1.3c0.1,0,0.1,0,0.1-0.1v-0.4c0-0.6-0.4-0.9-1-0.9C113.2,72.9,112.5,73,112.5,73.6z M113.1,75.2
			c-0.6,0-0.8,0.3-0.8,0.8c0,0.5,0.3,0.9,1,0.9c1,0,1.4-0.4,1.4-1.2v-0.4c0-0.1,0-0.1-0.1-0.1C114.5,75.2,113.1,75.2,113.1,75.2z"/>
		<path class="st1" d="M118,70.8c0,0.1-0.1,0.2-0.2,0.2h-0.7c-0.1,0-0.2-0.1-0.2-0.2V70c0-0.1,0.1-0.2,0.2-0.2h0.7
			c0.1,0,0.2,0.1,0.2,0.2V70.8z M118,77.4c0,0.1-0.1,0.2-0.2,0.2h-0.6c-0.1,0-0.2-0.1-0.2-0.2v-5.1c0-0.1,0.1-0.2,0.2-0.2h0.6
			c0.1,0,0.2,0.1,0.2,0.2V77.4z"/>
		<path class="st1" d="M123.8,77.4c0,0.1-0.1,0.2-0.2,0.2H123c-0.1,0-0.2-0.1-0.2-0.2v-3.3c0-0.7-0.5-1.1-1.2-1.1
			c-0.7,0-1.2,0.4-1.2,1v3.4c0,0.1-0.1,0.2-0.2,0.2h-0.6c-0.1,0-0.2-0.1-0.2-0.2v-5.1c0-0.1,0.1-0.2,0.2-0.2h0.5
			c0.1,0,0.1,0,0.2,0.1c0.1,0.1,0.2,0.2,0.3,0.2c0.3,0,0.4-0.4,1.2-0.4c1.2,0,2.1,0.8,2.1,2.1L123.8,77.4L123.8,77.4z"/>
		<path class="st1" d="M128.7,73.9h-0.6c-0.1,0-0.2-0.1-0.2-0.2c0-0.4-0.3-0.7-1-0.7c-0.7,0-1,0.3-1,0.7c0,0.4,0.4,0.6,1,0.7
			c0.9,0.2,2.2,0.4,2.2,1.7c0,1.2-1,1.8-2.2,1.8c-1.1,0-2.2-0.6-2.2-1.8v-0.1c0-0.1,0.1-0.2,0.2-0.2h0.6c0.1,0,0.2,0.1,0.2,0.2v0.1
			c0,0.7,0.7,0.8,1.2,0.8c0.6,0,1.2-0.2,1.2-0.8c0-0.5-0.5-0.6-1.2-0.7c-0.9-0.2-2-0.4-2-1.7c0-1,1-1.6,2-1.6c1,0,2,0.6,2,1.6
			C128.9,73.8,128.8,73.9,128.7,73.9z"/>
	</g>
	<g>
		<path class="st1" d="M123.7,160.2c0,0.1,0,0.1,0.1,0.1h2.6c0.1,0,0.2,0.1,0.2,0.2v0.6c0,0.1-0.1,0.2-0.2,0.2h-3.6
			c-0.1,0-0.2-0.1-0.2-0.2v-7.3c0-0.1,0.1-0.2,0.2-0.2h3.6c0.1,0,0.2,0.1,0.2,0.2v0.6c0,0.1-0.1,0.2-0.2,0.2h-2.6
			c-0.1,0-0.1,0-0.1,0.1v2c0,0.1,0,0.1,0.1,0.1h2.5c0.1,0,0.2,0.1,0.2,0.2v0.6c0,0.1-0.1,0.2-0.2,0.2h-2.5c-0.1,0-0.1,0-0.1,0.1
			L123.7,160.2L123.7,160.2L123.7,160.2z"/>
		<path class="st1" d="M132.2,157.8c0,0.4,0,1.1,0,1.5c-0.1,1.2-0.9,2.1-2.1,2.1c-0.5,0-0.8-0.3-1-0.3c-0.2,0-0.2,0.1-0.2,0.3v1.9
			c0,0.1-0.1,0.2-0.2,0.2H128c-0.1,0-0.2-0.1-0.2-0.2V156c0-0.1,0.1-0.2,0.2-0.2h0.4c0.1,0,0.1,0,0.2,0.1c0.1,0.1,0.2,0.2,0.3,0.2
			c0.3,0,0.4-0.4,1.2-0.4C131.2,155.7,132.1,156.6,132.2,157.8z M131.2,157.8c0-0.6-0.5-1.1-1.3-1.1c-0.8,0-1.2,0.5-1.3,1.1
			c0,0.5,0,1.1,0,1.5c0,0.6,0.5,1.1,1.3,1.1c0.8,0,1.2-0.5,1.3-1.1C131.3,158.9,131.3,158.3,131.2,157.8z"/>
		<path class="st1" d="M134.2,158.9c-0.1,0-0.1,0-0.1,0.1c0,1,0.5,1.4,1.3,1.4c0.6,0,1-0.3,1.1-0.7c0-0.1,0.2-0.2,0.3-0.2h0.6
			c0.1,0,0.2,0.1,0.2,0.2c-0.1,1-1,1.6-2.1,1.6c-1.3,0-2.2-0.9-2.3-2.1c0-0.4,0-1.1,0-1.5c0.1-1.2,0.9-2.1,2.3-2.1
			c1.3,0,2.2,0.8,2.2,2.2v0.8c0,0.1-0.1,0.2-0.2,0.2L134.2,158.9L134.2,158.9L134.2,158.9z M134.2,157.9c0,0.1,0,0.1,0.1,0.1h2.3
			c0.1,0,0.1,0,0.1-0.1c0-0.8-0.6-1.2-1.2-1.2C134.7,156.7,134.2,157.2,134.2,157.9z"/>
		<path class="st1" d="M143.1,161.1c0,0.1-0.1,0.2-0.2,0.2h-0.5c-0.1,0-0.2-0.1-0.2-0.2v-3.3c0-0.7-0.5-1.1-1.2-1.1
			c-0.7,0-1.2,0.4-1.2,1v3.4c0,0.1-0.1,0.2-0.2,0.2H139c-0.1,0-0.2-0.1-0.2-0.2V156c0-0.1,0.1-0.2,0.2-0.2h0.5c0.1,0,0.1,0,0.2,0.1
			c0.1,0.1,0.2,0.2,0.3,0.2c0.3,0,0.4-0.4,1.2-0.4c1.2,0,2.1,0.8,2.1,2.1L143.1,161.1L143.1,161.1z"/>
		<path class="st1" d="M144.2,159.3c0-0.4,0-1.1,0-1.5c0.1-1.2,0.9-2.1,2.1-2.1c0.5,0,0.8,0.3,1,0.3c0.2,0,0.2-0.1,0.2-0.3v-1.9
			c0-0.1,0.1-0.2,0.2-0.2h0.5c0.1,0,0.2,0.1,0.2,0.2v7.3c0,0.1-0.1,0.2-0.2,0.2H148c-0.1,0-0.1,0-0.2-0.1c-0.1-0.1-0.2-0.2-0.3-0.2
			c-0.3,0-0.4,0.4-1.2,0.4C145.2,161.4,144.3,160.5,144.2,159.3z M145.2,159.3c0,0.6,0.5,1.1,1.3,1.1s1.2-0.5,1.3-1.1
			c0-0.5,0-1.1,0-1.5c0-0.6-0.5-1.1-1.3-1.1s-1.2,0.5-1.3,1.1C145.1,158.3,145.1,158.9,145.2,159.3z"/>
		<path class="st1" d="M150.9,158.9c-0.1,0-0.1,0-0.1,0.1c0,1,0.5,1.4,1.3,1.4c0.6,0,1-0.3,1.1-0.7c0-0.1,0.2-0.2,0.3-0.2h0.6
			c0.1,0,0.2,0.1,0.2,0.2c-0.1,1-1,1.6-2.1,1.6c-1.3,0-2.2-0.9-2.3-2.1c0-0.4,0-1.1,0-1.5c0.1-1.2,0.9-2.1,2.3-2.1
			c1.3,0,2.2,0.8,2.2,2.2v0.8c0,0.1-0.1,0.2-0.2,0.2L150.9,158.9L150.9,158.9z M150.8,157.9c0,0.1,0,0.1,0.1,0.1h2.3
			c0.1,0,0.1,0,0.1-0.1c0-0.8-0.6-1.2-1.2-1.2C151.3,156.7,150.8,157.2,150.8,157.9z"/>
		<path class="st1" d="M159,157.6h-0.5c-0.1,0-0.2-0.1-0.2-0.2c0-0.4-0.3-0.7-1-0.7c-0.7,0-1,0.3-1,0.7c0,0.4,0.4,0.6,1,0.7
			c0.9,0.2,2.2,0.4,2.2,1.7c0,1.2-1,1.8-2.2,1.8c-1.1,0-2.2-0.5-2.2-1.8v-0.1c0-0.1,0.1-0.2,0.2-0.2h0.5c0.1,0,0.2,0.1,0.2,0.2v0.1
			c0,0.7,0.7,0.8,1.2,0.8c0.6,0,1.2-0.2,1.2-0.8c0-0.5-0.5-0.6-1.2-0.7c-0.9-0.2-2-0.4-2-1.7c0-1,1-1.6,2-1.6c1,0,2,0.6,2,1.6
			C159.3,157.5,159.2,157.6,159,157.6z"/>
	</g>
	<g>
		<path class="st1" d="M233.3,65.3c-0.1,0-0.2,0-0.2-0.2l-2.2-5.4c0,0-0.1,0-0.1,0v5.4c0,0.1-0.1,0.2-0.2,0.2h-0.6
			c-0.1,0-0.2-0.1-0.2-0.2v-7.3c0-0.1,0.1-0.2,0.2-0.2h0.9c0.1,0,0.2,0,0.2,0.2l2.2,5.4c0,0,0.1,0,0.1,0v-5.4c0-0.1,0.1-0.2,0.2-0.2
			h0.6c0.1,0,0.2,0.1,0.2,0.2v7.3c0,0.1-0.1,0.2-0.2,0.2L233.3,65.3L233.3,65.3L233.3,65.3z"/>
	</g>
	<g>
		<path class="st1" d="M265.2,189.5c0,1.2-1,2.3-2.5,2.3c-1.3,0-2.3-0.9-2.5-2.3c-0.1-0.9-0.1-2.4,0-3.3c0.1-1.2,1-2.3,2.5-2.3
			c1.3,0,2.5,0.9,2.5,2.3v0.2c0,0.1-0.1,0.2-0.2,0.2h-0.6c-0.1,0-0.2-0.1-0.2-0.2v-0.2c0-0.7-0.6-1.2-1.4-1.2
			c-0.7,0-1.3,0.4-1.4,1.2c-0.1,0.9-0.1,2.4,0,3.3c0.1,0.6,0.6,1.2,1.4,1.2c0.7,0,1.4-0.4,1.4-1.2v-0.2c0-0.1,0.1-0.2,0.2-0.2h0.6
			c0.1,0,0.2,0.1,0.2,0.2V189.5z"/>
		<path class="st1" d="M269.7,188.2c0-0.6-0.5-1.1-1.2-1.1s-1.2,0.5-1.2,1v3.4c0,0.1-0.1,0.2-0.2,0.2h-0.6c-0.1,0-0.2-0.1-0.2-0.2
			v-7.3c0-0.1,0.1-0.2,0.2-0.2h0.6c0.1,0,0.2,0.1,0.2,0.2v2c0,0.1,0.1,0.2,0.2,0.2c0.2,0,0.5-0.3,1-0.3c1.2,0,2.1,0.9,2.1,2.1v3.3
			c0,0.1-0.1,0.2-0.2,0.2h-0.5c-0.1,0-0.2-0.1-0.2-0.2L269.7,188.2L269.7,188.2L269.7,188.2z"/>
		<path class="st1" d="M273,187.6c0,0.2-0.2,0.2-0.3,0.2h-0.5c-0.2,0-0.2-0.1-0.2-0.2c0-1,1.1-1.5,2-1.5c1.2,0,2,0.5,2,1.8v3.6
			c0,0.1-0.1,0.2-0.2,0.2h-0.4c-0.1,0-0.1,0-0.2-0.1c-0.1-0.1-0.1-0.2-0.2-0.2c-0.2,0-0.5,0.4-1.3,0.4c-1.4,0-2-0.8-2-1.8
			c0-0.9,0.7-1.7,1.8-1.7h1.3c0.1,0,0.1,0,0.1-0.1v-0.4c0-0.6-0.4-0.9-1-0.9C273.6,186.9,273,187.1,273,187.6z M273.6,189.3
			c-0.6,0-0.8,0.3-0.8,0.8c0,0.5,0.3,0.9,1,0.9c1,0,1.4-0.4,1.4-1.2v-0.4c0-0.1,0-0.1-0.1-0.1H273.6L273.6,189.3z"/>
		<path class="st1" d="M280.6,186.3c0-0.1,0.1-0.2,0.2-0.2h0.7c0.2,0,0.3,0.1,0.2,0.3l-1.9,5.1c0,0.1-0.1,0.2-0.2,0.2h-0.6
			c-0.1,0-0.2-0.1-0.2-0.2l-1.9-5.1c0-0.1,0-0.3,0.2-0.3h0.7c0.1,0,0.2,0,0.2,0.2l1.3,3.7c0,0.1,0.1,0.1,0.2,0L280.6,186.3z"/>
		<path class="st1" d="M282.3,188.2c0.1-1.2,0.9-2.1,2.3-2.1s2.2,0.9,2.3,2.1c0,0.4,0,1.1,0,1.5c-0.1,1.2-0.9,2.1-2.3,2.1
			s-2.2-0.9-2.3-2.1C282.3,189.3,282.3,188.6,282.3,188.2z M283.3,189.7c0,0.6,0.5,1.1,1.3,1.1c0.8,0,1.2-0.5,1.3-1.1
			c0-0.5,0-1.1,0-1.5c0-0.6-0.5-1.1-1.3-1.1c-0.8,0-1.2,0.5-1.3,1.1C283.2,188.6,283.2,189.2,283.3,189.7z"/>
		<path class="st1" d="M290.6,187.1c-0.9,0-1.6,0.5-1.6,1.7v2.6c0,0.1-0.1,0.2-0.2,0.2h-0.5c-0.1,0-0.2-0.1-0.2-0.2v-5.1
			c0-0.1,0.1-0.2,0.2-0.2h0.4c0.1,0,0.2,0.1,0.2,0.2c0,0.1,0,0.4,0.2,0.4c0.3,0,0.5-0.6,1.6-0.6h0.2c0.1,0,0.2,0.1,0.2,0.2v0.5
			c0,0.1-0.1,0.2-0.2,0.2L290.6,187.1L290.6,187.1z"/>
		<path class="st1" d="M296.2,191.5c0,0.1-0.1,0.2-0.2,0.2h-0.5c-0.1,0-0.2-0.1-0.2-0.2v-3.3c0-0.7-0.5-1.1-1.2-1.1
			c-0.7,0-1.2,0.4-1.2,1v3.4c0,0.1-0.1,0.2-0.2,0.2H292c-0.1,0-0.2-0.1-0.2-0.2v-5.1c0-0.1,0.1-0.2,0.2-0.2h0.5c0.1,0,0.1,0,0.2,0.1
			c0.1,0.1,0.2,0.2,0.3,0.2c0.3,0,0.4-0.4,1.2-0.4c1.2,0,2.1,0.8,2.1,2.1L296.2,191.5L296.2,191.5z"/>
		<path class="st1" d="M298.5,187.6c0,0.2-0.2,0.2-0.3,0.2h-0.5c-0.2,0-0.2-0.1-0.2-0.2c0-1,1.1-1.5,2-1.5c1.2,0,2,0.5,2,1.8v3.6
			c0,0.1-0.1,0.2-0.2,0.2h-0.4c-0.1,0-0.1,0-0.2-0.1c-0.1-0.1-0.1-0.2-0.2-0.2c-0.2,0-0.5,0.4-1.3,0.4c-1.4,0-2-0.8-2-1.8
			c0-0.9,0.7-1.7,1.8-1.7h1.3c0.1,0,0.1,0,0.1-0.1v-0.4c0-0.6-0.4-0.9-1-0.9C299.1,186.9,298.5,187.1,298.5,187.6z M299,189.3
			c-0.6,0-0.8,0.3-0.8,0.8c0,0.5,0.3,0.9,1,0.9c1,0,1.4-0.4,1.4-1.2v-0.4c0-0.1,0-0.1-0.1-0.1H299L299,189.3z"/>
		<path class="st1" d="M304.6,189.9C304.7,190,304.7,190,304.6,189.9l1.4-3.6c0-0.1,0.1-0.2,0.2-0.2h0.6c0.2,0,0.3,0.1,0.2,0.3
			l-2.8,7.3c0,0.1-0.1,0.2-0.2,0.2h-0.6c-0.2,0-0.3-0.1-0.2-0.3l0.8-2.2c0-0.1,0-0.1,0-0.1l-1.9-4.8c0-0.1,0-0.3,0.2-0.3h0.7
			c0.1,0,0.2,0,0.2,0.2L304.6,189.9z"/>
	</g>
	<g>
		<path class="st1" d="M475.7,154.1c1.3,0,2.2,1,2.3,2.3c0.1,0.9,0.1,2.2,0,3.1c-0.1,1.3-1,2.3-2.3,2.3h-2.1c-0.1,0-0.2-0.1-0.2-0.2
			v-7.3c0-0.1,0.1-0.2,0.2-0.2H475.7L475.7,154.1z M474.6,155.2c-0.1,0-0.1,0-0.1,0.1v5.4c0,0.1,0,0.1,0.1,0.1h1.2
			c0.7,0,1.2-0.6,1.3-1.3c0.1-0.9,0.1-2.2,0-3.1c-0.1-0.7-0.6-1.3-1.3-1.3L474.6,155.2L474.6,155.2z"/>
		<path class="st1" d="M480.3,157.8c0,0.2-0.2,0.2-0.3,0.2h-0.5c-0.2,0-0.2-0.1-0.2-0.2c0-1,1.1-1.5,2-1.5c1.2,0,2,0.5,2,1.8v3.6
			c0,0.1-0.1,0.2-0.2,0.2h-0.4c-0.1,0-0.1,0-0.2-0.1c-0.1-0.1-0.1-0.2-0.2-0.2c-0.2,0-0.5,0.4-1.3,0.4c-1.4,0-2-0.8-2-1.8
			c0-0.9,0.7-1.7,1.8-1.7h1.3c0.1,0,0.1,0,0.1-0.1V158c0-0.6-0.4-0.9-1-0.9C481,157.1,480.3,157.2,480.3,157.8z M480.9,159.4
			c-0.6,0-0.8,0.3-0.8,0.8c0,0.5,0.3,0.9,1,0.9c1,0,1.4-0.4,1.4-1.2v-0.4c0-0.1,0-0.1-0.1-0.1H480.9L480.9,159.4z"/>
		<path class="st1" d="M485.8,155c0,0.1-0.1,0.2-0.2,0.2h-0.7c-0.1,0-0.2-0.1-0.2-0.2v-0.8c0-0.1,0.1-0.2,0.2-0.2h0.7
			c0.1,0,0.2,0.1,0.2,0.2V155z M485.8,161.6c0,0.1-0.1,0.2-0.2,0.2H485c-0.1,0-0.2-0.1-0.2-0.2v-5.1c0-0.1,0.1-0.2,0.2-0.2h0.6
			c0.1,0,0.2,0.1,0.2,0.2V161.6z"/>
		<path class="st1" d="M488.2,161.6c0,0.1-0.1,0.2-0.2,0.2h-0.5c-0.1,0-0.2-0.1-0.2-0.2v-7.3c0-0.1,0.1-0.2,0.2-0.2h0.5
			c0.1,0,0.2,0.1,0.2,0.2V161.6z"/>
		<path class="st1" d="M490.6,161.6c0,0.1-0.1,0.2-0.2,0.2h-0.5c-0.1,0-0.2-0.1-0.2-0.2v-7.3c0-0.1,0.1-0.2,0.2-0.2h0.5
			c0.1,0,0.2,0.1,0.2,0.2V161.6z"/>
		<path class="st1" d="M492.9,159.4c-0.1,0-0.1,0-0.1,0.1c0,1,0.5,1.4,1.3,1.4c0.6,0,1-0.3,1.1-0.7c0-0.1,0.2-0.2,0.3-0.2h0.6
			c0.1,0,0.2,0.1,0.2,0.2c-0.1,1-1,1.6-2.1,1.6c-1.3,0-2.2-0.9-2.3-2.1c0-0.4,0-1.1,0-1.5c0.1-1.2,0.9-2.1,2.3-2.1
			c1.3,0,2.2,0.8,2.2,2.2v0.8c0,0.1-0.1,0.2-0.2,0.2L492.9,159.4L492.9,159.4L492.9,159.4z M492.9,158.4c0,0.1,0,0.1,0.1,0.1h2.3
			c0.1,0,0.1,0,0.1-0.1c0-0.8-0.6-1.2-1.2-1.2C493.4,157.2,492.9,157.7,492.9,158.4z"/>
		<path class="st1" d="M501.8,161.6c0,0.1-0.1,0.2-0.2,0.2h-0.5c-0.1,0-0.2-0.1-0.2-0.2v-3.3c0-0.7-0.5-1.1-1.2-1.1
			c-0.7,0-1.2,0.4-1.2,1v3.4c0,0.1-0.1,0.2-0.2,0.2h-0.6c-0.1,0-0.2-0.1-0.2-0.2v-5.1c0-0.1,0.1-0.2,0.2-0.2h0.5
			c0.1,0,0.1,0,0.2,0.1c0.1,0.1,0.2,0.2,0.3,0.2c0.3,0,0.4-0.4,1.2-0.4c1.2,0,2.1,0.8,2.1,2.1L501.8,161.6L501.8,161.6L501.8,161.6z
			"/>
		<path class="st1" d="M506.8,158.1h-0.6c-0.1,0-0.2-0.1-0.2-0.2c0-0.4-0.3-0.7-1-0.7c-0.7,0-1,0.3-1,0.7c0,0.4,0.4,0.6,1,0.7
			c0.9,0.2,2.2,0.4,2.2,1.7c0,1.2-1,1.8-2.2,1.8c-1.1,0-2.2-0.6-2.2-1.8V160c0-0.1,0.1-0.2,0.2-0.2h0.5c0.1,0,0.2,0.1,0.2,0.2v0.1
			c0,0.7,0.7,0.8,1.2,0.8c0.6,0,1.2-0.2,1.2-0.8c0-0.5-0.5-0.6-1.2-0.7c-0.9-0.2-2-0.4-2-1.7c0-1,1-1.6,2-1.6c1,0,2,0.6,2,1.6
			C507,158,506.9,158.1,506.8,158.1z"/>
	</g>
	<g>
		<path class="st1" d="M547.7,149.8c0,1.2-1,2.3-2.5,2.3c-1.3,0-2.3-0.9-2.5-2.3c-0.1-0.9-0.1-2.4,0-3.3c0.1-1.2,1-2.3,2.5-2.3
			c1.3,0,2.5,0.9,2.5,2.3v0.2c0,0.1-0.1,0.2-0.2,0.2h-0.6c-0.1,0-0.2-0.1-0.2-0.2v-0.2c0-0.7-0.6-1.2-1.4-1.2
			c-0.7,0-1.3,0.4-1.4,1.2c-0.1,0.9-0.1,2.4,0,3.3c0.1,0.6,0.6,1.2,1.4,1.2c0.7,0,1.4-0.4,1.4-1.2v-0.2c0-0.1,0.1-0.2,0.2-0.2h0.6
			c0.1,0,0.2,0.1,0.2,0.2V149.8z"/>
		<path class="st1" d="M548.6,148.4c0.1-1.2,0.9-2.1,2.3-2.1s2.2,0.9,2.3,2.1c0,0.4,0,1.1,0,1.5c-0.1,1.2-0.9,2.1-2.3,2.1
			s-2.2-0.9-2.3-2.1C548.6,149.5,548.6,148.9,548.6,148.4z M549.6,150c0,0.6,0.5,1.1,1.3,1.1s1.2-0.5,1.3-1.1c0-0.5,0-1.1,0-1.5
			c0-0.6-0.5-1.1-1.3-1.1s-1.2,0.5-1.3,1.1C549.6,148.9,549.6,149.5,549.6,150z"/>
		<path class="st1" d="M558,148.2h-0.6c-0.1,0-0.2-0.1-0.2-0.2c0-0.4-0.3-0.7-1-0.7c-0.7,0-1,0.3-1,0.7c0,0.4,0.4,0.6,1,0.7
			c0.9,0.2,2.2,0.4,2.2,1.7c0,1.2-1,1.8-2.2,1.8c-1.1,0-2.2-0.6-2.2-1.8v-0.1c0-0.1,0.1-0.2,0.2-0.2h0.6c0.1,0,0.2,0.1,0.2,0.2v0.1
			c0,0.7,0.7,0.8,1.2,0.8c0.6,0,1.2-0.2,1.2-0.8c0-0.5-0.5-0.6-1.2-0.7c-0.9-0.2-2-0.4-2-1.7c0-1,1-1.6,2-1.6c1,0,2,0.6,2,1.6
			C558.2,148.1,558.1,148.2,558,148.2z"/>
		<path class="st1" d="M563,148.2h-0.6c-0.1,0-0.2-0.1-0.2-0.2c0-0.4-0.3-0.7-1-0.7c-0.7,0-1,0.3-1,0.7c0,0.4,0.4,0.6,1,0.7
			c0.9,0.2,2.2,0.4,2.2,1.7c0,1.2-1,1.8-2.2,1.8c-1.1,0-2.2-0.6-2.2-1.8v-0.1c0-0.1,0.1-0.2,0.2-0.2h0.6c0.1,0,0.2,0.1,0.2,0.2v0.1
			c0,0.7,0.7,0.8,1.2,0.8c0.6,0,1.2-0.2,1.2-0.8c0-0.5-0.5-0.6-1.2-0.7c-0.9-0.2-2-0.4-2-1.7c0-1,1-1.6,2-1.6c1,0,2,0.6,2,1.6
			C563.2,148.1,563.1,148.2,563,148.2z"/>
		<path class="st1" d="M564.2,148.4c0.1-1.2,0.9-2.1,2.3-2.1s2.2,0.9,2.3,2.1c0,0.4,0,1.1,0,1.5c-0.1,1.2-0.9,2.1-2.3,2.1
			s-2.2-0.9-2.3-2.1C564.2,149.5,564.2,148.9,564.2,148.4z M565.2,150c0,0.6,0.5,1.1,1.3,1.1s1.2-0.5,1.3-1.1c0-0.5,0-1.1,0-1.5
			c0-0.6-0.5-1.1-1.3-1.1s-1.2,0.5-1.3,1.1C565.2,148.9,565.2,149.5,565.2,150z"/>
		<path class="st1" d="M574.3,151.7c0,0.1-0.1,0.2-0.2,0.2h-0.6c-0.1,0-0.2-0.1-0.2-0.2v-3.3c0-0.7-0.5-1.1-1.2-1.1
			c-0.7,0-1.2,0.4-1.2,1v3.4c0,0.1-0.1,0.2-0.2,0.2h-0.5c-0.1,0-0.2-0.1-0.2-0.2v-5.1c0-0.1,0.1-0.2,0.2-0.2h0.5
			c0.1,0,0.1,0,0.2,0.1c0.1,0.1,0.2,0.2,0.3,0.2c0.3,0,0.4-0.4,1.2-0.4c1.2,0,2.1,0.8,2.1,2.1L574.3,151.7L574.3,151.7L574.3,151.7z
			"/>
		<path class="st1" d="M576.6,147.9c0,0.2-0.2,0.2-0.3,0.2h-0.5c-0.2,0-0.2-0.1-0.2-0.2c0-1,1.1-1.5,2-1.5c1.2,0,2,0.5,2,1.8v3.6
			c0,0.1-0.1,0.2-0.2,0.2H579c-0.1,0-0.1,0-0.2-0.1c-0.1-0.1-0.1-0.2-0.2-0.2c-0.2,0-0.5,0.4-1.3,0.4c-1.4,0-2-0.8-2-1.8
			c0-0.9,0.7-1.7,1.8-1.7h1.3c0.1,0,0.1,0,0.1-0.1v-0.4c0-0.6-0.4-0.9-1-0.9C577.2,147.2,576.6,147.4,576.6,147.9z M577.2,149.5
			c-0.6,0-0.8,0.3-0.8,0.8c0,0.5,0.3,0.9,1,0.9c1,0,1.4-0.4,1.4-1.2v-0.4c0-0.1,0-0.1-0.1-0.1H577.2L577.2,149.5z"/>
		<path class="st1" d="M582.8,150.2C582.8,150.3,582.8,150.3,582.8,150.2l1.4-3.6c0-0.1,0.1-0.2,0.2-0.2h0.6c0.2,0,0.3,0.1,0.2,0.3
			l-2.8,7.3c0,0.1-0.1,0.2-0.2,0.2h-0.6c-0.2,0-0.3-0.1-0.2-0.3l0.8-2.2c0-0.1,0-0.1,0-0.1l-1.9-4.8c0-0.1,0-0.3,0.2-0.3h0.7
			c0.1,0,0.2,0,0.2,0.2L582.8,150.2z"/>
	</g>
	<g>
		<path class="st1" d="M618.3,126c0,0.1-0.1,0.2-0.2,0.2h-0.9c-0.1,0-0.2-0.1-0.2-0.2l-2-7.3c0-0.1,0-0.3,0.2-0.3h0.7
			c0.1,0,0.2,0,0.2,0.2l1.5,5.9c0,0,0,0.1,0.1,0.1h0c0,0,0.1,0,0.1-0.1l1.5-5.9c0-0.1,0.1-0.2,0.2-0.2h0.7c0.2,0,0.2,0.1,0.2,0.3
			L618.3,126z"/>
		<path class="st1" d="M621,120.9c0-0.1,0.1-0.2,0.2-0.2h0.5c0.1,0,0.2,0.1,0.2,0.2v3.3c0,0.6,0.5,1.1,1.2,1.1c0.7,0,1.2-0.4,1.2-1
			v-3.4c0-0.1,0.1-0.2,0.2-0.2h0.5c0.1,0,0.2,0.1,0.2,0.2v5.1c0,0.1-0.1,0.2-0.2,0.2h-0.5c-0.1,0-0.1,0-0.2-0.1
			c-0.1-0.1-0.2-0.2-0.3-0.2c-0.3,0-0.4,0.4-1.2,0.4c-1.2,0-2.1-0.9-2.1-2.1L621,120.9L621,120.9L621,120.9z"/>
		<path class="st1" d="M632.6,119.4c-0.6,0-1,0.6-1,1.1v0.2c0,0.1,0,0.1,0.1,0.1h1.1c0.1,0,0.2,0.1,0.2,0.2v0.5
			c0,0.1-0.1,0.2-0.2,0.2h-1.1c-0.1,0-0.1,0-0.1,0.1v4.1c0,0.1-0.1,0.2-0.2,0.2h-0.5c-0.1,0-0.2-0.1-0.2-0.2v-4.1
			c0-0.1,0-0.1-0.1-0.1h-2.1c-0.1,0-0.1,0-0.1,0.1v4.1c0,0.1-0.1,0.2-0.2,0.2h-0.5c-0.1,0-0.2-0.1-0.2-0.2v-4.1c0-0.1,0-0.1-0.1-0.1
			h-0.8c-0.1,0-0.2-0.1-0.2-0.2V121c0-0.1,0.1-0.2,0.2-0.2h0.8c0.1,0,0.1,0,0.1-0.1v-0.2c0-1.2,0.9-2.1,2-2.1h0.1
			c0.1,0,0.2,0.1,0.2,0.2v0.5c0,0.1-0.1,0.2-0.2,0.2h-0.1c-0.6,0-1,0.6-1,1.1v0.2c0,0.1,0,0.1,0.1,0.1h2.1c0.1,0,0.1,0,0.1-0.1v-0.2
			c0-1.2,0.9-2.1,2-2.1h0.1c0.1,0,0.2,0.1,0.2,0.2v0.5c0,0.1-0.1,0.2-0.2,0.2L632.6,119.4L632.6,119.4z"/>
		<path class="st1" d="M635.3,126c0,0.1-0.1,0.2-0.2,0.2h-0.5c-0.1,0-0.2-0.1-0.2-0.2v-7.3c0-0.1,0.1-0.2,0.2-0.2h0.5
			c0.1,0,0.2,0.1,0.2,0.2V126z"/>
		<path class="st1" d="M637.6,123.8c-0.1,0-0.1,0-0.1,0.1c0,1,0.5,1.4,1.3,1.4c0.6,0,1-0.3,1.1-0.7c0-0.1,0.2-0.2,0.3-0.2h0.6
			c0.1,0,0.2,0.1,0.2,0.2c-0.1,1-1,1.6-2.1,1.6c-1.3,0-2.2-0.9-2.3-2.1c0-0.4,0-1.1,0-1.5c0.1-1.2,0.9-2.1,2.3-2.1
			c1.3,0,2.2,0.8,2.2,2.2v0.8c0,0.1-0.1,0.2-0.2,0.2L637.6,123.8L637.6,123.8L637.6,123.8z M637.5,122.8c0,0.1,0,0.1,0.1,0.1h2.3
			c0.1,0,0.1,0,0.1-0.1c0-0.8-0.6-1.2-1.2-1.2C638,121.6,637.5,122.1,637.5,122.8z"/>
		<path class="st1" d="M646.5,126c0,0.1-0.1,0.2-0.2,0.2h-0.5c-0.1,0-0.2-0.1-0.2-0.2v-3.3c0-0.7-0.5-1.1-1.2-1.1s-1.2,0.4-1.2,1
			v3.4c0,0.1-0.1,0.2-0.2,0.2h-0.5c-0.1,0-0.2-0.1-0.2-0.2v-5.1c0-0.1,0.1-0.2,0.2-0.2h0.5c0.1,0,0.1,0,0.2,0.1
			c0.1,0.1,0.2,0.2,0.3,0.2c0.3,0,0.4-0.4,1.2-0.4c1.2,0,2.1,0.8,2.1,2.1L646.5,126L646.5,126L646.5,126z"/>
		<path class="st1" d="M651.4,122.5h-0.6c-0.1,0-0.2-0.1-0.2-0.2c0-0.4-0.3-0.7-1-0.7c-0.7,0-1,0.3-1,0.7c0,0.4,0.4,0.6,1,0.7
			c0.9,0.2,2.2,0.4,2.2,1.7c0,1.2-1,1.8-2.2,1.8c-1.1,0-2.2-0.6-2.2-1.8v-0.1c0-0.1,0.1-0.2,0.2-0.2h0.6c0.1,0,0.2,0.1,0.2,0.2v0.1
			c0,0.7,0.7,0.8,1.2,0.8c0.6,0,1.2-0.2,1.2-0.8c0-0.5-0.5-0.6-1.2-0.7c-0.9-0.2-2-0.4-2-1.7c0-1,1-1.6,2-1.6c1,0,2,0.6,2,1.6
			C651.6,122.4,651.5,122.5,651.4,122.5z"/>
		<path class="st1" d="M656.1,122.7c0.1,0,0.2,0.1,0.2,0.2v0.7c0,0.1-0.1,0.2-0.2,0.2h-3c-0.1,0-0.2-0.1-0.2-0.2v-0.7
			c0-0.1,0.1-0.2,0.2-0.2H656.1z"/>
		<path class="st1" d="M658.8,126c0,0.1-0.1,0.2-0.2,0.2h-0.5c-0.1,0-0.2-0.1-0.2-0.2v-7.3c0-0.1,0.1-0.2,0.2-0.2h0.5
			c0.1,0,0.2,0.1,0.2,0.2V126z"/>
		<path class="st1" d="M661.2,122.2c0,0.2-0.2,0.2-0.3,0.2h-0.5c-0.2,0-0.2-0.1-0.2-0.2c0-1,1.1-1.5,2-1.5c1.2,0,2,0.5,2,1.8v3.6
			c0,0.1-0.1,0.2-0.2,0.2h-0.4c-0.1,0-0.1,0-0.2-0.1c-0.1-0.1-0.1-0.2-0.2-0.2c-0.2,0-0.5,0.4-1.3,0.4c-1.4,0-2-0.8-2-1.8
			c0-0.9,0.7-1.7,1.8-1.7h1.3c0.1,0,0.1,0,0.1-0.1v-0.4c0-0.6-0.4-0.9-1-0.9C661.9,121.5,661.2,121.6,661.2,122.2z M661.8,123.8
			c-0.6,0-0.8,0.3-0.8,0.8c0,0.5,0.3,0.9,1,0.9c1,0,1.4-0.4,1.4-1.2v-0.4c0-0.1,0-0.1-0.1-0.1C663.3,123.8,661.8,123.8,661.8,123.8z
			"/>
		<path class="st1" d="M668.9,122.7c0.1,0,0.2,0.1,0.2,0.2v0.7c0,0.1-0.1,0.2-0.2,0.2h-3c-0.1,0-0.2-0.1-0.2-0.2v-0.7
			c0-0.1,0.1-0.2,0.2-0.2H668.9z"/>
		<path class="st1" d="M673.3,126c0,0.1-0.1,0.2-0.2,0.2h-0.9c-0.1,0-0.2-0.1-0.2-0.2l-2-7.3c0-0.1,0-0.3,0.2-0.3h0.7
			c0.1,0,0.2,0,0.2,0.2l1.5,5.9c0,0,0,0.1,0.1,0.1h0c0,0,0.1,0,0.1-0.1l1.5-5.9c0-0.1,0.1-0.2,0.2-0.2h0.7c0.2,0,0.2,0.1,0.2,0.3
			L673.3,126z"/>
		<path class="st1" d="M677.2,119.4c0,0.1-0.1,0.2-0.2,0.2h-0.7c-0.1,0-0.2-0.1-0.2-0.2v-0.8c0-0.1,0.1-0.2,0.2-0.2h0.7
			c0.1,0,0.2,0.1,0.2,0.2V119.4z M677.2,126c0,0.1-0.1,0.2-0.2,0.2h-0.6c-0.1,0-0.2-0.1-0.2-0.2v-5.1c0-0.1,0.1-0.2,0.2-0.2h0.6
			c0.1,0,0.2,0.1,0.2,0.2V126z"/>
		<path class="st1" d="M679.6,126c0,0.1-0.1,0.2-0.2,0.2h-0.6c-0.1,0-0.2-0.1-0.2-0.2v-7.3c0-0.1,0.1-0.2,0.2-0.2h0.6
			c0.1,0,0.2,0.1,0.2,0.2V126z"/>
		<path class="st1" d="M682,126c0,0.1-0.1,0.2-0.2,0.2h-0.6c-0.1,0-0.2-0.1-0.2-0.2v-7.3c0-0.1,0.1-0.2,0.2-0.2h0.6
			c0.1,0,0.2,0.1,0.2,0.2V126z"/>
		<path class="st1" d="M684.3,123.8c-0.1,0-0.1,0-0.1,0.1c0,1,0.5,1.4,1.3,1.4c0.6,0,1-0.3,1.1-0.7c0-0.1,0.2-0.2,0.3-0.2h0.6
			c0.1,0,0.2,0.1,0.2,0.2c-0.1,1-1,1.6-2.1,1.6c-1.3,0-2.2-0.9-2.3-2.1c0-0.4,0-1.1,0-1.5c0.1-1.2,0.9-2.1,2.3-2.1
			c1.3,0,2.2,0.8,2.2,2.2v0.8c0,0.1-0.1,0.2-0.2,0.2L684.3,123.8L684.3,123.8z M684.3,122.8c0,0.1,0,0.1,0.1,0.1h2.3
			c0.1,0,0.1,0,0.1-0.1c0-0.8-0.6-1.2-1.2-1.2C684.8,121.6,684.3,122.1,684.3,122.8z"/>
	</g>
	<g>
		<path class="st1" d="M699.9,142.8c0,0.5-0.2,1.1-0.6,1.5c-0.1,0.1-0.1,0.2,0,0.2c0.5,0.4,0.8,1.1,0.8,1.7c0,1.3-1,2.2-2.3,2.2h-2
			c-0.1,0-0.2-0.1-0.2-0.2v-7.3c0-0.1,0.1-0.2,0.2-0.2h2C699,140.7,699.9,141.6,699.9,142.8z M697.8,143.9c0.7,0,1.1-0.5,1.1-1.1
			c0-0.6-0.5-1-1.1-1h-1.1c-0.1,0-0.1,0-0.1,0.1v1.9c0,0.1,0,0.1,0.1,0.1L697.8,143.9L697.8,143.9z M696.7,144.9
			c-0.1,0-0.1,0-0.1,0.1v2.3c0,0.1,0,0.1,0.1,0.1h1.1c0.7,0,1.3-0.5,1.3-1.2c0-0.8-0.6-1.3-1.3-1.3L696.7,144.9L696.7,144.9z"/>
		<path class="st1" d="M701,143.1c0-0.1,0.1-0.2,0.2-0.2h0.5c0.1,0,0.2,0.1,0.2,0.2v3.3c0,0.6,0.5,1.1,1.2,1.1c0.7,0,1.2-0.4,1.2-1
			v-3.4c0-0.1,0.1-0.2,0.2-0.2h0.5c0.1,0,0.2,0.1,0.2,0.2v5.1c0,0.1-0.1,0.2-0.2,0.2h-0.5c-0.1,0-0.1,0-0.2-0.1
			c-0.1-0.1-0.2-0.2-0.3-0.2c-0.3,0-0.4,0.4-1.2,0.4c-1.2,0-2.1-0.9-2.1-2.1L701,143.1L701,143.1z"/>
		<path class="st1" d="M710.4,144.7h-0.5c-0.1,0-0.2-0.1-0.2-0.2c0-0.4-0.3-0.7-1-0.7c-0.7,0-1,0.3-1,0.7c0,0.4,0.4,0.6,1,0.7
			c0.9,0.2,2.2,0.4,2.2,1.7c0,1.2-1,1.8-2.2,1.8c-1.1,0-2.2-0.6-2.2-1.8v-0.1c0-0.1,0.1-0.2,0.2-0.2h0.5c0.1,0,0.2,0.1,0.2,0.2v0.1
			c0,0.7,0.7,0.8,1.2,0.8c0.6,0,1.2-0.2,1.2-0.8c0-0.5-0.5-0.6-1.2-0.7c-0.9-0.2-2-0.4-2-1.7c0-1,1-1.6,2-1.6c1,0,2,0.6,2,1.6
			C710.6,144.6,710.5,144.7,710.4,144.7z"/>
		<path class="st1" d="M715.4,144.7h-0.6c-0.1,0-0.2-0.1-0.2-0.2c0-0.4-0.3-0.7-1-0.7c-0.7,0-1,0.3-1,0.7c0,0.4,0.4,0.6,1,0.7
			c0.9,0.2,2.2,0.4,2.2,1.7c0,1.2-1,1.8-2.2,1.8c-1.1,0-2.2-0.6-2.2-1.8v-0.1c0-0.1,0.1-0.2,0.2-0.2h0.5c0.1,0,0.2,0.1,0.2,0.2v0.1
			c0,0.7,0.7,0.8,1.2,0.8c0.6,0,1.2-0.2,1.2-0.8c0-0.5-0.5-0.6-1.2-0.7c-0.9-0.2-2-0.4-2-1.7c0-1,1-1.6,2-1.6c1,0,2,0.6,2,1.6
			C715.6,144.6,715.5,144.7,715.4,144.7z"/>
		<path class="st1" d="M717.9,141.6c0,0.1-0.1,0.2-0.2,0.2H717c-0.1,0-0.2-0.1-0.2-0.2v-0.8c0-0.1,0.1-0.2,0.2-0.2h0.7
			c0.1,0,0.2,0.1,0.2,0.2V141.6z M717.9,148.2c0,0.1-0.1,0.2-0.2,0.2h-0.6c-0.1,0-0.2-0.1-0.2-0.2v-5.1c0-0.1,0.1-0.2,0.2-0.2h0.6
			c0.1,0,0.2,0.1,0.2,0.2V148.2z"/>
		<path class="st1" d="M722.5,143.2c0.1,0,0.2-0.1,0.3-0.2c0,0,0.1-0.1,0.2-0.1h0.4c0.1,0,0.2,0.1,0.2,0.2v5.6c0,1.1-0.8,2-2,2
			c-1,0-1.8-0.5-2-1.5c0-0.2,0-0.3,0.2-0.3h0.5c0.2,0,0.2,0.1,0.3,0.2c0.1,0.4,0.4,0.5,1,0.5c0.5,0,1-0.4,1-1v-0.2
			c0-0.2-0.1-0.3-0.2-0.3c-0.2,0-0.5,0.3-1,0.3c-1.2,0-2-0.9-2.1-2.1c0-0.4,0-1.1,0-1.5c0.1-1.2,0.9-2.1,2.1-2.1
			C722.1,142.8,722.2,143.2,722.5,143.2z M722.6,144.9c0-0.6-0.5-1.1-1.3-1.1s-1.2,0.5-1.3,1.1c0,0.5,0,1.1,0,1.5
			c0,0.6,0.5,1.1,1.3,1.1s1.2-0.5,1.3-1.1C722.6,146,722.6,145.3,722.6,144.9z"/>
		<path class="st1" d="M729.2,148.2c0,0.1-0.1,0.2-0.2,0.2h-0.5c-0.1,0-0.2-0.1-0.2-0.2v-3.3c0-0.7-0.5-1.1-1.2-1.1
			c-0.7,0-1.2,0.4-1.2,1v3.4c0,0.1-0.1,0.2-0.2,0.2h-0.5c-0.1,0-0.2-0.1-0.2-0.2v-5.1c0-0.1,0.1-0.2,0.2-0.2h0.5
			c0.1,0,0.1,0,0.2,0.1c0.1,0.1,0.2,0.2,0.3,0.2c0.3,0,0.4-0.4,1.2-0.4c1.2,0,2.1,0.8,2.1,2.1L729.2,148.2L729.2,148.2L729.2,148.2z
			"/>
		<path class="st1" d="M732.4,146.7C732.4,146.7,732.4,146.7,732.4,146.7l1.4-3.6c0-0.1,0.1-0.2,0.2-0.2h0.6c0.2,0,0.3,0.1,0.2,0.3
			l-2.8,7.3c0,0.1-0.1,0.2-0.2,0.2h-0.6c-0.2,0-0.3-0.1-0.2-0.3l0.8-2.2c0-0.1,0-0.1,0-0.1l-1.9-4.8c0-0.1,0-0.3,0.2-0.3h0.7
			c0.1,0,0.2,0,0.2,0.2L732.4,146.7z"/>
	</g>
	<g>
		<path class="st1" d="M755.7,78.8c-1.1-0.2-1.8-0.9-1.8-2.1c0-1.3,1.1-2.1,2.3-2.1c1.3,0,2.3,0.9,2.3,2.1v0.1
			c0,0.1-0.1,0.2-0.2,0.2h-0.6c-0.1,0-0.2-0.1-0.2-0.2v-0.1c0-0.7-0.6-1-1.2-1c-0.7,0-1.2,0.4-1.2,1c0,1,0.9,1.1,1.7,1.2
			c1.3,0.3,2,1,2,2.3c0,1.4-1.2,2.3-2.5,2.3c-1.4,0-2.5-1-2.5-2.3v-0.2c0-0.1,0.1-0.2,0.2-0.2h0.6c0.1,0,0.2,0.1,0.2,0.2v0.2
			c0,0.7,0.6,1.2,1.4,1.2c0.8,0,1.4-0.5,1.4-1.2C757.5,79.2,756.8,79.1,755.7,78.8z"/>
		<path class="st1" d="M762.4,77c0.1,0,0.2,0.1,0.2,0.2v0.5c0,0.1-0.1,0.2-0.2,0.2h-1.3c-0.1,0-0.1,0-0.1,0.1v2.6
			c0,0.5,0.2,0.8,0.9,0.8h0.6c0.1,0,0.2,0.1,0.2,0.2v0.5c0,0.1-0.1,0.2-0.2,0.2h-0.6c-1.1,0-1.9-0.5-1.9-1.8v-2.6
			c0-0.1,0-0.1-0.1-0.1h-0.8c-0.1,0-0.2-0.1-0.2-0.2v-0.5c0-0.1,0.1-0.2,0.2-0.2h0.8c0.1,0,0.1,0,0.1-0.1v-1.7
			c0-0.1,0.1-0.2,0.2-0.2h0.6c0.1,0,0.2,0.1,0.2,0.2v1.7c0,0.1,0,0.1,0.1,0.1L762.4,77L762.4,77z"/>
		<path class="st1" d="M766.8,78.9c0.1,0,0.2,0.1,0.2,0.2v0.7c0,0.1-0.1,0.2-0.2,0.2h-3c-0.1,0-0.2-0.1-0.2-0.2v-0.7
			c0-0.1,0.1-0.2,0.2-0.2H766.8z"/>
		<path class="st1" d="M770.2,78.8c-1.1-0.2-1.8-0.9-1.8-2.1c0-1.3,1.1-2.1,2.3-2.1c1.3,0,2.3,0.9,2.3,2.1v0.1
			c0,0.1-0.1,0.2-0.2,0.2h-0.6c-0.1,0-0.2-0.1-0.2-0.2v-0.1c0-0.7-0.6-1-1.2-1c-0.7,0-1.2,0.4-1.2,1c0,1,0.9,1.1,1.7,1.2
			c1.3,0.3,2,1,2,2.3c0,1.4-1.2,2.3-2.5,2.3c-1.4,0-2.5-1-2.5-2.3v-0.2c0-0.1,0.1-0.2,0.2-0.2h0.6c0.1,0,0.2,0.1,0.2,0.2v0.2
			c0,0.7,0.6,1.2,1.4,1.2c0.8,0,1.4-0.5,1.4-1.2C772,79.2,771.3,79.1,770.2,78.8z"/>
		<path class="st1" d="M774,77.1c0-0.1,0.1-0.2,0.2-0.2h0.5c0.1,0,0.2,0.1,0.2,0.2v3.3c0,0.6,0.5,1.1,1.2,1.1c0.7,0,1.2-0.4,1.2-1
			v-3.4c0-0.1,0.1-0.2,0.2-0.2h0.5c0.1,0,0.2,0.1,0.2,0.2v5.1c0,0.1-0.1,0.2-0.2,0.2h-0.5c-0.1,0-0.1,0-0.2-0.1
			c-0.1-0.1-0.2-0.2-0.3-0.2c-0.3,0-0.4,0.4-1.2,0.4c-1.2,0-2.1-0.9-2.1-2.1L774,77.1L774,77.1L774,77.1z"/>
		<path class="st1" d="M780.8,82.2c0,0.1-0.1,0.2-0.2,0.2H780c-0.1,0-0.2-0.1-0.2-0.2v-7.3c0-0.1,0.1-0.2,0.2-0.2h0.5
			c0.1,0,0.2,0.1,0.2,0.2V82.2z"/>
		<path class="st1" d="M786.5,78.9c0,0.4,0,1.1,0,1.5c-0.1,1.2-0.9,2.1-2.1,2.1c-0.5,0-0.8-0.3-1-0.3c-0.2,0-0.2,0.1-0.2,0.3v1.9
			c0,0.1-0.1,0.2-0.2,0.2h-0.5c-0.1,0-0.2-0.1-0.2-0.2v-7.3c0-0.1,0.1-0.2,0.2-0.2h0.4c0.1,0,0.1,0,0.2,0.1c0.1,0.1,0.2,0.2,0.3,0.2
			c0.3,0,0.4-0.4,1.2-0.4C785.6,76.8,786.4,77.8,786.5,78.9z M785.6,78.9c0-0.6-0.5-1.1-1.3-1.1c-0.8,0-1.2,0.5-1.3,1.1
			c0,0.5,0,1.1,0,1.5c0,0.6,0.5,1.1,1.3,1.1c0.8,0,1.2-0.5,1.3-1.1C785.6,80,785.6,79.4,785.6,78.9z"/>
		<path class="st1" d="M788.8,75.6c0,0.1-0.1,0.2-0.2,0.2h-0.7c-0.1,0-0.2-0.1-0.2-0.2v-0.8c0-0.1,0.1-0.2,0.2-0.2h0.7
			c0.1,0,0.2,0.1,0.2,0.2V75.6z M788.8,82.2c0,0.1-0.1,0.2-0.2,0.2H788c-0.1,0-0.2-0.1-0.2-0.2v-5.1c0-0.1,0.1-0.2,0.2-0.2h0.6
			c0.1,0,0.2,0.1,0.2,0.2V82.2z"/>
		<path class="st1" d="M793.5,80.4h0.6c0.1,0,0.2,0.1,0.2,0.2c0,1.1-0.9,1.9-2.1,1.9c-1.3,0-2.1-0.9-2.2-2.1c0-0.4,0-1.1,0-1.5
			c0.1-1.2,0.9-2.1,2.2-2.1c1.2,0,2.1,0.8,2.1,1.9c0,0.1-0.1,0.2-0.2,0.2h-0.6c-0.1,0-0.2-0.1-0.2-0.2c0-0.5-0.5-0.9-1.1-0.9
			c-0.8,0-1.2,0.5-1.2,1.1c0,0.5,0,1.1,0,1.5c0,0.6,0.5,1.1,1.2,1.1c0.7,0,1.1-0.4,1.1-0.9C793.3,80.5,793.4,80.4,793.5,80.4z"/>
		<path class="st1" d="M796.3,80c-0.1,0-0.1,0-0.1,0.1c0,1,0.5,1.4,1.3,1.4c0.6,0,1-0.3,1.1-0.7c0-0.1,0.2-0.2,0.3-0.2h0.6
			c0.1,0,0.2,0.1,0.2,0.2c-0.1,1-1,1.6-2.1,1.6c-1.3,0-2.2-0.9-2.3-2.1c0-0.4,0-1.1,0-1.5c0.1-1.2,0.9-2.1,2.3-2.1
			c1.3,0,2.2,0.8,2.2,2.2v0.8c0,0.1-0.1,0.2-0.2,0.2L796.3,80L796.3,80z M796.3,79c0,0.1,0,0.1,0.1,0.1h2.3c0.1,0,0.1,0,0.1-0.1
			c0-0.8-0.6-1.2-1.2-1.2C796.8,77.8,796.3,78.3,796.3,79z"/>
	</g>
	<line class="st2" x1="238.3" y1="62.4" x2="374.5" y2="82"/>
	<polyline class="st2" points="241.6,66.5 238.3,62.4 242.7,59.4 	"/>
	<g>
		<g>
			<g>
				<defs>
					<path id="SVGID_1_" d="M14,158c0-7.1,15-15.6,16.7-16.6c3.8-2.3,7.2-5.7,10.3-8.8c-1-1.2,0-2.5,0.7-3.8c1-2.1,2.2-4,3.6-5.8
						c5.1-6.7,5.8-14.9,6.8-22.9c0.6-4.6-3.9-9.7-8.5-11.2c-1.3-0.4-2.3-1.2-3.2-2.3c-2.7-3.4-1.1-5.6-2.7-9.8
						c-0.7-1.8,3.7-6.3,2.1-6.7c-2.6-0.7-4.1-2.5-5.6-4.4c-1.1-1.5-7.8-5.9-9.6-6.5c-1.8-0.6-1.7-2.4-2-3.6c-1-3.6-8.3-1.4-8.4-5.3"
						/>
				</defs>
				<clipPath id="SVGID_2_">
					<use xlink:href="#SVGID_1_"  style="overflow:visible;"/>
				</clipPath>
				<line class="st3" x1="54.4" y1="166.2" x2="12.4" y2="124.1"/>
			</g>
		</g>
		<g>
			<g>
				<defs>
					<path id="SVGID_3_" d="M14,158c0-7.1,15-15.6,16.7-16.6c3.8-2.3,7.2-5.7,10.3-8.8c-1-1.2,0-2.5,0.7-3.8c1-2.1,2.2-4,3.6-5.8
						c5.1-6.7,5.8-14.9,6.8-22.9c0.6-4.6-3.9-9.7-8.5-11.2c-1.3-0.4-2.3-1.2-3.2-2.3c-2.7-3.4-1.1-5.6-2.7-9.8
						c-0.7-1.8,3.7-6.3,2.1-6.7c-2.6-0.7-4.1-2.5-5.6-4.4c-1.1-1.5-7.8-5.9-9.6-6.5c-1.8-0.6-1.7-2.4-2-3.6c-1-3.6-8.3-1.4-8.4-5.3"
						/>
				</defs>
				<clipPath id="SVGID_4_">
					<use xlink:href="#SVGID_3_"  style="overflow:visible;"/>
				</clipPath>
				<line class="st4" x1="54.4" y1="180.2" x2="12.4" y2="138.1"/>
			</g>
		</g>
		<g>
			<g>
				<defs>
					<path id="SVGID_5_" d="M14,158c0-7.1,15-15.6,16.7-16.6c3.8-2.3,7.2-5.7,10.3-8.8c-1-1.2,0-2.5,0.7-3.8c1-2.1,2.2-4,3.6-5.8
						c5.1-6.7,5.8-14.9,6.8-22.9c0.6-4.6-3.9-9.7-8.5-11.2c-1.3-0.4-2.3-1.2-3.2-2.3c-2.7-3.4-1.1-5.6-2.7-9.8
						c-0.7-1.8,3.7-6.3,2.1-6.7c-2.6-0.7-4.1-2.5-5.6-4.4c-1.1-1.5-7.8-5.9-9.6-6.5c-1.8-0.6-1.7-2.4-2-3.6c-1-3.6-8.3-1.4-8.4-5.3"
						/>
				</defs>
				<clipPath id="SVGID_6_">
					<use xlink:href="#SVGID_5_"  style="overflow:visible;"/>
				</clipPath>
				<line class="st5" x1="54.4" y1="191.7" x2="12.4" y2="149.6"/>
			</g>
		</g>
		<g>
			<g>
				<defs>
					<path id="SVGID_7_" d="M14,158c0-7.1,15-15.6,16.7-16.6c3.8-2.3,7.2-5.7,10.3-8.8c-1-1.2,0-2.5,0.7-3.8c1-2.1,2.2-4,3.6-5.8
						c5.1-6.7,5.8-14.9,6.8-22.9c0.6-4.6-3.9-9.7-8.5-11.2c-1.3-0.4-2.3-1.2-3.2-2.3c-2.7-3.4-1.1-5.6-2.7-9.8
						c-0.7-1.8,3.7-6.3,2.1-6.7c-2.6-0.7-4.1-2.5-5.6-4.4c-1.1-1.5-7.8-5.9-9.6-6.5c-1.8-0.6-1.7-2.4-2-3.6c-1-3.6-8.3-1.4-8.4-5.3"
						/>
				</defs>
				<clipPath id="SVGID_8_">
					<use xlink:href="#SVGID_7_"  style="overflow:visible;"/>
				</clipPath>
				<line class="st6" x1="54.4" y1="152.2" x2="12.4" y2="110.1"/>
			</g>
		</g>
		<g>
			<g>
				<defs>
					<path id="SVGID_9_" d="M14,158c0-7.1,15-15.6,16.7-16.6c3.8-2.3,7.2-5.7,10.3-8.8c-1-1.2,0-2.5,0.7-3.8c1-2.1,2.2-4,3.6-5.8
						c5.1-6.7,5.8-14.9,6.8-22.9c0.6-4.6-3.9-9.7-8.5-11.2c-1.3-0.4-2.3-1.2-3.2-2.3c-2.7-3.4-1.1-5.6-2.7-9.8
						c-0.7-1.8,3.7-6.3,2.1-6.7c-2.6-0.7-4.1-2.5-5.6-4.4c-1.1-1.5-7.8-5.9-9.6-6.5c-1.8-0.6-1.7-2.4-2-3.6c-1-3.6-8.3-1.4-8.4-5.3"
						/>
				</defs>
				<clipPath id="SVGID_10_">
					<use xlink:href="#SVGID_9_"  style="overflow:visible;"/>
				</clipPath>
				<line class="st7" x1="54.4" y1="138.2" x2="12.4" y2="96.1"/>
			</g>
		</g>
		<g>
			<g>
				<defs>
					<path id="SVGID_11_" d="M14,158c0-7.1,15-15.6,16.7-16.6c3.8-2.3,7.2-5.7,10.3-8.8c-1-1.2,0-2.5,0.7-3.8c1-2.1,2.2-4,3.6-5.8
						c5.1-6.7,5.8-14.9,6.8-22.9c0.6-4.6-3.9-9.7-8.5-11.2c-1.3-0.4-2.3-1.2-3.2-2.3c-2.7-3.4-1.1-5.6-2.7-9.8
						c-0.7-1.8,3.7-6.3,2.1-6.7c-2.6-0.7-4.1-2.5-5.6-4.4c-1.1-1.5-7.8-5.9-9.6-6.5c-1.8-0.6-1.7-2.4-2-3.6c-1-3.6-8.3-1.4-8.4-5.3"
						/>
				</defs>
				<clipPath id="SVGID_12_">
					<use xlink:href="#SVGID_11_"  style="overflow:visible;"/>
				</clipPath>
				<line class="st8" x1="54.4" y1="124.2" x2="12.4" y2="82.1"/>
			</g>
		</g>
		<g>
			<g>
				<defs>
					<path id="SVGID_13_" d="M14,158c0-7.1,15-15.6,16.7-16.6c3.8-2.3,7.2-5.7,10.3-8.8c-1-1.2,0-2.5,0.7-3.8c1-2.1,2.2-4,3.6-5.8
						c5.1-6.7,5.8-14.9,6.8-22.9c0.6-4.6-3.9-9.7-8.5-11.2c-1.3-0.4-2.3-1.2-3.2-2.3c-2.7-3.4-1.1-5.6-2.7-9.8
						c-0.7-1.8,3.7-6.3,2.1-6.7c-2.6-0.7-4.1-2.5-5.6-4.4c-1.1-1.5-7.8-5.9-9.6-6.5c-1.8-0.6-1.7-2.4-2-3.6c-1-3.6-8.3-1.4-8.4-5.3"
						/>
				</defs>
				<clipPath id="SVGID_14_">
					<use xlink:href="#SVGID_13_"  style="overflow:visible;"/>
				</clipPath>
				<line class="st9" x1="54.4" y1="96.1" x2="12.4" y2="54.1"/>
			</g>
		</g>
		<g>
			<g>
				<defs>
					<path id="SVGID_15_" d="M14,158c0-7.1,15-15.6,16.7-16.6c3.8-2.3,7.2-5.7,10.3-8.8c-1-1.2,0-2.5,0.7-3.8c1-2.1,2.2-4,3.6-5.8
						c5.1-6.7,5.8-14.9,6.8-22.9c0.6-4.6-3.9-9.7-8.5-11.2c-1.3-0.4-2.3-1.2-3.2-2.3c-2.7-3.4-1.1-5.6-2.7-9.8
						c-0.7-1.8,3.7-6.3,2.1-6.7c-2.6-0.7-4.1-2.5-5.6-4.4c-1.1-1.5-7.8-5.9-9.6-6.5c-1.8-0.6-1.7-2.4-2-3.6c-1-3.6-8.3-1.4-8.4-5.3"
						/>
				</defs>
				<clipPath id="SVGID_16_">
					<use xlink:href="#SVGID_15_"  style="overflow:visible;"/>
				</clipPath>
				<line class="st10" x1="54.4" y1="110.2" x2="12.4" y2="68.1"/>
			</g>
		</g>
		<g>
			<g>
				<defs>
					<path id="SVGID_17_" d="M14,158c0-7.1,15-15.6,16.7-16.6c3.8-2.3,7.2-5.7,10.3-8.8c-1-1.2,0-2.5,0.7-3.8c1-2.1,2.2-4,3.6-5.8
						c5.1-6.7,5.8-14.9,6.8-22.9c0.6-4.6-3.9-9.7-8.5-11.2c-1.3-0.4-2.3-1.2-3.2-2.3c-2.7-3.4-1.1-5.6-2.7-9.8
						c-0.7-1.8,3.7-6.3,2.1-6.7c-2.6-0.7-4.1-2.5-5.6-4.4c-1.1-1.5-7.8-5.9-9.6-6.5c-1.8-0.6-1.7-2.4-2-3.6c-1-3.6-8.3-1.4-8.4-5.3"
						/>
				</defs>
				<clipPath id="SVGID_18_">
					<use xlink:href="#SVGID_17_"  style="overflow:visible;"/>
				</clipPath>
				<line class="st11" x1="54.4" y1="81" x2="12.4" y2="38.9"/>
			</g>
		</g>
		<g>
			<g>
				<defs>
					<path id="SVGID_19_" d="M14,158c0-7.1,15-15.6,16.7-16.6c3.8-2.3,7.2-5.7,10.3-8.8c-1-1.2,0-2.5,0.7-3.8c1-2.1,2.2-4,3.6-5.8
						c5.1-6.7,5.8-14.9,6.8-22.9c0.6-4.6-3.9-9.7-8.5-11.2c-1.3-0.4-2.3-1.2-3.2-2.3c-2.7-3.4-1.1-5.6-2.7-9.8
						c-0.7-1.8,3.7-6.3,2.1-6.7c-2.6-0.7-4.1-2.5-5.6-4.4c-1.1-1.5-7.8-5.9-9.6-6.5c-1.8-0.6-1.7-2.4-2-3.6c-1-3.6-8.3-1.4-8.4-5.3"
						/>
				</defs>
				<clipPath id="SVGID_20_">
					<use xlink:href="#SVGID_19_"  style="overflow:visible;"/>
				</clipPath>
				<line class="st12" x1="54.4" y1="67" x2="12.4" y2="24.9"/>
			</g>
		</g>
		<g>
			<g>
				<defs>
					<path id="SVGID_21_" d="M14,158c0-7.1,15-15.6,16.7-16.6c3.8-2.3,7.2-5.7,10.3-8.8c-1-1.2,0-2.5,0.7-3.8c1-2.1,2.2-4,3.6-5.8
						c5.1-6.7,5.8-14.9,6.8-22.9c0.6-4.6-3.9-9.7-8.5-11.2c-1.3-0.4-2.3-1.2-3.2-2.3c-2.7-3.4-1.1-5.6-2.7-9.8
						c-0.7-1.8,3.7-6.3,2.1-6.7c-2.6-0.7-4.1-2.5-5.6-4.4c-1.1-1.5-7.8-5.9-9.6-6.5c-1.8-0.6-1.7-2.4-2-3.6c-1-3.6-8.3-1.4-8.4-5.3"
						/>
				</defs>
				<clipPath id="SVGID_22_">
					<use xlink:href="#SVGID_21_"  style="overflow:visible;"/>
				</clipPath>
				<line class="st13" x1="54.4" y1="53" x2="12.4" y2="10.9"/>
			</g>
		</g>
	</g>
	<g>
		<g>
			<g>
				<defs>
					<path id="SVGID_23_" d="M835.6,54.4c-7.5,11.7-17.9,10.2-29,23.2c-3.2,3.7,0.6,9.9,2.5,14.5c1.7,4.4,3.1,9,4,13.6
						c1.4,6.8,4.4,13,6.7,19.5c2.2,6.2,1.6,12.2-0.9,18.4c-2.1,5.3-8,10.2-6.7,15.7c2,8.7,6.8,41.3,24,50.5"/>
				</defs>
				<clipPath id="SVGID_24_">
					<use xlink:href="#SVGID_23_"  style="overflow:visible;"/>
				</clipPath>
				<line class="st14" x1="847.5" y1="242.5" x2="805.4" y2="200.4"/>
			</g>
		</g>
		<g>
			<g>
				<defs>
					<path id="SVGID_26_" d="M835.6,54.4c-7.5,11.7-17.9,10.2-29,23.2c-3.2,3.7,0.6,9.9,2.5,14.5c1.7,4.4,3.1,9,4,13.6
						c1.4,6.8,4.4,13,6.7,19.5c2.2,6.2,1.6,12.2-0.9,18.4c-2.1,5.3-8,10.2-6.7,15.7c2,8.7,6.8,41.3,24,50.5"/>
				</defs>
				<clipPath id="SVGID_27_">
					<use xlink:href="#SVGID_26_"  style="overflow:visible;"/>
				</clipPath>
				<line class="st15" x1="847.5" y1="256.5" x2="805.4" y2="214.5"/>
			</g>
		</g>
		<g>
			<g>
				<defs>
					<path id="SVGID_28_" d="M835.6,54.4c-7.5,11.7-17.9,10.2-29,23.2c-3.2,3.7,0.6,9.9,2.5,14.5c1.7,4.4,3.1,9,4,13.6
						c1.4,6.8,4.4,13,6.7,19.5c2.2,6.2,1.6,12.2-0.9,18.4c-2.1,5.3-8,10.2-6.7,15.7c2,8.7,6.8,41.3,24,50.5"/>
				</defs>
				<clipPath id="SVGID_29_">
					<use xlink:href="#SVGID_28_"  style="overflow:visible;"/>
				</clipPath>
				<line class="st16" x1="847.5" y1="228.5" x2="805.4" y2="186.4"/>
			</g>
		</g>
		<g>
			<g>
				<defs>
					<path id="SVGID_30_" d="M835.6,54.4c-7.5,11.7-17.9,10.2-29,23.2c-3.2,3.7,0.6,9.9,2.5,14.5c1.7,4.4,3.1,9,4,13.6
						c1.4,6.8,4.4,13,6.7,19.5c2.2,6.2,1.6,12.2-0.9,18.4c-2.1,5.3-8,10.2-6.7,15.7c2,8.7,6.8,41.3,24,50.5"/>
				</defs>
				<clipPath id="SVGID_31_">
					<use xlink:href="#SVGID_30_"  style="overflow:visible;"/>
				</clipPath>
				<line class="st17" x1="847.5" y1="214.5" x2="805.4" y2="172.4"/>
			</g>
		</g>
		<g>
			<g>
				<defs>
					<path id="SVGID_32_" d="M835.6,54.4c-7.5,11.7-17.9,10.2-29,23.2c-3.2,3.7,0.6,9.9,2.5,14.5c1.7,4.4,3.1,9,4,13.6
						c1.4,6.8,4.4,13,6.7,19.5c2.2,6.2,1.6,12.2-0.9,18.4c-2.1,5.3-8,10.2-6.7,15.7c2,8.7,6.8,41.3,24,50.5"/>
				</defs>
				<clipPath id="SVGID_33_">
					<use xlink:href="#SVGID_32_"  style="overflow:visible;"/>
				</clipPath>
				<line class="st18" x1="847.5" y1="200.5" x2="805.4" y2="158.4"/>
			</g>
		</g>
		<g>
			<g>
				<defs>
					<path id="SVGID_34_" d="M835.6,54.4c-7.5,11.7-17.9,10.2-29,23.2c-3.2,3.7,0.6,9.9,2.5,14.5c1.7,4.4,3.1,9,4,13.6
						c1.4,6.8,4.4,13,6.7,19.5c2.2,6.2,1.6,12.2-0.9,18.4c-2.1,5.3-8,10.2-6.7,15.7c2,8.7,6.8,41.3,24,50.5"/>
				</defs>
				<clipPath id="SVGID_35_">
					<use xlink:href="#SVGID_34_"  style="overflow:visible;"/>
				</clipPath>
				<line class="st19" x1="847.5" y1="172.5" x2="805.4" y2="130.4"/>
			</g>
		</g>
		<g>
			<g>
				<defs>
					<path id="SVGID_36_" d="M835.6,54.4c-7.5,11.7-17.9,10.2-29,23.2c-3.2,3.7,0.6,9.9,2.5,14.5c1.7,4.4,3.1,9,4,13.6
						c1.4,6.8,4.4,13,6.7,19.5c2.2,6.2,1.6,12.2-0.9,18.4c-2.1,5.3-8,10.2-6.7,15.7c2,8.7,6.8,41.3,24,50.5"/>
				</defs>
				<clipPath id="SVGID_37_">
					<use xlink:href="#SVGID_36_"  style="overflow:visible;"/>
				</clipPath>
				<line class="st20" x1="847.5" y1="186.5" x2="805.4" y2="144.4"/>
			</g>
		</g>
		<g>
			<g>
				<defs>
					<path id="SVGID_38_" d="M835.6,54.4c-7.5,11.7-17.9,10.2-29,23.2c-3.2,3.7,0.6,9.9,2.5,14.5c1.7,4.4,3.1,9,4,13.6
						c1.4,6.8,4.4,13,6.7,19.5c2.2,6.2,1.6,12.2-0.9,18.4c-2.1,5.3-8,10.2-6.7,15.7c2,8.7,6.8,41.3,24,50.5"/>
				</defs>
				<clipPath id="SVGID_39_">
					<use xlink:href="#SVGID_38_"  style="overflow:visible;"/>
				</clipPath>
				<line class="st21" x1="847.5" y1="158.5" x2="805.4" y2="116.4"/>
			</g>
		</g>
		<g>
			<g>
				<defs>
					<path id="SVGID_40_" d="M835.6,54.4c-7.5,11.7-17.9,10.2-29,23.2c-3.2,3.7,0.6,9.9,2.5,14.5c1.7,4.4,3.1,9,4,13.6
						c1.4,6.8,4.4,13,6.7,19.5c2.2,6.2,1.6,12.2-0.9,18.4c-2.1,5.3-8,10.2-6.7,15.7c2,8.7,6.8,41.3,24,50.5"/>
				</defs>
				<clipPath id="SVGID_41_">
					<use xlink:href="#SVGID_40_"  style="overflow:visible;"/>
				</clipPath>
				<line class="st22" x1="847.5" y1="144.4" x2="805.4" y2="102.4"/>
			</g>
		</g>
		<g>
			<g>
				<defs>
					<path id="SVGID_42_" d="M835.6,54.4c-7.5,11.7-17.9,10.2-29,23.2c-3.2,3.7,0.6,9.9,2.5,14.5c1.7,4.4,3.1,9,4,13.6
						c1.4,6.8,4.4,13,6.7,19.5c2.2,6.2,1.6,12.2-0.9,18.4c-2.1,5.3-8,10.2-6.7,15.7c2,8.7,6.8,41.3,24,50.5"/>
				</defs>
				<clipPath id="SVGID_43_">
					<use xlink:href="#SVGID_42_"  style="overflow:visible;"/>
				</clipPath>
				<line class="st23" x1="847.5" y1="130.4" x2="805.4" y2="88.3"/>
			</g>
		</g>
		<g>
			<g>
				<defs>
					<path id="SVGID_44_" d="M835.6,54.4c-7.5,11.7-17.9,10.2-29,23.2c-3.2,3.7,0.6,9.9,2.5,14.5c1.7,4.4,3.1,9,4,13.6
						c1.4,6.8,4.4,13,6.7,19.5c2.2,6.2,1.6,12.2-0.9,18.4c-2.1,5.3-8,10.2-6.7,15.7c2,8.7,6.8,41.3,24,50.5"/>
				</defs>
				<clipPath id="SVGID_45_">
					<use xlink:href="#SVGID_44_"  style="overflow:visible;"/>
				</clipPath>
				<line class="st24" x1="847.5" y1="102.8" x2="805.4" y2="60.7"/>
			</g>
		</g>
		<g>
			<g>
				<defs>
					<path id="SVGID_46_" d="M835.6,54.4c-7.5,11.7-17.9,10.2-29,23.2c-3.2,3.7,0.6,9.9,2.5,14.5c1.7,4.4,3.1,9,4,13.6
						c1.4,6.8,4.4,13,6.7,19.5c2.2,6.2,1.6,12.2-0.9,18.4c-2.1,5.3-8,10.2-6.7,15.7c2,8.7,6.8,41.3,24,50.5"/>
				</defs>
				<clipPath id="SVGID_47_">
					<use xlink:href="#SVGID_46_"  style="overflow:visible;"/>
				</clipPath>
				<line class="st25" x1="847.5" y1="116.8" x2="805.4" y2="74.8"/>
			</g>
		</g>
		<g>
			<g>
				<defs>
					<path id="SVGID_48_" d="M835.6,54.4c-7.5,11.7-17.9,10.2-29,23.2c-3.2,3.7,0.6,9.9,2.5,14.5c1.7,4.4,3.1,9,4,13.6
						c1.4,6.8,4.4,13,6.7,19.5c2.2,6.2,1.6,12.2-0.9,18.4c-2.1,5.3-8,10.2-6.7,15.7c2,8.7,6.8,41.3,24,50.5"/>
				</defs>
				<clipPath id="SVGID_49_">
					<use xlink:href="#SVGID_48_"  style="overflow:visible;"/>
				</clipPath>
				<line class="st26" x1="847.5" y1="88.8" x2="805.4" y2="46.7"/>
			</g>
		</g>
		<g>
			<g>
				<defs>
					<path id="SVGID_50_" d="M835.6,54.4c-7.5,11.7-17.9,10.2-29,23.2c-3.2,3.7,0.6,9.9,2.5,14.5c1.7,4.4,3.1,9,4,13.6
						c1.4,6.8,4.4,13,6.7,19.5c2.2,6.2,1.6,12.2-0.9,18.4c-2.1,5.3-8,10.2-6.7,15.7c2,8.7,6.8,41.3,24,50.5"/>
				</defs>
				<clipPath id="SVGID_51_">
					<use xlink:href="#SVGID_50_"  style="overflow:visible;"/>
				</clipPath>
				<line class="st27" x1="847.5" y1="74.8" x2="805.4" y2="32.7"/>
			</g>
		</g>
		<g>
			<g>
				<defs>
					<path id="SVGID_52_" d="M835.6,54.4c-7.5,11.7-17.9,10.2-29,23.2c-3.2,3.7,0.6,9.9,2.5,14.5c1.7,4.4,3.1,9,4,13.6
						c1.4,6.8,4.4,13,6.7,19.5c2.2,6.2,1.6,12.2-0.9,18.4c-2.1,5.3-8,10.2-6.7,15.7c2,8.7,6.8,41.3,24,50.5"/>
				</defs>
				<clipPath id="SVGID_53_">
					<use xlink:href="#SVGID_52_"  style="overflow:visible;"/>
				</clipPath>
				<line class="st28" x1="847.5" y1="60.8" x2="805.4" y2="18.7"/>
			</g>
		</g>
		<g>
			<g>
				<defs>
					<path id="SVGID_54_" d="M835.6,54.4c-7.5,11.7-17.9,10.2-29,23.2c-3.2,3.7,0.6,9.9,2.5,14.5c1.7,4.4,3.1,9,4,13.6
						c1.4,6.8,4.4,13,6.7,19.5c2.2,6.2,1.6,12.2-0.9,18.4c-2.1,5.3-8,10.2-6.7,15.7c2,8.7,6.8,41.3,24,50.5"/>
				</defs>
				<clipPath id="SVGID_55_">
					<use xlink:href="#SVGID_54_"  style="overflow:visible;"/>
				</clipPath>
				<line class="st29" x1="847.5" y1="32.8" x2="805.4" y2="-9.3"/>
			</g>
		</g>
		<g>
			<g>
				<defs>
					<path id="SVGID_56_" d="M835.6,54.4c-7.5,11.7-17.9,10.2-29,23.2c-3.2,3.7,0.6,9.9,2.5,14.5c1.7,4.4,3.1,9,4,13.6
						c1.4,6.8,4.4,13,6.7,19.5c2.2,6.2,1.6,12.2-0.9,18.4c-2.1,5.3-8,10.2-6.7,15.7c2,8.7,6.8,41.3,24,50.5"/>
				</defs>
				<clipPath id="SVGID_57_">
					<use xlink:href="#SVGID_56_"  style="overflow:visible;"/>
				</clipPath>
				<line class="st30" x1="847.5" y1="46.8" x2="805.4" y2="4.7"/>
			</g>
		</g>
		<g>
			<g>
				<defs>
					<path id="SVGID_58_" d="M835.6,54.4c-7.5,11.7-17.9,10.2-29,23.2c-3.2,3.7,0.6,9.9,2.5,14.5c1.7,4.4,3.1,9,4,13.6
						c1.4,6.8,4.4,13,6.7,19.5c2.2,6.2,1.6,12.2-0.9,18.4c-2.1,5.3-8,10.2-6.7,15.7c2,8.7,6.8,41.3,24,50.5"/>
				</defs>
				<clipPath id="SVGID_59_">
					<use xlink:href="#SVGID_58_"  style="overflow:visible;"/>
				</clipPath>
				<line class="st31" x1="847.5" y1="18.7" x2="805.4" y2="-23.3"/>
			</g>
		</g>
		<g>
			<g>
				<defs>
					<path id="SVGID_60_" d="M835.6,54.4c-7.5,11.7-17.9,10.2-29,23.2c-3.2,3.7,0.6,9.9,2.5,14.5c1.7,4.4,3.1,9,4,13.6
						c1.4,6.8,4.4,13,6.7,19.5c2.2,6.2,1.6,12.2-0.9,18.4c-2.1,5.3-8,10.2-6.7,15.7c2,8.7,6.8,41.3,24,50.5"/>
				</defs>
				<clipPath id="SVGID_61_">
					<use xlink:href="#SVGID_60_"  style="overflow:visible;"/>
				</clipPath>
				<line class="st32" x1="847.5" y1="4.7" x2="805.4" y2="-37.3"/>
			</g>
		</g>
	</g>
	<path class="st33" d="M836.4,53.4c-7.5,11.7-18.7,11.2-29.8,24.2c-3.2,3.7,0.6,9.9,2.5,14.5c1.7,4.4,3.1,9,4,13.6
		c1.4,6.8,4.4,13,6.7,19.5c2.2,6.2,1.6,12.2-0.9,18.4c-2.1,5.3-8,10.2-6.7,15.7c2,8.7,6.8,41.3,24,50.5"/>
	<g>
		<g>
			<path id="SVGID_25_" class="st34" d="M14,158c0-7.1,15-15.6,16.7-16.6c3.8-2.3,7.2-5.7,10.3-8.8c-1-1.2,0-2.5,0.7-3.8
				c1-2.1,2.2-4,3.6-5.8c5.1-6.7,5.8-14.9,6.8-22.9c0.6-4.6-3.9-9.7-8.5-11.2c-1.3-0.4-2.3-1.2-3.2-2.3c-2.7-3.4-1.1-5.6-2.7-9.8
				c-0.7-1.8,3.7-6.3,2.1-6.7c-2.6-0.7-4.1-2.5-5.6-4.4c-1.1-1.5-7.8-5.9-9.6-6.5c-1.8-0.6-1.7-2.4-2-3.6c-1-3.6-8.3-1.4-8.4-5.3"/>
		</g>
	</g>
</g>
</svg>
