<?xml version="1.0" encoding="utf-8"?>
<!-- Generator: Adobe Illustrator 19.1.0, SVG Export Plug-In . SVG Version: 6.00 Build 0)  -->
<svg version="1.1" id="Calque_1" xmlns="http://www.w3.org/2000/svg" xmlns:xlink="http://www.w3.org/1999/xlink" x="0px" y="0px"
	 viewBox="0 0 850.394 237.496" style="enable-background:new 0 0 850.394 237.496;" xml:space="preserve">
<style type="text/css">
	.st0{fill:none;stroke:#FFFFFF;stroke-width:2;stroke-linecap:round;stroke-linejoin:round;stroke-miterlimit:10;}
	.st1{fill:#1D1D1B;}
	.st2{fill:none;stroke:#FFFFFF;stroke-width:2;stroke-linecap:round;stroke-linejoin:round;}
	.st3{fill:#FFFFFF;}
	.st4{clip-path:url(#SVGID_2_);}
	.st5{opacity:0.97;clip-path:url(#SVGID_4_);}
	.st6{clip-path:url(#SVGID_6_);fill:#1D1D1B;}
	.st7{clip-path:url(#SVGID_2_);fill:#FFFFFF;}
	.st8{clip-path:url(#SVGID_2_);fill:none;stroke:#FFFFFF;stroke-width:0.9;stroke-linecap:round;stroke-linejoin:round;}
	
		.st9{clip-path:url(#SVGID_8_);fill:none;stroke:#FFFFFF;stroke-width:0.9;stroke-linecap:round;stroke-linejoin:round;stroke-miterlimit:10;}
	.st10{fill:none;stroke:#FFFFFF;stroke-width:0.9;stroke-linecap:round;stroke-linejoin:round;}
	.st11{fill:none;stroke:#FFFFFF;stroke-width:0.9;stroke-linecap:round;stroke-linejoin:round;stroke-miterlimit:10;}
	.st12{clip-path:url(#SVGID_10_);}
	.st13{fill:none;stroke:#FFFFFF;stroke-width:0.45;stroke-miterlimit:10;}
	.st14{clip-path:url(#SVGID_12_);}
	.st15{clip-path:url(#SVGID_14_);}
	.st16{fill:#D3D3D3;}
	.st17{fill:none;stroke:#FFFFFF;stroke-width:0.7;stroke-linecap:round;stroke-linejoin:round;}
	.st18{fill:none;stroke:#FFFFFF;stroke-linecap:round;stroke-linejoin:round;stroke-miterlimit:10;}
	.st19{clip-path:url(#SVGID_16_);fill:none;stroke:#FFFFFF;stroke-width:0.45;stroke-miterlimit:10;}
	.st20{clip-path:url(#SVGID_18_);fill:none;stroke:#FFFFFF;stroke-width:0.3;stroke-miterlimit:10;}
	.st21{clip-path:url(#SVGID_18_);fill:none;stroke:#FFFFFF;stroke-width:0.4;stroke-miterlimit:10;}
	.st22{fill:none;stroke:#FFFFFF;stroke-width:1.1;stroke-miterlimit:10;}
	.st23{fill:none;stroke:#FFFFFF;stroke-width:1.1;stroke-linecap:round;stroke-linejoin:round;}
	.st24{clip-path:url(#SVGID_22_);fill:none;stroke:#FFFFFF;stroke-width:0.45;stroke-miterlimit:10;}
	.st25{clip-path:url(#SVGID_24_);fill:none;stroke:#FFFFFF;stroke-width:0.3;stroke-miterlimit:10;}
	.st26{clip-path:url(#SVGID_24_);fill:none;stroke:#FFFFFF;stroke-width:0.4;stroke-miterlimit:10;}
	.st27{clip-path:url(#SVGID_28_);}
	.st28{clip-path:url(#SVGID_30_);}
	.st29{clip-path:url(#SVGID_32_);}
	.st30{fill:none;stroke:#FFFFFF;stroke-width:0.7;stroke-linecap:round;stroke-linejoin:round;stroke-miterlimit:10;}
	.st31{clip-path:url(#SVGID_34_);fill:none;stroke:#FFFFFF;stroke-width:0.45;stroke-miterlimit:10;}
	.st32{clip-path:url(#SVGID_36_);fill:none;stroke:#FFFFFF;stroke-width:0.3;stroke-miterlimit:10;}
	.st33{fill:none;stroke:#FFFFFF;stroke-width:0.7;stroke-miterlimit:10;}
	.st34{clip-path:url(#SVGID_38_);}
	.st35{fill:none;stroke:#FFFFFF;stroke-width:0.3;stroke-linecap:round;stroke-linejoin:round;stroke-miterlimit:10;}
	.st36{clip-path:url(#SVGID_40_);fill:none;stroke:#FFFFFF;stroke-width:0.45;stroke-miterlimit:10;}
	.st37{clip-path:url(#SVGID_42_);fill:none;stroke:#FFFFFF;stroke-width:0.3;stroke-miterlimit:10;}
	.st38{clip-path:url(#SVGID_44_);}
</style>
<rect x="0" y="0" class="st16" width="850.394" height="237.496"/>
<g>
	<path class="st3" d="M48.775,73.484c0.022,0.055,0.066,0.055,0.088,0l1.222-3.422c0.044-0.121,0.11-0.165,0.209-0.165h0.726
		c0.144,0,0.242,0.144,0.177,0.308l-1.849,4.742v2.432c0,0.121-0.099,0.22-0.22,0.22h-0.616c-0.121,0-0.22-0.099-0.22-0.22v-2.42
		l-1.871-4.754c-0.065-0.164,0.033-0.308,0.177-0.308h0.726c0.1,0,0.165,0.044,0.209,0.165L48.775,73.484z"/>
	<path class="st3" d="M55.265,72.262c0.044-0.12,0.11-0.165,0.209-0.165h0.683c0.176,0,0.253,0.143,0.209,0.254l-1.937,5.082
		c-0.044,0.109-0.11,0.165-0.209,0.165h-0.605c-0.099,0-0.164-0.056-0.209-0.165l-1.947-5.082c-0.044-0.111,0.033-0.254,0.209-0.254
		h0.683c0.099,0,0.165,0.045,0.209,0.165l1.276,3.663c0.021,0.078,0.132,0.078,0.154,0L55.265,72.262z"/>
	<path class="st3" d="M58.081,75.168c-0.065,0-0.109,0.043-0.109,0.109c0,1.001,0.517,1.441,1.276,1.441
		c0.571,0,1.001-0.286,1.133-0.693c0.044-0.143,0.154-0.188,0.253-0.188h0.562c0.109,0,0.209,0.066,0.187,0.221
		c-0.132,0.957-0.99,1.65-2.134,1.65c-1.32,0-2.168-0.936-2.256-2.091c-0.033-0.44-0.033-1.101,0-1.54
		c0.088-1.155,0.936-2.09,2.256-2.09c1.331,0,2.2,0.824,2.2,2.199v0.76c0,0.121-0.1,0.221-0.221,0.221H58.081z M57.993,74.177
		c0,0.065,0.044,0.109,0.11,0.109h2.288c0.066,0,0.11-0.044,0.11-0.109c0-0.76-0.562-1.199-1.243-1.199
		C58.5,72.978,57.993,73.506,57.993,74.177z"/>
	<path class="st3" d="M65.209,73.077c-0.869,0-1.649,0.45-1.649,1.661v2.641c0,0.121-0.1,0.22-0.221,0.22h-0.55
		c-0.121,0-0.22-0.099-0.22-0.22v-5.061c0-0.121,0.099-0.221,0.22-0.221h0.374c0.121,0,0.188,0.066,0.22,0.221
		c0.033,0.143,0.033,0.385,0.198,0.385c0.264,0,0.451-0.605,1.628-0.605h0.221c0.121,0,0.22,0.1,0.22,0.221v0.539
		c0,0.121-0.099,0.22-0.22,0.22H65.209z"/>
	<path class="st3" d="M66.199,75.618c-0.033-0.44-0.033-1.101,0-1.54c0.088-1.155,0.935-2.09,2.09-2.09
		c0.506,0,0.804,0.274,1.023,0.274c0.165,0,0.242-0.065,0.242-0.274v-1.947c0-0.121,0.099-0.221,0.22-0.221h0.55
		c0.121,0,0.221,0.1,0.221,0.221v7.338c0,0.121-0.1,0.22-0.221,0.22H69.95c-0.065,0-0.109-0.033-0.153-0.077
		c-0.066-0.076-0.165-0.176-0.275-0.176c-0.319,0-0.418,0.363-1.232,0.363C67.134,77.709,66.287,76.773,66.199,75.618z
		 M67.134,75.618c0.044,0.583,0.506,1.101,1.266,1.101c0.759,0,1.221-0.518,1.265-1.101c0.033-0.45,0.033-1.089,0-1.54
		c-0.044-0.583-0.506-1.1-1.265-1.1c-0.76,0-1.222,0.517-1.266,1.1C67.1,74.529,67.1,75.168,67.134,75.618z"/>
	<path class="st3" d="M71.754,74.078c0.088-1.155,0.935-2.09,2.255-2.09s2.167,0.935,2.256,2.09c0.032,0.439,0.032,1.1,0,1.54
		c-0.089,1.155-0.936,2.091-2.256,2.091s-2.167-0.936-2.255-2.091C71.721,75.177,71.721,74.517,71.754,74.078z M72.744,75.618
		c0.044,0.583,0.506,1.101,1.265,1.101s1.222-0.518,1.266-1.101c0.032-0.45,0.032-1.089,0-1.54c-0.044-0.583-0.507-1.1-1.266-1.1
		s-1.221,0.517-1.265,1.1C72.711,74.529,72.711,75.168,72.744,75.618z"/>
	<path class="st3" d="M81.819,77.379c0,0.121-0.099,0.22-0.22,0.22h-0.551c-0.121,0-0.22-0.099-0.22-0.22v-3.301
		c0-0.704-0.528-1.1-1.21-1.1c-0.683,0-1.21,0.406-1.21,1.045v3.355c0,0.121-0.1,0.22-0.221,0.22h-0.55
		c-0.121,0-0.22-0.099-0.22-0.22v-5.061c0-0.121,0.099-0.221,0.22-0.221h0.484c0.065,0,0.109,0.033,0.153,0.077
		c0.066,0.077,0.165,0.177,0.275,0.177c0.319,0,0.407-0.363,1.177-0.363c1.232,0,2.091,0.791,2.091,2.09V77.379z"/>
	<path class="st3" d="M86.417,74.066c0.121,0,0.22,0.1,0.22,0.221v0.748c0,0.121-0.099,0.221-0.22,0.221h-3.003
		c-0.121,0-0.221-0.1-0.221-0.221v-0.748c0-0.121,0.1-0.221,0.221-0.221H86.417z"/>
	<path class="st3" d="M89.111,77.379c0,0.121-0.099,0.22-0.22,0.22h-0.55c-0.121,0-0.22-0.099-0.22-0.22v-7.338
		c0-0.121,0.099-0.221,0.22-0.221h0.55c0.121,0,0.22,0.1,0.22,0.221V77.379z"/>
	<path class="st3" d="M91.41,75.168c-0.065,0-0.109,0.043-0.109,0.109c0,1.001,0.517,1.441,1.276,1.441
		c0.571,0,1.001-0.286,1.133-0.693c0.044-0.143,0.154-0.188,0.253-0.188h0.562c0.109,0,0.209,0.066,0.187,0.221
		c-0.132,0.957-0.99,1.65-2.134,1.65c-1.32,0-2.168-0.936-2.256-2.091c-0.033-0.44-0.033-1.101,0-1.54
		c0.088-1.155,0.936-2.09,2.256-2.09c1.331,0,2.2,0.824,2.2,2.199v0.76c0,0.121-0.1,0.221-0.221,0.221H91.41z M91.322,74.177
		c0,0.065,0.044,0.109,0.11,0.109h2.288c0.066,0,0.11-0.044,0.11-0.109c0-0.76-0.562-1.199-1.243-1.199
		C91.829,72.978,91.322,73.506,91.322,74.177z"/>
	<path class="st3" d="M99.561,73.857h-0.55c-0.121,0-0.22-0.098-0.22-0.219c0-0.386-0.298-0.716-1.023-0.716
		c-0.683,0-0.969,0.341-0.969,0.66c0,0.429,0.43,0.572,0.969,0.671c0.924,0.165,2.167,0.352,2.167,1.694
		c0,1.177-1.023,1.761-2.167,1.761c-1.101,0-2.179-0.551-2.179-1.761v-0.144c0-0.12,0.1-0.219,0.221-0.219h0.55
		c0.121,0,0.22,0.099,0.22,0.219v0.144c0,0.66,0.683,0.814,1.188,0.814c0.594,0,1.177-0.154,1.177-0.814
		c0-0.45-0.539-0.571-1.177-0.704c-0.902-0.188-1.991-0.418-1.991-1.661c0-0.99,0.99-1.595,1.991-1.595
		c1.023,0,2.013,0.604,2.013,1.65C99.781,73.759,99.682,73.857,99.561,73.857z"/>
	<path class="st3" d="M104.281,74.066c0.121,0,0.22,0.1,0.22,0.221v0.748c0,0.121-0.099,0.221-0.22,0.221h-3.004
		c-0.121,0-0.22-0.1-0.22-0.221v-0.748c0-0.121,0.099-0.221,0.22-0.221H104.281z"/>
	<path class="st3" d="M110.397,71.943c0,0.506-0.21,1.123-0.628,1.486c-0.088,0.076-0.088,0.176,0,0.241
		c0.451,0.363,0.781,1.056,0.781,1.684c0,1.276-1.045,2.244-2.311,2.244h-2.035c-0.121,0-0.22-0.099-0.22-0.22v-7.262
		c0-0.121,0.099-0.22,0.22-0.22h2.035C109.429,69.897,110.397,70.756,110.397,71.943z M108.24,73.066
		c0.716,0,1.111-0.484,1.111-1.123c0-0.648-0.539-1-1.111-1h-1.122c-0.065,0-0.109,0.043-0.109,0.109v1.903
		c0,0.065,0.044,0.11,0.109,0.11H108.24z M107.118,74.056c-0.055-0.033-0.109,0.043-0.109,0.109v2.277
		c0,0.066,0.044,0.11,0.109,0.11h1.122c0.683,0,1.266-0.54,1.266-1.199c0-0.771-0.583-1.298-1.266-1.298H107.118z"/>
	<path class="st3" d="M112.519,73.56c0,0.188-0.154,0.188-0.253,0.188h-0.495c-0.165,0-0.221-0.088-0.221-0.221
		c0-1.022,1.057-1.539,1.991-1.539c1.243,0,2.014,0.539,2.014,1.76v3.631c0,0.121-0.099,0.22-0.22,0.22h-0.374
		c-0.066,0-0.11-0.022-0.154-0.077c-0.066-0.088-0.11-0.23-0.22-0.23c-0.198,0-0.474,0.418-1.287,0.418
		c-1.354,0-2.003-0.826-2.003-1.761c0-0.913,0.66-1.672,1.815-1.672h1.342c0.066,0,0.11-0.044,0.11-0.11v-0.418
		c0-0.594-0.407-0.88-1.023-0.88C113.157,72.868,112.519,73.033,112.519,73.56z M113.113,75.177c-0.562,0-0.825,0.297-0.825,0.76
		c0,0.539,0.341,0.857,0.979,0.857c1.012,0,1.386-0.406,1.386-1.154v-0.353c0-0.065-0.044-0.11-0.109-0.11H113.113z"/>
	<path class="st3" d="M117.997,70.756c0,0.099-0.077,0.176-0.176,0.176h-0.748c-0.1,0-0.176-0.077-0.176-0.176v-0.76
		c0-0.088,0.076-0.176,0.176-0.176h0.748c0.099,0,0.176,0.088,0.176,0.176V70.756z M117.964,77.379c0,0.121-0.099,0.22-0.22,0.22
		h-0.572c-0.121,0-0.22-0.099-0.22-0.22v-5.061c0-0.121,0.099-0.221,0.22-0.221h0.572c0.121,0,0.22,0.1,0.22,0.221V77.379z"/>
	<path class="st3" d="M123.772,77.379c0,0.121-0.099,0.22-0.22,0.22h-0.55c-0.121,0-0.22-0.099-0.22-0.22v-3.301
		c0-0.704-0.528-1.1-1.211-1.1c-0.682,0-1.21,0.406-1.21,1.045v3.355c0,0.121-0.099,0.22-0.22,0.22h-0.551
		c-0.12,0-0.22-0.099-0.22-0.22v-5.061c0-0.121,0.1-0.221,0.22-0.221h0.484c0.066,0,0.11,0.033,0.154,0.077
		c0.065,0.077,0.165,0.177,0.275,0.177c0.318,0,0.406-0.363,1.177-0.363c1.232,0,2.09,0.791,2.09,2.09V77.379z"/>
	<path class="st3" d="M128.701,73.857h-0.551c-0.121,0-0.22-0.098-0.22-0.219c0-0.386-0.297-0.716-1.023-0.716
		c-0.682,0-0.968,0.341-0.968,0.66c0,0.429,0.429,0.572,0.968,0.671c0.925,0.165,2.168,0.352,2.168,1.694
		c0,1.177-1.023,1.761-2.168,1.761c-1.1,0-2.178-0.551-2.178-1.761v-0.144c0-0.12,0.099-0.219,0.22-0.219h0.55
		c0.121,0,0.221,0.099,0.221,0.219v0.144c0,0.66,0.682,0.814,1.188,0.814c0.595,0,1.178-0.154,1.178-0.814
		c0-0.45-0.539-0.571-1.178-0.704c-0.901-0.188-1.991-0.418-1.991-1.661c0-0.99,0.99-1.595,1.991-1.595
		c1.023,0,2.014,0.604,2.014,1.65C128.921,73.759,128.822,73.857,128.701,73.857z"/>
</g>
<g>
	<path class="st3" d="M123.732,160.165c0,0.065,0.045,0.11,0.11,0.11h2.641c0.121,0,0.22,0.099,0.22,0.22v0.604
		c0,0.121-0.099,0.221-0.22,0.221h-3.575c-0.121,0-0.221-0.1-0.221-0.221v-7.261c0-0.121,0.1-0.22,0.221-0.22h3.553
		c0.121,0,0.221,0.099,0.221,0.22v0.605c0,0.121-0.1,0.22-0.221,0.22h-2.618c-0.065,0-0.11,0.044-0.11,0.11v1.98
		c0,0.065,0.045,0.109,0.11,0.109h2.497c0.121,0,0.221,0.1,0.221,0.22v0.605c0,0.121-0.1,0.22-0.221,0.22h-2.497
		c-0.065,0-0.11,0.044-0.11,0.11V160.165z"/>
	<path class="st3" d="M132.17,157.8c0.033,0.439,0.033,1.1,0,1.54c-0.088,1.155-0.935,2.09-2.09,2.09
		c-0.506,0-0.803-0.274-1.023-0.274c-0.165,0-0.242,0.065-0.242,0.274v1.871c0,0.12-0.099,0.22-0.22,0.22h-0.55
		c-0.121,0-0.221-0.1-0.221-0.22v-7.262c0-0.121,0.1-0.22,0.221-0.22h0.374c0.065,0,0.11,0.033,0.153,0.077
		c0.066,0.077,0.166,0.176,0.275,0.176c0.319,0,0.418-0.363,1.232-0.363C131.235,155.709,132.082,156.644,132.17,157.8z
		 M131.235,157.8c-0.044-0.583-0.507-1.101-1.265-1.101c-0.76,0-1.222,0.518-1.266,1.101c-0.033,0.451-0.033,1.089,0,1.54
		c0.044,0.583,0.506,1.1,1.266,1.1c0.758,0,1.221-0.517,1.265-1.1C131.267,158.888,131.267,158.251,131.235,157.8z"/>
	<path class="st3" d="M134.248,158.888c-0.065,0-0.109,0.044-0.109,0.11c0,1.001,0.518,1.44,1.276,1.44
		c0.571,0,1.001-0.285,1.134-0.692c0.043-0.144,0.153-0.188,0.252-0.188h0.562c0.11,0,0.209,0.066,0.187,0.221
		c-0.131,0.957-0.99,1.649-2.134,1.649c-1.32,0-2.167-0.935-2.255-2.09c-0.033-0.44-0.033-1.101,0-1.54
		c0.088-1.155,0.935-2.091,2.255-2.091c1.331,0,2.2,0.825,2.2,2.2v0.76c0,0.121-0.1,0.22-0.221,0.22H134.248z M134.16,157.898
		c0,0.066,0.045,0.11,0.111,0.11h2.287c0.066,0,0.11-0.044,0.11-0.11c0-0.759-0.562-1.199-1.243-1.199
		C134.667,156.699,134.16,157.227,134.16,157.898z"/>
	<path class="st3" d="M143.137,161.099c0,0.121-0.099,0.221-0.22,0.221h-0.55c-0.121,0-0.221-0.1-0.221-0.221v-3.3
		c0-0.704-0.527-1.101-1.21-1.101s-1.21,0.407-1.21,1.045v3.355c0,0.121-0.1,0.221-0.221,0.221h-0.549
		c-0.121,0-0.221-0.1-0.221-0.221v-5.061c0-0.121,0.1-0.22,0.221-0.22h0.483c0.065,0,0.11,0.033,0.153,0.077
		c0.066,0.077,0.166,0.176,0.275,0.176c0.319,0,0.407-0.363,1.178-0.363c1.232,0,2.09,0.792,2.09,2.091V161.099z"/>
	<path class="st3" d="M144.236,159.34c-0.033-0.44-0.033-1.101,0-1.54c0.088-1.155,0.936-2.091,2.09-2.091
		c0.506,0,0.804,0.275,1.023,0.275c0.165,0,0.242-0.066,0.242-0.275v-1.947c0-0.121,0.1-0.22,0.221-0.22h0.549
		c0.121,0,0.221,0.099,0.221,0.22v7.338c0,0.121-0.1,0.221-0.221,0.221h-0.373c-0.066,0-0.11-0.033-0.154-0.077
		c-0.066-0.077-0.165-0.176-0.275-0.176c-0.318,0-0.418,0.362-1.232,0.362C145.172,161.429,144.324,160.495,144.236,159.34z
		 M145.172,159.34c0.043,0.583,0.506,1.1,1.265,1.1s1.222-0.517,1.265-1.1c0.033-0.451,0.033-1.089,0-1.54
		c-0.043-0.583-0.506-1.101-1.265-1.101s-1.222,0.518-1.265,1.101C145.139,158.251,145.139,158.888,145.172,159.34z"/>
	<path class="st3" d="M150.881,158.888c-0.066,0-0.11,0.044-0.11,0.11c0,1.001,0.517,1.44,1.276,1.44
		c0.572,0,1.001-0.285,1.133-0.692c0.045-0.144,0.154-0.188,0.254-0.188h0.561c0.109,0,0.209,0.066,0.188,0.221
		c-0.133,0.957-0.99,1.649-2.135,1.649c-1.32,0-2.168-0.935-2.256-2.09c-0.033-0.44-0.033-1.101,0-1.54
		c0.088-1.155,0.936-2.091,2.256-2.091c1.331,0,2.2,0.825,2.2,2.2v0.76c0,0.121-0.099,0.22-0.22,0.22H150.881z M150.793,157.898
		c0,0.066,0.043,0.11,0.109,0.11h2.289c0.065,0,0.109-0.044,0.109-0.11c0-0.759-0.561-1.199-1.243-1.199
		C151.299,156.699,150.793,157.227,150.793,157.898z"/>
	<path class="st3" d="M159.031,157.579h-0.55c-0.121,0-0.22-0.099-0.22-0.22c0-0.385-0.297-0.715-1.023-0.715
		c-0.682,0-0.969,0.341-0.969,0.66c0,0.429,0.43,0.572,0.969,0.671c0.924,0.165,2.168,0.352,2.168,1.694
		c0,1.177-1.023,1.76-2.168,1.76c-1.1,0-2.178-0.55-2.178-1.76v-0.144c0-0.12,0.099-0.22,0.22-0.22h0.55
		c0.121,0,0.221,0.1,0.221,0.22v0.144c0,0.66,0.682,0.814,1.188,0.814c0.594,0,1.178-0.154,1.178-0.814
		c0-0.451-0.539-0.572-1.178-0.704c-0.902-0.188-1.991-0.418-1.991-1.661c0-0.99,0.99-1.596,1.991-1.596
		c1.023,0,2.014,0.605,2.014,1.65C159.252,157.48,159.152,157.579,159.031,157.579z"/>
</g>
<g>
	<path class="st3" d="M233.342,65.314c-0.121,0-0.176-0.033-0.23-0.188l-2.168-5.445c-0.021-0.044-0.088-0.033-0.088,0.021v5.391
		c0,0.121-0.1,0.221-0.221,0.221h-0.561c-0.121,0-0.22-0.1-0.22-0.221v-7.26c0-0.121,0.099-0.221,0.22-0.221h0.913
		c0.121,0,0.177,0.033,0.231,0.188l2.167,5.424c0.022,0.043,0.088,0.033,0.088-0.022v-5.368c0-0.121,0.099-0.221,0.22-0.221h0.562
		c0.121,0,0.22,0.1,0.22,0.221v7.26c0,0.121-0.099,0.221-0.22,0.221H233.342z"/>
</g>
<g>
	<path class="st3" d="M265.178,189.471c0,1.222-1.022,2.288-2.475,2.288c-1.32,0-2.299-0.869-2.476-2.288
		c-0.11-0.891-0.11-2.42,0-3.301c0.144-1.199,1.023-2.288,2.476-2.288c1.32,0,2.475,0.858,2.475,2.288v0.154
		c0,0.121-0.099,0.22-0.219,0.22h-0.605c-0.121,0-0.221-0.099-0.221-0.22v-0.154c0-0.659-0.561-1.231-1.43-1.243
		c-0.715,0-1.332,0.44-1.43,1.243c-0.111,0.902-0.111,2.398,0,3.301c0.088,0.639,0.571,1.243,1.43,1.243
		c0.736,0,1.43-0.439,1.43-1.243v-0.154c0-0.121,0.1-0.22,0.221-0.22h0.605c0.12,0,0.219,0.099,0.219,0.22V189.471z"/>
	<path class="st3" d="M269.678,188.151c0-0.572-0.496-1.1-1.178-1.1s-1.178,0.473-1.178,1.045v3.355c0,0.121-0.098,0.22-0.219,0.22
		h-0.551c-0.121,0-0.22-0.099-0.22-0.22v-7.338c0-0.121,0.099-0.221,0.22-0.221h0.551c0.121,0,0.219,0.1,0.219,0.221v1.991
		c0,0.099,0.089,0.23,0.242,0.23c0.221,0,0.506-0.274,1.013-0.274c1.155,0,2.091,0.935,2.091,2.09v3.301
		c0,0.121-0.1,0.22-0.221,0.22h-0.55c-0.121,0-0.22-0.099-0.22-0.22V188.151z"/>
	<path class="st3" d="M272.966,187.634c0,0.187-0.154,0.187-0.253,0.187h-0.495c-0.165,0-0.22-0.088-0.22-0.22
		c0-1.023,1.056-1.54,1.99-1.54c1.244,0,2.014,0.539,2.014,1.76v3.631c0,0.121-0.099,0.22-0.22,0.22h-0.374
		c-0.066,0-0.11-0.021-0.154-0.077c-0.066-0.088-0.109-0.23-0.22-0.23c-0.198,0-0.474,0.418-1.287,0.418
		c-1.354,0-2.003-0.825-2.003-1.761c0-0.913,0.66-1.672,1.815-1.672h1.343c0.065,0,0.109-0.044,0.109-0.11v-0.418
		c0-0.594-0.406-0.88-1.023-0.88C273.603,186.941,272.966,187.106,272.966,187.634z M273.559,189.252
		c-0.562,0-0.825,0.297-0.825,0.759c0,0.539,0.342,0.858,0.979,0.858c1.013,0,1.386-0.407,1.386-1.155v-0.353
		c0-0.065-0.043-0.109-0.109-0.109H273.559z"/>
	<path class="st3" d="M280.566,186.336c0.045-0.12,0.11-0.165,0.209-0.165h0.683c0.177,0,0.253,0.144,0.209,0.254l-1.937,5.082
		c-0.043,0.11-0.109,0.165-0.209,0.165h-0.604c-0.099,0-0.165-0.055-0.21-0.165l-1.947-5.082c-0.043-0.11,0.033-0.254,0.209-0.254
		h0.683c0.099,0,0.165,0.045,0.209,0.165l1.276,3.664c0.021,0.077,0.132,0.077,0.154,0L280.566,186.336z"/>
	<path class="st3" d="M282.293,188.151c0.088-1.155,0.936-2.09,2.256-2.09s2.167,0.935,2.256,2.09c0.032,0.44,0.032,1.101,0,1.54
		c-0.089,1.155-0.936,2.091-2.256,2.091s-2.168-0.936-2.256-2.091C282.26,189.252,282.26,188.592,282.293,188.151z M283.283,189.691
		c0.045,0.584,0.506,1.101,1.266,1.101c0.759,0,1.221-0.517,1.266-1.101c0.032-0.45,0.032-1.089,0-1.54
		c-0.045-0.583-0.507-1.1-1.266-1.1c-0.76,0-1.221,0.517-1.266,1.1C283.25,188.602,283.25,189.241,283.283,189.691z"/>
	<path class="st3" d="M290.598,187.15c-0.869,0-1.649,0.451-1.649,1.661v2.641c0,0.121-0.1,0.22-0.221,0.22h-0.55
		c-0.121,0-0.22-0.099-0.22-0.22v-5.061c0-0.121,0.099-0.221,0.22-0.221h0.374c0.121,0,0.188,0.066,0.22,0.221
		c0.033,0.143,0.033,0.385,0.198,0.385c0.264,0,0.451-0.605,1.628-0.605h0.22c0.121,0,0.221,0.1,0.221,0.221v0.539
		c0,0.121-0.1,0.22-0.221,0.22H290.598z"/>
	<path class="st3" d="M296.154,191.452c0,0.121-0.1,0.22-0.221,0.22h-0.55c-0.121,0-0.22-0.099-0.22-0.22v-3.301
		c0-0.704-0.528-1.1-1.211-1.1c-0.682,0-1.209,0.407-1.209,1.045v3.355c0,0.121-0.1,0.22-0.221,0.22h-0.55
		c-0.121,0-0.22-0.099-0.22-0.22v-5.061c0-0.121,0.099-0.221,0.22-0.221h0.483c0.066,0,0.11,0.033,0.154,0.077
		c0.066,0.077,0.165,0.177,0.275,0.177c0.318,0,0.406-0.363,1.177-0.363c1.232,0,2.091,0.792,2.091,2.09V191.452z"/>
	<path class="st3" d="M298.453,187.634c0,0.187-0.154,0.187-0.254,0.187h-0.494c-0.166,0-0.221-0.088-0.221-0.22
		c0-1.023,1.057-1.54,1.991-1.54c1.243,0,2.013,0.539,2.013,1.76v3.631c0,0.121-0.098,0.22-0.219,0.22h-0.375
		c-0.065,0-0.109-0.021-0.154-0.077c-0.065-0.088-0.109-0.23-0.219-0.23c-0.199,0-0.474,0.418-1.287,0.418
		c-1.354,0-2.003-0.825-2.003-1.761c0-0.913,0.66-1.672,1.815-1.672h1.342c0.066,0,0.11-0.044,0.11-0.11v-0.418
		c0-0.594-0.407-0.88-1.023-0.88C299.091,186.941,298.453,187.106,298.453,187.634z M299.047,189.252
		c-0.562,0-0.825,0.297-0.825,0.759c0,0.539,0.341,0.858,0.979,0.858c1.012,0,1.386-0.407,1.386-1.155v-0.353
		c0-0.065-0.044-0.109-0.11-0.109H299.047z"/>
	<path class="st3" d="M304.635,189.912c0.021,0.055,0.066,0.055,0.088,0l1.276-3.576c0.044-0.12,0.11-0.165,0.209-0.165h0.649
		c0.176,0,0.252,0.144,0.209,0.254l-2.795,7.282c-0.044,0.121-0.109,0.165-0.209,0.165h-0.594c-0.176,0-0.254-0.143-0.209-0.253
		l0.814-2.244c0.021-0.055,0.032-0.088,0.01-0.143l-1.892-4.808c-0.044-0.11,0.032-0.254,0.209-0.254h0.671
		c0.1,0,0.165,0.045,0.209,0.165L304.635,189.912z"/>
</g>
<g>
	<path class="st3" d="M475.74,154.114c1.276,0,2.156,1.034,2.311,2.311c0.11,0.88,0.099,2.2,0,3.08
		c-0.143,1.266-1.034,2.311-2.311,2.311h-2.09c-0.121,0-0.22-0.099-0.22-0.22v-7.262c0-0.121,0.099-0.22,0.22-0.22H475.74z
		 M474.585,155.159c-0.065,0-0.109,0.044-0.109,0.11v5.391c0,0.066,0.044,0.11,0.109,0.11h1.155c0.671,0,1.188-0.605,1.266-1.266
		c0.109-0.88,0.109-2.2,0-3.08c-0.077-0.66-0.595-1.266-1.266-1.266H474.585z"/>
	<path class="st3" d="M480.327,157.778c0,0.187-0.154,0.187-0.253,0.187h-0.495c-0.165,0-0.22-0.088-0.22-0.22
		c0-1.023,1.056-1.54,1.991-1.54c1.243,0,2.013,0.539,2.013,1.76v3.631c0,0.121-0.099,0.22-0.22,0.22h-0.374
		c-0.065,0-0.11-0.022-0.154-0.077c-0.065-0.088-0.109-0.23-0.22-0.23c-0.198,0-0.473,0.418-1.287,0.418
		c-1.354,0-2.002-0.825-2.002-1.761c0-0.913,0.66-1.672,1.814-1.672h1.343c0.065,0,0.11-0.044,0.11-0.11v-0.418
		c0-0.594-0.407-0.88-1.023-0.88C480.966,157.085,480.327,157.25,480.327,157.778z M480.921,159.395
		c-0.561,0-0.824,0.297-0.824,0.759c0,0.539,0.341,0.858,0.979,0.858c1.013,0,1.387-0.407,1.387-1.155v-0.353
		c0-0.065-0.044-0.109-0.11-0.109H480.921z"/>
	<path class="st3" d="M485.806,154.972c0,0.099-0.077,0.176-0.177,0.176h-0.748c-0.099,0-0.176-0.077-0.176-0.176v-0.76
		c0-0.088,0.077-0.176,0.176-0.176h0.748c0.1,0,0.177,0.088,0.177,0.176V154.972z M485.772,161.595c0,0.121-0.1,0.22-0.221,0.22
		h-0.571c-0.121,0-0.221-0.099-0.221-0.22v-5.062c0-0.12,0.1-0.22,0.221-0.22h0.571c0.121,0,0.221,0.1,0.221,0.22V161.595z"/>
	<path class="st3" d="M488.224,161.595c0,0.121-0.099,0.22-0.22,0.22h-0.55c-0.121,0-0.22-0.099-0.22-0.22v-7.338
		c0-0.121,0.099-0.221,0.22-0.221h0.55c0.121,0,0.22,0.1,0.22,0.221V161.595z"/>
	<path class="st3" d="M490.644,161.595c0,0.121-0.099,0.22-0.22,0.22h-0.55c-0.121,0-0.22-0.099-0.22-0.22v-7.338
		c0-0.121,0.099-0.221,0.22-0.221h0.55c0.121,0,0.22,0.1,0.22,0.221V161.595z"/>
	<path class="st3" d="M492.943,159.383c-0.065,0-0.109,0.044-0.109,0.11c0,1.001,0.517,1.441,1.276,1.441
		c0.571,0,1.001-0.286,1.133-0.693c0.044-0.143,0.154-0.187,0.253-0.187h0.562c0.109,0,0.209,0.065,0.187,0.22
		c-0.132,0.957-0.99,1.65-2.134,1.65c-1.32,0-2.168-0.936-2.256-2.091c-0.033-0.439-0.033-1.1,0-1.54
		c0.088-1.155,0.936-2.09,2.256-2.09c1.331,0,2.2,0.824,2.2,2.2v0.759c0,0.121-0.1,0.22-0.221,0.22H492.943z M492.855,158.393
		c0,0.066,0.044,0.11,0.11,0.11h2.288c0.066,0,0.11-0.044,0.11-0.11c0-0.759-0.562-1.199-1.243-1.199
		C493.362,157.194,492.855,157.722,492.855,158.393z"/>
	<path class="st3" d="M501.832,161.595c0,0.121-0.099,0.22-0.22,0.22h-0.55c-0.121,0-0.22-0.099-0.22-0.22v-3.301
		c0-0.704-0.528-1.101-1.211-1.101c-0.682,0-1.21,0.407-1.21,1.046v3.355c0,0.121-0.099,0.22-0.22,0.22h-0.551
		c-0.12,0-0.22-0.099-0.22-0.22v-5.062c0-0.12,0.1-0.22,0.22-0.22h0.484c0.066,0,0.11,0.033,0.154,0.077
		c0.065,0.077,0.165,0.176,0.275,0.176c0.318,0,0.406-0.362,1.177-0.362c1.232,0,2.09,0.792,2.09,2.09V161.595z"/>
	<path class="st3" d="M506.761,158.075h-0.551c-0.121,0-0.22-0.1-0.22-0.221c0-0.385-0.297-0.715-1.023-0.715
		c-0.682,0-0.968,0.341-0.968,0.66c0,0.429,0.429,0.572,0.968,0.671c0.925,0.165,2.168,0.353,2.168,1.694
		c0,1.178-1.023,1.761-2.168,1.761c-1.1,0-2.178-0.551-2.178-1.761v-0.143c0-0.121,0.099-0.221,0.22-0.221h0.55
		c0.121,0,0.221,0.1,0.221,0.221v0.143c0,0.66,0.682,0.814,1.188,0.814c0.595,0,1.178-0.154,1.178-0.814
		c0-0.451-0.539-0.572-1.178-0.704c-0.901-0.187-1.991-0.418-1.991-1.661c0-0.99,0.99-1.595,1.991-1.595
		c1.023,0,2.014,0.604,2.014,1.649C506.98,157.975,506.882,158.075,506.761,158.075z"/>
</g>
<g>
	<path class="st3" d="M547.697,149.763c0,1.221-1.022,2.288-2.475,2.288c-1.32,0-2.299-0.869-2.476-2.288
		c-0.11-0.892-0.11-2.421,0-3.301c0.144-1.199,1.023-2.288,2.476-2.288c1.32,0,2.475,0.858,2.475,2.288v0.154
		c0,0.121-0.099,0.22-0.219,0.22h-0.605c-0.121,0-0.221-0.099-0.221-0.22v-0.154c0-0.66-0.561-1.232-1.43-1.243
		c-0.715,0-1.332,0.44-1.43,1.243c-0.111,0.902-0.111,2.398,0,3.301c0.088,0.638,0.571,1.243,1.43,1.243
		c0.736,0,1.43-0.44,1.43-1.243v-0.154c0-0.121,0.1-0.22,0.221-0.22h0.605c0.12,0,0.219,0.099,0.219,0.22V149.763z"/>
	<path class="st3" d="M548.633,148.443c0.088-1.155,0.935-2.09,2.255-2.09s2.167,0.935,2.255,2.09c0.033,0.44,0.033,1.101,0,1.54
		c-0.088,1.155-0.935,2.091-2.255,2.091s-2.167-0.936-2.255-2.091C548.599,149.544,548.599,148.883,548.633,148.443z
		 M549.623,149.983c0.043,0.583,0.506,1.101,1.265,1.101s1.222-0.518,1.265-1.101c0.033-0.451,0.033-1.089,0-1.54
		c-0.043-0.583-0.506-1.101-1.265-1.101s-1.222,0.518-1.265,1.101C549.59,148.894,549.59,149.532,549.623,149.983z"/>
	<path class="st3" d="M557.961,148.223h-0.551c-0.121,0-0.219-0.1-0.219-0.221c0-0.385-0.298-0.715-1.023-0.715
		c-0.683,0-0.969,0.341-0.969,0.66c0,0.429,0.43,0.572,0.969,0.671c0.924,0.165,2.167,0.353,2.167,1.694
		c0,1.178-1.023,1.761-2.167,1.761c-1.101,0-2.179-0.551-2.179-1.761v-0.143c0-0.121,0.099-0.221,0.22-0.221h0.551
		c0.121,0,0.22,0.1,0.22,0.221v0.143c0,0.66,0.683,0.814,1.188,0.814c0.594,0,1.177-0.154,1.177-0.814
		c0-0.451-0.539-0.572-1.177-0.704c-0.902-0.187-1.992-0.418-1.992-1.661c0-0.99,0.99-1.595,1.992-1.595
		c1.023,0,2.013,0.604,2.013,1.649C558.181,148.124,558.082,148.223,557.961,148.223z"/>
	<path class="st3" d="M563.01,148.223h-0.551c-0.121,0-0.219-0.1-0.219-0.221c0-0.385-0.298-0.715-1.023-0.715
		c-0.683,0-0.969,0.341-0.969,0.66c0,0.429,0.43,0.572,0.969,0.671c0.924,0.165,2.167,0.353,2.167,1.694
		c0,1.178-1.023,1.761-2.167,1.761c-1.101,0-2.179-0.551-2.179-1.761v-0.143c0-0.121,0.099-0.221,0.22-0.221h0.551
		c0.121,0,0.22,0.1,0.22,0.221v0.143c0,0.66,0.683,0.814,1.188,0.814c0.594,0,1.177-0.154,1.177-0.814
		c0-0.451-0.539-0.572-1.177-0.704c-0.902-0.187-1.992-0.418-1.992-1.661c0-0.99,0.99-1.595,1.992-1.595
		c1.023,0,2.013,0.604,2.013,1.649C563.229,148.124,563.131,148.223,563.01,148.223z"/>
	<path class="st3" d="M564.23,148.443c0.088-1.155,0.935-2.09,2.255-2.09s2.167,0.935,2.255,2.09c0.033,0.44,0.033,1.101,0,1.54
		c-0.088,1.155-0.935,2.091-2.255,2.091s-2.167-0.936-2.255-2.091C564.197,149.544,564.197,148.883,564.23,148.443z
		 M565.221,149.983c0.043,0.583,0.506,1.101,1.265,1.101s1.222-0.518,1.265-1.101c0.033-0.451,0.033-1.089,0-1.54
		c-0.043-0.583-0.506-1.101-1.265-1.101s-1.222,0.518-1.265,1.101C565.187,148.894,565.187,149.532,565.221,149.983z"/>
	<path class="st3" d="M574.295,151.744c0,0.121-0.098,0.22-0.219,0.22h-0.551c-0.121,0-0.22-0.099-0.22-0.22v-3.301
		c0-0.704-0.528-1.101-1.21-1.101c-0.683,0-1.211,0.407-1.211,1.046v3.355c0,0.121-0.099,0.22-0.22,0.22h-0.55
		c-0.121,0-0.221-0.099-0.221-0.22v-5.062c0-0.12,0.1-0.22,0.221-0.22h0.484c0.065,0,0.109,0.033,0.153,0.077
		c0.066,0.077,0.165,0.176,0.275,0.176c0.319,0,0.407-0.362,1.177-0.362c1.232,0,2.09,0.792,2.09,2.09V151.744z"/>
	<path class="st3" d="M576.594,147.926c0,0.187-0.154,0.187-0.252,0.187h-0.496c-0.164,0-0.22-0.088-0.22-0.22
		c0-1.023,1.056-1.54,1.991-1.54c1.243,0,2.014,0.539,2.014,1.76v3.631c0,0.121-0.1,0.22-0.221,0.22h-0.373
		c-0.066,0-0.111-0.022-0.154-0.077c-0.066-0.088-0.11-0.23-0.221-0.23c-0.197,0-0.473,0.418-1.287,0.418
		c-1.354,0-2.002-0.825-2.002-1.761c0-0.913,0.66-1.672,1.815-1.672h1.342c0.066,0,0.11-0.044,0.11-0.11v-0.418
		c0-0.594-0.407-0.88-1.023-0.88C577.232,147.233,576.594,147.398,576.594,147.926z M577.188,149.544
		c-0.562,0-0.825,0.297-0.825,0.759c0,0.539,0.341,0.858,0.979,0.858c1.013,0,1.387-0.407,1.387-1.155v-0.353
		c0-0.065-0.044-0.109-0.109-0.109H577.188z"/>
	<path class="st3" d="M582.776,150.204c0.022,0.055,0.065,0.055,0.088,0l1.276-3.576c0.044-0.121,0.109-0.165,0.209-0.165h0.648
		c0.176,0,0.254,0.144,0.209,0.253l-2.794,7.283c-0.044,0.121-0.11,0.165-0.209,0.165h-0.595c-0.176,0-0.252-0.143-0.209-0.253
		l0.814-2.244c0.022-0.055,0.033-0.088,0.012-0.144l-1.893-4.808c-0.044-0.109,0.033-0.253,0.209-0.253h0.671
		c0.099,0,0.165,0.044,0.209,0.165L582.776,150.204z"/>
</g>
<g>
	<path class="st3" d="M618.283,126.033c-0.033,0.11-0.111,0.165-0.209,0.165h-0.859c-0.099,0-0.176-0.055-0.209-0.165l-2.046-7.272
		c-0.032-0.109,0.033-0.264,0.209-0.264h0.66c0.099,0,0.177,0.044,0.209,0.165l1.529,5.864c0.011,0.044,0.033,0.065,0.065,0.065
		h0.022c0.033,0,0.056-0.021,0.066-0.065l1.528-5.864c0.033-0.121,0.111-0.165,0.209-0.165h0.672c0.176,0,0.242,0.132,0.209,0.253
		L618.283,126.033z"/>
	<path class="st3" d="M621.01,120.917c0-0.12,0.1-0.22,0.221-0.22h0.549c0.121,0,0.221,0.1,0.221,0.22v3.301
		c0,0.639,0.451,1.101,1.21,1.101c0.683,0,1.21-0.407,1.21-1.045v-3.356c0-0.12,0.1-0.22,0.221-0.22h0.55
		c0.121,0,0.22,0.1,0.22,0.22v5.062c0,0.121-0.099,0.22-0.22,0.22h-0.483c-0.066,0-0.111-0.033-0.154-0.077
		c-0.066-0.077-0.166-0.176-0.275-0.176c-0.318,0-0.363,0.363-1.178,0.363c-1.242,0-2.09-0.881-2.09-2.091V120.917z"/>
	<path class="st3" d="M632.648,119.377c-0.582,0-1.045,0.551-1.045,1.101v0.165c0,0.065,0.044,0.11,0.11,0.11h1.122
		c0.121,0,0.22,0.099,0.22,0.22v0.55c0,0.121-0.099,0.22-0.22,0.22h-1.122c-0.066,0-0.11,0.044-0.11,0.11v4.126
		c0,0.121-0.1,0.22-0.22,0.22h-0.55c-0.121,0-0.221-0.099-0.221-0.22v-4.126c0-0.066-0.044-0.11-0.109-0.11h-2.123
		c-0.066,0-0.111,0.044-0.111,0.11v4.126c0,0.121-0.099,0.22-0.219,0.22H627.5c-0.121,0-0.221-0.099-0.221-0.22v-4.126
		c0-0.066-0.043-0.11-0.109-0.11h-0.825c-0.121,0-0.22-0.099-0.22-0.22v-0.55c0-0.121,0.099-0.22,0.22-0.22h0.825
		c0.066,0,0.109-0.045,0.109-0.11v-0.165c0-1.155,0.881-2.058,2.036-2.058h0.11c0.121,0,0.22,0.1,0.22,0.221v0.517
		c0,0.121-0.099,0.22-0.22,0.22h-0.11c-0.583,0-1.046,0.551-1.046,1.101v0.165c0,0.065,0.045,0.11,0.111,0.11h2.123
		c0.065,0,0.109-0.045,0.109-0.11v-0.165c0-1.155,0.881-2.058,2.035-2.058h0.11c0.121,0,0.22,0.1,0.22,0.221v0.517
		c0,0.121-0.099,0.22-0.22,0.22H632.648z"/>
	<path class="st3" d="M635.299,125.978c0,0.121-0.099,0.22-0.22,0.22h-0.55c-0.121,0-0.221-0.099-0.221-0.22v-7.338
		c0-0.121,0.1-0.221,0.221-0.221h0.55c0.121,0,0.22,0.1,0.22,0.221V125.978z"/>
	<path class="st3" d="M637.598,123.766c-0.066,0-0.109,0.044-0.109,0.11c0,1.001,0.517,1.441,1.275,1.441
		c0.572,0,1.002-0.286,1.134-0.693c0.044-0.143,0.153-0.187,0.253-0.187h0.561c0.11,0,0.209,0.065,0.188,0.22
		c-0.133,0.957-0.99,1.65-2.135,1.65c-1.32,0-2.167-0.936-2.255-2.091c-0.033-0.439-0.033-1.1,0-1.54
		c0.088-1.155,0.935-2.09,2.255-2.09c1.332,0,2.201,0.824,2.201,2.2v0.759c0,0.121-0.1,0.22-0.221,0.22H637.598z M637.51,122.776
		c0,0.066,0.044,0.11,0.11,0.11h2.288c0.066,0,0.109-0.044,0.109-0.11c0-0.759-0.561-1.199-1.242-1.199
		C638.016,121.577,637.51,122.105,637.51,122.776z"/>
	<path class="st3" d="M646.486,125.978c0,0.121-0.099,0.22-0.22,0.22h-0.55c-0.121,0-0.221-0.099-0.221-0.22v-3.301
		c0-0.704-0.527-1.101-1.21-1.101s-1.21,0.407-1.21,1.046v3.355c0,0.121-0.1,0.22-0.221,0.22h-0.549
		c-0.121,0-0.221-0.099-0.221-0.22v-5.062c0-0.12,0.1-0.22,0.221-0.22h0.483c0.065,0,0.11,0.033,0.153,0.077
		c0.066,0.077,0.166,0.176,0.275,0.176c0.319,0,0.407-0.362,1.178-0.362c1.232,0,2.09,0.792,2.09,2.09V125.978z"/>
	<path class="st3" d="M651.414,122.458h-0.551c-0.121,0-0.219-0.1-0.219-0.221c0-0.385-0.298-0.715-1.023-0.715
		c-0.683,0-0.969,0.341-0.969,0.66c0,0.429,0.43,0.572,0.969,0.671c0.924,0.165,2.167,0.353,2.167,1.694
		c0,1.178-1.023,1.761-2.167,1.761c-1.101,0-2.179-0.551-2.179-1.761v-0.143c0-0.121,0.099-0.221,0.22-0.221h0.551
		c0.121,0,0.22,0.1,0.22,0.221v0.143c0,0.66,0.683,0.814,1.188,0.814c0.594,0,1.177-0.154,1.177-0.814
		c0-0.451-0.539-0.572-1.177-0.704c-0.902-0.187-1.992-0.418-1.992-1.661c0-0.99,0.99-1.595,1.992-1.595
		c1.023,0,2.013,0.604,2.013,1.649C651.634,122.358,651.535,122.458,651.414,122.458z"/>
	<path class="st3" d="M656.133,122.667c0.121,0,0.221,0.099,0.221,0.22v0.748c0,0.121-0.1,0.22-0.221,0.22h-3.003
		c-0.121,0-0.22-0.099-0.22-0.22v-0.748c0-0.121,0.099-0.22,0.22-0.22H656.133z"/>
	<path class="st3" d="M658.828,125.978c0,0.121-0.1,0.22-0.221,0.22h-0.55c-0.121,0-0.22-0.099-0.22-0.22v-7.338
		c0-0.121,0.099-0.221,0.22-0.221h0.55c0.121,0,0.221,0.1,0.221,0.221V125.978z"/>
	<path class="st3" d="M661.236,122.161c0,0.187-0.154,0.187-0.252,0.187h-0.496c-0.164,0-0.22-0.088-0.22-0.22
		c0-1.023,1.056-1.54,1.991-1.54c1.243,0,2.014,0.539,2.014,1.76v3.631c0,0.121-0.1,0.22-0.221,0.22h-0.373
		c-0.066,0-0.111-0.022-0.154-0.077c-0.066-0.088-0.11-0.23-0.221-0.23c-0.197,0-0.473,0.418-1.287,0.418
		c-1.354,0-2.002-0.825-2.002-1.761c0-0.913,0.66-1.672,1.814-1.672h1.343c0.065,0,0.11-0.044,0.11-0.11v-0.418
		c0-0.594-0.407-0.88-1.023-0.88C661.875,121.467,661.236,121.633,661.236,122.161z M661.83,123.778
		c-0.561,0-0.824,0.297-0.824,0.759c0,0.539,0.341,0.858,0.979,0.858c1.013,0,1.387-0.407,1.387-1.155v-0.353
		c0-0.065-0.044-0.109-0.109-0.109H661.83z"/>
	<path class="st3" d="M668.892,122.667c0.121,0,0.221,0.099,0.221,0.22v0.748c0,0.121-0.1,0.22-0.221,0.22h-3.003
		c-0.121,0-0.22-0.099-0.22-0.22v-0.748c0-0.121,0.099-0.22,0.22-0.22H668.892z"/>
	<path class="st3" d="M673.271,126.033c-0.033,0.11-0.111,0.165-0.209,0.165h-0.859c-0.099,0-0.176-0.055-0.209-0.165l-2.046-7.272
		c-0.032-0.109,0.033-0.264,0.209-0.264h0.66c0.099,0,0.177,0.044,0.209,0.165l1.529,5.864c0.011,0.044,0.033,0.065,0.065,0.065
		h0.022c0.033,0,0.056-0.021,0.066-0.065l1.528-5.864c0.033-0.121,0.111-0.165,0.209-0.165h0.672c0.176,0,0.242,0.132,0.209,0.253
		L673.271,126.033z"/>
	<path class="st3" d="M677.209,119.355c0,0.099-0.078,0.176-0.177,0.176h-0.748c-0.099,0-0.176-0.077-0.176-0.176v-0.76
		c0-0.088,0.077-0.176,0.176-0.176h0.748c0.099,0,0.177,0.088,0.177,0.176V119.355z M677.176,125.978c0,0.121-0.1,0.22-0.221,0.22
		h-0.572c-0.121,0-0.22-0.099-0.22-0.22v-5.062c0-0.12,0.099-0.22,0.22-0.22h0.572c0.121,0,0.221,0.1,0.221,0.22V125.978z"/>
	<path class="st3" d="M679.628,125.978c0,0.121-0.099,0.22-0.22,0.22h-0.551c-0.121,0-0.219-0.099-0.219-0.22v-7.338
		c0-0.121,0.098-0.221,0.219-0.221h0.551c0.121,0,0.22,0.1,0.22,0.221V125.978z"/>
	<path class="st3" d="M682.048,125.978c0,0.121-0.099,0.22-0.22,0.22h-0.551c-0.121,0-0.219-0.099-0.219-0.22v-7.338
		c0-0.121,0.098-0.221,0.219-0.221h0.551c0.121,0,0.22,0.1,0.22,0.221V125.978z"/>
	<path class="st3" d="M684.348,123.766c-0.066,0-0.111,0.044-0.111,0.11c0,1.001,0.518,1.441,1.277,1.441
		c0.571,0,1-0.286,1.133-0.693c0.044-0.143,0.154-0.187,0.253-0.187h0.562c0.109,0,0.209,0.065,0.187,0.22
		c-0.132,0.957-0.99,1.65-2.134,1.65c-1.32,0-2.168-0.936-2.256-2.091c-0.033-0.439-0.033-1.1,0-1.54
		c0.088-1.155,0.936-2.09,2.256-2.09c1.33,0,2.199,0.824,2.199,2.2v0.759c0,0.121-0.099,0.22-0.22,0.22H684.348z M684.259,122.776
		c0,0.066,0.044,0.11,0.11,0.11h2.288c0.065,0,0.11-0.044,0.11-0.11c0-0.759-0.562-1.199-1.244-1.199
		C684.766,121.577,684.259,122.105,684.259,122.776z"/>
</g>
<g>
	<path class="st3" d="M699.935,142.757c0,0.507-0.21,1.123-0.628,1.485c-0.088,0.077-0.088,0.177,0,0.242
		c0.451,0.363,0.781,1.057,0.781,1.684c0,1.276-1.045,2.244-2.311,2.244h-2.035c-0.121,0-0.22-0.099-0.22-0.22v-7.262
		c0-0.121,0.099-0.22,0.22-0.22h2.035C698.967,140.711,699.935,141.569,699.935,142.757z M697.778,143.88
		c0.716,0,1.111-0.484,1.111-1.123c0-0.648-0.539-1.001-1.111-1.001h-1.122c-0.065,0-0.109,0.044-0.109,0.11v1.903
		c0,0.065,0.044,0.11,0.109,0.11H697.778z M696.656,144.869c-0.055-0.032-0.109,0.045-0.109,0.11v2.277
		c0,0.066,0.044,0.11,0.109,0.11h1.122c0.683,0,1.266-0.539,1.266-1.199c0-0.771-0.583-1.299-1.266-1.299H696.656z"/>
	<path class="st3" d="M700.968,143.132c0-0.121,0.1-0.221,0.221-0.221h0.55c0.121,0,0.22,0.1,0.22,0.221v3.3
		c0,0.639,0.451,1.101,1.21,1.101c0.683,0,1.211-0.407,1.211-1.045v-3.355c0-0.121,0.099-0.221,0.22-0.221h0.55
		c0.121,0,0.221,0.1,0.221,0.221v5.061c0,0.121-0.1,0.22-0.221,0.22h-0.483c-0.066,0-0.11-0.033-0.154-0.077
		c-0.066-0.077-0.165-0.176-0.275-0.176c-0.318,0-0.363,0.363-1.177,0.363c-1.243,0-2.091-0.881-2.091-2.091V143.132z"/>
	<path class="st3" d="M710.351,144.672h-0.55c-0.121,0-0.22-0.1-0.22-0.221c0-0.385-0.298-0.715-1.023-0.715
		c-0.683,0-0.969,0.341-0.969,0.66c0,0.429,0.43,0.572,0.969,0.671c0.924,0.165,2.167,0.353,2.167,1.694
		c0,1.178-1.023,1.761-2.167,1.761c-1.101,0-2.179-0.551-2.179-1.761v-0.143c0-0.121,0.1-0.221,0.221-0.221h0.55
		c0.121,0,0.22,0.1,0.22,0.221v0.143c0,0.66,0.683,0.814,1.188,0.814c0.594,0,1.177-0.154,1.177-0.814
		c0-0.451-0.539-0.572-1.177-0.704c-0.902-0.187-1.991-0.418-1.991-1.661c0-0.99,0.99-1.595,1.991-1.595
		c1.023,0,2.013,0.604,2.013,1.649C710.571,144.572,710.473,144.672,710.351,144.672z"/>
	<path class="st3" d="M715.401,144.672h-0.551c-0.121,0-0.22-0.1-0.22-0.221c0-0.385-0.297-0.715-1.023-0.715
		c-0.682,0-0.968,0.341-0.968,0.66c0,0.429,0.429,0.572,0.968,0.671c0.925,0.165,2.168,0.353,2.168,1.694
		c0,1.178-1.023,1.761-2.168,1.761c-1.1,0-2.178-0.551-2.178-1.761v-0.143c0-0.121,0.099-0.221,0.22-0.221h0.55
		c0.121,0,0.221,0.1,0.221,0.221v0.143c0,0.66,0.682,0.814,1.188,0.814c0.595,0,1.178-0.154,1.178-0.814
		c0-0.451-0.539-0.572-1.178-0.704c-0.901-0.187-1.991-0.418-1.991-1.661c0-0.99,0.99-1.595,1.991-1.595
		c1.023,0,2.014,0.604,2.014,1.649C715.621,144.572,715.522,144.672,715.401,144.672z"/>
	<path class="st3" d="M717.941,141.569c0,0.099-0.077,0.176-0.176,0.176h-0.748c-0.1,0-0.176-0.077-0.176-0.176v-0.76
		c0-0.088,0.076-0.176,0.176-0.176h0.748c0.099,0,0.176,0.088,0.176,0.176V141.569z M717.908,148.192c0,0.121-0.099,0.22-0.22,0.22
		h-0.572c-0.121,0-0.22-0.099-0.22-0.22v-5.061c0-0.121,0.099-0.221,0.22-0.221h0.572c0.121,0,0.22,0.1,0.22,0.221V148.192z"/>
	<path class="st3" d="M722.474,143.164c0.11,0,0.209-0.099,0.275-0.176c0.044-0.044,0.088-0.077,0.153-0.077h0.374
		c0.121,0,0.221,0.1,0.221,0.221v5.61c0,1.067-0.848,1.98-2.014,1.98c-0.979,0-1.849-0.518-2.002-1.508
		c-0.022-0.153,0.032-0.253,0.197-0.253h0.528c0.231,0,0.242,0.1,0.286,0.221c0.144,0.362,0.429,0.55,0.99,0.55
		c0.55,0,1.023-0.396,1.023-0.99V148.5c0-0.209-0.088-0.264-0.242-0.253c-0.22,0.011-0.518,0.275-1.023,0.275
		c-1.155,0-2.002-0.936-2.09-2.091c-0.033-0.439-0.033-1.1,0-1.54c0.088-1.155,0.935-2.09,2.09-2.09
		C722.056,142.801,722.154,143.164,722.474,143.164z M722.616,144.891c-0.044-0.583-0.506-1.101-1.265-1.101
		s-1.222,0.518-1.266,1.101c-0.033,0.451-0.033,1.089,0,1.54c0.044,0.583,0.507,1.101,1.266,1.101s1.221-0.518,1.265-1.101
		C722.649,145.98,722.649,145.342,722.616,144.891z"/>
	<path class="st3" d="M729.238,148.192c0,0.121-0.099,0.22-0.22,0.22h-0.55c-0.121,0-0.22-0.099-0.22-0.22v-3.301
		c0-0.704-0.528-1.101-1.211-1.101c-0.682,0-1.21,0.407-1.21,1.046v3.355c0,0.121-0.099,0.22-0.22,0.22h-0.55
		c-0.121,0-0.221-0.099-0.221-0.22v-5.061c0-0.121,0.1-0.221,0.221-0.221h0.483c0.066,0,0.11,0.033,0.154,0.077
		c0.066,0.077,0.165,0.176,0.275,0.176c0.318,0,0.406-0.362,1.177-0.362c1.232,0,2.09,0.792,2.09,2.09V148.192z"/>
	<path class="st3" d="M732.362,146.651c0.022,0.056,0.066,0.056,0.088,0l1.276-3.575c0.044-0.121,0.11-0.165,0.209-0.165h0.649
		c0.176,0,0.253,0.144,0.209,0.253l-2.795,7.283c-0.044,0.121-0.109,0.165-0.209,0.165h-0.594c-0.176,0-0.253-0.143-0.209-0.253
		l0.814-2.244c0.021-0.056,0.032-0.088,0.011-0.144l-1.893-4.808c-0.044-0.109,0.033-0.253,0.209-0.253h0.671
		c0.1,0,0.165,0.044,0.209,0.165L732.362,146.651z"/>
</g>
<g>
	<path class="st3" d="M755.676,78.809c-1.078-0.242-1.837-0.902-1.837-2.102c0-1.32,1.134-2.068,2.267-2.068
		c1.298,0,2.255,0.936,2.255,2.068v0.143c0,0.121-0.099,0.221-0.22,0.221h-0.605c-0.121,0-0.22-0.1-0.22-0.221v-0.143
		c0-0.737-0.649-1.023-1.21-1.023c-0.715,0-1.211,0.396-1.211,1.023c0,0.968,0.936,1.067,1.65,1.243
		c1.254,0.308,2.035,1.012,2.035,2.277c0,1.408-1.199,2.288-2.475,2.288c-1.42,0-2.476-1.034-2.476-2.288v-0.176
		c0-0.121,0.099-0.221,0.22-0.221h0.616c0.121,0,0.22,0.1,0.22,0.221v0.176c0,0.715,0.595,1.243,1.42,1.243
		c0.824,0,1.419-0.539,1.419-1.243C757.524,79.205,756.787,79.062,755.676,78.809z"/>
	<path class="st3" d="M762.42,76.983c0.121,0,0.22,0.099,0.22,0.22v0.55c0,0.121-0.099,0.22-0.22,0.22h-1.266
		c-0.066,0-0.109,0.044-0.109,0.11v2.586c0,0.483,0.209,0.803,0.879,0.803h0.605c0.121,0,0.221,0.099,0.221,0.22v0.518
		c0,0.121-0.1,0.22-0.221,0.22h-0.605c-1.144,0-1.869-0.495-1.869-1.76v-2.586c0-0.066-0.045-0.11-0.111-0.11h-0.77
		c-0.121,0-0.22-0.099-0.22-0.22v-0.55c0-0.121,0.099-0.22,0.22-0.22h0.77c0.066,0,0.111-0.045,0.111-0.11v-1.705
		c0-0.121,0.099-0.221,0.219-0.221h0.551c0.121,0,0.221,0.1,0.221,0.221v1.705c0,0.065,0.043,0.11,0.109,0.11H762.42z"/>
	<path class="st3" d="M766.842,78.897c0.121,0,0.219,0.099,0.219,0.22v0.748c0,0.121-0.098,0.22-0.219,0.22h-3.004
		c-0.121,0-0.221-0.099-0.221-0.22v-0.748c0-0.121,0.1-0.22,0.221-0.22H766.842z"/>
	<path class="st3" d="M770.195,78.809c-1.078-0.242-1.837-0.902-1.837-2.102c0-1.32,1.134-2.068,2.267-2.068
		c1.298,0,2.255,0.936,2.255,2.068v0.143c0,0.121-0.099,0.221-0.22,0.221h-0.605c-0.121,0-0.22-0.1-0.22-0.221v-0.143
		c0-0.737-0.649-1.023-1.21-1.023c-0.715,0-1.211,0.396-1.211,1.023c0,0.968,0.936,1.067,1.65,1.243
		c1.254,0.308,2.035,1.012,2.035,2.277c0,1.408-1.199,2.288-2.475,2.288c-1.42,0-2.476-1.034-2.476-2.288v-0.176
		c0-0.121,0.099-0.221,0.22-0.221h0.616c0.121,0,0.22,0.1,0.22,0.221v0.176c0,0.715,0.595,1.243,1.42,1.243
		c0.824,0,1.419-0.539,1.419-1.243C772.044,79.205,771.307,79.062,770.195,78.809z"/>
	<path class="st3" d="M774.023,77.147c0-0.12,0.1-0.22,0.221-0.22h0.549c0.121,0,0.221,0.1,0.221,0.22v3.301
		c0,0.639,0.451,1.101,1.21,1.101c0.683,0,1.21-0.407,1.21-1.045v-3.356c0-0.12,0.1-0.22,0.221-0.22h0.55
		c0.121,0,0.22,0.1,0.22,0.22v5.062c0,0.121-0.099,0.22-0.22,0.22h-0.483c-0.066,0-0.111-0.033-0.154-0.077
		c-0.066-0.077-0.166-0.176-0.275-0.176c-0.318,0-0.363,0.363-1.178,0.363c-1.242,0-2.09-0.881-2.09-2.091V77.147z"/>
	<path class="st3" d="M780.777,82.209c0,0.121-0.099,0.22-0.22,0.22h-0.55c-0.121,0-0.221-0.099-0.221-0.22v-7.338
		c0-0.121,0.1-0.221,0.221-0.221h0.55c0.121,0,0.22,0.1,0.22,0.221V82.209z"/>
	<path class="st3" d="M786.51,78.908c0.032,0.44,0.032,1.101,0,1.54c-0.088,1.155-0.936,2.091-2.091,2.091
		c-0.507,0-0.804-0.275-1.023-0.275c-0.165,0-0.241,0.066-0.241,0.275v1.87c0,0.121-0.1,0.22-0.221,0.22h-0.55
		c-0.121,0-0.22-0.099-0.22-0.22v-7.262c0-0.12,0.099-0.22,0.22-0.22h0.374c0.066,0,0.109,0.033,0.154,0.077
		c0.065,0.077,0.164,0.176,0.274,0.176c0.319,0,0.419-0.362,1.232-0.362C785.574,76.818,786.422,77.753,786.51,78.908z
		 M785.574,78.908c-0.045-0.583-0.506-1.101-1.266-1.101c-0.759,0-1.221,0.518-1.266,1.101c-0.032,0.451-0.032,1.089,0,1.54
		c0.045,0.583,0.507,1.101,1.266,1.101c0.76,0,1.221-0.518,1.266-1.101C785.607,79.997,785.607,79.359,785.574,78.908z"/>
	<path class="st3" d="M788.807,75.586c0,0.099-0.077,0.176-0.177,0.176h-0.748c-0.099,0-0.176-0.077-0.176-0.176v-0.76
		c0-0.088,0.077-0.176,0.176-0.176h0.748c0.1,0,0.177,0.088,0.177,0.176V75.586z M788.774,82.209c0,0.121-0.099,0.22-0.22,0.22
		h-0.572c-0.121,0-0.221-0.099-0.221-0.22v-5.062c0-0.12,0.1-0.22,0.221-0.22h0.572c0.121,0,0.22,0.1,0.22,0.22V82.209z"/>
	<path class="st3" d="M793.537,80.448h0.572c0.121,0,0.221,0.1,0.221,0.221c0,1.066-0.891,1.87-2.123,1.87
		c-1.32,0-2.113-0.936-2.201-2.091c-0.033-0.439-0.033-1.1,0-1.54c0.088-1.155,0.881-2.09,2.201-2.09
		c1.232,0,2.123,0.803,2.123,1.87c0,0.121-0.066,0.22-0.188,0.22h-0.594c-0.1,0-0.209-0.055-0.209-0.176
		c0-0.518-0.451-0.925-1.133-0.925c-0.76,0-1.166,0.518-1.211,1.101c-0.033,0.451-0.033,1.089,0,1.54
		c0.045,0.583,0.451,1.101,1.211,1.101c0.671,0,1.121-0.396,1.121-0.913C793.328,80.492,793.439,80.448,793.537,80.448z"/>
	<path class="st3" d="M796.342,79.997c-0.065,0-0.109,0.044-0.109,0.11c0,1.001,0.518,1.441,1.276,1.441
		c0.571,0,1.001-0.286,1.134-0.693c0.043-0.143,0.153-0.187,0.252-0.187h0.562c0.11,0,0.209,0.065,0.187,0.22
		c-0.131,0.957-0.99,1.65-2.134,1.65c-1.32,0-2.167-0.936-2.255-2.091c-0.033-0.439-0.033-1.1,0-1.54
		c0.088-1.155,0.935-2.09,2.255-2.09c1.331,0,2.2,0.824,2.2,2.2v0.759c0,0.121-0.1,0.22-0.221,0.22H796.342z M796.254,79.007
		c0,0.066,0.045,0.11,0.111,0.11h2.287c0.066,0,0.11-0.044,0.11-0.11c0-0.759-0.562-1.199-1.243-1.199
		C796.761,77.807,796.254,78.336,796.254,79.007z"/>
</g>
<line class="st23" x1="238.299" y1="62.408" x2="374.498" y2="82.005"/>
<polyline class="st23" points="241.64,66.55 238.298,62.408 242.672,59.377 "/>
<path class="st18" d="M811.263,97.778c-3.298-0.041-6.265-1.59-9.368-2.207c-0.773,1.008-0.434,1.956-0.104,2.783
	c0.793,1.989-0.25,3.265-1.755,4.006c-1.447,0.712-3.196,0.632-4.146-0.961c-0.665-1.115-1.624-1.695-2.604-2.361
	c-2.262-1.536-4.252-2.753-6.691,0.155c-1.445,1.723-3.838,2.288-5.878,0.173c-0.307-0.319-0.779-0.474-1.154-0.734
	c-3.995-2.765-5.393-2.803-9.331-0.108c-3.02,2.066-6.092,3.39-9.673,1.291c-2.907-1.703-5.953-0.242-8.493,0.544
	c-4.79,1.482-8.441,0.138-11.933-2.711c-2.306-1.882-4.345-4.106-7.652-4.17c-2.274-0.043-4.209,0.5-5.355,2.623
	c-0.826,1.529-2.054,2.584-3.496,3.496c-1.236,0.781-2.524,1.101-3.854,0.542c-3.085-1.297-5.744-0.339-8.345,1.318
	c-1.524,0.97-3.047,1.969-4.671,2.744c-2.188,1.045-1.992,3.165-2.089,4.868c-0.302,5.303-3.173,8.876-7.311,11.627
	c-1.375,0.914-2.667,1.766-3.56,3.201c-1.006,1.616-1.518,2.829,0.016,4.721c1.728,2.133,0.993,4.496-1.42,6.21
	c-1.291,0.918-1.935,1.792-1.523,3.4c0.48,1.873-0.523,3.366-2.023,4.061c-2.7,1.253-4.282,3.344-5.195,5.968
	c-2.288,6.574-8.955,4.8-12.127,0.866c-3.07-3.807-7.634-5.22-11.95-6.696c-2.823-0.966-4.787,0.616-5.321,3.508
	c-0.176,0.954-0.348,2.006-0.415,3.034c-0.295,4.576-2.79,6.593-7.408,6.443c-3.563-0.116-7.088-0.41-10.576-1.17
	c-4.625-1.008-8.658,0.545-11.266,4.325c-2.431,3.522-6.03,5.903-8.798,9.085c-0.993,1.142-2.237,1.59-3.387,1.052
	c-2.94-1.373-5.387-0.192-7.708,1.25c-3.948,2.453-4.351,2.56-8.014-0.144c-1.818-1.342-3.62-2.3-5.966-1.269
	c-1.113,0.489-1.955-0.16-2.933-0.874c-1.191-0.87-2.33-1.986-2.864-3.066c-2.97-6.014-8.805-6.332-14.149-7.14
	c-4.036-0.611-6.682,2.834-5.581,6.85c1.375,5.017,0.992,9.684-2.567,13.492c-3.136,3.356-5.084,7.296-6.833,11.373
	c-0.614,1.431-1.559,2.122-2.779,2.577c-2.752,1.027-4.68,2.815-6.05,5.424c-2.026,3.859-5.82,6.103-8.858,9.011
	c-2.136,2.044-5.932,1.246-8.307-1.973c-3.989-5.408-8.897-7.591-15.533-6.291c-6.409,1.255-10.231-3.044-12.941-7.583
	c-4.469-7.484-11.191-12.424-17.985-17.167c-4.258-2.972-8.194-6.619-13.656-7.964c-7.522-1.853-14.64-3.217-21.609,1.792
	c-2.318,1.666-5.34,2.475-8.15,3.306c-3.224,0.955-6.364,0.384-9.311-1.377c-3.797-2.269-7.618-4.509-11.532-6.565
	c-4.118-2.164-8.7-2.763-12.612-0.228c-4.783,3.098-6.35,8.048-5.099,13.697c0.487,2.198,0.813,4.327,0.256,6.603
	c-0.768,3.136-1.535,3.528-4.713,2.801c-4.228-0.968-7.859-3.407-12.009-4.528c-1.916-0.517-3.834-0.732-5.801-0.604
	c-7.41,0.484-14.085,3.205-20.857,6.087c-5.253,2.235-10.47,4.725-16.139,6.1c-5.022,1.218-9.72,3.594-14.821,4.778
	c-9.37,2.175-18.621,4.653-28.303,5.505c-5.637,0.496-11.269,1.73-16.792,0.388c-13.806-3.355-27.547-6.899-40.866-12.058
	c-7.702-2.983-15.467-6.02-23.482-8.102c-4.945-1.284-10.004-2.321-14.787-4.015c-5.4-1.913-10.583-4.508-15.739-7.093
	c-10.897-5.463-18.767-14.222-26.537-23.26c-2.776-3.229-3.914-6.17-3.077-10.337c0.751-3.732-1.039-5.766-4.403-7.939
	c-6.412-4.141-13.004-8.067-18.747-13.151c-1.749-1.548-3.806-2.57-5.677-3.887c-6.299-4.433-12.697-8.743-19.71-12.038
	c-1.057-0.497-2.016-0.894-3.145-0.548c-6.068,1.86-11.73,0.128-17.398-1.854c-5.109-1.787-9.905-4.1-14.367-7.211
	c-3.624-2.527-7.41-4.861-11.501-6.61c-1.962-0.839-3.965-1.334-6.111-0.565c-4.011,1.437-8.315,1.317-12.424,2.267
	c-2.143,0.495-3.855-0.657-5.087-2.136"/>
<g>
	<defs>
		<path id="SVGID_21_" d="M14.03,157.969c0-7.107,14.959-15.591,16.675-16.629c3.772-2.28,7.225-5.692,10.271-8.813
			c-1.021-1.226,0.049-2.548,0.668-3.796c1.024-2.067,2.195-4,3.602-5.845c5.139-6.743,5.811-14.941,6.772-22.886
			c0.561-4.634-3.86-9.735-8.519-11.207c-1.342-0.424-2.341-1.198-3.18-2.258c-2.727-3.439-1.056-5.557-2.7-9.815
			c-0.713-1.849,3.682-6.273,2.104-6.72c-2.589-0.733-4.138-2.497-5.623-4.417c-1.122-1.451-7.766-5.925-9.579-6.514
			c-1.845-0.599-1.692-2.414-2.016-3.551c-1.033-3.616-8.344-1.445-8.401-5.307"/>
	</defs>
	<clipPath id="SVGID_2_">
		<use xlink:href="#SVGID_21_"  style="overflow:visible;"/>
	</clipPath>
	
		<line style="clip-path:url(#SVGID_2_);fill:none;stroke:#FFFFFF;stroke-width:0.45;stroke-miterlimit:10;" x1="54.44" y1="166.206" x2="12.356" y2="124.122"/>
	
		<line style="clip-path:url(#SVGID_2_);fill:none;stroke:#FFFFFF;stroke-width:0.45;stroke-miterlimit:10;" x1="54.44" y1="180.22" x2="12.356" y2="138.136"/>
	
		<line style="clip-path:url(#SVGID_2_);fill:none;stroke:#FFFFFF;stroke-width:0.45;stroke-miterlimit:10;" x1="54.44" y1="191.672" x2="12.356" y2="149.588"/>
	
		<line style="clip-path:url(#SVGID_2_);fill:none;stroke:#FFFFFF;stroke-width:0.45;stroke-miterlimit:10;" x1="54.44" y1="152.192" x2="12.356" y2="110.108"/>
	
		<line style="clip-path:url(#SVGID_2_);fill:none;stroke:#FFFFFF;stroke-width:0.45;stroke-miterlimit:10;" x1="54.44" y1="138.178" x2="12.356" y2="96.094"/>
	
		<line style="clip-path:url(#SVGID_2_);fill:none;stroke:#FFFFFF;stroke-width:0.45;stroke-miterlimit:10;" x1="54.44" y1="124.164" x2="12.356" y2="82.08"/>
	
		<line style="clip-path:url(#SVGID_2_);fill:none;stroke:#FFFFFF;stroke-width:0.45;stroke-miterlimit:10;" x1="54.44" y1="96.137" x2="12.356" y2="54.053"/>
	
		<line style="clip-path:url(#SVGID_2_);fill:none;stroke:#FFFFFF;stroke-width:0.45;stroke-miterlimit:10;" x1="54.44" y1="110.151" x2="12.356" y2="68.066"/>
	
		<line style="clip-path:url(#SVGID_2_);fill:none;stroke:#FFFFFF;stroke-width:0.45;stroke-miterlimit:10;" x1="54.44" y1="80.989" x2="12.356" y2="38.905"/>
	
		<line style="clip-path:url(#SVGID_2_);fill:none;stroke:#FFFFFF;stroke-width:0.45;stroke-miterlimit:10;" x1="54.44" y1="66.975" x2="12.356" y2="24.891"/>
	
		<line style="clip-path:url(#SVGID_2_);fill:none;stroke:#FFFFFF;stroke-width:0.45;stroke-miterlimit:10;" x1="54.44" y1="52.961" x2="12.356" y2="10.877"/>
</g>
<g>
	<defs>
		<path id="SVGID_23_" d="M835.564,54.379c-7.519,11.665-17.901,10.191-28.956,23.167c-3.17,3.721,0.649,9.904,2.471,14.527
			c1.749,4.441,3.058,8.985,3.995,13.625c1.377,6.819,4.428,13.028,6.703,19.519c2.186,6.238,1.593,12.227-0.891,18.407
			c-2.126,5.292-7.988,10.154-6.7,15.696c2.02,8.688,6.844,41.304,24.044,50.513"/>
	</defs>
	<clipPath id="SVGID_4_">
		<use xlink:href="#SVGID_23_"  style="overflow:visible;"/>
	</clipPath>
	
		<line style="clip-path:url(#SVGID_4_);fill:none;stroke:#FFFFFF;stroke-width:0.3;stroke-miterlimit:10;" x1="847.476" y1="242.534" x2="805.392" y2="200.45"/>
	
		<line style="clip-path:url(#SVGID_4_);fill:none;stroke:#FFFFFF;stroke-width:0.3;stroke-miterlimit:10;" x1="847.476" y1="256.547" x2="805.392" y2="214.463"/>
	
		<line style="clip-path:url(#SVGID_4_);fill:none;stroke:#FFFFFF;stroke-width:0.3;stroke-miterlimit:10;" x1="847.476" y1="228.52" x2="805.392" y2="186.436"/>
	
		<line style="clip-path:url(#SVGID_4_);fill:none;stroke:#FFFFFF;stroke-width:0.4;stroke-miterlimit:10;" x1="847.476" y1="214.506" x2="805.392" y2="172.422"/>
	
		<line style="clip-path:url(#SVGID_4_);fill:none;stroke:#FFFFFF;stroke-width:0.4;stroke-miterlimit:10;" x1="847.476" y1="200.492" x2="805.392" y2="158.408"/>
	
		<line style="clip-path:url(#SVGID_4_);fill:none;stroke:#FFFFFF;stroke-width:0.4;stroke-miterlimit:10;" x1="847.476" y1="172.465" x2="805.392" y2="130.38"/>
	
		<line style="clip-path:url(#SVGID_4_);fill:none;stroke:#FFFFFF;stroke-width:0.4;stroke-miterlimit:10;" x1="847.476" y1="186.478" x2="805.392" y2="144.394"/>
	
		<line style="clip-path:url(#SVGID_4_);fill:none;stroke:#FFFFFF;stroke-width:0.4;stroke-miterlimit:10;" x1="847.476" y1="158.451" x2="805.392" y2="116.367"/>
	
		<line style="clip-path:url(#SVGID_4_);fill:none;stroke:#FFFFFF;stroke-width:0.4;stroke-miterlimit:10;" x1="847.476" y1="144.437" x2="805.392" y2="102.353"/>
	
		<line style="clip-path:url(#SVGID_4_);fill:none;stroke:#FFFFFF;stroke-width:0.4;stroke-miterlimit:10;" x1="847.476" y1="130.423" x2="805.392" y2="88.339"/>
	
		<line style="clip-path:url(#SVGID_4_);fill:none;stroke:#FFFFFF;stroke-width:0.4;stroke-miterlimit:10;" x1="847.476" y1="102.832" x2="805.392" y2="60.748"/>
	
		<line style="clip-path:url(#SVGID_4_);fill:none;stroke:#FFFFFF;stroke-width:0.4;stroke-miterlimit:10;" x1="847.476" y1="116.846" x2="805.392" y2="74.762"/>
	
		<line style="clip-path:url(#SVGID_4_);fill:none;stroke:#FFFFFF;stroke-width:0.4;stroke-miterlimit:10;" x1="847.476" y1="88.818" x2="805.392" y2="46.734"/>
	
		<line style="clip-path:url(#SVGID_4_);fill:none;stroke:#FFFFFF;stroke-width:0.4;stroke-miterlimit:10;" x1="847.476" y1="74.804" x2="805.392" y2="32.72"/>
	
		<line style="clip-path:url(#SVGID_4_);fill:none;stroke:#FFFFFF;stroke-width:0.3;stroke-miterlimit:10;" x1="847.476" y1="60.79" x2="805.392" y2="18.706"/>
	
		<line style="clip-path:url(#SVGID_4_);fill:none;stroke:#FFFFFF;stroke-width:0.3;stroke-miterlimit:10;" x1="847.476" y1="32.763" x2="805.392" y2="-9.321"/>
	
		<line style="clip-path:url(#SVGID_4_);fill:none;stroke:#FFFFFF;stroke-width:0.3;stroke-miterlimit:10;" x1="847.476" y1="46.777" x2="805.392" y2="4.692"/>
	
		<line style="clip-path:url(#SVGID_4_);fill:none;stroke:#FFFFFF;stroke-width:0.3;stroke-miterlimit:10;" x1="847.476" y1="18.749" x2="805.392" y2="-23.335"/>
	
		<line style="clip-path:url(#SVGID_4_);fill:none;stroke:#FFFFFF;stroke-width:0.3;stroke-miterlimit:10;" x1="847.476" y1="4.735" x2="805.392" y2="-37.349"/>
</g>
<path class="st22" d="M836.364,53.362c-7.519,11.665-18.7,11.207-29.755,24.183c-3.17,3.721,0.649,9.904,2.471,14.527
	c1.749,4.441,3.058,8.985,3.995,13.625c1.377,6.819,4.428,13.028,6.703,19.519c2.186,6.238,1.593,12.227-0.891,18.407
	c-2.126,5.292-7.988,10.154-6.7,15.696c2.02,8.688,6.844,41.304,24.044,50.513"/>
<g>
	<defs>
		<path id="SVGID_25_" d="M14.03,157.969c0-7.107,14.959-15.591,16.675-16.629c3.772-2.28,7.225-5.692,10.271-8.813
			c-1.021-1.226,0.049-2.548,0.668-3.796c1.024-2.067,2.195-4,3.602-5.845c5.139-6.743,5.811-14.941,6.772-22.886
			c0.561-4.634-3.86-9.735-8.519-11.207c-1.342-0.424-2.341-1.198-3.18-2.258c-2.727-3.439-1.056-5.557-2.7-9.815
			c-0.713-1.849,3.682-6.273,2.104-6.72c-2.589-0.733-4.138-2.497-5.623-4.417c-1.122-1.451-7.766-5.925-9.579-6.514
			c-1.845-0.599-1.692-2.414-2.016-3.551c-1.033-3.616-8.344-1.445-8.401-5.307"/>
	</defs>
	<clipPath id="SVGID_6_">
		<use xlink:href="#SVGID_25_"  style="overflow:visible;"/>
	</clipPath>
	
		<use xlink:href="#SVGID_25_"  style="overflow:visible;fill:none;stroke:#FFFFFF;stroke-width:1.1;stroke-linecap:round;stroke-linejoin:round;stroke-miterlimit:10;"/>
</g>
</svg>
