<?xml version="1.0" encoding="utf-8"?>
<!-- Generator: Adobe Illustrator 19.1.0, SVG Export Plug-In . SVG Version: 6.00 Build 0)  -->
<svg version="1.1" id="Calque_1" xmlns="http://www.w3.org/2000/svg" xmlns:xlink="http://www.w3.org/1999/xlink" x="0px" y="0px"
	 viewBox="0 0 237.496 850.394" style="enable-background:new 0 0 237.496 850.394;" xml:space="preserve">
<style type="text/css">
	.st0{fill:#D3D3D3;}
	.st1{fill:none;stroke:#FFFFFF;stroke-width:2;stroke-linecap:round;stroke-linejoin:round;stroke-miterlimit:10;}
	.st2{fill:#1D1D1B;}
	.st3{fill:none;stroke:#FFFFFF;stroke-width:2;stroke-linecap:round;stroke-linejoin:round;}
	.st4{fill:#FFFFFF;}
	.st5{clip-path:url(#SVGID_2_);}
	.st6{opacity:0.97;clip-path:url(#SVGID_4_);}
	.st7{clip-path:url(#SVGID_6_);fill:#1D1D1B;}
	.st8{clip-path:url(#SVGID_2_);fill:#FFFFFF;}
	.st9{clip-path:url(#SVGID_2_);fill:none;stroke:#FFFFFF;stroke-width:0.9;stroke-linecap:round;stroke-linejoin:round;}
	
		.st10{clip-path:url(#SVGID_8_);fill:none;stroke:#FFFFFF;stroke-width:0.9;stroke-linecap:round;stroke-linejoin:round;stroke-miterlimit:10;}
	.st11{fill:none;stroke:#FFFFFF;stroke-width:0.9;stroke-linecap:round;stroke-linejoin:round;}
	.st12{fill:none;stroke:#FFFFFF;stroke-width:0.9;stroke-linecap:round;stroke-linejoin:round;stroke-miterlimit:10;}
	.st13{clip-path:url(#SVGID_10_);}
	.st14{fill:none;stroke:#FFFFFF;stroke-width:0.45;stroke-miterlimit:10;}
	.st15{clip-path:url(#SVGID_12_);}
	.st16{clip-path:url(#SVGID_14_);}
	.st17{fill:none;stroke:#FFFFFF;stroke-width:0.7;stroke-linecap:round;stroke-linejoin:round;}
	.st18{fill:none;stroke:#FFFFFF;stroke-linecap:round;stroke-linejoin:round;stroke-miterlimit:10;}
	.st19{clip-path:url(#SVGID_16_);fill:none;stroke:#FFFFFF;stroke-width:0.45;stroke-miterlimit:10;}
	.st20{clip-path:url(#SVGID_18_);fill:none;stroke:#FFFFFF;stroke-width:0.3;stroke-miterlimit:10;}
	.st21{clip-path:url(#SVGID_18_);fill:none;stroke:#FFFFFF;stroke-width:0.4;stroke-miterlimit:10;}
	.st22{fill:none;stroke:#FFFFFF;stroke-width:1.1;stroke-miterlimit:10;}
	.st23{fill:none;stroke:#FFFFFF;stroke-width:1.1;stroke-linecap:round;stroke-linejoin:round;}
	.st24{clip-path:url(#SVGID_22_);fill:none;stroke:#FFFFFF;stroke-width:0.45;stroke-miterlimit:10;}
	.st25{clip-path:url(#SVGID_24_);fill:none;stroke:#FFFFFF;stroke-width:0.3;stroke-miterlimit:10;}
	.st26{clip-path:url(#SVGID_24_);fill:none;stroke:#FFFFFF;stroke-width:0.4;stroke-miterlimit:10;}
	.st27{clip-path:url(#SVGID_28_);fill:none;stroke:#FFFFFF;stroke-width:0.45;stroke-miterlimit:10;}
	.st28{clip-path:url(#SVGID_30_);fill:none;stroke:#FFFFFF;stroke-width:0.3;stroke-miterlimit:10;}
	.st29{clip-path:url(#SVGID_30_);fill:none;stroke:#FFFFFF;stroke-width:0.4;stroke-miterlimit:10;}
	.st30{clip-path:url(#SVGID_32_);}
	.st31{clip-path:url(#SVGID_34_);}
	.st32{clip-path:url(#SVGID_36_);}
	.st33{fill:none;stroke:#FFFFFF;stroke-width:0.7;stroke-linecap:round;stroke-linejoin:round;stroke-miterlimit:10;}
	.st34{clip-path:url(#SVGID_38_);fill:none;stroke:#FFFFFF;stroke-width:0.45;stroke-miterlimit:10;}
	.st35{clip-path:url(#SVGID_40_);fill:none;stroke:#FFFFFF;stroke-width:0.3;stroke-miterlimit:10;}
	.st36{fill:none;stroke:#FFFFFF;stroke-width:0.7;stroke-miterlimit:10;}
	.st37{clip-path:url(#SVGID_42_);}
	.st38{fill:none;stroke:#FFFFFF;stroke-width:0.3;stroke-linecap:round;stroke-linejoin:round;stroke-miterlimit:10;}
	.st39{fill:none;}
</style>
<g>
	<path class="st0" d="M52.096,289.329c-0.562,0-0.825,0.297-0.825,0.759c0,0.539,0.342,0.858,0.979,0.858
		c1.013,0,1.386-0.407,1.386-1.155v-0.353c0-0.065-0.043-0.109-0.109-0.109H52.096z"/>
	<path class="st0" d="M125.165,158.288h2.287c0.066,0,0.11-0.044,0.11-0.11c0-0.759-0.562-1.199-1.243-1.199
		c-0.759,0-1.266,0.528-1.266,1.199C125.054,158.244,125.098,158.288,125.165,158.288z"/>
	<path class="st0" d="M77.584,289.329c-0.562,0-0.825,0.297-0.825,0.759c0,0.539,0.341,0.858,0.979,0.858
		c1.012,0,1.386-0.407,1.386-1.155v-0.353c0-0.065-0.044-0.109-0.11-0.109H77.584z"/>
	<path class="st0" d="M63.086,287.128c-0.76,0-1.221,0.517-1.266,1.1c-0.033,0.451-0.033,1.09,0,1.54
		c0.045,0.584,0.506,1.101,1.266,1.101c0.759,0,1.221-0.517,1.266-1.101c0.032-0.45,0.032-1.089,0-1.54
		C64.306,287.645,63.844,287.128,63.086,287.128z"/>
	<path class="st0" d="M110.509,569.074c0.033-0.451,0.033-1.089,0-1.54c-0.043-0.583-0.506-1.101-1.265-1.101
		s-1.222,0.518-1.265,1.101c-0.033,0.451-0.033,1.089,0,1.54c0.043,0.583,0.506,1.101,1.265,1.101S110.466,569.657,110.509,569.074z
		"/>
	<path class="st0" d="M111.057,643.633h2.288c0.066,0,0.109-0.044,0.109-0.11c0-0.759-0.561-1.199-1.242-1.199
		c-0.76,0-1.266,0.528-1.266,1.199C110.947,643.589,110.991,643.633,111.057,643.633z"/>
	<path class="st0" d="M99.773,467.633c-0.759,0-1.266,0.528-1.266,1.199c0,0.066,0.044,0.11,0.11,0.11h2.288
		c0.066,0,0.11-0.044,0.11-0.11C101.016,468.073,100.455,467.633,99.773,467.633z"/>
	<path class="st0" d="M135.267,644.525c-0.561,0-0.824,0.297-0.824,0.759c0,0.539,0.341,0.858,0.979,0.858
		c1.013,0,1.387-0.407,1.387-1.155v-0.353c0-0.065-0.044-0.109-0.109-0.109H135.267z"/>
	<path class="st0" d="M121.488,569.097v-0.353c0-0.065-0.044-0.109-0.109-0.109h-1.431c-0.562,0-0.825,0.297-0.825,0.759
		c0,0.539,0.341,0.858,0.979,0.858C121.114,570.252,121.488,569.845,121.488,569.097z"/>
	<path class="st0" d="M120.864,160.718c0.758,0,1.221-0.517,1.265-1.1c0.032-0.451,0.032-1.089,0-1.54
		c-0.044-0.583-0.507-1.101-1.265-1.101c-0.76,0-1.222,0.518-1.266,1.101c-0.033,0.451-0.033,1.089,0,1.54
		C119.642,160.202,120.104,160.718,120.864,160.718z"/>
	<path class="st0" d="M141.796,158.288h2.289c0.065,0,0.109-0.044,0.109-0.11c0-0.759-0.561-1.199-1.243-1.199
		c-0.759,0-1.265,0.528-1.265,1.199C141.686,158.244,141.729,158.288,141.796,158.288z"/>
	<path class="st0" d="M138.595,158.079c-0.043-0.583-0.506-1.101-1.265-1.101s-1.222,0.518-1.265,1.101
		c-0.033,0.451-0.033,1.089,0,1.54c0.043,0.583,0.506,1.1,1.265,1.1s1.222-0.517,1.265-1.1
		C138.628,159.167,138.628,158.53,138.595,158.079z"/>
	<path class="st0" d="M93.647,566.434c-0.759,0-1.222,0.518-1.265,1.101c-0.033,0.451-0.033,1.089,0,1.54
		c0.043,0.583,0.506,1.101,1.265,1.101s1.222-0.518,1.265-1.101c0.033-0.451,0.033-1.089,0-1.54
		C94.869,566.951,94.406,566.434,93.647,566.434z"/>
	<path class="st0" d="M86.573,469.834c-0.561,0-0.824,0.297-0.824,0.759c0,0.539,0.341,0.858,0.979,0.858
		c1.013,0,1.387-0.407,1.387-1.155v-0.353c0-0.065-0.044-0.109-0.11-0.109H86.573z"/>
	<path class="st0" d="M80.237,471.209h1.155c0.671,0,1.188-0.605,1.266-1.266c0.109-0.88,0.109-2.2,0-3.08
		c-0.077-0.66-0.595-1.266-1.266-1.266h-1.155c-0.065,0-0.109,0.044-0.109,0.11v5.391C80.128,471.165,80.172,471.209,80.237,471.209
		z"/>
	<path class="st0" d="M104.001,61.246h2.288c0.066,0,0.11-0.044,0.11-0.109c0-0.76-0.562-1.199-1.243-1.199
		c-0.759,0-1.266,0.527-1.266,1.199C103.89,61.202,103.934,61.246,104.001,61.246z"/>
	<path class="st0" d="M86.577,63.677c0.759,0,1.222-0.518,1.266-1.101c0.032-0.45,0.032-1.089,0-1.54
		c-0.044-0.583-0.507-1.1-1.266-1.1s-1.221,0.517-1.265,1.1c-0.033,0.451-0.033,1.09,0,1.54
		C85.356,63.16,85.818,63.677,86.577,63.677z"/>
	<path class="st0" d="M100.556,702.221c-0.759,0-1.222,0.518-1.266,1.101c-0.033,0.451-0.033,1.089,0,1.54
		c0.044,0.583,0.507,1.101,1.266,1.101s1.221-0.518,1.265-1.101c0.033-0.451,0.033-1.089,0-1.54
		C101.777,702.739,101.315,702.221,100.556,702.221z"/>
	<path class="st0" d="M80.968,63.677c0.759,0,1.221-0.518,1.265-1.101c0.033-0.45,0.033-1.089,0-1.54
		c-0.044-0.583-0.506-1.1-1.265-1.1c-0.76,0-1.222,0.517-1.266,1.1c-0.033,0.451-0.033,1.09,0,1.54
		C79.746,63.16,80.208,63.677,80.968,63.677z"/>
	<path class="st0" d="M0,0.282v850.394h237.496V0.282H0z M154.496,639.387c0-0.121,0.098-0.221,0.219-0.221h0.551
		c0.121,0,0.22,0.1,0.22,0.221v7.338c0,0.121-0.099,0.22-0.22,0.22h-0.551c-0.121,0-0.219-0.099-0.219-0.22V639.387z
		 M137.298,62.763c0-0.12,0.099-0.219,0.22-0.219h0.55c0.121,0,0.221,0.099,0.221,0.219v0.144c0,0.66,0.682,0.814,1.188,0.814
		c0.595,0,1.178-0.154,1.178-0.814c0-0.45-0.539-0.571-1.178-0.704c-0.901-0.188-1.991-0.418-1.991-1.661
		c0-0.99,0.99-1.595,1.991-1.595c1.023,0,2.014,0.604,2.014,1.65c0,0.121-0.099,0.219-0.22,0.219h-0.551
		c-0.121,0-0.22-0.098-0.22-0.219c0-0.386-0.297-0.716-1.023-0.716c-0.682,0-0.968,0.341-0.968,0.66
		c0,0.429,0.429,0.572,0.968,0.671c0.925,0.165,2.168,0.352,2.168,1.694c0,1.177-1.023,1.761-2.168,1.761
		c-1.1,0-2.178-0.551-2.178-1.761V62.763z M131.94,59.277c0-0.121,0.1-0.221,0.22-0.221h0.484c0.066,0,0.11,0.033,0.154,0.077
		c0.065,0.077,0.165,0.177,0.275,0.177c0.318,0,0.406-0.363,1.177-0.363c1.232,0,2.09,0.791,2.09,2.09v3.301
		c0,0.121-0.099,0.22-0.22,0.22h-0.55c-0.121,0-0.22-0.099-0.22-0.22v-3.301c0-0.704-0.528-1.1-1.211-1.1
		c-0.682,0-1.21,0.406-1.21,1.045v3.355c0,0.121-0.099,0.22-0.22,0.22h-0.551c-0.12,0-0.22-0.099-0.22-0.22V59.277z M129.466,56.955
		c0-0.088,0.076-0.176,0.176-0.176h0.748c0.099,0,0.176,0.088,0.176,0.176v0.76c0,0.099-0.077,0.176-0.176,0.176h-0.748
		c-0.1,0-0.176-0.077-0.176-0.176V56.955z M130.532,59.277v5.061c0,0.121-0.099,0.22-0.22,0.22h-0.572
		c-0.121,0-0.22-0.099-0.22-0.22v-5.061c0-0.121,0.099-0.221,0.22-0.221h0.572C130.433,59.056,130.532,59.156,130.532,59.277z
		 M126.11,59.827c-0.385,0-1.022,0.165-1.022,0.692c0,0.188-0.154,0.188-0.253,0.188h-0.495c-0.165,0-0.221-0.088-0.221-0.221
		c0-1.022,1.057-1.539,1.991-1.539c1.243,0,2.014,0.539,2.014,1.76v3.631c0,0.121-0.099,0.22-0.22,0.22h-0.374
		c-0.066,0-0.11-0.022-0.154-0.077c-0.066-0.088-0.11-0.23-0.22-0.23c-0.198,0-0.474,0.418-1.287,0.418
		c-1.354,0-2.003-0.826-2.003-1.761c0-0.913,0.66-1.672,1.815-1.672h1.342c0.066,0,0.11-0.044,0.11-0.11v-0.418
		C127.134,60.113,126.726,59.827,126.11,59.827z M118.554,57.076c0-0.121,0.099-0.22,0.22-0.22h2.035
		c1.188,0,2.157,0.858,2.157,2.046c0,0.506-0.21,1.123-0.628,1.486c-0.088,0.076-0.088,0.176,0,0.241
		c0.451,0.363,0.781,1.056,0.781,1.684c0,1.276-1.045,2.244-2.311,2.244h-2.035c-0.121,0-0.22-0.099-0.22-0.22V57.076z
		 M113.626,61.246c0-0.121,0.099-0.221,0.22-0.221h3.004c0.121,0,0.22,0.1,0.22,0.221v0.748c0,0.121-0.099,0.221-0.22,0.221h-3.004
		c-0.121,0-0.22-0.1-0.22-0.221V61.246z M108.158,62.763c0-0.12,0.1-0.219,0.221-0.219h0.55c0.121,0,0.22,0.099,0.22,0.219v0.144
		c0,0.66,0.683,0.814,1.188,0.814c0.594,0,1.177-0.154,1.177-0.814c0-0.45-0.539-0.571-1.177-0.704
		c-0.902-0.188-1.991-0.418-1.991-1.661c0-0.99,0.99-1.595,1.991-1.595c1.023,0,2.013,0.604,2.013,1.65
		c0,0.121-0.099,0.219-0.22,0.219h-0.55c-0.121,0-0.22-0.098-0.22-0.219c0-0.386-0.298-0.716-1.023-0.716
		c-0.683,0-0.969,0.341-0.969,0.66c0,0.429,0.43,0.572,0.969,0.671c0.924,0.165,2.167,0.352,2.167,1.694
		c0,1.177-1.023,1.761-2.167,1.761c-1.101,0-2.179-0.551-2.179-1.761V62.763z M102.889,61.037c0.088-1.155,0.936-2.09,2.256-2.09
		c1.331,0,2.2,0.824,2.2,2.199v0.76c0,0.121-0.1,0.221-0.221,0.221h-3.146c-0.065,0-0.109,0.043-0.109,0.109
		c0,1.001,0.517,1.441,1.276,1.441c0.571,0,1.001-0.286,1.133-0.693c0.044-0.143,0.154-0.188,0.253-0.188h0.562
		c0.109,0,0.209,0.066,0.187,0.221c-0.132,0.957-0.99,1.65-2.134,1.65c-1.32,0-2.168-0.936-2.256-2.091
		C102.856,62.136,102.856,61.476,102.889,61.037z M100.69,57c0-0.121,0.099-0.221,0.22-0.221h0.55c0.121,0,0.22,0.1,0.22,0.221
		v7.338c0,0.121-0.099,0.22-0.22,0.22h-0.55c-0.121,0-0.22-0.099-0.22-0.22V57z M95.762,61.246c0-0.121,0.1-0.221,0.221-0.221h3.003
		c0.121,0,0.22,0.1,0.22,0.221v0.748c0,0.121-0.099,0.221-0.22,0.221h-3.003c-0.121,0-0.221-0.1-0.221-0.221V61.246z M89.987,59.277
		c0-0.121,0.099-0.221,0.22-0.221h0.484c0.065,0,0.109,0.033,0.153,0.077c0.066,0.077,0.165,0.177,0.275,0.177
		c0.319,0,0.407-0.363,1.177-0.363c1.232,0,2.091,0.791,2.091,2.09v3.301c0,0.121-0.099,0.22-0.22,0.22h-0.551
		c-0.121,0-0.22-0.099-0.22-0.22v-3.301c0-0.704-0.528-1.1-1.21-1.1c-0.683,0-1.21,0.406-1.21,1.045v3.355
		c0,0.121-0.1,0.22-0.221,0.22h-0.55c-0.121,0-0.22-0.099-0.22-0.22V59.277z M84.322,61.037c0.088-1.155,0.935-2.09,2.255-2.09
		s2.167,0.935,2.256,2.09c0.032,0.439,0.032,1.1,0,1.54c-0.089,1.155-0.936,2.091-2.256,2.091s-2.167-0.936-2.255-2.091
		C84.289,62.136,84.289,61.476,84.322,61.037z M78.767,61.037c0.088-1.155,0.935-2.09,2.09-2.09c0.506,0,0.804,0.274,1.023,0.274
		c0.165,0,0.242-0.065,0.242-0.274V57c0-0.121,0.099-0.221,0.22-0.221h0.55c0.121,0,0.221,0.1,0.221,0.221v7.338
		c0,0.121-0.1,0.22-0.221,0.22h-0.374c-0.065,0-0.109-0.033-0.153-0.077c-0.066-0.076-0.165-0.176-0.275-0.176
		c-0.319,0-0.418,0.363-1.232,0.363c-1.155,0-2.002-0.936-2.09-2.091C78.734,62.136,78.734,61.476,78.767,61.037z M75.138,59.277
		c0-0.121,0.099-0.221,0.22-0.221h0.374c0.121,0,0.188,0.066,0.22,0.221c0.033,0.143,0.033,0.385,0.198,0.385
		c0.264,0,0.451-0.605,1.628-0.605h0.221c0.121,0,0.22,0.1,0.22,0.221v0.539c0,0.121-0.099,0.22-0.22,0.22h-0.221
		c-0.869,0-1.649,0.45-1.649,1.661v2.641c0,0.121-0.1,0.22-0.221,0.22h-0.55c-0.121,0-0.22-0.099-0.22-0.22V59.277z M69.56,61.037
		c0.088-1.155,0.936-2.09,2.256-2.09c1.331,0,2.2,0.824,2.2,2.199v0.76c0,0.121-0.1,0.221-0.221,0.221h-3.146
		c-0.065,0-0.109,0.043-0.109,0.109c0,1.001,0.517,1.441,1.276,1.441c0.571,0,1.001-0.286,1.133-0.693
		c0.044-0.143,0.154-0.188,0.253-0.188h0.562c0.109,0,0.209,0.066,0.187,0.221c-0.132,0.957-0.99,1.65-2.134,1.65
		c-1.32,0-2.168-0.936-2.256-2.091C69.527,62.136,69.527,61.476,69.56,61.037z M64.236,59.056h0.683
		c0.099,0,0.165,0.045,0.209,0.165l1.276,3.663c0.021,0.078,0.132,0.078,0.154,0l1.275-3.663c0.044-0.12,0.11-0.165,0.209-0.165
		h0.683c0.176,0,0.253,0.143,0.209,0.254l-1.937,5.082c-0.044,0.109-0.11,0.165-0.209,0.165h-0.605
		c-0.099,0-0.164-0.056-0.209-0.165l-1.947-5.082C63.983,59.199,64.06,59.056,64.236,59.056z M59.166,56.856h0.726
		c0.1,0,0.165,0.044,0.209,0.165l1.243,3.422c0.022,0.055,0.066,0.055,0.088,0l1.222-3.422c0.044-0.121,0.11-0.165,0.209-0.165
		h0.726c0.144,0,0.242,0.144,0.177,0.308l-1.849,4.742v2.432c0,0.121-0.099,0.22-0.22,0.22H61.08c-0.121,0-0.22-0.099-0.22-0.22
		v-2.42l-1.871-4.754C58.924,57,59.022,56.856,59.166,56.856z M76.983,706.842h-2.035c-0.121,0-0.22-0.099-0.22-0.22v-7.262
		c0-0.121,0.099-0.22,0.22-0.22h2.035c1.188,0,2.157,0.858,2.157,2.046c0,0.507-0.21,1.123-0.628,1.485
		c-0.088,0.077-0.088,0.177,0,0.242c0.451,0.363,0.781,1.057,0.781,1.684C79.293,705.874,78.248,706.842,76.983,706.842z
		 M84.574,706.622c0,0.121-0.1,0.22-0.221,0.22h-0.483c-0.066,0-0.11-0.033-0.154-0.077c-0.066-0.077-0.165-0.176-0.275-0.176
		c-0.318,0-0.363,0.363-1.177,0.363c-1.243,0-2.091-0.881-2.091-2.091v-3.3c0-0.121,0.1-0.221,0.221-0.221h0.55
		c0.121,0,0.22,0.1,0.22,0.221v3.3c0,0.639,0.451,1.101,1.21,1.101c0.683,0,1.211-0.407,1.211-1.045v-3.355
		c0-0.121,0.099-0.221,0.22-0.221h0.55c0.121,0,0.221,0.1,0.221,0.221V706.622z M87.763,706.952c-1.101,0-2.179-0.551-2.179-1.761
		v-0.143c0-0.121,0.1-0.221,0.221-0.221h0.55c0.121,0,0.22,0.1,0.22,0.221v0.143c0,0.66,0.683,0.814,1.188,0.814
		c0.594,0,1.177-0.154,1.177-0.814c0-0.451-0.539-0.572-1.177-0.704c-0.902-0.187-1.991-0.418-1.991-1.661
		c0-0.99,0.99-1.595,1.991-1.595c1.023,0,2.013,0.604,2.013,1.649c0,0.121-0.099,0.221-0.22,0.221h-0.55
		c-0.121,0-0.22-0.1-0.22-0.221c0-0.385-0.298-0.715-1.023-0.715c-0.683,0-0.969,0.341-0.969,0.66c0,0.429,0.43,0.572,0.969,0.671
		c0.924,0.165,2.167,0.353,2.167,1.694C89.93,706.369,88.907,706.952,87.763,706.952z M92.812,706.952
		c-1.1,0-2.178-0.551-2.178-1.761v-0.143c0-0.121,0.099-0.221,0.22-0.221h0.55c0.121,0,0.221,0.1,0.221,0.221v0.143
		c0,0.66,0.682,0.814,1.188,0.814c0.595,0,1.178-0.154,1.178-0.814c0-0.451-0.539-0.572-1.178-0.704
		c-0.901-0.187-1.991-0.418-1.991-1.661c0-0.99,0.99-1.595,1.991-1.595c1.023,0,2.014,0.604,2.014,1.649
		c0,0.121-0.099,0.221-0.22,0.221h-0.551c-0.121,0-0.22-0.1-0.22-0.221c0-0.385-0.297-0.715-1.023-0.715
		c-0.682,0-0.968,0.341-0.968,0.66c0,0.429,0.429,0.572,0.968,0.671c0.925,0.165,2.168,0.353,2.168,1.694
		C94.98,706.369,93.956,706.952,92.812,706.952z M97.113,706.622c0,0.121-0.099,0.22-0.22,0.22h-0.572
		c-0.121,0-0.22-0.099-0.22-0.22v-5.061c0-0.121,0.099-0.221,0.22-0.221h0.572c0.121,0,0.22,0.1,0.22,0.221V706.622z
		 M97.146,699.999c0,0.099-0.077,0.176-0.176,0.176h-0.748c-0.1,0-0.176-0.077-0.176-0.176v-0.76c0-0.088,0.076-0.176,0.176-0.176
		h0.748c0.099,0,0.176,0.088,0.176,0.176V699.999z M102.701,707.172c0,1.067-0.848,1.98-2.014,1.98
		c-0.979,0-1.849-0.518-2.002-1.508c-0.022-0.153,0.032-0.253,0.197-0.253h0.528c0.231,0,0.242,0.1,0.286,0.221
		c0.144,0.362,0.429,0.55,0.99,0.55c0.55,0,1.023-0.396,1.023-0.99v-0.242c0-0.209-0.088-0.264-0.242-0.253
		c-0.22,0.011-0.518,0.275-1.023,0.275c-1.155,0-2.002-0.936-2.09-2.091c-0.033-0.439-0.033-1.1,0-1.54
		c0.088-1.155,0.935-2.09,2.09-2.09c0.814,0,0.913,0.362,1.232,0.362c0.11,0,0.209-0.099,0.275-0.176
		c0.044-0.044,0.088-0.077,0.153-0.077h0.374c0.121,0,0.221,0.1,0.221,0.221V707.172z M108.443,706.622
		c0,0.121-0.099,0.22-0.22,0.22h-0.55c-0.121,0-0.22-0.099-0.22-0.22v-3.301c0-0.704-0.528-1.101-1.211-1.101
		c-0.682,0-1.21,0.407-1.21,1.046v3.355c0,0.121-0.099,0.22-0.22,0.22h-0.55c-0.121,0-0.221-0.099-0.221-0.22v-5.061
		c0-0.121,0.1-0.221,0.221-0.221h0.483c0.066,0,0.11,0.033,0.154,0.077c0.066,0.077,0.165,0.176,0.275,0.176
		c0.318,0,0.406-0.362,1.177-0.362c1.232,0,2.09,0.792,2.09,2.09V706.622z M111.203,708.877c-0.044,0.121-0.109,0.165-0.209,0.165
		h-0.594c-0.176,0-0.253-0.143-0.209-0.253l0.814-2.244c0.021-0.056,0.032-0.088,0.011-0.144l-1.893-4.808
		c-0.044-0.109,0.033-0.253,0.209-0.253h0.671c0.1,0,0.165,0.044,0.209,0.165l1.354,3.575c0.022,0.056,0.066,0.056,0.088,0
		l1.276-3.575c0.044-0.121,0.11-0.165,0.209-0.165h0.649c0.176,0,0.253,0.144,0.209,0.253L111.203,708.877z M137.614,752.201
		c0.108,0.35,0.229,0.709,0.354,1.076c0.769,2.28,1.726,5.118,0.145,7.817c-1.906,3.252-0.87,6.005,1.272,9.138
		c2.787,4.073,2.77,5.738-0.109,9.897c-0.09,0.13-0.164,0.271-0.239,0.411c-0.144,0.27-0.306,0.575-0.56,0.818
		c-0.823,0.794-1.242,1.695-1.211,2.604c0.032,0.924,0.515,1.822,1.358,2.53c3.34,2.802,1.697,5.221,0.248,7.355l-0.175,0.259
		c-0.605,0.899-1.232,1.831-2.345,2.494c-1.418,0.845-1.327,2.359-0.769,3.495c0.781,1.583,1.919,2.092,3.372,1.511
		c0.799-0.317,2.005-0.801,3.273,0.173c0.15,0.115,0.223,0.308,0.186,0.494c-0.237,1.195-0.613,2.381-0.978,3.526
		c-0.588,1.853-1.195,3.768-1.22,5.749c-0.003,0.274-0.227,0.494-0.5,0.494c-0.002,0-0.004,0-0.006,0
		c-0.276-0.004-0.498-0.23-0.494-0.506c0.026-2.13,0.657-4.117,1.267-6.039c0.336-1.06,0.656-2.066,0.882-3.094
		c-0.657-0.368-1.271-0.176-2.039,0.132c-1.968,0.783-3.618,0.076-4.64-1.999c-0.778-1.581-0.724-3.678,1.153-4.796
		c0.92-0.548,1.457-1.348,2.026-2.193l0.178-0.263c1.603-2.359,2.457-3.913-0.063-6.027c-1.063-0.892-1.673-2.05-1.715-3.261
		c-0.042-1.201,0.482-2.362,1.517-3.359c0.14-0.135,0.252-0.346,0.371-0.568c0.094-0.176,0.188-0.351,0.3-0.511
		c2.667-3.854,2.681-5.001,0.105-8.764c-2.04-2.982-3.61-6.283-1.311-10.208c1.351-2.306,0.548-4.688-0.229-6.992
		c-0.127-0.375-0.251-0.743-0.361-1.101c-1.391-4.494-0.526-8.318,2.801-12.397c0.284-0.348,0.575-0.689,0.866-1.03
		c1.615-1.893,3.141-3.681,3.191-6.314c0.047-2.485-0.681-3.999-2.36-4.905c-1.431-0.773-2.565-1.905-3.682-3.669
		c-0.953-1.51-1.148-2.961-0.58-4.314c1.043-2.481,0.66-4.839-1.278-7.883l-0.266-0.416c-0.88-1.379-1.791-2.806-2.508-4.31
		c-0.796-1.666-2.276-1.721-3.843-1.778c-0.205-0.008-0.407-0.015-0.603-0.026c-4.9-0.278-8.83-2.743-12.015-7.533
		c-0.896-1.346-1.718-2.584-3.05-3.412c-1.602-0.998-2.533-1.324-4.141-0.02c-1.017,0.823-2.152,1.181-3.271,1.021
		c-1.346-0.184-2.612-1.062-3.661-2.54c-0.941-1.323-1.638-1.646-2.869-1.329c-1.947,0.496-3.763-0.405-4.639-2.297
		c-1.101-2.372-2.958-3.986-5.678-4.933c-3.331-1.16-4.355-3.273-4.628-4.843c-0.476-2.747,0.976-6.021,3.612-8.146
		c3.511-2.831,4.94-7.033,6.323-11.098l0.213-0.625c0.383-1.118,0.341-2.088-0.123-2.883c-0.521-0.89-1.587-1.523-3.003-1.784
		c-0.834-0.154-1.927-0.34-2.977-0.408c-4.745-0.306-7.07-2.972-6.909-7.923c0.138-4.208,0.513-7.598,1.182-10.666
		c0.966-4.432-0.498-8.249-4.121-10.749c-2.11-1.456-3.83-3.334-5.492-5.148c-1.151-1.257-2.342-2.556-3.637-3.684
		c-1.352-1.175-1.791-2.661-1.177-3.976c1.295-2.772,0.106-5.094-1.222-7.232c-2.498-4.02-2.706-4.684,0.166-8.574
		c1.399-1.896,2.091-3.473,1.214-5.469c-0.592-1.347,0.152-2.367,0.873-3.354c0.658-0.9,1.881-2.39,3.303-3.093
		c5.272-2.604,5.982-7.59,6.67-12.413c0.065-0.456,0.13-0.911,0.198-1.362c0.251-1.659-0.226-3.119-1.341-4.11
		c-1.212-1.077-3.037-1.418-4.884-0.913c-5.771,1.582-10.34,0.704-13.966-2.685c-3.154-2.948-6.771-4.826-11.229-6.738
		c-1.403-0.604-2.282-1.548-2.848-3.063c-0.968-2.595-2.617-4.433-5.188-5.783c-2.808-1.474-4.787-3.854-6.701-6.156
		c-0.783-0.94-1.592-1.913-2.438-2.798c-0.924-0.966-1.364-2.283-1.241-3.711c0.171-1.985,1.366-3.934,3.279-5.345
		c5.391-3.976,7.327-8.753,6.098-15.034c-1.384-7.061,3.799-11.067,7.817-13.467c7.227-4.315,11.98-10.633,17.013-17.842
		c0.628-0.899,1.285-1.784,1.944-2.672c2.412-3.245,4.905-6.601,5.944-10.817c1.955-7.939,3.07-14.542-1.713-21.197
		c-1.595-2.219-2.41-4.998-3.199-7.686l-0.181-0.615c-0.962-3.247-0.481-6.514,1.427-9.709c2.174-3.636,4.473-7.547,6.553-11.508
		c2.338-4.449,2.427-8.749,0.25-12.107c-2.849-4.398-7.527-6.134-13.168-4.883c-1.998,0.443-4.339,0.864-6.831,0.253
		c-3.375-0.826-3.967-1.819-3.169-5.31c0.522-2.283,1.471-4.407,2.387-6.462c0.801-1.793,1.628-3.647,2.146-5.566
		c0.517-1.918,0.709-3.763,0.587-5.639c-0.463-7.091-2.904-13.306-6.048-20.693c-0.381-0.895-0.77-1.789-1.158-2.685
		c-1.876-4.321-3.816-8.789-4.968-13.532c-0.587-2.422-1.468-4.824-2.32-7.148c-0.907-2.475-1.846-5.035-2.459-7.678
		c-0.35-1.508-0.708-3.014-1.065-4.518c-1.835-7.716-3.732-15.695-4.45-23.854c-0.11-1.256-0.258-2.512-0.405-3.767
		c-0.508-4.333-1.034-8.812,0.03-13.188c3.216-13.236,6.797-27.298,12.077-40.929l0.236-0.61c2.865-7.395,5.827-15.041,7.847-22.816
		c0.354-1.358,0.688-2.725,1.021-4.092c0.87-3.562,1.771-7.246,3.007-10.737c1.934-5.456,4.568-10.712,7.117-15.796
		c5.371-10.713,13.767-18.427,23.381-26.692c3.584-3.082,6.701-4.004,10.762-3.188c3.494,0.703,5.365-1.002,7.421-4.184
		c0.672-1.04,1.338-2.085,2.004-3.13c3.396-5.328,6.907-10.836,11.192-15.677c0.957-1.081,1.729-2.319,2.477-3.517
		c0.437-0.7,0.889-1.424,1.376-2.117c4.032-5.729,8.616-12.443,11.995-19.635c0.487-1.037,0.811-1.844,0.521-2.786
		c-1.871-6.104-0.265-11.632,1.86-17.709c1.915-5.477,4.294-10.215,7.272-14.488c2.966-4.252,5.05-7.878,6.561-11.411
		c0.703-1.645,1.318-3.613,0.555-5.747c-0.871-2.43-1.185-4.981-1.487-7.449c-0.204-1.664-0.416-3.384-0.797-5.031
		c-0.465-2.011,0.332-3.941,2.303-5.584c0.211-0.176,0.526-0.15,0.704,0.064c0.177,0.212,0.148,0.527-0.063,0.704
		c-1.686,1.404-2.349,2.949-1.969,4.59c0.393,1.699,0.607,3.445,0.814,5.134c0.297,2.413,0.604,4.908,1.437,7.234
		c0.886,2.474,0.157,4.76-0.576,6.477c-1.538,3.598-3.654,7.281-6.66,11.59c-2.926,4.196-5.264,8.856-7.149,14.246
		c-2.065,5.908-3.63,11.272-1.847,17.086c0.392,1.28-0.028,2.345-0.574,3.504c-3.412,7.264-8.025,14.021-12.081,19.785
		c-0.472,0.67-0.916,1.382-1.346,2.071c-0.77,1.232-1.564,2.507-2.577,3.65c-4.232,4.781-7.722,10.256-11.097,15.551
		c-0.668,1.047-1.335,2.094-2.008,3.136c-2.232,3.455-4.427,5.432-8.458,4.622c-3.768-0.758-6.549,0.074-9.912,2.966
		c-9.531,8.194-17.852,15.835-23.139,26.382c-2.535,5.056-5.156,10.284-7.068,15.682c-1.22,3.443-2.114,7.102-2.979,10.64
		c-0.335,1.372-0.67,2.743-1.023,4.105c-2.035,7.832-5.008,15.505-7.883,22.927l-0.237,0.61c-5.258,13.574-8.829,27.6-12.037,40.804
		c-1.021,4.2-0.507,8.59-0.009,12.834c0.148,1.264,0.297,2.53,0.408,3.795c0.711,8.086,2.601,16.029,4.427,23.71
		c0.358,1.506,0.717,3.014,1.067,4.523c0.599,2.583,1.526,5.113,2.424,7.56c0.861,2.35,1.752,4.779,2.354,7.257
		c1.13,4.66,3.053,9.087,4.912,13.369c0.391,0.898,0.779,1.794,1.161,2.691c3.072,7.219,5.654,13.784,6.126,21.02
		c0.129,1.987-0.073,3.938-0.62,5.964c-0.538,1.994-1.382,3.885-2.198,5.713c-0.896,2.011-1.824,4.09-2.325,6.277
		c-0.677,2.96-0.403,3.421,2.433,4.116c2.285,0.559,4.488,0.16,6.376-0.258c6.087-1.346,11.132,0.542,14.225,5.315
		c2.382,3.675,2.309,8.333-0.205,13.116c-2.091,3.982-4.397,7.908-6.579,11.557c-1.759,2.945-2.206,5.943-1.326,8.912l0.182,0.617
		c0.766,2.606,1.557,5.303,3.052,7.383c5.024,6.99,3.819,14.108,1.871,22.021c-1.087,4.412-3.642,7.85-6.112,11.175
		c-0.653,0.88-1.305,1.757-1.927,2.647c-5.1,7.305-9.924,13.711-17.32,18.129c-4.078,2.434-8.598,6.045-7.35,12.416
		c1.313,6.704-0.747,11.798-6.484,16.03c-1.657,1.223-2.732,2.951-2.877,4.626c-0.1,1.153,0.235,2.168,0.968,2.934
		c0.871,0.91,1.691,1.896,2.484,2.85c1.852,2.228,3.767,4.53,6.397,5.911c2.764,1.451,4.616,3.518,5.661,6.318
		c0.475,1.272,1.143,1.994,2.305,2.494c3.94,1.69,8.063,3.699,11.518,6.927c3.351,3.132,7.606,3.932,13.019,2.45
		c2.174-0.595,4.346-0.174,5.812,1.131c1.356,1.206,1.963,3.031,1.664,5.008c-0.067,0.448-0.132,0.9-0.196,1.354
		c-0.724,5.079-1.473,10.332-7.217,13.168c-0.898,0.444-1.949,1.433-2.884,2.711c-0.773,1.06-1.164,1.654-0.819,2.437
		c1.186,2.701-0.062,4.754-1.325,6.465c-2.58,3.495-2.488,3.644-0.121,7.453c1.408,2.268,2.784,4.957,1.278,8.184
		c-0.421,0.899-0.083,1.919,0.927,2.798c1.338,1.164,2.548,2.484,3.718,3.762c1.625,1.774,3.306,3.609,5.323,5.002
		c3.979,2.745,5.587,6.931,4.529,11.784c-0.655,3.008-1.023,6.34-1.158,10.486c-0.145,4.43,1.754,6.619,5.975,6.892
		c1.102,0.072,2.231,0.264,3.093,0.423c1.706,0.314,3.015,1.118,3.685,2.263c0.609,1.042,0.68,2.326,0.205,3.712l-0.212,0.623
		c-1.429,4.199-2.906,8.541-6.643,11.555c-2.325,1.874-3.663,4.834-3.254,7.196c0.325,1.87,1.698,3.277,3.971,4.068
		c2.989,1.041,5.036,2.826,6.257,5.458c0.53,1.142,1.729,2.2,3.483,1.748c1.901-0.485,2.947,0.334,3.932,1.718
		c0.886,1.248,1.917,1.984,2.982,2.13c0.86,0.117,1.699-0.154,2.506-0.809c2.161-1.753,3.679-1.061,5.3-0.053
		c1.515,0.943,2.396,2.27,3.329,3.674c3.063,4.607,6.635,6.859,11.263,7.123c0.189,0.011,0.385,0.018,0.582,0.025
		c1.627,0.06,3.652,0.134,4.709,2.347c0.69,1.449,1.584,2.849,2.448,4.202l0.267,0.417c1.419,2.228,2.855,5.242,1.356,8.807
		c-0.44,1.049-0.275,2.159,0.504,3.394c1.019,1.61,2.04,2.636,3.312,3.323c2.656,1.435,2.919,4,2.885,5.805
		c-0.058,2.991-1.772,5.001-3.431,6.944c-0.286,0.335-0.573,0.672-0.852,1.014C137.141,744.522,136.334,748.061,137.614,752.201z
		 M153.065,639.387v7.338c0,0.121-0.099,0.22-0.22,0.22h-0.551c-0.121,0-0.219-0.099-0.219-0.22v-7.338
		c0-0.121,0.098-0.221,0.219-0.221h0.551C152.967,639.166,153.065,639.266,153.065,639.387z M150.47,640.278h-0.748
		c-0.099,0-0.176-0.077-0.176-0.176v-0.76c0-0.088,0.077-0.176,0.176-0.176h0.748c0.099,0,0.177,0.088,0.177,0.176v0.76
		C150.646,640.2,150.568,640.278,150.47,640.278z M150.613,641.663v5.062c0,0.121-0.1,0.22-0.221,0.22h-0.572
		c-0.121,0-0.22-0.099-0.22-0.22v-5.062c0-0.12,0.099-0.22,0.22-0.22h0.572C150.513,641.444,150.613,641.543,150.613,641.663z
		 M148.132,160.763c0.594,0,1.178-0.154,1.178-0.814c0-0.451-0.539-0.572-1.178-0.704c-0.902-0.188-1.991-0.418-1.991-1.661
		c0-0.99,0.99-1.596,1.991-1.596c1.023,0,2.014,0.605,2.014,1.65c0,0.121-0.1,0.22-0.221,0.22h-0.55c-0.121,0-0.22-0.099-0.22-0.22
		c0-0.385-0.297-0.715-1.023-0.715c-0.682,0-0.969,0.341-0.969,0.66c0,0.429,0.43,0.572,0.969,0.671
		c0.924,0.165,2.168,0.352,2.168,1.694c0,1.177-1.023,1.76-2.168,1.76c-1.1,0-2.178-0.55-2.178-1.76v-0.144
		c0-0.12,0.099-0.22,0.22-0.22h0.55c0.121,0,0.221,0.1,0.221,0.22v0.144C146.944,160.609,147.626,160.763,148.132,160.763z
		 M142.94,160.718c0.572,0,1.001-0.285,1.133-0.692c0.045-0.144,0.154-0.188,0.254-0.188h0.561c0.109,0,0.209,0.066,0.188,0.221
		c-0.133,0.957-0.99,1.649-2.135,1.649c-1.32,0-2.168-0.935-2.256-2.09c-0.033-0.44-0.033-1.101,0-1.54
		c0.088-1.155,0.936-2.091,2.256-2.091c1.331,0,2.2,0.825,2.2,2.2v0.76c0,0.121-0.099,0.22-0.22,0.22h-3.146
		c-0.066,0-0.11,0.044-0.11,0.11C141.664,160.279,142.18,160.718,142.94,160.718z M131.83,156.978c-0.683,0-1.21,0.407-1.21,1.045
		v3.355c0,0.121-0.1,0.221-0.221,0.221h-0.549c-0.121,0-0.221-0.1-0.221-0.221v-5.061c0-0.121,0.1-0.22,0.221-0.22h0.483
		c0.065,0,0.11,0.033,0.153,0.077c0.066,0.077,0.166,0.176,0.275,0.176c0.319,0,0.407-0.363,1.178-0.363
		c1.232,0,2.09,0.792,2.09,2.091v3.3c0,0.121-0.099,0.221-0.22,0.221h-0.55c-0.121,0-0.221-0.1-0.221-0.221v-3.3
		C133.04,157.374,132.513,156.978,131.83,156.978z M132.265,639.387v7.338c0,0.121-0.1,0.22-0.221,0.22h-0.55
		c-0.121,0-0.22-0.099-0.22-0.22v-7.338c0-0.121,0.099-0.221,0.22-0.221h0.55C132.166,639.166,132.265,639.266,132.265,639.387z
		 M117.723,642.323c-0.683,0-1.21,0.407-1.21,1.046v3.355c0,0.121-0.1,0.22-0.221,0.22h-0.549c-0.121,0-0.221-0.099-0.221-0.22
		v-5.062c0-0.12,0.1-0.22,0.221-0.22h0.483c0.065,0,0.11,0.033,0.153,0.077c0.066,0.077,0.166,0.176,0.275,0.176
		c0.319,0,0.407-0.362,1.178-0.362c1.232,0,2.09,0.792,2.09,2.09v3.301c0,0.121-0.099,0.22-0.22,0.22h-0.55
		c-0.121,0-0.221-0.099-0.221-0.22v-3.301C118.933,642.72,118.406,642.323,117.723,642.323z M112.201,646.065
		c0.572,0,1.002-0.286,1.134-0.693c0.044-0.143,0.153-0.187,0.253-0.187h0.561c0.11,0,0.209,0.065,0.188,0.22
		c-0.133,0.957-0.99,1.65-2.135,1.65c-1.32,0-2.167-0.936-2.255-2.091c-0.033-0.439-0.033-1.1,0-1.54
		c0.088-1.155,0.935-2.09,2.255-2.09c1.332,0,2.201,0.824,2.201,2.2v0.759c0,0.121-0.1,0.22-0.221,0.22h-3.146
		c-0.066,0-0.109,0.044-0.109,0.11C110.926,645.624,111.442,646.065,112.201,646.065z M106.99,569.074
		c-0.033-0.439-0.033-1.1,0-1.54c0.088-1.155,0.935-2.09,2.255-2.09s2.167,0.935,2.255,2.09c0.033,0.44,0.033,1.101,0,1.54
		c-0.088,1.155-0.935,2.091-2.255,2.091S107.078,570.23,106.99,569.074z M108.736,639.387v7.338c0,0.121-0.099,0.22-0.22,0.22h-0.55
		c-0.121,0-0.221-0.099-0.221-0.22v-7.338c0-0.121,0.1-0.221,0.221-0.221h0.55C108.638,639.166,108.736,639.266,108.736,639.387z
		 M105.284,467.633c-0.682,0-1.21,0.407-1.21,1.046v3.355c0,0.121-0.099,0.22-0.22,0.22h-0.551c-0.12,0-0.22-0.099-0.22-0.22v-5.062
		c0-0.12,0.1-0.22,0.22-0.22h0.484c0.066,0,0.11,0.033,0.154,0.077c0.065,0.077,0.165,0.176,0.275,0.176
		c0.318,0,0.406-0.362,1.177-0.362c1.232,0,2.09,0.792,2.09,2.09v3.301c0,0.121-0.099,0.22-0.22,0.22h-0.55
		c-0.121,0-0.22-0.099-0.22-0.22v-3.301C106.495,468.029,105.967,467.633,105.284,467.633z M103.941,642.489h-2.123
		c-0.066,0-0.111,0.044-0.111,0.11v4.126c0,0.121-0.099,0.22-0.219,0.22h-0.551c-0.121,0-0.221-0.099-0.221-0.22v-4.126
		c0-0.066-0.043-0.11-0.109-0.11h-0.825c-0.121,0-0.22-0.099-0.22-0.22v-0.55c0-0.121,0.099-0.22,0.22-0.22h0.825
		c0.066,0,0.109-0.045,0.109-0.11v-0.165c0-1.155,0.881-2.058,2.036-2.058h0.11c0.121,0,0.22,0.1,0.22,0.221v0.517
		c0,0.121-0.099,0.22-0.22,0.22h-0.11c-0.583,0-1.046,0.551-1.046,1.101v0.165c0,0.065,0.045,0.11,0.111,0.11h2.123
		c0.065,0,0.109-0.045,0.109-0.11v-0.165c0-1.155,0.881-2.058,2.035-2.058h0.11c0.121,0,0.22,0.1,0.22,0.221v0.517
		c0,0.121-0.099,0.22-0.22,0.22h-0.11c-0.582,0-1.045,0.551-1.045,1.101v0.165c0,0.065,0.044,0.11,0.11,0.11h1.122
		c0.121,0,0.22,0.099,0.22,0.22v0.55c0,0.121-0.099,0.22-0.22,0.22h-1.122c-0.066,0-0.11,0.044-0.11,0.11v4.126
		c0,0.121-0.1,0.22-0.22,0.22h-0.55c-0.121,0-0.221-0.099-0.221-0.22v-4.126C104.051,642.532,104.007,642.489,103.941,642.489z
		 M78.012,287.018c-0.385,0-1.022,0.165-1.022,0.693c0,0.187-0.154,0.187-0.254,0.187h-0.494c-0.166,0-0.221-0.088-0.221-0.22
		c0-1.023,1.057-1.54,1.991-1.54c1.243,0,2.013,0.539,2.013,1.76v3.631c0,0.121-0.098,0.22-0.219,0.22h-0.375
		c-0.065,0-0.109-0.021-0.154-0.077c-0.065-0.088-0.109-0.23-0.219-0.23c-0.199,0-0.474,0.418-1.287,0.418
		c-1.354,0-2.003-0.825-2.003-1.761c0-0.913,0.66-1.672,1.815-1.672h1.342c0.066,0,0.11-0.044,0.11-0.11v-0.418
		C79.036,287.304,78.628,287.018,78.012,287.018z M79.083,464.772c0-0.121,0.099-0.22,0.22-0.22h2.09
		c1.276,0,2.156,1.034,2.311,2.311c0.11,0.88,0.099,2.2,0,3.08c-0.143,1.266-1.034,2.311-2.311,2.311h-2.09
		c-0.121,0-0.22-0.099-0.22-0.22V464.772z M82.808,293.784c-0.044,0.121-0.109,0.165-0.209,0.165h-0.594
		c-0.176,0-0.254-0.143-0.209-0.253l0.814-2.244c0.021-0.055,0.032-0.088,0.01-0.143l-1.892-4.808
		c-0.044-0.11,0.032-0.254,0.209-0.254h0.671c0.1,0,0.165,0.045,0.209,0.165l1.354,3.576c0.021,0.055,0.066,0.055,0.088,0
		l1.276-3.576c0.044-0.12,0.11-0.165,0.209-0.165h0.649c0.176,0,0.252,0.144,0.209,0.254L82.808,293.784z M87.003,467.523
		c-0.385,0-1.023,0.165-1.023,0.693c0,0.187-0.154,0.187-0.253,0.187h-0.495c-0.165,0-0.22-0.088-0.22-0.22
		c0-1.023,1.056-1.54,1.991-1.54c1.243,0,2.013,0.539,2.013,1.76v3.631c0,0.121-0.099,0.22-0.22,0.22h-0.374
		c-0.065,0-0.11-0.022-0.154-0.077c-0.065-0.088-0.109-0.23-0.22-0.23c-0.198,0-0.473,0.418-1.287,0.418
		c-1.354,0-2.002-0.825-2.002-1.761c0-0.913,0.66-1.672,1.814-1.672h1.343c0.065,0,0.11-0.044,0.11-0.11v-0.418
		C88.026,467.81,87.619,467.523,87.003,467.523z M85.506,565.554c0.144-1.199,1.023-2.288,2.476-2.288
		c1.32,0,2.475,0.858,2.475,2.288v0.154c0,0.121-0.099,0.22-0.219,0.22h-0.605c-0.121,0-0.221-0.099-0.221-0.22v-0.154
		c0-0.66-0.561-1.232-1.43-1.243c-0.715,0-1.332,0.44-1.43,1.243c-0.111,0.902-0.111,2.398,0,3.301
		c0.088,0.638,0.571,1.243,1.43,1.243c0.736,0,1.43-0.44,1.43-1.243V568.7c0-0.121,0.1-0.22,0.221-0.22h0.605
		c0.12,0,0.219,0.099,0.219,0.22v0.154c0,1.221-1.022,2.288-2.475,2.288c-1.32,0-2.299-0.869-2.476-2.288
		C85.396,567.963,85.396,566.434,85.506,565.554z M91.281,465.587h-0.748c-0.099,0-0.176-0.077-0.176-0.176v-0.76
		c0-0.088,0.077-0.176,0.176-0.176h0.748c0.1,0,0.177,0.088,0.177,0.176v0.76C91.458,465.51,91.381,465.587,91.281,465.587z
		 M91.425,466.973v5.062c0,0.121-0.1,0.22-0.221,0.22h-0.571c-0.121,0-0.221-0.099-0.221-0.22v-5.062c0-0.12,0.1-0.22,0.221-0.22
		h0.571C91.325,466.753,91.425,466.853,91.425,466.973z M88.606,639.243h0.66c0.099,0,0.177,0.044,0.209,0.165l1.529,5.864
		c0.011,0.044,0.033,0.065,0.065,0.065h0.022c0.033,0,0.056-0.021,0.066-0.065l1.528-5.864c0.033-0.121,0.111-0.165,0.209-0.165
		h0.672c0.176,0,0.242,0.132,0.209,0.253l-2.057,7.283c-0.033,0.11-0.111,0.165-0.209,0.165h-0.859
		c-0.099,0-0.176-0.055-0.209-0.165l-2.046-7.272C88.365,639.398,88.43,639.243,88.606,639.243z M93.647,571.165
		c-1.32,0-2.167-0.936-2.255-2.091c-0.033-0.439-0.033-1.1,0-1.54c0.088-1.155,0.935-2.09,2.255-2.09s2.167,0.935,2.255,2.09
		c0.033,0.44,0.033,1.101,0,1.54C95.814,570.23,94.967,571.165,93.647,571.165z M92.888,472.034v-7.338
		c0-0.121,0.099-0.221,0.22-0.221h0.55c0.121,0,0.22,0.1,0.22,0.221v7.338c0,0.121-0.099,0.22-0.22,0.22h-0.55
		C92.986,472.254,92.888,472.155,92.888,472.034z M95.307,472.034v-7.338c0-0.121,0.099-0.221,0.22-0.221h0.55
		c0.121,0,0.22,0.1,0.22,0.221v7.338c0,0.121-0.099,0.22-0.22,0.22h-0.55C95.406,472.254,95.307,472.155,95.307,472.034z
		 M94.447,641.663c0-0.12,0.1-0.22,0.221-0.22h0.549c0.121,0,0.221,0.1,0.221,0.22v3.301c0,0.639,0.451,1.101,1.21,1.101
		c0.683,0,1.21-0.407,1.21-1.045v-3.356c0-0.12,0.1-0.22,0.221-0.22h0.55c0.121,0,0.22,0.1,0.22,0.22v5.062
		c0,0.121-0.099,0.22-0.22,0.22h-0.483c-0.066,0-0.111-0.033-0.154-0.077c-0.066-0.077-0.166-0.176-0.275-0.176
		c-0.318,0-0.363,0.363-1.178,0.363c-1.242,0-2.09-0.881-2.09-2.091V641.663z M96.749,569.404v-0.143
		c0-0.121,0.099-0.221,0.22-0.221h0.551c0.121,0,0.22,0.1,0.22,0.221v0.143c0,0.66,0.683,0.814,1.188,0.814
		c0.594,0,1.177-0.154,1.177-0.814c0-0.451-0.539-0.572-1.177-0.704c-0.902-0.187-1.992-0.418-1.992-1.661
		c0-0.99,0.99-1.595,1.992-1.595c1.023,0,2.013,0.604,2.013,1.649c0,0.121-0.099,0.221-0.22,0.221h-0.551
		c-0.121,0-0.219-0.1-0.219-0.221c0-0.385-0.298-0.715-1.023-0.715c-0.683,0-0.969,0.341-0.969,0.66c0,0.429,0.43,0.572,0.969,0.671
		c0.924,0.165,2.167,0.353,2.167,1.694c0,1.178-1.023,1.761-2.167,1.761C97.827,571.165,96.749,570.614,96.749,569.404z
		 M103.976,570.219c0.594,0,1.177-0.154,1.177-0.814c0-0.451-0.539-0.572-1.177-0.704c-0.902-0.187-1.992-0.418-1.992-1.661
		c0-0.99,0.99-1.595,1.992-1.595c1.023,0,2.013,0.604,2.013,1.649c0,0.121-0.099,0.221-0.22,0.221h-0.551
		c-0.121,0-0.219-0.1-0.219-0.221c0-0.385-0.298-0.715-1.023-0.715c-0.683,0-0.969,0.341-0.969,0.66c0,0.429,0.43,0.572,0.969,0.671
		c0.924,0.165,2.167,0.353,2.167,1.694c0,1.178-1.023,1.761-2.167,1.761c-1.101,0-2.179-0.551-2.179-1.761v-0.143
		c0-0.121,0.099-0.221,0.22-0.221h0.551c0.121,0,0.22,0.1,0.22,0.221v0.143C102.788,570.065,103.47,570.219,103.976,570.219z
		 M101.963,469.603c0,0.121-0.1,0.22-0.221,0.22h-3.146c-0.065,0-0.109,0.044-0.109,0.11c0,1.001,0.517,1.441,1.276,1.441
		c0.571,0,1.001-0.286,1.133-0.693c0.044-0.143,0.154-0.187,0.253-0.187h0.562c0.109,0,0.209,0.065,0.187,0.22
		c-0.132,0.957-0.99,1.65-2.134,1.65c-1.32,0-2.168-0.936-2.256-2.091c-0.033-0.439-0.033-1.1,0-1.54
		c0.088-1.155,0.936-2.09,2.256-2.09c1.331,0,2.2,0.824,2.2,2.2V469.603z M110.619,471.418c0.595,0,1.178-0.154,1.178-0.814
		c0-0.451-0.539-0.572-1.178-0.704c-0.901-0.187-1.991-0.418-1.991-1.661c0-0.99,0.99-1.595,1.991-1.595
		c1.023,0,2.014,0.604,2.014,1.649c0,0.121-0.099,0.221-0.22,0.221h-0.551c-0.121,0-0.22-0.1-0.22-0.221
		c0-0.385-0.297-0.715-1.023-0.715c-0.682,0-0.968,0.341-0.968,0.66c0,0.429,0.429,0.572,0.968,0.671
		c0.925,0.165,2.168,0.353,2.168,1.694c0,1.178-1.023,1.761-2.168,1.761c-1.1,0-2.178-0.551-2.178-1.761v-0.143
		c0-0.121,0.099-0.221,0.22-0.221h0.55c0.121,0,0.221,0.1,0.221,0.221v0.143C109.431,471.264,110.113,471.418,110.619,471.418z
		 M113.644,567.48v3.355c0,0.121-0.099,0.22-0.22,0.22h-0.55c-0.121,0-0.221-0.099-0.221-0.22v-5.062c0-0.12,0.1-0.22,0.221-0.22
		h0.484c0.065,0,0.109,0.033,0.153,0.077c0.066,0.077,0.165,0.176,0.275,0.176c0.319,0,0.407-0.362,1.177-0.362
		c1.232,0,2.09,0.792,2.09,2.09v3.301c0,0.121-0.098,0.22-0.219,0.22h-0.551c-0.121,0-0.22-0.099-0.22-0.22v-3.301
		c0-0.704-0.528-1.101-1.21-1.101C114.172,566.434,113.644,566.841,113.644,567.48z M114.736,157.143h2.497
		c0.121,0,0.221,0.1,0.221,0.22v0.605c0,0.121-0.1,0.22-0.221,0.22h-2.497c-0.065,0-0.11,0.044-0.11,0.11v2.146
		c0,0.065,0.045,0.11,0.11,0.11h2.641c0.121,0,0.22,0.099,0.22,0.22v0.604c0,0.121-0.099,0.221-0.22,0.221h-3.575
		c-0.121,0-0.221-0.1-0.221-0.221v-7.261c0-0.121,0.1-0.22,0.221-0.22h3.553c0.121,0,0.221,0.099,0.221,0.22v0.605
		c0,0.121-0.1,0.22-0.221,0.22h-2.618c-0.065,0-0.11,0.044-0.11,0.11v1.98C114.626,157.099,114.671,157.143,114.736,157.143z
		 M118.132,569.404c0-0.913,0.66-1.672,1.815-1.672h1.342c0.066,0,0.11-0.044,0.11-0.11v-0.418c0-0.594-0.407-0.88-1.023-0.88
		c-0.385,0-1.023,0.165-1.023,0.693c0,0.187-0.154,0.187-0.252,0.187h-0.496c-0.164,0-0.22-0.088-0.22-0.22
		c0-1.023,1.056-1.54,1.991-1.54c1.243,0,2.014,0.539,2.014,1.76v3.631c0,0.121-0.1,0.22-0.221,0.22h-0.373
		c-0.066,0-0.111-0.022-0.154-0.077c-0.066-0.088-0.11-0.23-0.221-0.23c-0.197,0-0.473,0.418-1.287,0.418
		C118.781,571.165,118.132,570.34,118.132,569.404z M118.718,163.58v-7.262c0-0.121,0.1-0.22,0.221-0.22h0.374
		c0.065,0,0.11,0.033,0.153,0.077c0.066,0.077,0.166,0.176,0.275,0.176c0.319,0,0.418-0.363,1.232-0.363
		c1.155,0,2.002,0.936,2.09,2.091c0.033,0.439,0.033,1.1,0,1.54c-0.088,1.155-0.935,2.09-2.09,2.09
		c-0.506,0-0.803-0.274-1.023-0.274c-0.165,0-0.242,0.065-0.242,0.274v1.871c0,0.12-0.099,0.22-0.22,0.22h-0.55
		C118.817,163.799,118.718,163.7,118.718,163.58z M120.88,645.152c0-0.121,0.099-0.221,0.22-0.221h0.551
		c0.121,0,0.22,0.1,0.22,0.221v0.143c0,0.66,0.683,0.814,1.188,0.814c0.594,0,1.177-0.154,1.177-0.814
		c0-0.451-0.539-0.572-1.177-0.704c-0.902-0.187-1.992-0.418-1.992-1.661c0-0.99,0.99-1.595,1.992-1.595
		c1.023,0,2.013,0.604,2.013,1.649c0,0.121-0.099,0.221-0.22,0.221h-0.551c-0.121,0-0.219-0.1-0.219-0.221
		c0-0.385-0.298-0.715-1.023-0.715c-0.683,0-0.969,0.341-0.969,0.66c0,0.429,0.43,0.572,0.969,0.671
		c0.924,0.165,2.167,0.353,2.167,1.694c0,1.178-1.023,1.761-2.167,1.761c-1.101,0-2.179-0.551-2.179-1.761V645.152z M125.172,573.09
		c-0.044,0.121-0.11,0.165-0.209,0.165h-0.595c-0.176,0-0.252-0.143-0.209-0.253l0.814-2.244c0.022-0.055,0.033-0.088,0.012-0.144
		l-1.893-4.808c-0.044-0.109,0.033-0.253,0.209-0.253h0.671c0.099,0,0.165,0.044,0.209,0.165l1.354,3.576
		c0.022,0.055,0.065,0.055,0.088,0l1.276-3.576c0.044-0.121,0.109-0.165,0.209-0.165h0.648c0.176,0,0.254,0.144,0.209,0.253
		L125.172,573.09z M126.308,160.718c0.571,0,1.001-0.285,1.134-0.692c0.043-0.144,0.153-0.188,0.252-0.188h0.562
		c0.11,0,0.209,0.066,0.187,0.221c-0.131,0.957-0.99,1.649-2.134,1.649c-1.32,0-2.167-0.935-2.255-2.09
		c-0.033-0.44-0.033-1.101,0-1.54c0.088-1.155,0.935-2.091,2.255-2.091c1.331,0,2.2,0.825,2.2,2.2v0.76c0,0.121-0.1,0.22-0.221,0.22
		h-3.146c-0.065,0-0.109,0.044-0.109,0.11C125.032,160.279,125.55,160.718,126.308,160.718z M126.347,643.633
		c0-0.121,0.099-0.22,0.22-0.22h3.003c0.121,0,0.221,0.099,0.221,0.22v0.748c0,0.121-0.1,0.22-0.221,0.22h-3.003
		c-0.121,0-0.22-0.099-0.22-0.22V643.633z M135.697,642.214c-0.385,0-1.023,0.165-1.023,0.693c0,0.187-0.154,0.187-0.252,0.187
		h-0.496c-0.164,0-0.22-0.088-0.22-0.22c0-1.023,1.056-1.54,1.991-1.54c1.243,0,2.014,0.539,2.014,1.76v3.631
		c0,0.121-0.1,0.22-0.221,0.22h-0.373c-0.066,0-0.111-0.022-0.154-0.077c-0.066-0.088-0.11-0.23-0.221-0.23
		c-0.197,0-0.473,0.418-1.287,0.418c-1.354,0-2.002-0.825-2.002-1.761c0-0.913,0.66-1.672,1.814-1.672h1.343
		c0.065,0,0.11-0.044,0.11-0.11v-0.418C136.721,642.5,136.313,642.214,135.697,642.214z M137.22,161.708
		c-1.154,0-2.002-0.935-2.09-2.09c-0.033-0.44-0.033-1.101,0-1.54c0.088-1.155,0.936-2.091,2.09-2.091
		c0.506,0,0.804,0.275,1.023,0.275c0.165,0,0.242-0.066,0.242-0.275v-1.947c0-0.121,0.1-0.22,0.221-0.22h0.549
		c0.121,0,0.221,0.099,0.221,0.22v7.338c0,0.121-0.1,0.221-0.221,0.221h-0.373c-0.066,0-0.11-0.033-0.154-0.077
		c-0.066-0.077-0.165-0.176-0.275-0.176C138.134,161.346,138.034,161.708,137.22,161.708z M139.107,643.633
		c0-0.121,0.099-0.22,0.22-0.22h3.003c0.121,0,0.221,0.099,0.221,0.22v0.748c0,0.121-0.1,0.22-0.221,0.22h-3.003
		c-0.121,0-0.22-0.099-0.22-0.22V643.633z M72.49,287.128c-0.682,0-1.209,0.407-1.209,1.045v3.355c0,0.121-0.1,0.22-0.221,0.22
		h-0.55c-0.121,0-0.22-0.099-0.22-0.22v-5.061c0-0.121,0.099-0.221,0.22-0.221h0.483c0.066,0,0.11,0.033,0.154,0.077
		c0.066,0.077,0.165,0.177,0.275,0.177c0.318,0,0.406-0.363,1.177-0.363c1.232,0,2.091,0.792,2.091,2.09v3.301
		c0,0.121-0.1,0.22-0.221,0.22h-0.55c-0.121,0-0.22-0.099-0.22-0.22v-3.301C73.701,287.524,73.172,287.128,72.49,287.128z
		 M69.576,286.468v0.539c0,0.121-0.1,0.22-0.221,0.22h-0.22c-0.869,0-1.649,0.451-1.649,1.661v2.641c0,0.121-0.1,0.22-0.221,0.22
		h-0.55c-0.121,0-0.22-0.099-0.22-0.22v-5.061c0-0.121,0.099-0.221,0.22-0.221h0.374c0.121,0,0.188,0.066,0.22,0.221
		c0.033,0.143,0.033,0.385,0.198,0.385c0.264,0,0.451-0.605,1.628-0.605h0.22C69.476,286.247,69.576,286.347,69.576,286.468z
		 M65.341,289.768c-0.089,1.155-0.936,2.091-2.256,2.091s-2.168-0.936-2.256-2.091c-0.033-0.439-0.033-1.1,0-1.54
		c0.088-1.155,0.936-2.09,2.256-2.09s2.167,0.935,2.256,2.09C65.374,288.668,65.374,289.329,65.341,289.768z M60.204,286.501
		l-1.937,5.082c-0.043,0.11-0.109,0.165-0.209,0.165h-0.604c-0.099,0-0.165-0.055-0.21-0.165l-1.947-5.082
		c-0.043-0.11,0.033-0.254,0.209-0.254h0.683c0.099,0,0.165,0.045,0.209,0.165l1.276,3.664c0.021,0.077,0.132,0.077,0.154,0
		l1.275-3.664c0.045-0.12,0.11-0.165,0.209-0.165h0.683C60.171,286.247,60.248,286.391,60.204,286.501z M52.525,287.018
		c-0.385,0-1.022,0.165-1.022,0.693c0,0.187-0.154,0.187-0.253,0.187h-0.495c-0.165,0-0.22-0.088-0.22-0.22
		c0-1.023,1.056-1.54,1.99-1.54c1.244,0,2.014,0.539,2.014,1.76v3.631c0,0.121-0.099,0.22-0.22,0.22h-0.374
		c-0.066,0-0.11-0.021-0.154-0.077c-0.066-0.088-0.109-0.23-0.22-0.23c-0.198,0-0.474,0.418-1.287,0.418
		c-1.354,0-2.003-0.825-2.003-1.761c0-0.913,0.66-1.672,1.815-1.672h1.343c0.065,0,0.109-0.044,0.109-0.11v-0.418
		C53.548,287.304,53.142,287.018,52.525,287.018z M47.037,287.128c-0.682,0-1.178,0.473-1.178,1.045v3.355
		c0,0.121-0.098,0.22-0.219,0.22h-0.551c-0.121,0-0.22-0.099-0.22-0.22v-7.338c0-0.121,0.099-0.221,0.22-0.221h0.551
		c0.121,0,0.219,0.1,0.219,0.221v1.991c0,0.099,0.089,0.23,0.242,0.23c0.221,0,0.506-0.274,1.013-0.274
		c1.155,0,2.091,0.935,2.091,2.09v3.301c0,0.121-0.1,0.22-0.221,0.22h-0.55c-0.121,0-0.22-0.099-0.22-0.22v-3.301
		C48.214,287.656,47.718,287.128,47.037,287.128z M41.24,285.004c-0.715,0-1.332,0.44-1.43,1.243c-0.111,0.902-0.111,2.398,0,3.301
		c0.088,0.639,0.571,1.243,1.43,1.243c0.736,0,1.43-0.439,1.43-1.243v-0.154c0-0.121,0.1-0.22,0.221-0.22h0.605
		c0.12,0,0.219,0.099,0.219,0.22v0.154c0,1.222-1.022,2.288-2.475,2.288c-1.32,0-2.299-0.869-2.476-2.288
		c-0.11-0.891-0.11-2.42,0-3.301c0.144-1.199,1.023-2.288,2.476-2.288c1.32,0,2.475,0.858,2.475,2.288v0.154
		c0,0.121-0.099,0.22-0.219,0.22H42.89c-0.121,0-0.221-0.099-0.221-0.22v-0.154C42.669,285.588,42.109,285.016,41.24,285.004z
		 M146.5,646.945h-0.859c-0.099,0-0.176-0.055-0.209-0.165l-2.046-7.272c-0.032-0.109,0.033-0.264,0.209-0.264h0.66
		c0.099,0,0.177,0.044,0.209,0.165l1.529,5.864c0.011,0.044,0.033,0.065,0.065,0.065h0.022c0.033,0,0.056-0.021,0.066-0.065
		l1.528-5.864c0.033-0.121,0.111-0.165,0.209-0.165h0.672c0.176,0,0.242,0.132,0.209,0.253l-2.057,7.283
		C146.676,646.89,146.597,646.945,146.5,646.945z M149.203,801.094c-1.42,0-2.476-1.034-2.476-2.288v-0.176
		c0-0.121,0.099-0.221,0.22-0.221h0.616c0.121,0,0.22,0.1,0.22,0.221v0.176c0,0.715,0.595,1.243,1.42,1.243
		c0.824,0,1.419-0.539,1.419-1.243c0-1.023-0.737-1.166-1.849-1.419c-1.078-0.242-1.837-0.902-1.837-2.102
		c0-1.32,1.134-2.068,2.267-2.068c1.298,0,2.255,0.936,2.255,2.068v0.143c0,0.121-0.099,0.221-0.22,0.221h-0.605
		c-0.121,0-0.22-0.1-0.22-0.221v-0.143c0-0.737-0.649-1.023-1.21-1.023c-0.715,0-1.211,0.396-1.211,1.023
		c0,0.968,0.936,1.067,1.65,1.243c1.254,0.308,2.035,1.012,2.035,2.277C151.678,800.214,150.479,801.094,149.203,801.094z
		 M155.848,800.786c0,0.121-0.1,0.22-0.221,0.22h-0.605c-1.144,0-1.869-0.495-1.869-1.76v-2.586c0-0.066-0.045-0.11-0.111-0.11
		h-0.77c-0.121,0-0.22-0.099-0.22-0.22v-0.55c0-0.121,0.099-0.22,0.22-0.22h0.77c0.066,0,0.111-0.045,0.111-0.11v-1.705
		c0-0.121,0.099-0.221,0.219-0.221h0.551c0.121,0,0.221,0.1,0.221,0.221v1.705c0,0.065,0.043,0.11,0.109,0.11h1.266
		c0.121,0,0.22,0.099,0.22,0.22v0.55c0,0.121-0.099,0.22-0.22,0.22h-1.266c-0.066,0-0.109,0.044-0.109,0.11v2.586
		c0,0.483,0.209,0.803,0.879,0.803h0.605c0.121,0,0.221,0.099,0.221,0.22V800.786z M160.159,798.442c0,0.121-0.098,0.22-0.219,0.22
		h-3.004c-0.121,0-0.221-0.099-0.221-0.22v-0.748c0-0.121,0.1-0.22,0.221-0.22h3.004c0.121,0,0.219,0.099,0.219,0.22V798.442z
		 M161.15,644.293c0,0.121-0.099,0.22-0.22,0.22h-3.146c-0.066,0-0.111,0.044-0.111,0.11c0,1.001,0.518,1.441,1.277,1.441
		c0.571,0,1-0.286,1.133-0.693c0.044-0.143,0.154-0.187,0.253-0.187h0.562c0.109,0,0.209,0.065,0.187,0.22
		c-0.132,0.957-0.99,1.65-2.134,1.65c-1.32,0-2.168-0.936-2.256-2.091c-0.033-0.439-0.033-1.1,0-1.54
		c0.088-1.155,0.936-2.09,2.256-2.09c1.33,0,2.199,0.824,2.199,2.2V644.293z M163.723,801.094c-1.42,0-2.476-1.034-2.476-2.288
		v-0.176c0-0.121,0.099-0.221,0.22-0.221h0.616c0.121,0,0.22,0.1,0.22,0.221v0.176c0,0.715,0.595,1.243,1.42,1.243
		c0.824,0,1.419-0.539,1.419-1.243c0-1.023-0.737-1.166-1.849-1.419c-1.078-0.242-1.837-0.902-1.837-2.102
		c0-1.32,1.134-2.068,2.267-2.068c1.298,0,2.255,0.936,2.255,2.068v0.143c0,0.121-0.099,0.221-0.22,0.221h-0.605
		c-0.121,0-0.22-0.1-0.22-0.221v-0.143c0-0.737-0.649-1.023-1.21-1.023c-0.715,0-1.211,0.396-1.211,1.023
		c0,0.968,0.936,1.067,1.65,1.243c1.254,0.308,2.035,1.012,2.035,2.277C166.198,800.214,164.998,801.094,163.723,801.094z
		 M171.522,800.786c0,0.121-0.099,0.22-0.22,0.22h-0.483c-0.066,0-0.111-0.033-0.154-0.077c-0.066-0.077-0.166-0.176-0.275-0.176
		c-0.318,0-0.363,0.363-1.178,0.363c-1.242,0-2.09-0.881-2.09-2.091v-3.301c0-0.12,0.1-0.22,0.221-0.22h0.549
		c0.121,0,0.221,0.1,0.221,0.22v3.301c0,0.639,0.451,1.101,1.21,1.101c0.683,0,1.21-0.407,1.21-1.045v-3.356
		c0-0.12,0.1-0.22,0.221-0.22h0.55c0.121,0,0.22,0.1,0.22,0.22V800.786z M173.875,800.786c0,0.121-0.099,0.22-0.22,0.22h-0.55
		c-0.121,0-0.221-0.099-0.221-0.22v-7.338c0-0.121,0.1-0.221,0.221-0.221h0.55c0.121,0,0.22,0.1,0.22,0.221V800.786z
		 M179.608,799.025c-0.088,1.155-0.936,2.091-2.091,2.091c-0.507,0-0.804-0.275-1.023-0.275c-0.165,0-0.241,0.066-0.241,0.275v1.87
		c0,0.121-0.1,0.22-0.221,0.22h-0.55c-0.121,0-0.22-0.099-0.22-0.22v-7.262c0-0.12,0.099-0.22,0.22-0.22h0.374
		c0.066,0,0.109,0.033,0.154,0.077c0.065,0.077,0.164,0.176,0.274,0.176c0.319,0,0.419-0.362,1.232-0.362
		c1.155,0,2.003,0.935,2.091,2.09C179.64,797.926,179.64,798.586,179.608,799.025z M181.872,800.786c0,0.121-0.099,0.22-0.22,0.22
		h-0.572c-0.121,0-0.221-0.099-0.221-0.22v-5.062c0-0.12,0.1-0.22,0.221-0.22h0.572c0.121,0,0.22,0.1,0.22,0.22V800.786z
		 M181.906,794.163c0,0.099-0.077,0.176-0.177,0.176h-0.748c-0.099,0-0.176-0.077-0.176-0.176v-0.76
		c0-0.088,0.077-0.176,0.176-0.176h0.748c0.1,0,0.177,0.088,0.177,0.176V794.163z M184.094,799.025
		c0.045,0.583,0.451,1.101,1.211,1.101c0.671,0,1.121-0.396,1.121-0.913c0-0.144,0.111-0.188,0.209-0.188h0.572
		c0.121,0,0.221,0.1,0.221,0.221c0,1.066-0.891,1.87-2.123,1.87c-1.32,0-2.113-0.936-2.201-2.091c-0.033-0.439-0.033-1.1,0-1.54
		c0.088-1.155,0.881-2.09,2.201-2.09c1.232,0,2.123,0.803,2.123,1.87c0,0.121-0.066,0.22-0.188,0.22h-0.594
		c-0.1,0-0.209-0.055-0.209-0.176c0-0.518-0.451-0.925-1.133-0.925c-0.76,0-1.166,0.518-1.211,1.101
		C184.061,797.936,184.061,798.574,184.094,799.025z M192.807,798.354c0,0.121-0.1,0.22-0.221,0.22h-3.146
		c-0.065,0-0.109,0.044-0.109,0.11c0,1.001,0.518,1.441,1.276,1.441c0.571,0,1.001-0.286,1.134-0.693
		c0.043-0.143,0.153-0.187,0.252-0.187h0.562c0.11,0,0.209,0.065,0.187,0.22c-0.131,0.957-0.99,1.65-2.134,1.65
		c-1.32,0-2.167-0.936-2.255-2.091c-0.033-0.439-0.033-1.1,0-1.54c0.088-1.155,0.935-2.09,2.255-2.09c1.331,0,2.2,0.824,2.2,2.2
		V798.354z"/>
	<path class="st0" d="M190.617,796.385c-0.759,0-1.266,0.528-1.266,1.199c0,0.066,0.045,0.11,0.111,0.11h2.287
		c0.066,0,0.11-0.044,0.11-0.11C191.861,796.825,191.299,796.385,190.617,796.385z"/>
	<path class="st0" d="M177.407,796.385c-0.759,0-1.221,0.518-1.266,1.101c-0.032,0.451-0.032,1.089,0,1.54
		c0.045,0.583,0.507,1.101,1.266,1.101c0.76,0,1.221-0.518,1.266-1.101c0.033-0.451,0.033-1.089,0-1.54
		C178.627,796.902,178.166,796.385,177.407,796.385z"/>
	<path class="st0" d="M70.672,61.246h2.288c0.066,0,0.11-0.044,0.11-0.109c0-0.76-0.562-1.199-1.243-1.199
		c-0.759,0-1.266,0.527-1.266,1.199C70.561,61.202,70.605,61.246,70.672,61.246z"/>
	<path class="st0" d="M76.983,703.299h-1.122c-0.055-0.032-0.109,0.045-0.109,0.11v2.277c0,0.066,0.044,0.11,0.109,0.11h1.122
		c0.683,0,1.266-0.539,1.266-1.199C78.248,703.827,77.665,703.299,76.983,703.299z"/>
	<path class="st0" d="M119.686,60.025h1.122c0.716,0,1.111-0.484,1.111-1.123c0-0.648-0.539-1-1.111-1h-1.122
		c-0.065,0-0.109,0.043-0.109,0.109v1.903C119.577,59.98,119.621,60.025,119.686,60.025z"/>
	<path class="st0" d="M125.681,62.136c-0.562,0-0.825,0.297-0.825,0.76c0,0.539,0.341,0.857,0.979,0.857
		c1.012,0,1.386-0.406,1.386-1.154v-0.353c0-0.065-0.044-0.11-0.109-0.11H125.681z"/>
	<path class="st0" d="M119.686,63.512h1.122c0.683,0,1.266-0.54,1.266-1.199c0-0.771-0.583-1.298-1.266-1.298h-1.122
		c-0.055-0.033-0.109,0.043-0.109,0.109v2.277C119.577,63.468,119.621,63.512,119.686,63.512z"/>
	<path class="st0" d="M158.961,642.323c-0.758,0-1.265,0.528-1.265,1.199c0,0.066,0.044,0.11,0.11,0.11h2.288
		c0.065,0,0.11-0.044,0.11-0.11C160.205,642.764,159.643,642.323,158.961,642.323z"/>
	<path class="st0" d="M75.861,702.31h1.122c0.716,0,1.111-0.484,1.111-1.123c0-0.648-0.539-1.001-1.111-1.001h-1.122
		c-0.065,0-0.109,0.044-0.109,0.11v1.903C75.751,702.265,75.795,702.31,75.861,702.31z"/>
</g>
<g>
	<path class="st4" d="M176.359,235.447c-0.121,0-0.176-0.033-0.23-0.188l-2.168-5.445c-0.021-0.044-0.088-0.033-0.088,0.021v5.391
		c0,0.121-0.1,0.221-0.221,0.221h-0.561c-0.121,0-0.22-0.1-0.22-0.221v-7.26c0-0.121,0.099-0.221,0.22-0.221h0.913
		c0.121,0,0.177,0.033,0.231,0.188l2.167,5.424c0.022,0.043,0.088,0.033,0.088-0.022v-5.368c0-0.121,0.099-0.221,0.22-0.221h0.562
		c0.121,0,0.22,0.1,0.22,0.221v7.26c0,0.121-0.099,0.221-0.22,0.221H176.359z"/>
</g>
<line class="st23" x1="175.088" y1="238.581" x2="155.491" y2="374.78"/>
<polyline class="st23" points="170.946,241.923 175.088,238.581 178.119,242.955 "/>
<g>
	<path class="st39" d="M90.271,21.244l7.744-7.744H87.199l-2.316,2.316C86.716,17.18,88.537,19.086,90.271,21.244z"/>
	<path class="st39" d="M105.019,40.452c1.167-0.663,2.368-0.003,3.35,0.539c0.206,0.113,0.411,0.227,0.614,0.327
		c0.735,0.364,1.434,0.747,2.117,1.139L140.057,13.5H126.68L102.38,37.8C103.25,38.703,104.136,39.588,105.019,40.452z"/>
	<path class="st39" d="M95.973,29.556L112.029,13.5H98.651l-8.095,8.095C92.527,24.095,94.369,26.894,95.973,29.556z"/>
	<path class="st39" d="M96.366,30.208l0.214,0.36c1.479,2.447,3.423,4.736,5.49,6.906L126.043,13.5h-13.377L96.212,29.954
		C96.263,30.038,96.316,30.124,96.366,30.208z"/>
	<path class="st39" d="M136.016,51.46l1.535,0.183c4.461,0.533,9.31-3.87,10.671-8.173c0.425-1.347,1.218-2.466,2.424-3.421
		c2.104-1.667,3.786-1.788,5.568-1.916c0.448-0.032,0.909-0.074,1.382-0.13L182.098,13.5h-13.377l-37.367,37.368
		C132.909,51.089,134.468,51.276,136.016,51.46z"/>
	<path class="st39" d="M114.909,44.97c1.534,1.169,3.153,2.103,4.832,2.861l34.33-34.33h-13.377l-29.191,29.191
		C112.698,43.398,113.831,44.148,114.909,44.97z"/>
	<path class="st39" d="M130.797,50.787L168.084,13.5h-13.377l-34.521,34.521C123.56,49.474,127.161,50.247,130.797,50.787z"/>
	<path class="st4" d="M96.212,29.954L112.666,13.5h-0.637L95.973,29.556C96.053,29.689,96.134,29.822,96.212,29.954z"/>
	<path class="st4" d="M90.556,21.596l8.095-8.095h-0.637l-7.744,7.744C90.365,21.363,90.462,21.476,90.556,21.596z"/>
	<path class="st4" d="M87.199,13.5h-0.637l-2.053,2.053c0.125,0.087,0.249,0.171,0.373,0.263L87.199,13.5z"/>
	<path class="st4" d="M102.38,37.8L126.68,13.5h-0.637L102.07,37.474C102.173,37.583,102.276,37.692,102.38,37.8z"/>
	<path class="st4" d="M111.502,42.691L140.693,13.5h-0.637L111.1,42.457C111.235,42.534,111.369,42.613,111.502,42.691z"/>
	<path class="st4" d="M120.187,48.021L154.707,13.5h-0.637l-34.33,34.33C119.888,47.897,120.038,47.957,120.187,48.021z"/>
	<path class="st4" d="M157.596,38.002c0.242-0.029,0.486-0.06,0.741-0.104L182.734,13.5h-0.637L157.596,38.002z"/>
	<path class="st4" d="M131.354,50.868L168.721,13.5h-0.637l-37.287,37.287C130.982,50.815,131.168,50.841,131.354,50.868z"/>
	<path class="st4" d="M120.187,48.021l-0.765,0.765c3.348,1.499,6.905,2.313,10.498,2.879l0.877-0.877
		C127.161,50.247,123.56,49.474,120.187,48.021z"/>
	<path class="st4" d="M160.952,38.206c0.697-0.265,2.274,0.653,3.427,1.326c1.361,0.794,2.35,1.365,3.047,1.083
		c0.189-0.076,0.438-0.248,0.547-0.635c0.697-2.463,2.404-3.943,4.241-5.364c1.482-1.146,6.042-7.846,6.684-9.82
		c0.379-1.167,1.344-1.335,2.365-1.513c0.302-0.052,0.591-0.104,0.849-0.177c2.046-0.585,2.488-2.809,2.878-4.771
		c0.441-2.225,0.789-3.589,2.299-3.611l-0.016-1c-2.394,0.036-2.856,2.363-3.265,4.417c-0.366,1.845-0.713,3.587-2.171,4.004
		c-0.226,0.064-0.48,0.107-0.746,0.153c-1.088,0.189-2.579,0.449-3.145,2.189c-0.575,1.771-5.021,8.316-6.344,9.338
		c-1.896,1.466-3.812,3.128-4.546,5.861c-0.286,0.069-1.428-0.582-2.174-1.018c-1.548-0.903-3.148-1.836-4.29-1.395
		c-0.83,0.32-1.567,0.504-2.256,0.625l-1.16,1.16C158.266,38.958,159.489,38.771,160.952,38.206z"/>
	<path class="st4" d="M84.883,15.816l-0.719,0.719c1.682,1.228,3.492,3.048,5.393,5.423l0.713-0.713
		C88.537,19.086,86.716,17.18,84.883,15.816z"/>
	<path class="st4" d="M156.214,38.132c-1.782,0.128-3.465,0.249-5.568,1.916c-1.206,0.956-1.999,2.075-2.424,3.421
		c-1.361,4.304-6.21,8.707-10.671,8.173l-1.535-0.183c-1.548-0.183-3.107-0.37-4.663-0.592l-0.883,0.883
		c1.81,0.272,3.626,0.489,5.428,0.702l1.532,0.183c0.298,0.036,0.595,0.053,0.893,0.053c4.778,0,9.457-4.507,10.852-8.918
		c0.368-1.166,1.033-2.1,2.092-2.939c1.862-1.476,3.255-1.576,5.019-1.702c0.065-0.005,0.132-0.01,0.198-0.015l1.113-1.113
		C157.123,38.058,156.662,38.1,156.214,38.132z"/>
	<path class="st4" d="M79.523,13.651v1c1.29,0,2.726,0.55,4.275,1.614l0.712-0.712C82.83,14.373,81.147,13.651,79.523,13.651z"/>
	<path class="st4" d="M96.58,30.567l-0.214-0.36c-0.05-0.084-0.103-0.17-0.153-0.254l-0.729,0.729
		c0.007,0.012,0.014,0.023,0.022,0.036l0.219,0.367c1.528,2.529,3.523,4.877,5.638,7.096l0.708-0.708
		C100.003,35.303,98.059,33.015,96.58,30.567z"/>
	<path class="st4" d="M108.983,41.317c-0.203-0.101-0.408-0.214-0.614-0.327c-0.981-0.542-2.183-1.202-3.35-0.539
		c-0.883-0.864-1.769-1.749-2.639-2.652l-0.707,0.707c0.97,1.007,1.959,1.991,2.941,2.949l0.323,0.315l0.347-0.289
		c0.721-0.602,1.459-0.245,2.602,0.384c0.219,0.121,0.437,0.24,0.652,0.348c0.632,0.313,1.238,0.64,1.831,0.974l0.731-0.731
		C110.417,42.064,109.718,41.681,108.983,41.317z"/>
	<path class="st4" d="M114.909,44.97c-1.077-0.822-2.211-1.572-3.406-2.278l-0.731,0.731c1.245,0.724,2.419,1.495,3.532,2.342
		c1.497,1.141,3.067,2.059,4.686,2.817l0.751-0.751C118.062,47.073,116.443,46.139,114.909,44.97z"/>
	<path class="st4" d="M90.556,21.596l-0.714,0.714c1.737,2.21,3.547,4.883,5.401,7.977l0.729-0.73
		C94.369,26.894,92.527,24.095,90.556,21.596z"/>
	<path class="st4" d="M95.973,29.556l-0.729,0.73c0.081,0.134,0.16,0.26,0.24,0.396l0.729-0.729
		C96.134,29.822,96.053,29.689,95.973,29.556z"/>
	<path class="st4" d="M90.271,21.244l-0.713,0.713c0.095,0.119,0.189,0.23,0.285,0.352l0.714-0.714
		C90.462,21.476,90.365,21.363,90.271,21.244z"/>
	<path class="st4" d="M84.51,15.553l-0.712,0.712c0.121,0.083,0.245,0.18,0.367,0.27l0.719-0.719
		C84.759,15.724,84.634,15.64,84.51,15.553z"/>
	<path class="st4" d="M102.07,37.474l-0.708,0.708c0.104,0.109,0.208,0.217,0.312,0.325l0.707-0.707
		C102.276,37.692,102.173,37.583,102.07,37.474z"/>
	<path class="st4" d="M111.1,42.457l-0.731,0.731c0.136,0.077,0.268,0.157,0.402,0.235l0.731-0.731
		C111.369,42.613,111.235,42.534,111.1,42.457z"/>
	<path class="st4" d="M119.74,47.83l-0.751,0.751c0.144,0.068,0.288,0.139,0.433,0.204l0.765-0.765
		C120.038,47.957,119.888,47.897,119.74,47.83z"/>
	<path class="st4" d="M156.483,39.115c0.225-0.016,0.456-0.035,0.693-0.056l1.16-1.16c-0.255,0.044-0.498,0.075-0.741,0.104
		L156.483,39.115z"/>
	<path class="st4" d="M130.797,50.787l-0.877,0.877c0.184,0.029,0.367,0.058,0.551,0.086l0.883-0.883
		C131.168,50.841,130.982,50.815,130.797,50.787z"/>
</g>
<g>
	<path class="st4" d="M33.787,836.987h0.566l16.517-16.517c-0.307,0.116-0.613,0.232-0.919,0.352L33.787,836.987z"/>
	<path class="st4" d="M47.801,836.987h0.566l22.091-22.091c-0.24,0.052-0.477,0.103-0.723,0.157L47.801,836.987z"/>
	<path class="st4" d="M75.828,836.987h0.566l17.179-17.179c-0.13-0.054-0.258-0.12-0.388-0.179L75.828,836.987z"/>
	<path class="st4" d="M61.815,836.987h0.566L84.8,814.568c-0.123-0.067-0.246-0.134-0.369-0.198L61.815,836.987z"/>
	<path class="st4" d="M89.842,836.987h0.566l14.852-14.852c-0.188,0.005-0.378-0.001-0.566,0L89.842,836.987z"/>
	<path class="st4" d="M103.856,836.987h0.566l21.072-21.071c-0.29,0.099-0.579,0.2-0.868,0.302L103.856,836.987z"/>
	<path class="st4" d="M117.87,836.987h0.566l26.676-26.675c-0.296,0.114-0.597,0.219-0.896,0.329L117.87,836.987z"/>
	<path class="st4" d="M145.461,836.987h0.566l21.192-21.192c-0.078-0.111-0.153-0.223-0.232-0.334L145.461,836.987z"/>
	<path class="st4" d="M131.447,836.987h0.566l28.626-28.626c-0.098-0.088-0.202-0.177-0.302-0.265L131.447,836.987z"/>
	<path class="st4" d="M159.475,836.987h0.566l12.388-12.388c-0.068-0.121-0.135-0.242-0.203-0.364L159.475,836.987z"/>
	<path class="st4" d="M177.989,832.486l-4.501,4.501h0.566l4.214-4.214C178.175,832.678,178.081,832.582,177.989,832.486z"/>
	<path class="st4" d="M52.712,818.628l-1.842,1.842c6.662-2.529,13.493-4.236,18.865-5.417l1.436-1.436
		C66.115,814.694,59.432,816.261,52.712,818.628z"/>
	<path class="st4" d="M78.146,812.147c-0.949,0.221-2.185,0.476-3.646,0.775c-0.798,0.164-1.676,0.345-2.61,0.542l-1.431,1.431
		c1.572-0.341,3.013-0.638,4.263-0.895c1.472-0.303,2.717-0.56,3.674-0.781c2.068-0.482,4.048,0.112,6.035,1.151l0.81-0.81
		C82.981,812.338,80.638,811.568,78.146,812.147z"/>
	<path class="st4" d="M172.421,822.317c-1.272-2.307-2.629-4.765-4.417-7.306l-0.784,0.784c1.666,2.394,2.965,4.742,4.238,7.052
		c0.257,0.466,0.512,0.928,0.769,1.388l0.809-0.808C172.831,823.06,172.627,822.691,172.421,822.317z"/>
	<path class="st4" d="M27.272,836.468l0.971,0.52c4.002-7.475,12.627-12.603,21.709-16.164l1.879-1.879
		C41.749,822.601,31.758,828.089,27.272,836.468z"/>
	<path class="st4" d="M173.237,823.791l-0.808,0.808c1.556,2.768,3.2,5.429,5.56,7.887l0.772-0.772
		C176.439,829.296,174.839,826.658,173.237,823.791z"/>
	<path class="st4" d="M178.269,832.773c1.301,1.315,2.813,2.57,4.644,3.75l0.596-0.924c-1.768-1.14-3.22-2.339-4.468-3.598
		L178.269,832.773z"/>
	<path class="st4" d="M94.419,818.963l-0.845,0.845c0.063,0.026,0.124,0.061,0.187,0.086c3.8,1.528,7.421,2.255,10.933,2.24
		l1.089-1.089C102.165,821.242,98.442,820.548,94.419,818.963z"/>
	<path class="st4" d="M145.316,809.065c-4.27,1.682-8.822,3.017-13.532,3.967c-1.554,0.314-3.081,0.722-4.587,1.181l-1.703,1.703
		c2.129-0.724,4.296-1.359,6.506-1.806c4.23-0.853,8.323-2.03,12.217-3.469l1.915-1.915
		C145.858,808.841,145.58,808.961,145.316,809.065z"/>
	<path class="st4" d="M161.419,807.582l-0.779,0.779c2.69,2.417,4.702,4.781,6.347,7.1l0.782-0.782
		C166.112,812.365,164.081,809.984,161.419,807.582z"/>
	<path class="st4" d="M160.401,806.686c-3.312-2.819-8.176-0.654-12.468,1.256c-0.274,0.122-0.539,0.238-0.808,0.356l-2.013,2.013
		c0.2-0.077,0.407-0.145,0.607-0.223c0.844-0.333,1.738-0.731,2.661-1.142c3.995-1.779,8.522-3.796,11.308-1.423
		c0.225,0.191,0.435,0.381,0.651,0.572l0.779-0.779C160.88,807.107,160.648,806.897,160.401,806.686z"/>
	<path class="st4" d="M88.886,815.828c-1.079-0.717-2.169-1.441-3.279-2.067l-0.807,0.807c1.148,0.63,2.301,1.394,3.477,2.176
		c1.589,1.056,3.229,2.126,4.909,2.886l0.829-0.829C92.288,818.081,90.559,816.94,88.886,815.828z"/>
	<path class="st4" d="M118.287,817.444c-1.99,0.783-4.049,1.594-6.096,2.311c-1.92,0.673-3.838,1.067-5.779,1.228l-1.152,1.152
		c2.477-0.069,4.903-0.503,7.294-1.341c2.067-0.725,4.136-1.539,6.136-2.326c1.947-0.767,3.925-1.542,5.936-2.25l1.752-1.753
		C123.613,815.349,120.922,816.406,118.287,817.444z"/>
	<path class="st4" d="M51.831,818.944l-1.879,1.879c0.306-0.12,0.612-0.236,0.919-0.352l1.842-1.842
		C52.418,818.732,52.124,818.837,51.831,818.944z"/>
	<path class="st4" d="M71.171,813.617l-1.436,1.436c0.247-0.054,0.483-0.105,0.723-0.157l1.431-1.431
		C71.654,813.514,71.414,813.565,71.171,813.617z"/>
	<path class="st4" d="M94.171,818.873c-0.052-0.021-0.104-0.05-0.156-0.072l-0.829,0.829c0.129,0.058,0.258,0.124,0.388,0.179
		l0.845-0.845C94.335,818.93,94.255,818.907,94.171,818.873z"/>
	<path class="st4" d="M85.241,813.561l-0.81,0.81c0.123,0.064,0.246,0.13,0.369,0.198l0.807-0.807
		C85.485,813.693,85.363,813.627,85.241,813.561z"/>
	<path class="st4" d="M105.784,821.045l-1.089,1.089c0.189-0.001,0.378,0.005,0.566,0l1.152-1.152
		C106.203,821,105.994,821.034,105.784,821.045z"/>
	<path class="st4" d="M126.379,814.465l-1.752,1.753c0.289-0.102,0.578-0.203,0.868-0.302l1.703-1.703
		C126.924,814.296,126.65,814.378,126.379,814.465z"/>
	<path class="st4" d="M146.132,808.725l-1.915,1.915c0.298-0.11,0.6-0.216,0.896-0.329l2.013-2.013
		C146.788,808.447,146.458,808.588,146.132,808.725z"/>
	<path class="st4" d="M167.769,814.679l-0.782,0.782c0.079,0.112,0.155,0.223,0.232,0.334l0.784-0.784
		C167.926,814.9,167.849,814.79,167.769,814.679z"/>
	<path class="st4" d="M161.117,807.317l-0.779,0.779c0.1,0.088,0.203,0.177,0.302,0.265l0.779-0.779
		C161.321,807.494,161.217,807.405,161.117,807.317z"/>
	<path class="st4" d="M173.035,823.427l-0.809,0.808c0.068,0.121,0.135,0.243,0.203,0.364l0.808-0.808
		C173.17,823.67,173.102,823.549,173.035,823.427z"/>
	<path class="st4" d="M178.761,831.714l-0.772,0.772c0.092,0.096,0.186,0.191,0.28,0.286l0.772-0.772
		C178.946,831.906,178.853,831.81,178.761,831.714z"/>
</g>
</svg>
