<?xml version="1.0" encoding="utf-8"?>
<!-- Generator: Adobe Illustrator 20.1.0, SVG Export Plug-In . SVG Version: 6.00 Build 0)  -->
<svg version="1.1" id="Calque_1" xmlns="http://www.w3.org/2000/svg" xmlns:xlink="http://www.w3.org/1999/xlink" x="0px" y="0px"
	 viewBox="0 0 237.5 850.4" style="enable-background:new 0 0 237.5 850.4;" xml:space="preserve">
<style type="text/css">
	.st0{fill:#2846FA;}
	.st1{enable-background:new    ;}
	.st2{fill:#FFFFFF;}
	.st3{fill:none;stroke:#FFFFFF;stroke-width:1.2;stroke-linecap:round;stroke-linejoin:round;}
	.st4{clip-path:url(#SVGID_2_);fill:none;stroke:#FFFFFF;stroke-width:0.8;stroke-miterlimit:10;}
	.st5{clip-path:url(#SVGID_4_);fill:none;stroke:#FFFFFF;stroke-width:0.8;stroke-miterlimit:10;}
	.st6{clip-path:url(#SVGID_6_);fill:none;stroke:#FFFFFF;stroke-width:0.8;stroke-miterlimit:10;}
	.st7{clip-path:url(#SVGID_8_);fill:none;stroke:#FFFFFF;stroke-width:0.8;stroke-miterlimit:10;}
	.st8{clip-path:url(#SVGID_10_);fill:none;stroke:#FFFFFF;stroke-width:0.8;stroke-miterlimit:10;}
	.st9{clip-path:url(#SVGID_12_);fill:none;stroke:#FFFFFF;stroke-width:0.8;stroke-miterlimit:10;}
	.st10{clip-path:url(#SVGID_14_);fill:none;stroke:#FFFFFF;stroke-width:0.8;stroke-miterlimit:10;}
	.st11{clip-path:url(#SVGID_16_);fill:none;stroke:#FFFFFF;stroke-width:0.45;stroke-miterlimit:10;}
	.st12{clip-path:url(#SVGID_18_);fill:none;stroke:#FFFFFF;stroke-width:0.45;stroke-miterlimit:10;}
	.st13{clip-path:url(#SVGID_20_);fill:none;stroke:#FFFFFF;stroke-width:0.45;stroke-miterlimit:10;}
	.st14{clip-path:url(#SVGID_22_);fill:none;stroke:#FFFFFF;stroke-width:0.3;stroke-miterlimit:10;}
	.st15{clip-path:url(#SVGID_24_);fill:none;stroke:#FFFFFF;stroke-width:0.3;stroke-miterlimit:10;}
	.st16{clip-path:url(#SVGID_26_);fill:none;stroke:#FFFFFF;stroke-width:0.3;stroke-miterlimit:10;}
	.st17{clip-path:url(#SVGID_28_);fill:none;stroke:#FFFFFF;stroke-width:0.8;stroke-miterlimit:10;}
	.st18{clip-path:url(#SVGID_30_);fill:none;stroke:#FFFFFF;stroke-width:0.8;stroke-miterlimit:10;}
	.st19{clip-path:url(#SVGID_32_);fill:none;stroke:#FFFFFF;stroke-width:0.8;stroke-miterlimit:10;}
	.st20{clip-path:url(#SVGID_34_);fill:none;stroke:#FFFFFF;stroke-width:0.8;stroke-miterlimit:10;}
	.st21{clip-path:url(#SVGID_36_);fill:none;stroke:#FFFFFF;stroke-width:0.8;stroke-miterlimit:10;}
	.st22{clip-path:url(#SVGID_38_);fill:none;stroke:#FFFFFF;stroke-width:0.8;stroke-miterlimit:10;}
	.st23{clip-path:url(#SVGID_40_);fill:none;stroke:#FFFFFF;stroke-width:0.8;stroke-miterlimit:10;}
	.st24{clip-path:url(#SVGID_42_);fill:none;stroke:#FFFFFF;stroke-width:0.8;stroke-miterlimit:10;}
	.st25{clip-path:url(#SVGID_44_);fill:none;stroke:#FFFFFF;stroke-width:0.8;stroke-miterlimit:10;}
	.st26{clip-path:url(#SVGID_46_);fill:none;stroke:#FFFFFF;stroke-width:0.8;stroke-miterlimit:10;}
	.st27{clip-path:url(#SVGID_48_);fill:none;stroke:#FFFFFF;stroke-width:0.8;stroke-miterlimit:10;}
	.st28{clip-path:url(#SVGID_50_);fill:none;stroke:#FFFFFF;stroke-width:0.3;stroke-miterlimit:10;}
	.st29{clip-path:url(#SVGID_52_);fill:none;stroke:#FFFFFF;stroke-width:0.3;stroke-miterlimit:10;}
	.st30{clip-path:url(#SVGID_55_);fill:none;stroke:#FFFFFF;stroke-width:0.3;stroke-miterlimit:10;}
	.st31{clip-path:url(#SVGID_57_);fill:none;stroke:#FFFFFF;stroke-width:0.3;stroke-miterlimit:10;}
	.st32{clip-path:url(#SVGID_59_);fill:none;stroke:#FFFFFF;stroke-width:0.3;stroke-miterlimit:10;}
	.st33{fill:none;stroke:#FFFFFF;stroke-width:1.2;stroke-miterlimit:10;}
	.st34{fill:none;stroke:#FFFFFF;stroke-width:1.2;stroke-linecap:round;stroke-linejoin:round;stroke-miterlimit:10;}
</style>
<g>
	<g>
		<path class="st0" d="M120.9,566.5c-0.1-0.2-0.2-0.4-0.3-0.6c-0.2-0.2-0.4-0.3-0.6-0.5c-0.2-0.1-0.5-0.2-0.9-0.2
			c-0.4,0-0.7,0.1-0.9,0.2c-0.2,0.1-0.4,0.3-0.6,0.5c-0.2,0.2-0.3,0.4-0.3,0.6c-0.1,0.2-0.1,0.4-0.1,0.6c0,0.3,0,0.6,0,1s0,0.7,0,1
			c0,0.2,0.1,0.4,0.1,0.6c0.1,0.2,0.2,0.4,0.3,0.6c0.2,0.2,0.4,0.3,0.6,0.5c0.2,0.1,0.5,0.2,0.9,0.2c0.3,0,0.6-0.1,0.9-0.2
			c0.2-0.1,0.4-0.3,0.6-0.5s0.3-0.4,0.3-0.6c0.1-0.2,0.1-0.4,0.1-0.6c0-0.3,0-0.6,0-1s0-0.7,0-1C121,567,120.9,566.8,120.9,566.5z"
			/>
		<path class="st0" d="M130.9,660.1h3.8c0.1,0,0.1,0,0.1-0.1c0-0.4-0.1-0.7-0.2-0.9c-0.1-0.3-0.2-0.5-0.4-0.7s-0.4-0.3-0.6-0.4
			c-0.2-0.1-0.5-0.1-0.8-0.1c-0.6,0-1.1,0.2-1.5,0.6c-0.4,0.4-0.6,0.9-0.6,1.7C130.7,660.1,130.8,660.1,130.9,660.1z"/>
		<path class="st0" d="M92.9,276.5c-0.4,0-0.7,0.1-1,0.3c-0.3,0.2-0.4,0.5-0.4,0.9c0,0.2,0,0.5,0.1,0.6c0.1,0.2,0.2,0.3,0.4,0.5
			c0.2,0.1,0.3,0.2,0.5,0.3c0.2,0.1,0.4,0.1,0.6,0.1c0.6,0,1.1-0.1,1.5-0.4c0.3-0.3,0.5-0.7,0.5-1.3v-0.8c0-0.1,0-0.1-0.1-0.1
			L92.9,276.5L92.9,276.5z"/>
		<path class="st0" d="M132,154.9h3.8c0.1,0,0.1,0,0.1-0.1c0-0.4-0.1-0.7-0.2-0.9s-0.2-0.5-0.4-0.7c-0.2-0.2-0.4-0.3-0.6-0.4
			s-0.5-0.1-0.8-0.1c-0.6,0-1.1,0.2-1.5,0.6c-0.4,0.4-0.6,0.9-0.6,1.7C131.8,154.8,131.9,154.9,132,154.9z"/>
		<path class="st0" d="M132.2,568.2c-0.4,0-0.7,0.1-1,0.3s-0.4,0.5-0.4,0.9c0,0.2,0,0.5,0.1,0.6c0.1,0.1,0.2,0.3,0.4,0.5
			c0.2,0.1,0.3,0.2,0.5,0.3s0.4,0.1,0.6,0.1c0.6,0,1.1-0.1,1.5-0.4c0.4-0.3,0.5-0.7,0.5-1.3v-0.8c0-0.1,0-0.1-0.1-0.1L132.2,568.2
			L132.2,568.2z"/>
		<path class="st0" d="M81.4,492.4c0.2,0.1,0.3,0.2,0.5,0.3c0.2,0.1,0.4,0.1,0.6,0.1c0.6,0,1.1-0.1,1.5-0.4s0.5-0.7,0.5-1.3v-0.8
			c0-0.1,0-0.1-0.1-0.1h-2c-0.4,0-0.7,0.1-1,0.3S81,491,81,491.4c0,0.2,0,0.5,0.1,0.6S81.3,492.3,81.4,492.4z"/>
		<path class="st0" d="M76.9,274.8c-0.1-0.2-0.2-0.4-0.3-0.6s-0.4-0.3-0.6-0.5s-0.5-0.2-0.9-0.2s-0.7,0.1-0.9,0.2s-0.4,0.3-0.6,0.5
			s-0.3,0.4-0.3,0.6s-0.1,0.4-0.1,0.6c0,0.3,0,0.6,0,1s0,0.7,0,1c0,0.2,0.1,0.4,0.1,0.6s0.2,0.4,0.3,0.6s0.4,0.3,0.6,0.5
			s0.5,0.2,0.9,0.2c0.3,0,0.6-0.1,0.9-0.2s0.4-0.3,0.6-0.5s0.3-0.4,0.3-0.6c0.1-0.2,0.1-0.4,0.1-0.6c0-0.3,0-0.6,0-1s0-0.7,0-1
			C77.1,275.3,77,275.1,76.9,274.8z"/>
		<path class="st0" d="M75.6,484.5h-1.8c-0.1,0-0.1,0-0.1,0.1v7.7c0,0.1,0,0.1,0.1,0.1h1.8c0.4,0,0.7-0.1,1-0.2s0.5-0.3,0.7-0.5
			s0.3-0.4,0.4-0.6s0.1-0.4,0.2-0.6c0-0.3,0.1-0.6,0.1-1s0-0.7,0-1.1s0-0.8,0-1.1s-0.1-0.7-0.1-1s-0.1-0.5-0.2-0.7s-0.3-0.4-0.4-0.6
			c-0.2-0.2-0.4-0.3-0.7-0.4C76.3,484.6,76,484.5,75.6,484.5z"/>
		<path class="st0" d="M61.2,276.5c-0.4,0-0.7,0.1-1,0.3c-0.3,0.2-0.4,0.5-0.4,0.9c0,0.2,0,0.5,0.1,0.6c0.1,0.2,0.2,0.3,0.4,0.5
			c0.2,0.1,0.3,0.2,0.5,0.3c0.2,0.1,0.4,0.1,0.6,0.1c0.6,0,1.1-0.1,1.5-0.4c0.3-0.3,0.5-0.7,0.5-1.3v-0.8c0-0.1,0-0.1-0.1-0.1
			L61.2,276.5L61.2,276.5z"/>
		<path class="st0" d="M128.8,154.3c0-0.2-0.1-0.4-0.1-0.6c-0.1-0.2-0.2-0.4-0.3-0.6c-0.1-0.2-0.3-0.3-0.6-0.5s-0.5-0.2-0.9-0.2
			c-0.3,0-0.6,0.1-0.8,0.2c-0.2,0.1-0.4,0.3-0.5,0.5c-0.1,0.2-0.2,0.4-0.3,0.6c-0.1,0.2-0.1,0.4-0.1,0.6c0,0.3,0,0.6,0,1s0,0.7,0,1
			c0,0.2,0.1,0.4,0.1,0.6c0.1,0.2,0.2,0.4,0.3,0.6c0.1,0.2,0.3,0.3,0.5,0.5c0.2,0.2,0.5,0.2,0.8,0.2s0.6-0.1,0.9-0.2
			c0.2-0.1,0.4-0.3,0.6-0.5c0.1-0.2,0.3-0.4,0.3-0.6c0.1-0.2,0.1-0.4,0.1-0.6c0-0.3,0.1-0.6,0.1-1S128.9,154.6,128.8,154.3z"/>
		<path class="st0" d="M97.6,569.7c0.1,0.2,0.2,0.4,0.3,0.6c0.2,0.2,0.4,0.3,0.6,0.5c0.2,0.1,0.5,0.2,0.9,0.2c0.3,0,0.6-0.1,0.9-0.2
			c0.2-0.1,0.4-0.3,0.6-0.5s0.3-0.4,0.3-0.6c0.1-0.2,0.1-0.4,0.1-0.6c0-0.3,0-0.6,0-1s0-0.7,0-1c0-0.2-0.1-0.4-0.1-0.6
			c-0.1-0.2-0.2-0.4-0.3-0.6c-0.2-0.2-0.4-0.3-0.6-0.5c-0.2-0.1-0.5-0.2-0.9-0.2s-0.7,0.1-0.9,0.2c-0.2,0.1-0.4,0.3-0.6,0.5
			s-0.3,0.4-0.3,0.6c-0.1,0.2-0.1,0.4-0.1,0.6c0,0.3,0,0.6,0,1s0,0.7,0,1C97.5,569.3,97.6,569.5,97.6,569.7z"/>
		<path class="st0" d="M96.2,489.5h3.8c0.1,0,0.1,0,0.1-0.1c0-0.4-0.1-0.7-0.2-0.9c-0.1-0.3-0.2-0.5-0.4-0.7
			c-0.2-0.2-0.4-0.3-0.6-0.4s-0.5-0.1-0.8-0.1c-0.6,0-1.1,0.2-1.5,0.6s-0.6,0.9-0.6,1.7C96.1,489.4,96.1,489.5,96.2,489.5z"/>
		<path class="st0" d="M93,704.7c-0.1-0.2-0.2-0.4-0.3-0.6c-0.1-0.2-0.3-0.3-0.5-0.5s-0.5-0.2-0.8-0.2s-0.6,0.1-0.9,0.2
			c-0.2,0.1-0.4,0.3-0.6,0.5c-0.1,0.2-0.3,0.4-0.3,0.6c-0.1,0.2-0.1,0.4-0.1,0.6c0,0.3-0.1,0.6-0.1,1s0,0.7,0.1,1
			c0,0.2,0.1,0.4,0.1,0.6c0.1,0.2,0.2,0.4,0.3,0.6c0.1,0.2,0.3,0.3,0.6,0.5c0.2,0.1,0.5,0.2,0.9,0.2c0.3,0,0.6-0.1,0.8-0.2
			c0.2-0.1,0.4-0.3,0.5-0.5s0.2-0.4,0.3-0.6c0.1-0.2,0.1-0.4,0.1-0.6c0-0.3,0-0.6,0-1c0,0,0,0,0-0.1c0-0.3,0-0.6,0-0.9
			C93.1,705.2,93.1,705,93,704.7z"/>
		<path class="st0" d="M109.9,70.6h1.9c0.3,0,0.5,0,0.7-0.1s0.4-0.2,0.6-0.4c0.2-0.2,0.3-0.4,0.4-0.6s0.1-0.5,0.1-0.8
			c0-0.3,0-0.5-0.1-0.7c-0.1-0.2-0.2-0.4-0.4-0.6c-0.2-0.2-0.4-0.3-0.6-0.4c-0.2-0.1-0.5-0.1-0.7-0.1h-1.9c-0.1,0-0.1,0-0.1,0.1
			L109.9,70.6C109.8,70.5,109.8,70.6,109.9,70.6z"/>
		<path class="st0" d="M117,70.5c0.2,0.1,0.3,0.2,0.5,0.3c0.2,0.1,0.4,0.1,0.6,0.1c0.6,0,1.1-0.1,1.5-0.4c0.3-0.3,0.5-0.7,0.5-1.3
			v-0.8c0-0.1,0-0.1-0.1-0.1h-2c-0.4,0-0.7,0.1-1,0.3c-0.3,0.2-0.4,0.5-0.4,0.9c0,0.2,0,0.5,0.1,0.6C116.7,70.2,116.8,70.4,117,70.5
			z"/>
		<path class="st0" d="M90.1,67.5h3.8c0.1,0,0.1,0,0.1-0.1c0-0.4-0.1-0.7-0.2-0.9c-0.1-0.3-0.2-0.5-0.4-0.7
			c-0.2-0.2-0.4-0.3-0.6-0.4c-0.2-0.1-0.5-0.1-0.8-0.1c-0.6,0-1.1,0.2-1.5,0.6s-0.6,0.9-0.6,1.7C90,67.5,90,67.5,90.1,67.5z"/>
		<path class="st0" d="M152.3,154.7c0,0.1,0,0.1,0.1,0.1h3.8c0.1,0,0.1,0,0.1-0.1c0-0.4-0.1-0.7-0.2-0.9c-0.1-0.3-0.2-0.5-0.4-0.7
			s-0.4-0.3-0.6-0.4c-0.2-0.1-0.5-0.1-0.8-0.1c-0.6,0-1.1,0.2-1.5,0.6C152.4,153.6,152.3,154,152.3,154.7z"/>
		<path class="st0" d="M109.9,65.9h1.9c0.2,0,0.4,0,0.6-0.1s0.4-0.2,0.5-0.4c0.1-0.2,0.3-0.3,0.4-0.5c0.1-0.2,0.1-0.4,0.1-0.7
			c0-0.3,0-0.5-0.1-0.7s-0.2-0.4-0.4-0.5s-0.3-0.3-0.5-0.4c-0.2-0.1-0.4-0.1-0.6-0.1h-1.9c-0.1,0-0.1,0-0.1,0.1L109.9,65.9
			C109.8,65.9,109.8,65.9,109.9,65.9z"/>
		<path class="st0" d="M60.7,704.3h1.9c0.2,0,0.4,0,0.6-0.1s0.4-0.2,0.5-0.4s0.3-0.3,0.4-0.5s0.1-0.4,0.1-0.7c0-0.2,0-0.4-0.1-0.7
			c-0.1-0.2-0.2-0.4-0.4-0.5s-0.3-0.3-0.5-0.4c-0.2-0.1-0.4-0.1-0.6-0.1h-1.9c-0.1,0-0.1,0-0.1,0.1v3.1
			C60.5,704.2,60.6,704.3,60.7,704.3z"/>
		<path class="st0" d="M63.9,705.7c-0.2-0.2-0.4-0.3-0.6-0.4c-0.2-0.1-0.5-0.1-0.7-0.1h-1.9c-0.1,0-0.1,0-0.1,0.1v3.6
			c0,0.1,0,0.1,0.1,0.1h1.9c0.3,0,0.5,0,0.7-0.1s0.4-0.2,0.6-0.4s0.3-0.4,0.4-0.6s0.1-0.5,0.1-0.8s0-0.5-0.1-0.7
			S64.1,705.8,63.9,705.7z"/>
		<path class="st0" d="M60.5,69.6c0.1,0.2,0.2,0.4,0.3,0.6c0.1,0.2,0.3,0.3,0.6,0.5s0.5,0.2,0.9,0.2c0.3,0,0.6-0.1,0.8-0.2
			s0.4-0.3,0.5-0.5s0.2-0.4,0.3-0.6C64,69.4,64,69.2,64,69c0-0.3,0-0.6,0-1c0,0,0,0,0-0.1c0-0.3,0-0.6,0-0.9c0-0.2-0.1-0.4-0.1-0.6
			c-0.1-0.2-0.2-0.4-0.3-0.6c-0.1-0.2-0.3-0.3-0.5-0.5c-0.2-0.1-0.5-0.2-0.8-0.2s-0.6,0.1-0.9,0.2c-0.3,0.1-0.4,0.3-0.6,0.5
			c-0.2,0.2-0.2,0.4-0.3,0.6s-0.1,0.4-0.1,0.6c0,0.3-0.1,0.6-0.1,1s0,0.7,0.1,1C60.4,69.1,60.5,69.4,60.5,69.6z"/>
		<path class="st0" d="M49,67.5h3.8c0.1,0,0.1,0,0.1-0.1c0-0.4-0.1-0.7-0.2-0.9c-0.1-0.3-0.2-0.5-0.4-0.7c-0.2-0.2-0.4-0.3-0.6-0.4
			c-0.2-0.1-0.5-0.1-0.8-0.1c-0.6,0-1.1,0.2-1.5,0.6c-0.4,0.4-0.6,0.9-0.6,1.7C48.9,67.5,49,67.5,49,67.5z"/>
		<path class="st0" d="M67.4,69.6c0.1,0.2,0.2,0.4,0.3,0.6c0.2,0.2,0.4,0.3,0.6,0.5c0.2,0.1,0.5,0.2,0.9,0.2c0.3,0,0.6-0.1,0.9-0.2
			c0.2-0.1,0.4-0.3,0.6-0.5s0.3-0.4,0.3-0.6c0.1-0.2,0.1-0.4,0.1-0.6c0-0.3,0-0.6,0-1s0-0.7,0-1c0-0.2-0.1-0.4-0.1-0.6
			c-0.1-0.2-0.2-0.4-0.3-0.6s-0.4-0.3-0.6-0.5c-0.2-0.2-0.5-0.2-0.9-0.2s-0.7,0.1-0.9,0.2c-0.2,0.1-0.4,0.3-0.6,0.5
			c-0.2,0.2-0.3,0.4-0.3,0.6c-0.1,0.2-0.1,0.4-0.1,0.6c0,0.3,0,0.6,0,1s0,0.7,0,1C67.3,69.1,67.3,69.4,67.4,69.6z"/>
		<path class="st0" d="M188.7,793.2c-0.1-0.2-0.2-0.4-0.3-0.6c-0.1-0.2-0.3-0.3-0.6-0.5s-0.5-0.2-0.9-0.2c-0.3,0-0.6,0.1-0.8,0.2
			c-0.2,0.1-0.4,0.3-0.5,0.5c-0.1,0.2-0.2,0.4-0.3,0.6c-0.1,0.2-0.1,0.4-0.1,0.6c0,0.3,0,0.6,0,1s0,0.7,0,1c0,0.2,0.1,0.4,0.1,0.6
			c0.1,0.2,0.2,0.4,0.3,0.6c0.1,0.2,0.3,0.3,0.5,0.5c0.2,0.2,0.5,0.2,0.8,0.2c0.3,0,0.6-0.1,0.9-0.2s0.4-0.3,0.6-0.5
			c0.1-0.2,0.3-0.4,0.3-0.6c0.1-0.2,0.1-0.4,0.1-0.6c0-0.3,0.1-0.6,0.1-1s0-0.7-0.1-1C188.9,793.6,188.8,793.4,188.7,793.2z"/>
		<path class="st0" d="M163.3,661.7v-0.8c0-0.1,0-0.1-0.1-0.1h-2c-0.4,0-0.7,0.1-1,0.3s-0.4,0.5-0.4,0.9c0,0.2,0,0.5,0.1,0.6
			c0.1,0.2,0.2,0.3,0.4,0.5c0.2,0.1,0.3,0.2,0.5,0.3s0.4,0.1,0.6,0.1c0.6,0,1.1-0.1,1.5-0.4C163.1,662.7,163.3,662.3,163.3,661.7z"
			/>
		<path class="st0" d="M0,0v850.4h237.5V0H0z M184.8,654.5c0-0.1,0-0.1,0.1-0.2c0.1-0.1,0.1-0.1,0.2-0.1h0.3c0.1,0,0.1,0,0.2,0.1
			c0.1,0.1,0.1,0.1,0.1,0.2v9.3c0,0.1,0,0.1-0.1,0.2c-0.1,0.1-0.1,0.1-0.2,0.1H185c-0.1,0-0.1,0-0.2-0.1c-0.1-0.1-0.1-0.1-0.1-0.2
			v-9.3H184.8z M166,660.1c0-0.1,0-0.1,0.1-0.2c0.1-0.1,0.1-0.1,0.2-0.1h3.8c0.1,0,0.1,0,0.2,0.1c0.1,0.1,0.1,0.1,0.1,0.2v0.5
			c0,0.1,0,0.1-0.1,0.2c-0.1,0.1-0.1,0.1-0.2,0.1h-3.8c-0.1,0-0.1,0-0.2-0.1c-0.1-0.1-0.1-0.1-0.1-0.2V660.1z M158.2,156.5
			c0-0.1,0-0.1,0.1-0.2c0.1-0.1,0.1-0.1,0.2-0.1h0.3c0.1,0,0.1,0,0.2,0.1s0.1,0.1,0.1,0.2v0.2c0,0.2,0,0.4,0.1,0.6
			c0.1,0.2,0.2,0.3,0.4,0.4s0.4,0.2,0.6,0.3c0.2,0.1,0.5,0.1,0.7,0.1c0.6,0,1-0.1,1.4-0.4c0.3-0.3,0.5-0.6,0.5-1
			c0-0.2-0.1-0.4-0.2-0.6c-0.1-0.1-0.3-0.3-0.4-0.4c-0.2-0.1-0.4-0.2-0.6-0.2c-0.2-0.1-0.5-0.1-0.7-0.1c-0.3-0.1-0.6-0.1-0.9-0.2
			c-0.3-0.1-0.6-0.2-0.8-0.3c-0.2-0.1-0.4-0.3-0.5-0.5c-0.1-0.2-0.2-0.5-0.2-0.8s0.1-0.5,0.2-0.8c0.1-0.2,0.3-0.4,0.5-0.6
			c0.2-0.2,0.5-0.3,0.8-0.4c0.3-0.1,0.6-0.1,0.9-0.1c0.3,0,0.6,0,0.9,0.1s0.5,0.2,0.8,0.4c0.2,0.2,0.4,0.4,0.5,0.7
			c0.1,0.3,0.2,0.6,0.2,0.9c0,0.1,0,0.2-0.1,0.2c-0.1,0-0.1,0.1-0.2,0.1h-0.3c-0.1,0-0.1,0-0.2-0.1c-0.1,0-0.1-0.1-0.1-0.2
			c0-0.3-0.1-0.6-0.4-0.9c-0.3-0.3-0.7-0.4-1.2-0.4s-0.9,0.1-1.2,0.3s-0.4,0.4-0.4,0.7c0,0.2,0,0.3-0.1,0.4
			c-0.1,0.1-0.1,0.2-0.1,0.3s0,0.1,0.2,0.2c0.2,0,0.4,0.1,0.5,0.1c0.3,0.1,0.6,0.1,0.9,0.2c0.3,0.1,0.7,0.2,1.2,0.4s0.9,0.4,1.2,0.7
			s0.5,0.7,0.5,1.1c0,0.3-0.1,0.6-0.2,0.8s-0.3,0.5-0.5,0.7s-0.5,0.4-0.9,0.5c-0.3,0.1-0.7,0.2-1.1,0.2s-0.7-0.1-1-0.2
			c-0.3-0.1-0.6-0.2-0.9-0.4c-0.3-0.2-0.5-0.4-0.6-0.7s-0.2-0.6-0.2-0.9L158.2,156.5L158.2,156.5z M157.3,654.5v9.3
			c0,0.1,0,0.1-0.1,0.2c-0.1,0.1-0.1,0.1-0.2,0.1h-0.3c-0.1,0-0.1,0-0.2-0.1s-0.1-0.1-0.1-0.2v-9.3c0-0.1,0-0.1,0.1-0.2
			c0.1-0.1,0.1-0.1,0.2-0.1h0.3c0.1,0,0.1,0,0.2,0.1C157.2,654.3,157.3,654.4,157.3,654.5z M155.4,151.9c0.3,0.1,0.6,0.3,0.9,0.6
			s0.4,0.5,0.6,0.9c0.1,0.3,0.2,0.7,0.2,1.1v0.9c0,0.1,0,0.1-0.1,0.2c-0.1,0.1-0.1,0.1-0.2,0.1h-4.4c-0.1,0-0.1,0-0.1,0.1
			c0,0.3,0,0.6,0.1,0.9c0.1,0.3,0.2,0.5,0.4,0.7s0.4,0.4,0.6,0.5c0.2,0.1,0.6,0.2,0.9,0.2s0.5,0,0.7-0.1s0.4-0.2,0.5-0.3
			s0.3-0.3,0.4-0.4c0.1-0.2,0.2-0.3,0.2-0.5c0-0.1,0.1-0.2,0.1-0.2c0.1,0,0.1-0.1,0.2-0.1h0.3c0.1,0,0.1,0,0.2,0.1
			c0.1,0,0.1,0.1,0.1,0.2c0,0.3-0.1,0.6-0.3,0.9s-0.3,0.5-0.6,0.7c-0.2,0.2-0.5,0.3-0.8,0.4s-0.7,0.2-1,0.2c-0.4,0-0.8-0.1-1.1-0.2
			c-0.3-0.1-0.6-0.3-0.9-0.6c-0.2-0.2-0.4-0.5-0.6-0.8c-0.1-0.3-0.2-0.7-0.3-1c0-0.3,0-0.6,0-1s0-0.7,0-1c0-0.4,0.1-0.7,0.3-1
			c0.1-0.3,0.3-0.6,0.6-0.8c0.2-0.2,0.5-0.4,0.9-0.6c0.3-0.1,0.7-0.2,1.1-0.2C154.7,151.7,155.1,151.8,155.4,151.9z M154.5,660.1
			v0.5c0,0.1,0,0.1-0.1,0.2c-0.1,0.1-0.1,0.1-0.2,0.1h-3.8c-0.1,0-0.1,0-0.2-0.1c-0.1-0.1-0.1-0.1-0.1-0.2v-0.5c0-0.1,0-0.1,0.1-0.2
			c0.1-0.1,0.1-0.1,0.2-0.1h3.8c0.1,0,0.1,0,0.2,0.1C154.5,660,154.5,660,154.5,660.1z M132.1,69.2c0-0.1,0-0.1,0.1-0.2
			c0.1-0.1,0.1-0.1,0.2-0.1h0.3c0.1,0,0.1,0,0.2,0.1s0.1,0.1,0.1,0.2v0.2c0,0.2,0,0.4,0.1,0.6c0.1,0.2,0.2,0.3,0.4,0.4
			c0.2,0.1,0.4,0.2,0.6,0.3c0.2,0.1,0.5,0.1,0.7,0.1c0.6,0,1-0.1,1.4-0.4c0.3-0.3,0.5-0.6,0.5-1c0-0.2-0.1-0.4-0.2-0.6
			c-0.1-0.1-0.3-0.3-0.4-0.4c-0.1-0.1-0.4-0.2-0.6-0.2s-0.5-0.1-0.7-0.1c-0.3-0.1-0.6-0.1-0.9-0.2c-0.3-0.1-0.6-0.2-0.8-0.3
			s-0.4-0.3-0.5-0.5c-0.1-0.2-0.2-0.5-0.2-0.8c0-0.3,0.1-0.5,0.2-0.8c0.1-0.2,0.3-0.4,0.5-0.6s0.5-0.3,0.8-0.4
			c0.3-0.1,0.6-0.1,0.9-0.1c0.3,0,0.6,0,0.9,0.1s0.5,0.2,0.8,0.4c0.2,0.2,0.4,0.4,0.5,0.7c0.1,0.3,0.2,0.6,0.2,0.9
			c0,0.1,0,0.2-0.1,0.2c-0.1,0-0.1,0.1-0.2,0.1h-0.3c-0.1,0-0.1,0-0.2-0.1c-0.1,0-0.1-0.1-0.1-0.2c0-0.3-0.1-0.6-0.4-0.9
			c-0.3-0.3-0.7-0.4-1.2-0.4s-0.9,0.1-1.2,0.3c-0.3,0.2-0.4,0.4-0.4,0.7c0,0.2,0,0.3-0.1,0.4c0,0.1-0.1,0.2-0.1,0.3s0,0.1,0.2,0.2
			c0.2,0.1,0.4,0.1,0.5,0.1c0.3,0.1,0.6,0.1,0.9,0.2s0.7,0.2,1.2,0.4c0.5,0.2,0.9,0.4,1.2,0.7c0.3,0.3,0.5,0.7,0.5,1.1
			c0,0.3-0.1,0.6-0.2,0.8c-0.1,0.3-0.3,0.5-0.5,0.7s-0.5,0.4-0.9,0.5c-0.3,0.1-0.7,0.2-1.1,0.2c-0.4,0-0.7-0.1-1-0.2
			s-0.6-0.2-0.9-0.4s-0.5-0.4-0.6-0.7c-0.1-0.3-0.2-0.6-0.2-0.9L132.1,69.2L132.1,69.2z M125.7,64.8c0-0.1,0-0.1,0.1-0.2
			c0.1-0.1,0.1-0.1,0.2-0.1h0.2c0.1,0,0.1,0,0.2,0.1l0.1,0.1c0,0,0.1,0.1,0.2,0.1c0.1,0,0.2,0,0.3-0.1s0.2-0.1,0.3-0.2
			c0.1-0.1,0.3-0.1,0.4-0.2c0.2,0,0.4-0.1,0.6-0.1c0.4,0,0.7,0.1,1,0.2c0.3,0.1,0.6,0.3,0.8,0.5c0.2,0.2,0.4,0.5,0.5,0.8
			c0.1,0.3,0.2,0.7,0.2,1.1v4.4c0,0.1,0,0.1-0.1,0.2c-0.1,0.1-0.1,0.1-0.2,0.1h-0.3c-0.1,0-0.1,0-0.2-0.1s-0.1-0.1-0.1-0.2v-4.4
			c0-0.6-0.2-1-0.5-1.2c-0.3-0.2-0.8-0.4-1.3-0.4c-0.3,0-0.5,0-0.7,0.1s-0.4,0.2-0.6,0.3s-0.3,0.3-0.4,0.5c-0.1,0.2-0.1,0.4-0.1,0.6
			v4.5c0,0.1,0,0.1-0.1,0.2s-0.1,0.1-0.2,0.1l0,0c-0.1,0-0.1,0-0.2-0.1c-0.1-0.1-0.1-0.1-0.1-0.2V64.8L125.7,64.8z M122.8,61.8
			c0-0.1,0-0.1,0.1-0.2c0.1-0.1,0.1-0.1,0.2-0.1h0.7c0.1,0,0.1,0,0.2,0.1s0,0.2,0,0.2v0.7c0,0.2-0.1,0.2-0.2,0.2H123
			c-0.2,0-0.2-0.1-0.2-0.2V61.8L122.8,61.8z M123.8,64.8v6.4c0,0.1,0,0.1-0.1,0.2c-0.1,0.1-0.1,0.1-0.2,0.1h-0.3
			c-0.1,0-0.2,0-0.2-0.1s-0.1-0.1-0.1-0.2v-6.4c0-0.1,0-0.1,0.1-0.2c0-0.1,0.1-0.1,0.2-0.1h0.3c0.1,0,0.2,0,0.2,0.1
			C123.8,64.6,123.8,64.7,123.8,64.8z M115.8,68.6c0.1-0.3,0.3-0.5,0.4-0.7c0.2-0.2,0.4-0.3,0.7-0.4c0.3-0.1,0.6-0.2,1-0.2h2
			c0.1,0,0.1,0,0.1-0.1v-0.5c0-0.4-0.2-0.8-0.5-1.1c-0.3-0.3-0.7-0.4-1.2-0.4c-0.2,0-0.4,0-0.6,0.1s-0.4,0.1-0.5,0.2
			c-0.1,0.1-0.3,0.2-0.4,0.4c-0.1,0.2-0.1,0.3-0.1,0.5c0,0.1,0,0.2-0.1,0.2c-0.1,0-0.1,0-0.2,0h-0.2c-0.2,0-0.3-0.1-0.3-0.3
			c0-0.3,0.1-0.6,0.2-0.9c0.1-0.2,0.3-0.4,0.6-0.6c0.2-0.2,0.5-0.3,0.8-0.4c0.3-0.1,0.6-0.1,0.9-0.1c0.3,0,0.7,0,1,0.1
			s0.6,0.2,0.8,0.4c0.2,0.2,0.4,0.4,0.5,0.7c0.1,0.3,0.2,0.6,0.2,1V71c0,0.1,0,0.1-0.1,0.2s-0.1,0.1-0.2,0.1h-0.1
			c-0.1,0-0.2,0-0.2-0.1s-0.1-0.1-0.1-0.2s-0.1-0.1-0.2-0.1c-0.1,0-0.1,0-0.2,0.1c-0.1,0.1-0.2,0.1-0.4,0.2s-0.3,0.1-0.5,0.2
			s-0.4,0.1-0.7,0.1c-0.4,0-0.8-0.1-1.1-0.2c-0.3-0.1-0.6-0.3-0.8-0.5s-0.4-0.4-0.5-0.7c-0.1-0.3-0.2-0.6-0.2-0.9
			C115.7,69.1,115.7,68.8,115.8,68.6z M108.9,62c0-0.1,0-0.1,0.1-0.2c0.1-0.1,0.1-0.1,0.2-0.1h2.4c0.4,0,0.7,0.1,1.1,0.2
			c0.3,0.1,0.6,0.3,0.9,0.5c0.2,0.2,0.4,0.5,0.6,0.8s0.2,0.7,0.2,1c0,0.3-0.1,0.7-0.2,1c-0.1,0.3-0.3,0.6-0.6,0.9
			c-0.1,0.1-0.1,0.2,0,0.3c0.3,0.2,0.5,0.5,0.7,0.9c0.2,0.4,0.3,0.8,0.3,1.2s-0.1,0.8-0.2,1.1c-0.1,0.3-0.4,0.6-0.6,0.9
			s-0.6,0.5-0.9,0.6c-0.4,0.1-0.7,0.2-1.1,0.2h-2.4c-0.1,0-0.1,0-0.2-0.1s-0.1-0.1-0.1-0.2L108.9,62L108.9,62z M102.6,67.5
			c0-0.1,0-0.1,0.1-0.2c0.1-0.1,0.1-0.1,0.2-0.1h3.8c0.1,0,0.1,0,0.2,0.1s0.1,0.1,0.1,0.2V68c0,0.1,0,0.1-0.1,0.2
			c-0.1,0.1-0.1,0.1-0.2,0.1h-3.8c-0.1,0-0.1,0-0.2-0.1s-0.1-0.1-0.1-0.2V67.5z M95.8,69.2c0-0.1,0-0.1,0.1-0.2
			c0.1-0.1,0.1-0.1,0.2-0.1h0.3c0.1,0,0.1,0,0.2,0.1s0.1,0.1,0.1,0.2v0.2c0,0.2,0,0.4,0.1,0.6c0.1,0.2,0.2,0.3,0.4,0.4
			c0.2,0.1,0.4,0.2,0.6,0.3c0.2,0.1,0.5,0.1,0.7,0.1c0.6,0,1-0.1,1.4-0.4c0.3-0.3,0.5-0.6,0.5-1c0-0.2-0.1-0.4-0.2-0.6
			s-0.3-0.3-0.4-0.4c-0.1-0.1-0.4-0.2-0.6-0.2s-0.5-0.1-0.7-0.1c-0.3-0.1-0.6-0.1-0.9-0.2s-0.6-0.2-0.8-0.3s-0.4-0.3-0.5-0.5
			c-0.1-0.2-0.2-0.5-0.2-0.8c0-0.3,0.1-0.5,0.2-0.8c0.1-0.2,0.3-0.4,0.5-0.6s0.5-0.3,0.8-0.4c0.3-0.1,0.6-0.1,0.9-0.1s0.6,0,0.9,0.1
			s0.5,0.2,0.8,0.4c0.2,0.2,0.4,0.4,0.5,0.7c0.1,0.3,0.2,0.6,0.2,0.9c0,0.1,0,0.2-0.1,0.2s-0.1,0.1-0.2,0.1h-0.3
			c-0.1,0-0.1,0-0.2-0.1c-0.1,0-0.1-0.1-0.1-0.2c0-0.3-0.1-0.6-0.4-0.9s-0.7-0.4-1.2-0.4s-0.9,0.1-1.2,0.3c-0.3,0.2-0.4,0.4-0.4,0.7
			c0,0.2,0,0.3-0.1,0.4c0,0.1-0.1,0.2-0.1,0.3s0,0.1,0.2,0.2c0.2,0.1,0.4,0.1,0.5,0.1c0.3,0.1,0.6,0.1,0.9,0.2s0.7,0.2,1.2,0.4
			c0.5,0.2,0.9,0.4,1.2,0.7c0.3,0.3,0.5,0.7,0.5,1.1c0,0.3-0.1,0.6-0.2,0.8c-0.1,0.3-0.3,0.5-0.5,0.7s-0.5,0.4-0.9,0.5
			c-0.3,0.1-0.7,0.2-1.1,0.2s-0.7-0.1-1-0.2s-0.6-0.2-0.9-0.4s-0.5-0.4-0.6-0.7c-0.1-0.3-0.2-0.6-0.2-0.9L95.8,69.2L95.8,69.2z
			 M89.1,67c0-0.4,0.1-0.7,0.3-1c0.1-0.3,0.3-0.6,0.6-0.8c0.2-0.2,0.5-0.4,0.9-0.6c0.3-0.1,0.7-0.2,1.1-0.2s0.8,0.1,1.1,0.2
			c0.3,0.1,0.6,0.3,0.9,0.6c0.3,0.3,0.4,0.5,0.6,0.9s0.2,0.7,0.2,1.1v0.9c0,0.1,0,0.1-0.1,0.2c-0.1,0.1-0.1,0.1-0.2,0.1H90
			c-0.1,0-0.1,0-0.1,0.1c0,0.3,0,0.6,0.1,0.9s0.2,0.5,0.4,0.7s0.4,0.4,0.6,0.5s0.6,0.2,1,0.2c0.3,0,0.5,0,0.7-0.1s0.4-0.2,0.5-0.3
			c0.2-0.1,0.3-0.3,0.4-0.4s0.2-0.3,0.2-0.5c0-0.1,0.1-0.2,0.1-0.2s0.1-0.1,0.2-0.1h0.3c0.1,0,0.1,0,0.2,0.1s0.1,0.1,0.1,0.2
			c0,0.3-0.1,0.6-0.3,0.9s-0.3,0.5-0.6,0.7c-0.2,0.2-0.5,0.3-0.8,0.4s-0.7,0.2-1,0.2c-0.4,0-0.8-0.1-1.1-0.2
			c-0.3-0.1-0.6-0.3-0.9-0.6c-0.2-0.2-0.4-0.5-0.6-0.8c-0.1-0.3-0.2-0.7-0.3-1c0-0.3,0-0.6,0-1S89.1,67.3,89.1,67z M86.8,61.9
			c0-0.1,0-0.1,0.1-0.2c0.1-0.1,0.1-0.1,0.2-0.1h0.3c0.1,0,0.1,0,0.2,0.1s0.1,0.1,0.1,0.2v9.3c0,0.1,0,0.1-0.1,0.2s-0.1,0.1-0.2,0.1
			H87c-0.1,0-0.1,0-0.2-0.1s-0.1-0.1-0.1-0.2L86.8,61.9L86.8,61.9z M80.5,67.5c0-0.1,0-0.1,0.1-0.2c0.1-0.1,0.1-0.1,0.2-0.1h3.8
			c0.1,0,0.1,0,0.2,0.1s0.1,0.1,0.1,0.2V68c0,0.1,0,0.1-0.1,0.2c-0.1,0.1-0.1,0.1-0.2,0.1h-3.8c-0.1,0-0.1,0-0.2-0.1
			s-0.1-0.1-0.1-0.2V67.5z M73.6,64.8c0-0.1,0-0.1,0.1-0.2c0.1-0.1,0.1-0.1,0.2-0.1h0.2c0.1,0,0.1,0,0.2,0.1l0.1,0.1
			c0,0,0.1,0.1,0.2,0.1s0.2,0,0.3-0.1s0.2-0.1,0.3-0.2c0.1-0.1,0.3-0.1,0.4-0.2c0.2,0,0.4-0.1,0.6-0.1c0.4,0,0.7,0.1,1,0.2
			c0.3,0.1,0.6,0.3,0.8,0.5c0.2,0.2,0.4,0.5,0.5,0.8c0.1,0.3,0.2,0.7,0.2,1.1v4.4c0,0.1,0,0.1-0.1,0.2s-0.1,0.1-0.2,0.1h-0.3
			c-0.1,0-0.1,0-0.2-0.1s-0.1-0.1-0.1-0.2v-4.4c0-0.6-0.2-1-0.5-1.2c-0.3-0.2-0.8-0.4-1.3-0.4c-0.2,0-0.5,0-0.7,0.1
			s-0.4,0.2-0.6,0.3s-0.3,0.3-0.4,0.5c-0.1,0.2-0.1,0.4-0.1,0.6v4.5c0,0.1,0,0.1-0.1,0.2s-0.1,0.1-0.2,0.1h-0.3
			c-0.1,0-0.1,0-0.2-0.1s-0.1-0.1-0.1-0.2L73.6,64.8L73.6,64.8z M66.4,67c0-0.4,0.1-0.7,0.3-1c0.1-0.3,0.3-0.6,0.6-0.8
			c0.3-0.2,0.5-0.4,0.9-0.6c0.3-0.1,0.7-0.2,1.1-0.2s0.8,0.1,1.1,0.2c0.3,0.1,0.6,0.3,0.9,0.6c0.3,0.3,0.4,0.5,0.6,0.8
			c0.2,0.3,0.2,0.7,0.3,1c0,0.3,0,0.6,0,1s0,0.7,0,1c0,0.4-0.1,0.7-0.3,1c-0.1,0.3-0.3,0.6-0.6,0.8s-0.5,0.4-0.9,0.6
			s-0.7,0.2-1.1,0.2s-0.8-0.1-1.1-0.2c-0.3-0.1-0.6-0.3-0.9-0.6s-0.4-0.5-0.6-0.8s-0.2-0.7-0.3-1c0-0.3,0-0.6,0-1S66.4,67.3,66.4,67
			z M59.5,67c0-0.4,0.1-0.7,0.3-1c0.1-0.3,0.3-0.6,0.6-0.8c0.3-0.2,0.5-0.4,0.8-0.6s0.7-0.2,1-0.2c0.2,0,0.4,0,0.6,0.1
			c0.2,0,0.3,0.1,0.4,0.1s0.2,0.1,0.3,0.1s0.1,0.1,0.2,0.1s0.2,0,0.3-0.1s0.1-0.1,0.1-0.3v-2.5c0-0.1,0-0.1,0.1-0.2
			c0.1-0.1,0.1-0.1,0.2-0.1h0.3c0.1,0,0.1,0,0.2,0.1s0.1,0.1,0.1,0.2v9.3c0,0.1,0,0.1-0.1,0.2s-0.1,0.1-0.2,0.1h-0.2
			c-0.1,0-0.1,0-0.2-0.1c0,0-0.1-0.1-0.2-0.1s-0.1-0.1-0.2-0.1s-0.2,0-0.3,0.1s-0.2,0.1-0.3,0.2s-0.2,0.1-0.4,0.2
			c-0.2,0-0.4,0.1-0.6,0.1c-0.4,0-0.7-0.1-1-0.2s-0.6-0.3-0.8-0.6c-0.2-0.2-0.4-0.5-0.6-0.8c-0.1-0.3-0.2-0.7-0.3-1c0-0.3,0-0.6,0-1
			S59.5,67.3,59.5,67z M55.2,64.8c0-0.1,0-0.1,0.1-0.2c0.1-0.1,0.1-0.1,0.2-0.1h0.2c0.2,0,0.2,0.1,0.3,0.3c0,0.1,0,0.2,0.1,0.3
			c0,0.1,0.1,0.2,0.2,0.2s0.2,0,0.3-0.1c0.1-0.1,0.2-0.2,0.3-0.3c0.1-0.1,0.3-0.2,0.5-0.3s0.5-0.1,0.9-0.1l0,0c0.1,0,0.1,0,0.2,0.1
			s0.1,0.1,0.1,0.2v0.3c0,0.1,0,0.1-0.1,0.2s-0.1,0.1-0.2,0.1l0,0c-0.3,0-0.5,0-0.8,0.1s-0.5,0.2-0.7,0.4c-0.2,0.2-0.4,0.4-0.5,0.7
			c-0.1,0.3-0.2,0.7-0.2,1.2v3.5c0,0.1,0,0.1-0.1,0.2s-0.1,0.1-0.2,0.1h-0.3c-0.1,0-0.1,0-0.2-0.1s-0.1-0.1-0.1-0.2L55.2,64.8
			L55.2,64.8z M48.1,67c0-0.4,0.1-0.7,0.3-1c0.1-0.3,0.3-0.6,0.6-0.8c0.2-0.2,0.5-0.4,0.9-0.6c0.3-0.1,0.7-0.2,1.1-0.2
			s0.8,0.1,1.1,0.2c0.3,0.1,0.6,0.3,0.9,0.6c0.3,0.3,0.4,0.5,0.6,0.9s0.2,0.7,0.2,1.1v0.9c0,0.1,0,0.1-0.1,0.2
			c-0.1,0.1-0.1,0.1-0.2,0.1H49c-0.1,0-0.1,0-0.1,0.1c0,0.3,0,0.6,0.1,0.9s0.2,0.5,0.4,0.7s0.4,0.4,0.6,0.5c0.3,0.1,0.6,0.2,0.9,0.2
			s0.5,0,0.7-0.1s0.4-0.2,0.5-0.3c0.2-0.1,0.3-0.3,0.4-0.4s0.2-0.3,0.2-0.5c0-0.1,0.1-0.2,0.1-0.2c0.1,0,0.1-0.1,0.2-0.1h0.3
			c0.1,0,0.1,0,0.2,0.1c0.1,0,0.1,0.1,0.1,0.2c0,0.3-0.1,0.6-0.3,0.9s-0.3,0.5-0.6,0.7c-0.2,0.2-0.5,0.3-0.8,0.4s-0.7,0.2-1,0.2
			c-0.4,0-0.8-0.1-1.1-0.2c-0.3-0.1-0.6-0.3-0.9-0.6c-0.2-0.2-0.4-0.5-0.6-0.8c-0.1-0.3-0.2-0.7-0.3-1c0-0.3,0-0.6,0-1
			S48.1,67.3,48.1,67z M41.1,64.6c0-0.1,0.1-0.1,0.2-0.1h0.4c0.1,0,0.2,0.1,0.3,0.2l2.1,5.7c0,0.1,0.1,0.1,0.1,0.1s0.1,0,0.1-0.1
			l2.1-5.7c0-0.1,0.1-0.2,0.3-0.2h0.4c0.1,0,0.2,0,0.2,0.1v0.1v0.1l-2.5,6.5c-0.1,0.1-0.1,0.2-0.3,0.2h-0.7c-0.1,0-0.2-0.1-0.3-0.2
			L41,64.8v-0.1C41,64.7,41,64.6,41.1,64.6z M34.9,61.8c0.1-0.1,0.1-0.1,0.2-0.1h0.5c0.1,0,0.2,0.1,0.3,0.2l1.9,5
			c0,0.1,0.1,0.1,0.1,0l1.9-5c0-0.1,0.1-0.2,0.3-0.2h0.5c0.1,0,0.2,0,0.2,0.1v0.1V62l-2.5,6v3.1c0,0.1,0,0.1-0.1,0.2
			s-0.1,0.1-0.2,0.1h-0.4c-0.1,0-0.1,0-0.2-0.1c-0.1-0.1-0.1-0.1-0.1-0.2V68l-2.5-6v-0.1C34.8,61.9,34.8,61.8,34.9,61.8z
			 M65.1,708.1c-0.2,0.3-0.4,0.6-0.6,0.9c-0.3,0.3-0.6,0.5-0.9,0.6c-0.4,0.1-0.7,0.2-1.1,0.2h-2.4c-0.1,0-0.1,0-0.2-0.1
			s-0.1-0.1-0.1-0.2v-9.2c0-0.1,0-0.1,0.1-0.2C60,700,60,700,60.1,700h2.4c0.4,0,0.7,0.1,1.1,0.2c0.3,0.1,0.6,0.3,0.9,0.5
			s0.4,0.5,0.6,0.8c0.1,0.3,0.2,0.7,0.2,1s-0.1,0.7-0.2,1c-0.1,0.4-0.3,0.6-0.6,0.9c-0.1,0.1-0.1,0.2,0,0.3c0.3,0.2,0.5,0.5,0.7,0.9
			s0.3,0.8,0.3,1.2C65.3,707.4,65.3,707.8,65.1,708.1z M71.8,709.5c0,0.1,0,0.1-0.1,0.2c-0.1,0.1-0.1,0.1-0.2,0.1h-0.2
			c-0.1,0-0.1,0-0.2-0.1l-0.1-0.1c0-0.1-0.1-0.1-0.2-0.1s-0.2,0-0.3,0.1s-0.2,0.1-0.3,0.2c-0.1,0.1-0.3,0.1-0.4,0.2
			s-0.4,0.1-0.6,0.1c-0.4,0-0.7-0.1-1-0.2c-0.3-0.1-0.6-0.3-0.8-0.5s-0.4-0.5-0.5-0.8s-0.2-0.7-0.2-1.1v-4.4c0-0.1,0-0.1,0.1-0.2
			c0.1-0.1,0.1-0.1,0.2-0.1h0.3c0.1,0,0.1,0,0.2,0.1s0.1,0.1,0.1,0.2v4.4c0,0.6,0.2,1,0.5,1.2s0.8,0.4,1.3,0.4c0.2,0,0.5,0,0.7-0.1
			s0.4-0.2,0.6-0.3s0.3-0.3,0.4-0.5s0.1-0.4,0.1-0.6v-4.5c0-0.1,0-0.1,0.1-0.2c0.1-0.1,0.1-0.1,0.2-0.1h0.3c0.1,0,0.1,0,0.2,0.1
			s0.1,0.1,0.1,0.2L71.8,709.5L71.8,709.5z M78.1,708.6c-0.1,0.3-0.3,0.5-0.5,0.7s-0.5,0.4-0.9,0.5c-0.3,0.1-0.7,0.2-1.1,0.2
			s-0.7-0.1-1-0.2s-0.6-0.2-0.9-0.4s-0.5-0.4-0.6-0.7s-0.2-0.6-0.2-0.9v-0.2c0-0.1,0-0.1,0.1-0.2c0.1-0.1,0.1-0.1,0.2-0.1h0.3
			c0.1,0,0.1,0,0.2,0.1s0.1,0.1,0.1,0.2v0.2c0,0.2,0,0.4,0.1,0.6s0.2,0.3,0.4,0.4s0.4,0.2,0.6,0.3s0.5,0.1,0.7,0.1
			c0.6,0,1-0.1,1.4-0.4c0.3-0.3,0.5-0.6,0.5-1c0-0.2-0.1-0.4-0.2-0.6c-0.1-0.1-0.3-0.3-0.4-0.4c-0.2-0.1-0.4-0.2-0.6-0.2
			c-0.2-0.1-0.5-0.1-0.7-0.1c-0.3-0.1-0.6-0.1-0.9-0.2c-0.3-0.1-0.6-0.2-0.8-0.3c-0.2-0.1-0.4-0.3-0.5-0.5s-0.2-0.5-0.2-0.8
			s0.1-0.5,0.2-0.8c0.1-0.2,0.3-0.4,0.5-0.6s0.5-0.3,0.8-0.4c0.3-0.1,0.6-0.1,0.9-0.1s0.6,0,0.9,0.1s0.5,0.2,0.8,0.4
			c0.2,0.2,0.4,0.4,0.5,0.7s0.2,0.6,0.2,0.9c0,0.1,0,0.2-0.1,0.2s-0.1,0.1-0.2,0.1h-0.3c-0.1,0-0.1,0-0.2-0.1
			c-0.1,0-0.1-0.1-0.1-0.2c0-0.3-0.1-0.6-0.4-0.9s-0.7-0.4-1.2-0.4s-0.9,0.1-1.2,0.3c-0.3,0.2-0.4,0.4-0.4,0.7c0,0.2,0,0.3-0.1,0.4
			s-0.1,0.2-0.2,0.3s0,0.1,0.2,0.2c0.2,0,0.4,0.1,0.5,0.1c0.3,0.1,0.6,0.1,0.9,0.2c0.3,0.1,0.7,0.2,1.2,0.4s0.9,0.4,1.2,0.7
			c0.3,0.3,0.5,0.7,0.5,1.1C78.3,708.1,78.3,708.4,78.1,708.6z M84.4,708.6c-0.1,0.3-0.3,0.5-0.5,0.7s-0.5,0.4-0.9,0.5
			c-0.3,0.1-0.7,0.2-1.1,0.2s-0.7-0.1-1-0.2c-0.3-0.1-0.6-0.2-0.9-0.4s-0.5-0.4-0.6-0.7s-0.2-0.6-0.2-0.9v-0.2c0-0.1,0-0.1,0.1-0.2
			c0.1-0.1,0.1-0.1,0.2-0.1h0.3c0.1,0,0.1,0,0.2,0.1s0.1,0.1,0.1,0.2v0.2c0,0.2,0,0.4,0.1,0.6s0.2,0.3,0.4,0.4s0.4,0.2,0.6,0.3
			s0.5,0.1,0.7,0.1c0.6,0,1-0.1,1.4-0.4c0.3-0.3,0.5-0.6,0.5-1c0-0.2-0.1-0.4-0.2-0.6s-0.3-0.3-0.4-0.4s-0.4-0.2-0.6-0.2
			c-0.2-0.1-0.5-0.1-0.7-0.1c-0.3-0.1-0.6-0.1-0.9-0.2c-0.3-0.1-0.6-0.2-0.8-0.3c-0.2-0.1-0.4-0.3-0.5-0.5s-0.2-0.5-0.2-0.8
			s0.1-0.5,0.2-0.8c0.1-0.2,0.3-0.4,0.5-0.6c0.2-0.2,0.5-0.3,0.8-0.4c0.3-0.1,0.6-0.1,0.9-0.1s0.6,0,0.9,0.1s0.5,0.2,0.8,0.4
			c0.2,0.2,0.4,0.4,0.5,0.7s0.2,0.6,0.2,0.9c0,0.1,0,0.2-0.1,0.2s-0.1,0.1-0.2,0.1h-0.3c-0.1,0-0.1,0-0.2-0.1s-0.1-0.1-0.1-0.2
			c0-0.3-0.1-0.6-0.4-0.9c-0.3-0.3-0.7-0.4-1.2-0.4s-0.9,0.1-1.2,0.3c-0.3,0.2-0.4,0.4-0.4,0.7c0,0.2,0,0.3-0.1,0.4
			c0,0.1-0.1,0.2-0.1,0.3c-0.1,0.1,0,0.1,0.2,0.2c0.2,0,0.4,0.1,0.5,0.1c0.3,0.1,0.6,0.1,0.9,0.2s0.7,0.2,1.2,0.4s0.9,0.4,1.2,0.7
			c0.3,0.3,0.5,0.7,0.5,1.1C84.6,708.1,84.5,708.4,84.4,708.6z M87,709.5c0,0.1,0,0.1-0.1,0.2c0,0.1-0.1,0.1-0.2,0.1h-0.3
			c-0.1,0-0.2,0-0.2-0.1s-0.1-0.1-0.1-0.2v-6.4c0-0.1,0-0.1,0.1-0.2c0-0.1,0.1-0.1,0.2-0.1h0.3c0.1,0,0.2,0,0.2,0.1s0.1,0.1,0.1,0.2
			V709.5L87,709.5z M87.1,700.9c0,0.2-0.1,0.2-0.2,0.2h-0.7c-0.2,0-0.2-0.1-0.2-0.2v-0.7c0-0.1,0-0.1,0.1-0.2c0,0,0.1-0.1,0.2-0.1
			H87c0.1,0,0.1,0,0.2,0.1c0,0,0.1,0.1,0.1,0.2L87.1,700.9L87.1,700.9z M94,710.2c0,0.3-0.1,0.7-0.2,1s-0.3,0.6-0.5,0.8
			s-0.5,0.4-0.8,0.5s-0.6,0.2-1,0.2c-0.3,0-0.6,0-0.8-0.1c-0.3-0.1-0.5-0.2-0.7-0.4s-0.4-0.4-0.6-0.6s-0.3-0.5-0.3-0.8v-0.1
			c0-0.1,0.1-0.2,0.3-0.2h0.2c0.1,0,0.2,0,0.3,0.1s0.1,0.1,0.1,0.2c0,0.1,0.1,0.3,0.2,0.4s0.2,0.3,0.3,0.4c0.1,0.1,0.3,0.2,0.5,0.3
			s0.4,0.1,0.6,0.1c0.3,0,0.5,0,0.7-0.1s0.4-0.2,0.5-0.4s0.3-0.3,0.3-0.5s0.1-0.4,0.1-0.6v-0.3c0-0.2-0.1-0.3-0.3-0.3
			c-0.1,0-0.2,0-0.3,0.1c-0.1,0-0.2,0.1-0.3,0.1c-0.1,0-0.3,0.1-0.4,0.1s-0.3,0.1-0.5,0.1c-0.4,0-0.7-0.1-1-0.2
			c-0.3-0.1-0.6-0.3-0.8-0.6c-0.2-0.2-0.4-0.5-0.6-0.8s-0.2-0.7-0.3-1c0-0.3,0-0.6,0-1s0-0.7,0-1c0-0.4,0.1-0.7,0.3-1
			s0.3-0.6,0.6-0.8c0.2-0.2,0.5-0.4,0.8-0.6c0.3-0.1,0.7-0.2,1-0.2s0.5,0,0.6,0.1s0.3,0.1,0.4,0.2c0.1,0.1,0.2,0.1,0.3,0.2
			c0.1,0,0.2,0.1,0.3,0.1c0.1,0,0.1,0,0.2-0.1c0.1,0,0.1-0.1,0.2-0.2c0.1-0.1,0.1-0.1,0.2-0.1h0.2c0.1,0,0.1,0,0.2,0.1
			s0.1,0.1,0.1,0.2L94,710.2L94,710.2z M100.9,709.5c0,0.1,0,0.1-0.1,0.2c-0.1,0.1-0.1,0.1-0.2,0.1h-0.3c-0.1,0-0.1,0-0.2-0.1
			s-0.1-0.1-0.1-0.2v-4.4c0-0.6-0.2-1-0.5-1.2s-0.8-0.4-1.3-0.4c-0.2,0-0.5,0-0.7,0.1s-0.4,0.2-0.6,0.3s-0.3,0.3-0.4,0.5
			s-0.1,0.4-0.1,0.6v4.5c0,0.1,0,0.1-0.1,0.2c-0.1,0.1-0.1,0.1-0.2,0.1H96c-0.1,0-0.1,0-0.2-0.1s-0.1-0.1-0.1-0.2v-6.4
			c0-0.1,0-0.1,0.1-0.2c0.1-0.1,0.1-0.1,0.2-0.1h0.2c0.1,0,0.1,0,0.2,0.1l0.1,0.1c0,0.1,0.1,0.1,0.2,0.1s0.2,0,0.3-0.1
			c0.1,0,0.2-0.1,0.3-0.2c0.1-0.1,0.3-0.1,0.4-0.2s0.4-0.1,0.6-0.1c0.4,0,0.7,0.1,1,0.2c0.3,0.1,0.6,0.3,0.8,0.5s0.4,0.5,0.5,0.8
			s0.2,0.7,0.2,1.1L100.9,709.5L100.9,709.5z M107.7,703.2l-3.6,9.3c0,0.1-0.1,0.2-0.3,0.2h-0.3c-0.1,0-0.2,0-0.2-0.1
			s-0.1-0.1,0-0.2l1-2.8c0-0.1,0-0.1,0-0.2l-2.6-6.2v-0.1V703c0.1-0.1,0.1-0.1,0.2-0.1h0.4c0.1,0,0.2,0.1,0.3,0.2l2.2,5.1
			c0,0.1,0.1,0.1,0.1,0l1.9-5.1c0-0.1,0.1-0.2,0.3-0.2h0.4c0.1,0,0.2,0,0.2,0.1C107.7,703,107.7,703,107.7,703.2
			C107.7,703.1,107.7,703.1,107.7,703.2z M144.6,732.5c-0.1,3-1.8,5-3.5,7c-0.3,0.3-0.6,0.7-0.9,1c-3.1,3.8-3.9,7.3-2.6,11.4
			c0.1,0.3,0.2,0.7,0.4,1.1c0.8,2.3,1.7,5.2,0.1,7.9c-1.9,3.2-0.9,5.9,1.3,9c2.8,4.1,2.8,5.8-0.1,10c-0.1,0.1-0.2,0.3-0.2,0.4
			c-0.1,0.3-0.3,0.6-0.6,0.8c-0.8,0.8-1.2,1.6-1.2,2.5s0.5,1.8,1.3,2.5c3.4,2.9,1.7,5.4,0.3,7.5l-0.2,0.3c-0.6,0.9-1.2,1.8-2.4,2.5
			c-1.4,0.8-1.3,2.3-0.7,3.4c1.1,2.3,2.7,1.7,3.2,1.5c0.8-0.3,2.1-0.8,3.4,0.2c0.2,0.1,0.3,0.4,0.2,0.6c-0.2,1.2-0.6,2.4-1,3.5
			c-0.6,1.8-1.2,3.8-1.2,5.7c0,0.3-0.3,0.6-0.6,0.6l0,0c-0.3,0-0.6-0.3-0.6-0.6c0-2.1,0.7-4.1,1.3-6.1c0.3-1,0.6-2,0.9-3
			c-0.6-0.3-1.2-0.1-1.9,0.2c-2,0.8-3.7,0-4.8-2c-0.8-1.6-0.7-3.8,1.2-4.9c0.9-0.5,1.4-1.3,2-2.2l0.2-0.3c1.6-2.3,2.4-3.8,0-5.9
			c-1.1-0.9-1.7-2.1-1.8-3.3c0-1.2,0.5-2.4,1.5-3.4c0.1-0.1,0.2-0.3,0.4-0.5c0.1-0.2,0.2-0.4,0.3-0.5c2.6-3.8,2.6-4.9,0.1-8.6
			c-2-2.9-3.6-6.3-1.3-10.3c1.3-2.3,0.5-4.6-0.2-6.9c-0.1-0.4-0.3-0.7-0.4-1.1c-1.4-4.5-0.5-8.4,2.8-12.5c0.3-0.3,0.6-0.7,0.9-1
			c1.6-1.9,3.1-3.7,3.2-6.3c0-2.5-0.6-3.9-2.3-4.8c-1.4-0.8-2.6-1.9-3.7-3.7c-1-1.5-1.2-3-0.6-4.4c1-2.4,0.6-4.8-1.3-7.8l-0.3-0.4
			c-0.9-1.4-1.8-2.8-2.5-4.3c-0.8-1.6-2.2-1.7-3.8-1.7c-0.2,0-0.4,0-0.6,0c-4.9-0.3-8.9-2.8-12.1-7.6c-0.9-1.4-1.7-2.6-3-3.4
			c-1.6-1-2.5-1.3-4,0c-1,0.8-2.2,1.2-3.3,1c-1.4-0.2-2.7-1.1-3.7-2.6c-0.9-1.3-1.6-1.6-2.8-1.3c-2,0.5-3.9-0.4-4.8-2.4
			c-1.1-2.3-2.9-3.9-5.6-4.9c-3.4-1.2-4.4-3.3-4.7-4.9c-0.5-2.8,1-6.1,3.6-8.2c3.5-2.8,4.9-7,6.3-11l0.2-0.6c0.4-1.1,0.3-2-0.1-2.8
			c-0.5-0.9-1.5-1.5-2.9-1.7c-0.8-0.2-1.9-0.3-3-0.4c-4.8-0.3-7.2-3-7-8c0.1-4.2,0.5-7.6,1.2-10.7c1-4.4-0.5-8.2-4.1-10.6
			c-2.1-1.5-3.8-3.3-5.5-5.2c-1.1-1.3-2.3-2.6-3.6-3.7c-1.4-1.2-1.8-2.7-1.2-4.1c1.3-2.7,0.1-5-1.2-7.1c-2.5-4.1-2.7-4.7,0.2-8.7
			c1.4-1.9,2.1-3.4,1.2-5.4c-0.6-1.4,0.2-2.5,0.9-3.5c0.7-0.9,1.9-2.4,3.3-3.1c5.2-2.6,5.9-7.5,6.6-12.3c0.1-0.5,0.1-0.9,0.2-1.4
			c0.2-1.6-0.2-3.1-1.3-4c-1.2-1.1-3-1.4-4.8-0.9c-5.8,1.6-10.4,0.7-14.1-2.7c-3.1-2.9-6.8-4.8-11.2-6.7c-1.4-0.6-2.3-1.6-2.9-3.1
			c-1-2.6-2.6-4.4-5.1-5.7c-2.8-1.5-4.8-3.9-6.7-6.2c-0.8-0.9-1.6-1.9-2.4-2.8c-0.9-1-1.4-2.3-1.3-3.8c0.2-2,1.4-4,3.3-5.4
			c5.4-4,7.3-8.7,6.1-14.9c-1.4-7.1,3.8-11.2,7.9-13.6c7.2-4.3,12-10.6,17-17.8c0.6-0.9,1.3-1.8,1.9-2.7c2.4-3.2,4.9-6.6,5.9-10.8
			c1.9-7.9,3.1-14.5-1.7-21.1c-1.6-2.2-2.4-5-3.2-7.7l-0.2-0.6c-1-3.3-0.5-6.6,1.4-9.8c2.2-3.6,4.5-7.5,6.5-11.5
			c2.3-4.4,2.4-8.7,0.3-12c-2.8-4.4-7.5-6.1-13.1-4.8c-2,0.4-4.4,0.9-6.9,0.3c-3.4-0.8-4.1-1.9-3.2-5.4c0.5-2.3,1.5-4.4,2.4-6.5
			c0.8-1.8,1.6-3.6,2.1-5.6c0.5-1.9,0.7-3.7,0.6-5.6c-0.5-7.1-2.9-13.3-6-20.7c-0.4-0.9-0.8-1.8-1.2-2.7c-1.9-4.3-3.8-8.8-5-13.5
			c-0.6-2.4-1.5-4.8-2.3-7.1c-0.9-2.5-1.8-5-2.5-7.7c-0.3-1.5-0.7-3-1.1-4.5c-1.8-7.7-3.7-15.7-4.5-23.9c-0.1-1.3-0.3-2.5-0.4-3.8
			c-0.5-4.3-1-8.8,0-13.2c3.2-13.2,6.8-27.3,12.1-40.9L46,241c2.9-7.4,5.8-15,7.8-22.8c0.4-1.4,0.7-2.7,1-4.1
			c0.9-3.6,1.8-7.2,3-10.7c1.9-5.5,4.6-10.7,7.1-15.8c5.4-10.7,13.8-18.4,23.4-26.7c3.6-3.1,6.7-4,10.8-3.2c3.5,0.7,5.2-0.9,7.3-4.1
			c0.7-1,1.3-2.1,2-3.1c3.4-5.3,6.9-10.8,11.2-15.7c0.9-1.1,1.7-2.3,2.5-3.5c0.4-0.7,0.9-1.4,1.4-2.1c4-5.7,8.6-12.4,12-19.6
			c0.5-1,0.8-1.8,0.5-2.7c-1.9-6.1-0.3-11.7,1.9-17.8c1.9-5.5,4.3-10.2,7.3-14.5c3-4.2,5-7.9,6.6-11.4c0.7-1.6,1.3-3.6,0.6-5.7
			c-0.9-2.4-1.2-5-1.5-7.5c-0.2-1.7-0.4-3.4-0.8-5c-0.5-2,0.3-4,2.3-5.7c0.3-0.2,0.6-0.2,0.8,0.1s0.2,0.6-0.1,0.8
			c-1.7,1.4-2.3,2.9-1.9,4.5c0.4,1.7,0.6,3.5,0.8,5.1c0.3,2.4,0.6,4.9,1.4,7.2c0.9,2.5,0.2,4.8-0.6,6.5c-1.5,3.6-3.7,7.3-6.7,11.6
			c-2.9,4.2-5.3,8.8-7.1,14.2c-2.1,5.9-3.6,11.2-1.8,17c0.4,1.3,0,2.4-0.6,3.6c-3.4,7.3-8,14-12.1,19.8c-0.5,0.7-0.9,1.4-1.3,2.1
			c-0.8,1.2-1.6,2.5-2.6,3.7c-4.2,4.8-7.7,10.3-11.1,15.5c-0.7,1-1.3,2.1-2,3.1c-2.3,3.5-4.5,5.5-8.6,4.7c-3.7-0.8-6.5,0.1-9.8,2.9
			c-9.5,8.2-17.8,15.8-23.1,26.4c-2.5,5.1-5.2,10.3-7.1,15.7c-1.2,3.4-2.1,7.1-3,10.6c-0.3,1.4-0.7,2.7-1,4.1
			c-2,7.8-5,15.5-7.9,22.9l-0.2,0.6c-5.3,13.6-8.8,27.6-12,40.8c-1,4.2-0.5,8.4,0,12.8c0.1,1.3,0.3,2.5,0.4,3.8
			c0.7,8.1,2.6,16,4.4,23.7c0.4,1.5,0.7,3,1.1,4.5c0.6,2.6,1.5,5.1,2.4,7.5s1.8,4.8,2.4,7.3c1.1,4.7,3.1,9.1,4.9,13.4
			c0.4,0.9,0.8,1.8,1.2,2.7c3.1,7.2,5.7,13.8,6.1,21.1c0.1,2-0.1,4-0.6,6s-1.4,3.9-2.2,5.7c-0.9,2-1.8,4.1-2.3,6.3
			c-0.7,2.9-0.4,3.3,2.4,4c2,0.5,3.9,0.3,6.3-0.3c6.1-1.4,11.2,0.5,14.3,5.4c2.4,3.7,2.3,8.4-0.2,13.2c-2.1,4-4.4,7.9-6.6,11.6
			c-1.7,2.9-2.2,5.9-1.3,8.8l0.2,0.6c0.8,2.6,1.6,5.3,3,7.4c5,7,3.8,14.2,1.9,22.1c-1.1,4.4-3.7,7.9-6.1,11.2
			c-0.7,0.9-1.3,1.8-1.9,2.6c-5.1,7.3-9.9,13.7-17.4,18.2c-4,2.4-8.5,6-7.3,12.3c1.3,6.7-0.8,11.9-6.5,16.1
			c-1.6,1.2-2.7,2.9-2.8,4.6c-0.1,1.1,0.2,2.1,0.9,2.9c0.9,0.9,1.7,1.9,2.5,2.9c1.9,2.3,3.8,4.5,6.4,5.9c2.8,1.5,4.7,3.5,5.7,6.4
			c0.5,1.2,1.1,2,2.3,2.4c3.9,1.7,8.1,3.7,11.5,6.9c3.3,3.1,7.6,3.9,12.9,2.4c2.2-0.6,4.4-0.2,5.9,1.2c1.4,1.2,2,3.1,1.7,5.1
			c-0.1,0.4-0.1,0.9-0.2,1.4c-0.7,5.1-1.5,10.4-7.3,13.2c-0.9,0.4-1.9,1.4-2.8,2.7c-0.8,1.1-1.1,1.6-0.8,2.3
			c1.2,2.8-0.1,4.8-1.3,6.6c-2.5,3.4-2.4,3.6-0.1,7.3c1.4,2.3,2.8,5,1.3,8.3c-0.6,1.2,0.4,2.3,0.9,2.7c1.3,1.2,2.6,2.5,3.7,3.8
			c1.6,1.8,3.3,3.6,5.3,5c4,2.7,5.6,7.1,4.6,11.9c-0.7,3-1,6.3-1.2,10.5c-0.1,4.4,1.7,6.5,5.9,6.8c1.1,0.1,2.2,0.3,3.1,0.4
			c1.7,0.3,3.1,1.1,3.8,2.3c0.6,1.1,0.7,2.4,0.2,3.8l-0.2,0.6c-1.4,4.2-2.9,8.6-6.7,11.6c-2.3,1.9-3.6,4.8-3.2,7.1
			c0.3,1.8,1.7,3.2,3.9,4c3,1,5.1,2.9,6.3,5.5c0.5,1.1,1.7,2.1,3.4,1.7c2.1-0.5,3.2,0.5,4,1.8c0.9,1.2,1.9,1.9,2.9,2.1
			c0.8,0.1,1.6-0.2,2.4-0.8c2.2-1.8,3.8-1.1,5.4-0.1c1.5,1,2.4,2.3,3.4,3.7c3,4.6,6.6,6.8,11.2,7.1c0.2,0,0.4,0,0.6,0
			c1.7,0.1,3.7,0.1,4.8,2.4c0.7,1.4,1.6,2.8,2.4,4.2l0.3,0.4c1.4,2.2,2.9,5.3,1.4,8.9c-0.4,1-0.3,2.1,0.5,3.3c1,1.6,2,2.6,3.3,3.3
			C144.4,728.1,144.7,730.7,144.6,732.5z M141.9,152.9c-0.3-0.2-0.8-0.4-1.3-0.4c-0.2,0-0.5,0-0.7,0.1c-0.2,0.1-0.4,0.2-0.6,0.3
			s-0.3,0.3-0.4,0.5c-0.1,0.2-0.1,0.4-0.1,0.6v4.5c0,0.1,0,0.1-0.1,0.2c-0.1,0.1-0.1,0.1-0.2,0.1h-0.3c-0.1,0-0.1,0-0.2-0.1
			s-0.1-0.1-0.1-0.2v-6.4c0-0.1,0-0.1,0.1-0.2c0.1-0.1,0.1-0.1,0.2-0.1h0.2c0.1,0,0.1,0,0.2,0.1l0.1,0.1c0,0.1,0.1,0.1,0.2,0.1
			c0.1,0,0.2,0,0.3-0.1c0.1,0,0.2-0.1,0.3-0.2c0.1-0.1,0.3-0.1,0.4-0.2c0.1-0.1,0.4-0.1,0.6-0.1c0.4,0,0.7,0.1,1,0.2
			c0.3,0.1,0.6,0.3,0.8,0.5s0.4,0.5,0.5,0.8s0.2,0.7,0.2,1.1v4.4c0,0.1,0,0.1-0.1,0.2c-0.1,0.1-0.1,0.1-0.2,0.1h-0.3
			c-0.1,0-0.1,0-0.2-0.1c-0.1-0.1-0.1-0.1-0.1-0.2v-4.4C142.5,153.5,142.3,153.1,141.9,152.9z M140.9,658.1
			c-0.3-0.2-0.8-0.4-1.3-0.4c-0.3,0-0.5,0-0.7,0.1c-0.2,0.1-0.4,0.2-0.6,0.3s-0.3,0.3-0.4,0.5c-0.1,0.2-0.1,0.4-0.1,0.6v4.5
			c0,0.1,0,0.1-0.1,0.2c-0.1,0.1-0.1,0.1-0.2,0.1h-0.3c-0.1,0-0.1,0-0.2-0.1c-0.1-0.1-0.1-0.1-0.1-0.2v-6.4c0-0.1,0-0.1,0.1-0.2
			c0.1-0.1,0.1-0.1,0.2-0.1h0.2c0.1,0,0.1,0,0.2,0.1l0.1,0.1c0,0.1,0.1,0.1,0.2,0.1c0.1,0,0.2,0,0.3-0.1c0.1,0,0.2-0.1,0.3-0.2
			c0.1-0.1,0.3-0.1,0.4-0.2c0.1-0.1,0.4-0.1,0.6-0.1c0.4,0,0.7,0.1,1,0.2c0.3,0.1,0.6,0.3,0.8,0.5s0.4,0.5,0.5,0.8s0.2,0.7,0.2,1.1
			v4.4c0,0.1,0,0.1-0.1,0.2c-0.1,0.1-0.1,0.1-0.2,0.1h-0.3c-0.1,0-0.1,0-0.2-0.1c-0.1-0.1-0.1-0.1-0.1-0.2v-4.4
			C141.4,658.8,141.2,658.4,140.9,658.1z M138.7,574.2c0,0.1-0.1,0.2-0.3,0.2h-0.3c-0.1,0-0.2,0-0.2-0.1s-0.1-0.1,0-0.2l1-2.8
			c0-0.1,0-0.1,0-0.2l-2.6-6.2v-0.1v-0.1c0.1-0.1,0.1-0.1,0.2-0.1h0.4c0.1,0,0.2,0.1,0.3,0.2l2.2,5.1c0,0.1,0.1,0.1,0.1,0l1.9-5.1
			c0-0.1,0.1-0.2,0.3-0.2h0.4c0.1,0,0.2,0,0.2,0.1v0.1v0.1L138.7,574.2z M130.8,662c0.1,0.3,0.2,0.5,0.4,0.7s0.4,0.4,0.6,0.5
			s0.6,0.2,0.9,0.2s0.5,0,0.7-0.1c0.2-0.1,0.4-0.2,0.5-0.3c0.2-0.1,0.3-0.3,0.4-0.4c0.1-0.2,0.2-0.3,0.2-0.5c0-0.1,0.1-0.2,0.1-0.2
			c0.1,0,0.1-0.1,0.2-0.1h0.3c0.1,0,0.1,0,0.2,0.1c0.1,0,0.1,0.1,0.1,0.2c0,0.3-0.1,0.6-0.3,0.9c-0.1,0.3-0.3,0.5-0.6,0.7
			c-0.2,0.2-0.5,0.3-0.8,0.4c-0.3,0.1-0.7,0.2-1,0.2c-0.4,0-0.8-0.1-1.1-0.2c-0.3-0.1-0.6-0.3-0.9-0.6c-0.2-0.2-0.4-0.5-0.6-0.8
			c-0.1-0.3-0.2-0.7-0.3-1c0-0.3,0-0.6,0-1s0-0.7,0-1c0-0.4,0.1-0.7,0.3-1c0.1-0.3,0.3-0.6,0.6-0.8c0.2-0.2,0.5-0.4,0.9-0.6
			c0.3-0.1,0.7-0.2,1.1-0.2c0.4,0,0.8,0.1,1.1,0.2c0.3,0.1,0.6,0.3,0.9,0.6c0.3,0.3,0.4,0.5,0.6,0.9c0.1,0.3,0.2,0.7,0.2,1.1v0.9
			c0,0.1,0,0.1-0.1,0.2c-0.1,0.1-0.1,0.1-0.2,0.1h-4.4c-0.1,0-0.1,0-0.1,0.1C130.7,661.4,130.7,661.7,130.8,662z M133.9,565.7
			c-0.3-0.3-0.7-0.4-1.2-0.4c-0.2,0-0.4,0-0.6,0.1s-0.4,0.1-0.5,0.2c-0.1,0.1-0.3,0.2-0.4,0.4c-0.1,0.1-0.1,0.3-0.1,0.5
			c0,0.1,0,0.2-0.1,0.2c-0.1,0-0.1,0-0.2,0h-0.2c-0.2,0-0.3-0.1-0.3-0.3c0-0.3,0.1-0.6,0.2-0.9c0.1-0.2,0.3-0.4,0.6-0.6
			c0.3-0.2,0.5-0.3,0.8-0.4c0.3-0.1,0.6-0.1,0.9-0.1s0.7,0,1,0.1s0.6,0.2,0.8,0.4c0.2,0.2,0.4,0.4,0.5,0.7c0.1,0.3,0.2,0.6,0.2,1
			v4.5c0,0.1,0,0.1-0.1,0.2c-0.1,0.1-0.1,0.1-0.2,0.1h-0.1c-0.1,0-0.2,0-0.2-0.1s-0.1-0.1-0.1-0.2c0-0.1-0.1-0.1-0.2-0.1
			c-0.1,0-0.1,0-0.2,0.1c-0.1,0.1-0.2,0.1-0.4,0.2s-0.3,0.1-0.5,0.2c-0.2,0.1-0.4,0.1-0.7,0.1c-0.4,0-0.8-0.1-1.1-0.2
			c-0.3-0.1-0.6-0.3-0.8-0.5c-0.2-0.2-0.4-0.4-0.5-0.7c-0.1-0.3-0.2-0.6-0.2-0.9c0-0.3,0.1-0.6,0.2-0.8c0.1-0.3,0.3-0.5,0.4-0.7
			c0.2-0.2,0.4-0.3,0.7-0.4c0.3-0.1,0.6-0.2,1-0.2h2c0.1,0,0.1,0,0.1-0.1v-0.3C134.4,566.3,134.2,566,133.9,565.7z M134.9,158.8
			c-0.3,0.1-0.7,0.2-1,0.2c-0.4,0-0.8-0.1-1.1-0.2s-0.6-0.3-0.9-0.6c-0.3-0.3-0.4-0.5-0.6-0.8s-0.2-0.7-0.3-1c0-0.3,0-0.6,0-1
			s0-0.7,0-1c0-0.4,0.1-0.7,0.3-1s0.3-0.6,0.6-0.8c0.3-0.2,0.5-0.4,0.9-0.6s0.7-0.2,1.1-0.2c0.4,0,0.8,0.1,1.1,0.2
			c0.3,0.1,0.6,0.3,0.9,0.6c0.3,0.3,0.4,0.5,0.6,0.9c0.1,0.3,0.2,0.7,0.2,1.1v0.9c0,0.1,0,0.1-0.1,0.2c-0.1,0.1-0.1,0.1-0.2,0.1H132
			c-0.1,0-0.1,0-0.1,0.1c0,0.3,0,0.6,0.1,0.9c0.1,0.3,0.2,0.5,0.4,0.7c0.2,0.2,0.4,0.4,0.6,0.5s0.6,0.2,0.9,0.2c0.3,0,0.5,0,0.7-0.1
			c0.2-0.1,0.4-0.2,0.5-0.3c0.1-0.1,0.3-0.3,0.4-0.4c0.1-0.2,0.2-0.3,0.2-0.5c0-0.1,0.1-0.2,0.1-0.2c0.1,0,0.1-0.1,0.2-0.1h0.3
			c0.1,0,0.1,0,0.2,0.1c0.1,0,0.1,0.1,0.1,0.2c0,0.3-0.1,0.6-0.3,0.9s-0.3,0.5-0.6,0.7C135.5,158.6,135.2,158.7,134.9,158.8z
			 M128.3,571.6H128c-0.1,0-0.1,0-0.2-0.1c-0.1-0.1-0.1-0.1-0.1-0.2v-4.4c0-0.6-0.2-1-0.5-1.2c-0.3-0.2-0.8-0.4-1.3-0.4
			c-0.3,0-0.5,0-0.7,0.1c-0.2,0.1-0.4,0.2-0.6,0.3s-0.3,0.3-0.4,0.5c-0.1,0.2-0.1,0.4-0.1,0.6v4.5c0,0.1,0,0.1-0.1,0.2
			c-0.1,0.1-0.1,0.1-0.2,0.1h-0.3c-0.1,0-0.1,0-0.2-0.1c-0.1-0.1-0.1-0.1-0.1-0.2v-6.4c0-0.1,0-0.1,0.1-0.2c0.1-0.1,0.1-0.1,0.2-0.1
			h0.2c0.1,0,0.1,0,0.2,0.1l0.1,0.1c0,0.1,0.1,0.1,0.2,0.1s0.2,0,0.3-0.1c0.1-0.1,0.2-0.1,0.3-0.2c0.1-0.1,0.3-0.1,0.4-0.2
			c0.2,0,0.4-0.1,0.6-0.1c0.4,0,0.7,0.1,1,0.2c0.3,0.1,0.6,0.3,0.8,0.5c0.2,0.2,0.4,0.5,0.5,0.8c0.1,0.3,0.2,0.7,0.2,1.1v4.4
			c0,0.1,0,0.1-0.1,0.2C128.5,571.6,128.4,571.6,128.3,571.6z M128.3,654.5v9.3c0,0.1,0,0.1-0.1,0.2c-0.1,0.1-0.1,0.1-0.2,0.1h-0.3
			c-0.1,0-0.1,0-0.2-0.1c-0.1-0.1-0.1-0.1-0.1-0.2v-9.3c0-0.1,0-0.1,0.1-0.2c0.1-0.1,0.1-0.1,0.2-0.1h0.3c0.1,0,0.1,0,0.2,0.1
			C128.3,654.3,128.3,654.4,128.3,654.5z M123.4,658h-1.2c-0.1,0-0.1,0-0.2-0.1s-0.1-0.1-0.1-0.2v-0.3c0-0.1,0-0.1,0.1-0.2
			s0.1-0.1,0.2-0.1h1.2c0.1,0,0.1,0,0.1-0.1v-0.2c0-0.4,0.1-0.8,0.2-1.1c0.1-0.3,0.3-0.6,0.5-0.8c0.2-0.2,0.5-0.4,0.7-0.5
			c0.3-0.1,0.6-0.2,1-0.2h0.1c0.1,0,0.1,0,0.2,0.1c0.1,0.1,0.1,0.1,0.1,0.2v0.2c0,0.1,0,0.1-0.1,0.2c-0.1,0.1-0.1,0.1-0.2,0.1h-0.1
			c-0.3,0-0.5,0-0.7,0.1c-0.2,0.1-0.4,0.2-0.5,0.4c-0.1,0.2-0.2,0.4-0.3,0.6s-0.1,0.5-0.1,0.7v0.2c0,0.1,0,0.1,0.1,0.1h1.6
			c0.1,0,0.1,0,0.2,0.1c0.1,0.1,0.1,0.1,0.1,0.2v0.3c0,0.1,0,0.1-0.1,0.2c-0.1,0.1-0.1,0.1-0.2,0.1h-1.6c-0.1,0-0.1,0-0.1,0.1v5.7
			c0,0.1,0,0.1-0.1,0.2c-0.1,0.1-0.1,0.1-0.2,0.1h-0.3c-0.1,0-0.1,0-0.2-0.1c-0.1-0.1-0.1-0.1-0.1-0.2L123.4,658
			C123.5,658,123.5,658,123.4,658z M118.6,658h-1.2c-0.1,0-0.1,0-0.2-0.1s-0.1-0.1-0.1-0.2v-0.3c0-0.1,0-0.1,0.1-0.2
			s0.1-0.1,0.2-0.1h1.2c0.1,0,0.1,0,0.1-0.1v-0.2c0-0.4,0.1-0.8,0.2-1.1c0.1-0.3,0.3-0.6,0.5-0.8c0.2-0.2,0.5-0.4,0.7-0.5
			c0.3-0.1,0.6-0.2,1-0.2h0.1c0.1,0,0.1,0,0.2,0.1c0.1,0.1,0.1,0.1,0.1,0.2v0.2c0,0.1,0,0.1-0.1,0.2c-0.1,0.1-0.1,0.1-0.2,0.1h-0.1
			c-0.3,0-0.5,0-0.7,0.1c-0.2,0.1-0.4,0.2-0.5,0.4c-0.1,0.2-0.2,0.4-0.3,0.6s-0.1,0.5-0.1,0.7v0.2c0,0.1,0,0.1,0.1,0.1h1.6
			c0.1,0,0.1,0,0.2,0.1c0.1,0.1,0.1,0.1,0.1,0.2v0.3c0,0.1,0,0.1-0.1,0.2c-0.1,0.1-0.1,0.1-0.2,0.1h-1.6c-0.1,0-0.1,0-0.1,0.1v5.7
			c0,0.1,0,0.1-0.1,0.2c-0.1,0.1-0.1,0.1-0.2,0.1H119c-0.1,0-0.1,0-0.2-0.1c-0.1-0.1-0.1-0.1-0.1-0.2L118.6,658
			C118.7,658,118.7,658,118.6,658z M121,571c-0.2,0.2-0.5,0.4-0.9,0.6c-0.3,0.1-0.7,0.2-1.1,0.2s-0.8-0.1-1.1-0.2
			c-0.3-0.1-0.6-0.3-0.9-0.6s-0.4-0.5-0.6-0.8c-0.1-0.3-0.2-0.7-0.3-1c0-0.3,0-0.6,0-1s0-0.7,0-1c0-0.4,0.1-0.7,0.3-1
			c0.1-0.3,0.3-0.6,0.6-0.8s0.5-0.4,0.9-0.6c0.3-0.1,0.7-0.2,1.1-0.2s0.8,0.1,1.1,0.2c0.3,0.1,0.6,0.3,0.9,0.6s0.4,0.5,0.6,0.8
			s0.2,0.7,0.3,1c0,0.3,0,0.6,0,1s0,0.7,0,1c0,0.4-0.1,0.7-0.3,1C121.5,570.5,121.3,570.7,121,571z M94.3,563.9
			c-0.1-0.2-0.2-0.5-0.4-0.6s-0.4-0.3-0.7-0.4c-0.3-0.1-0.6-0.2-0.9-0.2s-0.6,0.1-0.9,0.2c-0.3,0.1-0.5,0.3-0.7,0.5
			s-0.3,0.4-0.4,0.7c-0.1,0.2-0.2,0.5-0.2,0.7c0,0.3-0.1,0.6-0.1,1s0,0.7,0,1.1s0,0.8,0,1.1s0.1,0.7,0.1,1c0,0.2,0.1,0.4,0.2,0.7
			c0.1,0.2,0.2,0.5,0.4,0.7c0.2,0.2,0.4,0.4,0.7,0.5c0.3,0.1,0.6,0.2,1,0.2s0.7-0.1,1-0.2c0.3-0.1,0.5-0.3,0.7-0.5s0.3-0.4,0.4-0.7
			c0.1-0.2,0.1-0.5,0.1-0.7v-0.2c0-0.1,0-0.1,0.1-0.2c0.1-0.1,0.1-0.1,0.2-0.1h0.4c0.1,0,0.1,0,0.2,0.1s0.1,0.1,0.1,0.2v0.1
			c0,0.5-0.1,0.9-0.3,1.2s-0.4,0.7-0.7,0.9c-0.3,0.3-0.6,0.4-1,0.6c-0.4,0.1-0.8,0.2-1.2,0.2c-0.8,0-1.5-0.3-2.1-0.8s-0.9-1.2-1-2.1
			c0-0.3-0.1-0.6-0.1-1s0-0.7,0-1.1s0-0.8,0-1.1s0-0.7,0.1-1c0.1-0.4,0.2-0.8,0.3-1.1c0.2-0.4,0.4-0.7,0.6-0.9s0.6-0.5,0.9-0.6
			c0.4-0.2,0.8-0.2,1.2-0.2c0.5,0,0.9,0.1,1.3,0.2c0.4,0.2,0.7,0.4,1,0.6s0.5,0.6,0.6,0.9s0.2,0.7,0.2,1.1v0.1c0,0.1,0,0.1-0.1,0.2
			s-0.1,0.1-0.2,0.1h-0.4c-0.1,0-0.1,0-0.2-0.1s-0.1-0.1-0.1-0.2v-0.1C94.5,564.4,94.4,564.1,94.3,563.9z M87.9,274
			c-0.3-0.2-0.8-0.4-1.3-0.4c-0.2,0-0.5,0-0.7,0.1s-0.4,0.2-0.6,0.3c-0.2,0.1-0.3,0.3-0.4,0.5s-0.1,0.4-0.1,0.6v4.5
			c0,0.1,0,0.1-0.1,0.2s-0.1,0.1-0.2,0.1h-0.3c-0.1,0-0.1,0-0.2-0.1s-0.1-0.1-0.1-0.2v-6.4c0-0.1,0-0.1,0.1-0.2s0.1-0.1,0.2-0.1h0.2
			c0.1,0,0.1,0,0.2,0.1l0.1,0.1c0,0.1,0.1,0.1,0.2,0.1s0.2,0,0.3-0.1c0.1,0,0.2-0.1,0.3-0.2c0.1-0.1,0.3-0.1,0.4-0.2
			s0.4-0.1,0.6-0.1c0.4,0,0.7,0.1,1,0.2s0.6,0.3,0.8,0.5s0.4,0.5,0.5,0.8s0.2,0.7,0.2,1.1v4.4c0,0.1,0,0.1-0.1,0.2s-0.1,0.1-0.2,0.1
			h-0.3c-0.1,0-0.1,0-0.2-0.1s-0.1-0.1-0.1-0.2v-4.4C88.4,274.6,88.3,274.2,87.9,274z M88.2,484.7h-0.7c-0.2,0-0.2-0.1-0.2-0.2v-0.7
			c0-0.1,0-0.1,0.1-0.2c0,0,0.1-0.1,0.2-0.1h0.7c0.1,0,0.1,0,0.2,0.1c0,0,0.1,0.1,0.1,0.2v0.7C88.4,484.7,88.3,484.7,88.2,484.7z
			 M88.2,486.7v6.4c0,0.1,0,0.1-0.1,0.2c0,0.1-0.1,0.1-0.2,0.1h-0.3c-0.1,0-0.2,0-0.2-0.1s-0.1-0.1-0.1-0.2v-6.4
			c0-0.1,0-0.1,0.1-0.2c0-0.1,0.1-0.1,0.2-0.1h0.3c0.1,0,0.2,0,0.2,0.1C88.2,486.6,88.2,486.7,88.2,486.7z M80.2,490.5
			c0.1-0.3,0.3-0.5,0.4-0.7c0.2-0.2,0.4-0.3,0.7-0.4c0.3-0.1,0.6-0.2,1-0.2h2c0.1,0,0.1,0,0.1-0.1v-0.5c0-0.4-0.2-0.8-0.5-1.1
			c-0.3-0.3-0.7-0.4-1.2-0.4c-0.2,0-0.4,0-0.6,0.1s-0.4,0.1-0.5,0.2s-0.3,0.2-0.4,0.4c-0.1,0.1-0.1,0.3-0.1,0.5c0,0.1,0,0.2-0.1,0.2
			s-0.1,0-0.2,0h-0.2c-0.2,0-0.3-0.1-0.3-0.3c0-0.3,0.1-0.6,0.2-0.9c0.1-0.2,0.3-0.4,0.6-0.6s0.5-0.3,0.8-0.4s0.6-0.1,0.9-0.1
			s0.7,0,1,0.1s0.6,0.2,0.8,0.4s0.4,0.4,0.5,0.7c0.1,0.3,0.2,0.6,0.2,1v4.5c0,0.1,0,0.1-0.1,0.2s-0.1,0.1-0.2,0.1h0
			c-0.1,0-0.2,0-0.2-0.1s-0.1-0.1-0.1-0.2s-0.1-0.1-0.2-0.1s-0.1,0-0.2,0.1s-0.2,0.1-0.4,0.2s-0.3,0.1-0.5,0.2s-0.4,0.1-0.7,0.1
			c-0.4,0-0.8-0.1-1.1-0.2c-0.3-0.1-0.6-0.3-0.8-0.5c-0.2-0.2-0.4-0.4-0.5-0.7s-0.2-0.6-0.2-0.9C80.1,491,80.1,490.8,80.2,490.5z
			 M80,279.9h-0.3c-0.1,0-0.1,0-0.2-0.1s-0.1-0.1-0.1-0.2v-6.4c0-0.1,0-0.1,0.1-0.2s0.1-0.1,0.2-0.1h0.2c0.2,0,0.2,0.1,0.3,0.3
			c0,0.1,0,0.2,0.1,0.3c0,0.1,0.1,0.2,0.2,0.2s0.2,0,0.3-0.1c0.1-0.1,0.2-0.2,0.3-0.3s0.3-0.2,0.5-0.3s0.5-0.1,0.9-0.1l0,0
			c0.1,0,0.1,0,0.2,0.1s0.1,0.1,0.1,0.2v0.3c0,0.1,0,0.1-0.1,0.2s-0.1,0.1-0.2,0.1l0,0c-0.3,0-0.5,0-0.8,0.1s-0.5,0.2-0.7,0.4
			s-0.4,0.4-0.5,0.7c-0.1,0.3-0.2,0.7-0.2,1.2v3.5c0,0.1,0,0.1-0.1,0.2C80.2,279.9,80.1,279.9,80,279.9z M94.6,274
			c-0.3-0.3-0.7-0.4-1.2-0.4c-0.2,0-0.4,0-0.6,0.1s-0.4,0.1-0.5,0.2s-0.3,0.2-0.4,0.4c-0.1,0.1-0.1,0.3-0.1,0.5c0,0.1,0,0.2-0.1,0.2
			s-0.1,0-0.2,0h-0.2c-0.2,0-0.3-0.1-0.3-0.3c0-0.3,0.1-0.6,0.2-0.9c0.1-0.2,0.3-0.4,0.6-0.6c0.2-0.2,0.5-0.3,0.8-0.4
			s0.6-0.1,0.9-0.1s0.7,0,1,0.1s0.6,0.2,0.8,0.4c0.2,0.2,0.4,0.4,0.5,0.7c0.1,0.3,0.2,0.6,0.2,1v4.5c0,0.1,0,0.1-0.1,0.2
			s-0.1,0.1-0.2,0.1h-0.1c-0.1,0-0.2,0-0.2-0.1s-0.1-0.1-0.1-0.2s-0.1-0.1-0.2-0.1s-0.1,0-0.2,0.1s-0.2,0.1-0.4,0.2
			s-0.3,0.1-0.5,0.2s-0.4,0.1-0.7,0.1c-0.4,0-0.8-0.1-1.1-0.2s-0.6-0.3-0.8-0.5s-0.4-0.4-0.5-0.7c-0.1-0.3-0.2-0.6-0.2-0.9
			s0.1-0.6,0.2-0.8c0.1-0.3,0.3-0.5,0.4-0.7s0.4-0.3,0.7-0.4c0.3-0.1,0.6-0.2,1-0.2h2c0.1,0,0.1,0,0.1-0.1v-0.5
			C95,274.6,94.9,274.3,94.6,274z M93.7,483.8v9.3c0,0.1,0,0.1-0.1,0.2s-0.1,0.1-0.2,0.1h-0.3c-0.1,0-0.1,0-0.2-0.1
			s-0.1-0.1-0.1-0.2v-9.3c0-0.1,0-0.1,0.1-0.2s0.1-0.1,0.2-0.1h0.3c0.1,0,0.1,0,0.2,0.1S93.7,483.8,93.7,483.8z M90.8,483.5
			c0.1,0,0.1,0,0.2,0.1s0.1,0.1,0.1,0.2v9.3c0,0.1,0,0.1-0.1,0.2s-0.1,0.1-0.2,0.1h-0.3c-0.1,0-0.1,0-0.2-0.1s-0.1-0.1-0.1-0.2v-9.3
			c0-0.1,0-0.1,0.1-0.2s0.1-0.1,0.2-0.1L90.8,483.5L90.8,483.5z M95.2,490.9c0-0.3,0-0.6,0-1s0-0.7,0-1c0-0.4,0.1-0.7,0.3-1
			c0.1-0.3,0.3-0.6,0.6-0.8c0.2-0.2,0.5-0.4,0.9-0.6c0.3-0.1,0.7-0.2,1.1-0.2s0.8,0.1,1.1,0.2c0.3,0.1,0.6,0.3,0.9,0.6
			c0.2,0.3,0.4,0.5,0.6,0.9c0.1,0.3,0.2,0.7,0.2,1.1v0.9c0,0.1,0,0.1-0.1,0.2s-0.1,0.1-0.2,0.1h-4.4c-0.1,0-0.1,0-0.1,0.1
			c0,0.3,0,0.6,0.1,0.9s0.2,0.5,0.4,0.7s0.4,0.4,0.6,0.5s0.6,0.2,0.9,0.2s0.5,0,0.7-0.1s0.4-0.2,0.5-0.3c0.2-0.1,0.3-0.3,0.4-0.4
			s0.2-0.3,0.2-0.5c0-0.1,0.1-0.2,0.1-0.2c0.1,0,0.1-0.1,0.2-0.1h0.3c0.1,0,0.1,0,0.2,0.1c0.1,0,0.1,0.1,0.1,0.2
			c0,0.3-0.1,0.6-0.3,0.9c-0.1,0.3-0.3,0.5-0.6,0.7c-0.2,0.2-0.5,0.3-0.8,0.4s-0.7,0.2-1,0.2c-0.4,0-0.8-0.1-1.1-0.2
			c-0.3-0.1-0.6-0.3-0.9-0.6c-0.2-0.2-0.4-0.5-0.6-0.8C95.4,491.6,95.3,491.3,95.2,490.9z M96.6,567.1c0-0.4,0.1-0.7,0.3-1
			c0.1-0.3,0.3-0.6,0.6-0.8s0.5-0.4,0.9-0.6c0.3-0.1,0.7-0.2,1.1-0.2s0.8,0.1,1.1,0.2c0.3,0.1,0.6,0.3,0.9,0.6s0.4,0.5,0.6,0.8
			s0.2,0.7,0.3,1c0,0.3,0,0.6,0,1s0,0.7,0,1c0,0.4-0.1,0.7-0.3,1c-0.1,0.3-0.3,0.6-0.6,0.8s-0.5,0.4-0.9,0.6
			c-0.3,0.1-0.7,0.2-1.1,0.2s-0.8-0.1-1.1-0.2c-0.3-0.1-0.6-0.3-0.9-0.6s-0.4-0.5-0.6-0.8c-0.1-0.3-0.2-0.7-0.3-1c0-0.3,0-0.6,0-1
			S96.6,567.4,96.6,567.1z M99.3,282.5c0,0.1-0.1,0.2-0.3,0.2h-0.3c-0.1,0-0.2,0-0.2-0.1s-0.1-0.1,0-0.2l1-2.8c0-0.1,0-0.1,0-0.2
			l-2.6-6.2v-0.1V273c0.1-0.1,0.1-0.1,0.2-0.1h0.4c0.1,0,0.2,0.1,0.3,0.2l2.2,5.1c0,0.1,0.1,0.1,0.1,0l1.9-5.1
			c0-0.1,0.1-0.2,0.3-0.2h0.4c0.1,0,0.2,0,0.2,0.1v0.1v0.1L99.3,282.5z M102.3,486.7c0-0.1,0-0.1,0.1-0.2s0.1-0.1,0.2-0.1h0.2
			c0.1,0,0.1,0,0.2,0.1l0.1,0.1c0,0.1,0.1,0.1,0.2,0.1s0.2,0,0.3-0.1s0.2-0.1,0.3-0.2c0.1-0.1,0.3-0.1,0.4-0.2
			c0.2,0,0.4-0.1,0.6-0.1c0.4,0,0.7,0.1,1,0.2s0.6,0.3,0.8,0.5c0.2,0.2,0.4,0.5,0.5,0.8s0.2,0.7,0.2,1.1v4.4c0,0.1,0,0.1-0.1,0.2
			s-0.1,0.1-0.2,0.1H107c-0.1,0-0.1,0-0.2-0.1s-0.1-0.1-0.1-0.2v-4.4c0-0.6-0.2-1-0.5-1.2s-0.8-0.4-1.3-0.4c-0.3,0-0.5,0-0.7,0.1
			s-0.4,0.2-0.6,0.3s-0.3,0.3-0.4,0.5s-0.1,0.4-0.1,0.6v4.5c0,0.1,0,0.1-0.1,0.2s-0.1,0.1-0.2,0.1h-0.3c-0.1,0-0.1,0-0.2-0.1
			s-0.1-0.1-0.1-0.2L102.3,486.7L102.3,486.7z M103.4,569.3c0-0.1,0-0.1,0.1-0.2c0.1-0.1,0.1-0.1,0.2-0.1h0.3c0.1,0,0.1,0,0.2,0.1
			s0.1,0.1,0.1,0.2v0.2c0,0.2,0,0.4,0.1,0.6s0.2,0.3,0.4,0.4c0.2,0.1,0.4,0.2,0.6,0.3s0.5,0.1,0.7,0.1c0.6,0,1-0.1,1.4-0.4
			s0.5-0.6,0.5-1c0-0.2-0.1-0.4-0.2-0.6c-0.1-0.1-0.3-0.3-0.4-0.4c-0.2-0.1-0.4-0.2-0.6-0.2s-0.5-0.1-0.7-0.1
			c-0.3-0.1-0.6-0.1-0.9-0.2c-0.3-0.1-0.6-0.2-0.8-0.3c-0.2-0.1-0.4-0.3-0.5-0.5s-0.2-0.5-0.2-0.8s0.1-0.5,0.2-0.8
			c0.1-0.2,0.3-0.4,0.5-0.6s0.5-0.3,0.8-0.4c0.3-0.1,0.6-0.1,0.9-0.1s0.6,0,0.9,0.1s0.5,0.2,0.8,0.4c0.2,0.2,0.4,0.4,0.5,0.7
			s0.2,0.6,0.2,0.9c0,0.1,0,0.2-0.1,0.2s-0.1,0.1-0.2,0.1H108c-0.1,0-0.1,0-0.2-0.1s-0.1-0.1-0.1-0.2c0-0.3-0.1-0.6-0.4-0.9
			s-0.7-0.4-1.2-0.4s-0.9,0.1-1.2,0.3s-0.4,0.4-0.4,0.7c0,0.2,0,0.3-0.1,0.4s-0.1,0.2-0.1,0.3c-0.1,0.1,0,0.1,0.2,0.2
			c0.2,0,0.4,0.1,0.5,0.1c0.3,0.1,0.6,0.1,0.9,0.2c0.3,0.1,0.7,0.2,1.2,0.4s0.9,0.4,1.2,0.7c0.3,0.3,0.5,0.7,0.5,1.1
			c0,0.3-0.1,0.6-0.2,0.8c-0.1,0.3-0.3,0.5-0.5,0.7s-0.5,0.4-0.9,0.5c-0.3,0.1-0.7,0.2-1.1,0.2s-0.7-0.1-1-0.2s-0.6-0.2-0.9-0.4
			s-0.5-0.4-0.6-0.7s-0.2-0.6-0.2-0.9C103.4,569.5,103.4,569.3,103.4,569.3z M109.7,491.9c0.1,0.2,0.2,0.3,0.4,0.4
			c0.2,0.1,0.4,0.2,0.6,0.3c0.2,0.1,0.5,0.1,0.7,0.1c0.6,0,1-0.1,1.4-0.4s0.5-0.6,0.5-1c0-0.2-0.1-0.4-0.2-0.6s-0.3-0.3-0.4-0.4
			s-0.4-0.2-0.6-0.2s-0.5-0.1-0.7-0.1c-0.3-0.1-0.6-0.1-0.9-0.2s-0.6-0.2-0.8-0.3c-0.2-0.1-0.4-0.3-0.5-0.5s-0.2-0.5-0.2-0.8
			s0.1-0.5,0.2-0.8c0.1-0.2,0.3-0.4,0.5-0.6s0.5-0.3,0.8-0.4s0.6-0.1,0.9-0.1s0.6,0,0.9,0.1s0.5,0.2,0.8,0.4
			c0.2,0.2,0.4,0.4,0.5,0.7s0.2,0.6,0.2,0.9c0,0.1,0,0.2-0.1,0.2s-0.1,0.1-0.2,0.1h-0.3c-0.1,0-0.1,0-0.2-0.1s-0.1-0.1-0.1-0.2
			c0-0.3-0.1-0.6-0.4-0.9s-0.7-0.4-1.2-0.4s-0.9,0.1-1.2,0.3s-0.4,0.4-0.4,0.7c0,0.2,0,0.3-0.1,0.4c0,0.1-0.1,0.2-0.1,0.3
			c-0.1,0.1,0,0.1,0.2,0.2c0.2,0,0.4,0.1,0.5,0.1c0.3,0.1,0.6,0.1,0.9,0.2s0.7,0.2,1.2,0.4s0.9,0.4,1.2,0.7c0.3,0.3,0.5,0.7,0.5,1.1
			c0,0.3-0.1,0.6-0.2,0.8c-0.1,0.3-0.3,0.5-0.5,0.7s-0.5,0.4-0.9,0.5c-0.3,0.1-0.7,0.2-1.1,0.2s-0.7-0.1-1-0.2s-0.6-0.2-0.9-0.4
			c-0.3-0.2-0.5-0.4-0.6-0.7c-0.1-0.3-0.2-0.6-0.2-0.9v-0.2c0-0.1,0-0.1,0.1-0.2s0.1-0.1,0.2-0.1h0.3c0.1,0,0.1,0,0.2,0.1
			s0.1,0.1,0.1,0.2v0.2C109.5,491.6,109.6,491.7,109.7,491.9z M103.6,654.4c0-0.1,0.1-0.1,0.2-0.1h0.4c0.1,0,0.2,0.1,0.3,0.2
			l2.3,8.3c0,0.1,0,0.1,0.1,0.1l0,0c0,0,0.1,0,0.1-0.1l2.3-8.3c0-0.1,0.1-0.2,0.3-0.2h0.4c0.1,0,0.2,0,0.2,0.1v0.1c0,0,0,0,0,0.1
			l-2.7,9.3c0,0.1-0.1,0.2-0.3,0.2h-0.8c-0.1,0-0.2-0.1-0.3-0.2l-2.7-9.2c0,0,0,0,0-0.1C103.6,654.5,103.6,654.5,103.6,654.4z
			 M110,570.5c-0.1-0.3-0.2-0.6-0.2-0.9v-0.2c0-0.1,0-0.1,0.1-0.2c0.1-0.1,0.1-0.1,0.2-0.1h0.3c0.1,0,0.1,0,0.2,0.1s0.1,0.1,0.1,0.2
			v0.2c0,0.2,0,0.4,0.1,0.6c0.1,0.2,0.2,0.3,0.4,0.4c0.2,0.1,0.4,0.2,0.6,0.3s0.5,0.1,0.7,0.1c0.6,0,1-0.1,1.4-0.4s0.5-0.6,0.5-1
			c0-0.2-0.1-0.4-0.2-0.6c-0.1-0.2-0.3-0.3-0.4-0.4s-0.4-0.2-0.6-0.2s-0.5-0.1-0.7-0.1c-0.3-0.1-0.6-0.1-0.9-0.2
			c-0.3-0.1-0.6-0.2-0.8-0.3c-0.2-0.1-0.4-0.3-0.5-0.5s-0.2-0.5-0.2-0.8s0.1-0.5,0.2-0.8c0.1-0.2,0.3-0.4,0.5-0.6
			c0.2-0.2,0.5-0.3,0.8-0.4c0.3-0.1,0.6-0.1,0.9-0.1s0.6,0,0.9,0.1s0.5,0.2,0.8,0.4c0.2,0.2,0.4,0.4,0.5,0.7
			c0.1,0.3,0.2,0.6,0.2,0.9c0,0.1,0,0.2-0.1,0.2s-0.1,0.1-0.2,0.1h-0.3c-0.1,0-0.1,0-0.2-0.1c-0.1-0.1-0.1-0.1-0.1-0.2
			c0-0.3-0.1-0.6-0.4-0.9c-0.3-0.3-0.7-0.4-1.2-0.4s-0.9,0.1-1.2,0.3s-0.4,0.4-0.4,0.7c0,0.2,0,0.3-0.1,0.4c0,0.1-0.1,0.2-0.1,0.3
			c-0.1,0.1,0,0.1,0.2,0.2c0.2,0,0.4,0.1,0.5,0.1c0.3,0.1,0.6,0.1,0.9,0.2s0.7,0.2,1.2,0.4s0.9,0.4,1.2,0.7c0.3,0.3,0.5,0.7,0.5,1.1
			c0,0.3-0.1,0.6-0.2,0.8c-0.1,0.3-0.3,0.5-0.5,0.7s-0.5,0.4-0.9,0.5c-0.3,0.1-0.7,0.2-1.1,0.2s-0.7-0.1-1-0.2
			c-0.3-0.1-0.6-0.2-0.9-0.4C110.3,571,110.1,570.7,110,570.5z M111.1,657.4c0-0.1,0-0.1,0.1-0.2c0.1-0.1,0.1-0.1,0.2-0.1h0.3
			c0.1,0,0.1,0,0.2,0.1s0.1,0.1,0.1,0.2v4.4c0,0.6,0.2,1,0.5,1.2s0.8,0.4,1.3,0.4c0.2,0,0.5,0,0.7-0.1c0.2-0.1,0.4-0.2,0.6-0.3
			s0.3-0.3,0.4-0.5c0.1-0.2,0.1-0.4,0.1-0.6v-4.5c0-0.1,0-0.1,0.1-0.2c0.1-0.1,0.1-0.1,0.2-0.1h0.3c0.1,0,0.1,0,0.2,0.1
			c0.1,0.1,0.1,0.1,0.1,0.2v6.4c0,0.1,0,0.1-0.1,0.2c-0.1,0.1-0.1,0.1-0.2,0.1H116c-0.1,0-0.1,0-0.2-0.1l-0.1-0.1
			c0-0.1-0.1-0.1-0.2-0.1s-0.2,0-0.3,0.1c-0.1,0.1-0.2,0.1-0.3,0.2c-0.1,0.1-0.3,0.1-0.4,0.2s-0.4,0.1-0.6,0.1c-0.4,0-0.7-0.1-1-0.2
			c-0.3-0.1-0.6-0.3-0.8-0.5s-0.4-0.5-0.5-0.8s-0.2-0.7-0.2-1.1L111.1,657.4L111.1,657.4z M118.9,153.4h3.5c0.1,0,0.1,0,0.2,0.1
			c0.1,0.1,0.1,0.1,0.1,0.2v0.3c0,0.1,0,0.1-0.1,0.2c-0.1,0.1-0.1,0.1-0.2,0.1h-3.5c-0.1,0-0.1,0-0.1,0.1v3.4c0,0.1,0,0.1,0.1,0.1
			h3.7c0.1,0,0.1,0,0.2,0.1s0.1,0.1,0.1,0.2v0.3c0,0.1,0,0.1-0.1,0.2s-0.1,0.1-0.2,0.1h-4.4c-0.1,0-0.1,0-0.2-0.1s-0.1-0.1-0.1-0.2
			v-9.2c0-0.1,0-0.1,0.1-0.2c0.1-0.1,0.1-0.1,0.2-0.1h4.4c0.1,0,0.1,0,0.2,0.1c0.1,0.1,0.1,0.1,0.1,0.2v0.3c0,0.1,0,0.1-0.1,0.2
			c-0.1,0.1-0.1,0.1-0.2,0.1H119c-0.1,0-0.1,0-0.1,0.1v3.2C118.7,153.3,118.8,153.4,118.9,153.4z M128,158.8c-0.3,0.1-0.7,0.2-1,0.2
			c-0.2,0-0.4,0-0.6-0.1s-0.3-0.1-0.4-0.1c-0.1,0-0.2-0.1-0.3-0.1c-0.1,0-0.2-0.1-0.2-0.1c-0.1,0-0.2,0-0.2,0.1
			c-0.1,0.1-0.1,0.1-0.1,0.3v2.4c0,0.1,0,0.1-0.1,0.2c-0.1,0.1-0.1,0.1-0.2,0.1h-0.3c-0.1,0-0.1,0-0.2-0.1s-0.1-0.1-0.1-0.2v-9.2
			c0-0.1,0-0.1,0.1-0.2c0.1-0.1,0.1-0.1,0.2-0.1h0.2c0.1,0,0.1,0,0.2,0.1c0,0,0.1,0.1,0.2,0.1c0.1,0.1,0.1,0.1,0.2,0.1
			c0.1,0,0.2,0,0.3-0.1s0.2-0.1,0.3-0.2c0.1-0.1,0.2-0.1,0.4-0.2c0.2-0.1,0.4-0.1,0.6-0.1c0.4,0,0.7,0.1,1,0.2
			c0.3,0.1,0.6,0.3,0.8,0.6c0.2,0.2,0.4,0.5,0.6,0.8c0.1,0.3,0.2,0.7,0.3,1c0,0.3,0,0.6,0,1s0,0.7,0,1c0,0.4-0.1,0.7-0.3,1
			c-0.1,0.3-0.3,0.6-0.6,0.8C128.6,158.4,128.4,158.6,128,158.8z M77.8,484.5c0.3,0.3,0.5,0.5,0.6,0.9c0.2,0.3,0.3,0.7,0.3,1.1
			c0,0.3,0.1,0.6,0.1,1s0,0.7,0,1.1s0,0.8,0,1.1c0,0.4,0,0.7-0.1,1c-0.1,0.9-0.5,1.6-1,2.1c-0.6,0.5-1.2,0.7-2.1,0.7h-2.5
			c-0.1,0-0.1,0-0.2-0.1s-0.1-0.1-0.1-0.2V484c0-0.1,0-0.1,0.1-0.2s0.1-0.1,0.2-0.1h2.5c0.5,0,0.9,0.1,1.2,0.2
			C77.3,484,77.6,484.2,77.8,484.5z M77.7,278.4c-0.1,0.3-0.3,0.6-0.6,0.8c-0.2,0.2-0.5,0.4-0.9,0.6s-0.7,0.2-1.1,0.2
			s-0.8-0.1-1.1-0.2s-0.6-0.3-0.9-0.6s-0.4-0.5-0.6-0.8s-0.2-0.7-0.3-1c0-0.3,0-0.6,0-1s0-0.7,0-1c0-0.4,0.1-0.7,0.3-1
			s0.3-0.6,0.6-0.8s0.5-0.4,0.9-0.6s0.7-0.2,1.1-0.2s0.8,0.1,1.1,0.2s0.6,0.3,0.9,0.6c0.2,0.2,0.4,0.5,0.6,0.8
			c0.1,0.3,0.2,0.7,0.3,1c0,0.3,0,0.6,0,1s0,0.7,0,1C77.9,277.8,77.8,278.1,77.7,278.4z M71.4,273.2L71.4,273.2l-2.5,6.5
			c-0.1,0.1-0.1,0.2-0.3,0.2h-0.7c-0.1,0-0.2-0.1-0.3-0.2l-2.5-6.5v-0.1V273c0-0.1,0.1-0.1,0.2-0.1h0.4c0.1,0,0.2,0.1,0.3,0.2
			l2.1,5.7c0,0.1,0.1,0.1,0.1,0.1s0.1,0,0.1-0.1l2.1-5.7c0-0.1,0.1-0.2,0.3-0.2h0.4c0.1,0,0.2,0,0.2,0.1
			C71.4,273.1,71.4,273.1,71.4,273.2z M62.8,274c-0.3-0.3-0.7-0.4-1.2-0.4c-0.2,0-0.4,0-0.6,0.1s-0.4,0.1-0.5,0.2s-0.3,0.2-0.4,0.4
			c-0.1,0.1-0.1,0.3-0.1,0.5c0,0.1,0,0.2-0.1,0.2s-0.1,0-0.2,0h-0.2c-0.2,0-0.3-0.1-0.3-0.3c0-0.3,0.1-0.6,0.2-0.9
			c0.1-0.2,0.3-0.4,0.6-0.6c0.2-0.2,0.5-0.3,0.8-0.4s0.6-0.1,0.9-0.1s0.7,0,1,0.1s0.6,0.2,0.8,0.4c0.2,0.2,0.4,0.4,0.5,0.7
			c0.1,0.3,0.2,0.6,0.2,1v4.5c0,0.1,0,0.1-0.1,0.2s-0.1,0.1-0.2,0.1h-0.1c-0.1,0-0.2,0-0.2-0.1s-0.1-0.1-0.1-0.2s-0.1-0.1-0.2-0.1
			s-0.1,0-0.2,0.1s-0.2,0.1-0.4,0.2s-0.3,0.1-0.5,0.2s-0.4,0.1-0.7,0.1c-0.4,0-0.8-0.1-1.1-0.2c-0.3-0.1-0.6-0.3-0.8-0.5
			s-0.4-0.4-0.5-0.7c-0.1-0.3-0.2-0.6-0.2-0.9s0.1-0.6,0.2-0.8c0.1-0.3,0.3-0.5,0.4-0.7c0.2-0.2,0.4-0.3,0.7-0.4
			c0.3-0.1,0.6-0.2,1-0.2h2c0.1,0,0.1,0,0.1-0.1v-0.5C63.3,274.6,63.1,274.3,62.8,274z M56.3,274.1c-0.3-0.3-0.7-0.5-1.2-0.5
			c-0.2,0-0.5,0-0.7,0.1s-0.4,0.2-0.5,0.3c-0.1,0.1-0.3,0.3-0.3,0.5c-0.1,0.2-0.1,0.4-0.1,0.6v4.5c0,0.1,0,0.1-0.1,0.2
			s-0.1,0.1-0.2,0.1h-0.3c-0.1,0-0.1,0-0.2-0.1s-0.1-0.1-0.1-0.2v-9.3c0-0.1,0-0.1,0.1-0.2s0.1-0.1,0.2-0.1h0.3c0.1,0,0.1,0,0.2,0.1
			s0.1,0.1,0.1,0.2v2.5c0,0.1,0,0.1,0.1,0.2s0.1,0.1,0.2,0.1s0.1,0,0.2-0.1c0.1,0,0.2-0.1,0.3-0.1s0.3-0.1,0.4-0.1
			c0.2,0,0.3-0.1,0.5-0.1c0.4,0,0.7,0.1,1,0.2s0.6,0.3,0.8,0.5c0.2,0.2,0.4,0.5,0.5,0.8s0.2,0.6,0.2,0.9v4.4c0,0.1,0,0.1-0.1,0.2
			s-0.1,0.1-0.2,0.1h-0.3c-0.1,0-0.1,0-0.2-0.1s-0.1-0.1-0.1-0.2v-4.4C56.7,274.7,56.6,274.4,56.3,274.1z M49.9,272.2
			c-0.1-0.2-0.2-0.5-0.4-0.6c-0.2-0.2-0.4-0.3-0.7-0.4s-0.6-0.2-0.9-0.2s-0.6,0.1-0.9,0.2s-0.5,0.3-0.6,0.5
			c-0.2,0.2-0.3,0.4-0.4,0.7c-0.1,0.2-0.2,0.5-0.2,0.7c0,0.3-0.1,0.6-0.1,1s0,0.7,0,1.1s0,0.8,0,1.1c0,0.4,0.1,0.7,0.1,1
			c0,0.2,0.1,0.4,0.2,0.7c0.1,0.2,0.2,0.5,0.4,0.7s0.4,0.4,0.6,0.5s0.6,0.2,1,0.2s0.7-0.1,1-0.2s0.5-0.3,0.7-0.5s0.3-0.4,0.4-0.7
			c0.1-0.2,0.1-0.5,0.1-0.7v-0.1c0-0.1,0-0.1,0.1-0.2s0.1-0.1,0.2-0.1h0.4c0.1,0,0.1,0,0.2,0.1s0.1,0.1,0.1,0.2v0.1
			c0,0.5-0.1,0.9-0.3,1.2s-0.4,0.7-0.7,0.9c-0.3,0.3-0.6,0.4-1,0.6c-0.4,0.1-0.8,0.2-1.2,0.2c-0.8,0-1.6-0.3-2.1-0.8
			c-0.6-0.5-0.9-1.2-1-2.1c0-0.3-0.1-0.6-0.1-1s0-0.7,0-1.1s0-0.8,0-1.1c0-0.4,0-0.7,0.1-1c0.1-0.4,0.2-0.8,0.3-1.1
			c0.2-0.4,0.4-0.7,0.6-0.9c0.3-0.3,0.6-0.5,0.9-0.6s0.8-0.2,1.2-0.2c0.5,0,0.9,0.1,1.3,0.2c0.4,0.2,0.7,0.4,1,0.6
			c0.3,0.3,0.5,0.6,0.6,0.9s0.2,0.7,0.2,1.1v0.1c0,0.1,0,0.1-0.1,0.2s-0.1,0.1-0.2,0.1h-0.4c-0.1,0-0.1,0-0.2-0.1s-0.1-0.1-0.1-0.2
			v-0.1C50,272.7,50,272.4,49.9,272.2z M148.5,662.9c-0.1,0.3-0.3,0.5-0.5,0.7s-0.5,0.4-0.9,0.5c-0.3,0.1-0.7,0.2-1.1,0.2
			s-0.7-0.1-1-0.2c-0.3-0.1-0.6-0.2-0.9-0.4c-0.3-0.2-0.5-0.4-0.6-0.7s-0.2-0.6-0.2-0.9v-0.3c0-0.1,0-0.1,0.1-0.2
			c0.1-0.1,0.1-0.1,0.2-0.1h0.3c0.1,0,0.1,0,0.2,0.1c0.1,0.1,0.1,0.1,0.1,0.2v0.2c0,0.2,0,0.4,0.1,0.6c0.1,0.2,0.2,0.3,0.4,0.4
			s0.4,0.2,0.6,0.3c0.2,0.1,0.5,0.1,0.7,0.1c0.6,0,1-0.1,1.4-0.4c0.3-0.3,0.5-0.6,0.5-1c0-0.2-0.1-0.4-0.2-0.6
			c-0.1-0.2-0.3-0.3-0.4-0.4c-0.1-0.1-0.4-0.2-0.6-0.2c-0.2-0.1-0.5-0.1-0.7-0.1c-0.3-0.1-0.6-0.1-0.9-0.2c-0.3-0.1-0.6-0.2-0.8-0.3
			c-0.2-0.1-0.4-0.3-0.5-0.5c-0.1-0.2-0.2-0.5-0.2-0.8s0.1-0.5,0.2-0.8c0.1-0.2,0.3-0.4,0.5-0.6c0.2-0.2,0.5-0.3,0.8-0.4
			c0.3-0.1,0.6-0.1,0.9-0.1c0.3,0,0.6,0,0.9,0.1s0.5,0.2,0.8,0.4c0.2,0.2,0.4,0.4,0.5,0.7c0.1,0.3,0.2,0.6,0.2,0.9
			c0,0.1,0,0.2-0.1,0.2c-0.1,0-0.1,0.1-0.2,0.1h-0.3c-0.1,0-0.1,0-0.2-0.1c-0.1-0.1-0.1-0.1-0.1-0.2c0-0.3-0.1-0.6-0.4-0.9
			c-0.3-0.3-0.7-0.4-1.2-0.4s-0.9,0.1-1.2,0.3s-0.4,0.4-0.4,0.7c0,0.2,0,0.3-0.1,0.4c0,0.1-0.1,0.2-0.1,0.3c-0.1,0.1,0,0.1,0.2,0.2
			c0.2,0,0.4,0.1,0.5,0.1c0.3,0.1,0.6,0.1,0.9,0.2s0.7,0.2,1.2,0.4s0.9,0.4,1.2,0.7c0.3,0.3,0.5,0.7,0.5,1.1
			C148.7,662.3,148.7,662.6,148.5,662.9z M149.2,158.7c0,0-0.1-0.1-0.2-0.1c-0.1-0.1-0.1-0.1-0.2-0.1c-0.1,0-0.2,0-0.3,0.1
			c-0.1,0-0.2,0.1-0.3,0.2c-0.1,0.1-0.2,0.1-0.4,0.2s-0.4,0.1-0.6,0.1c-0.4,0-0.7-0.1-1-0.2c-0.3-0.1-0.6-0.3-0.8-0.6
			c-0.2-0.3-0.4-0.5-0.6-0.8s-0.2-0.7-0.3-1c0-0.3,0-0.6,0-1s0-0.7,0-1c0-0.4,0.1-0.7,0.3-1s0.3-0.6,0.6-0.8
			c0.3-0.2,0.5-0.4,0.8-0.6c0.3-0.1,0.6-0.2,1-0.2c0.2,0,0.4,0,0.6,0.1s0.3,0.1,0.4,0.1c0.1,0,0.2,0.1,0.3,0.1s0.1,0.1,0.2,0.1
			c0.1,0,0.2,0,0.3-0.1s0.1-0.1,0.1-0.3v-2.5c0-0.1,0-0.1,0.1-0.2c0.1-0.1,0.1-0.1,0.2-0.1h0.3c0.1,0,0.1,0,0.2,0.1
			c0.1,0.1,0.1,0.1,0.1,0.2v9.3c0,0.1,0,0.1-0.1,0.2c-0.1,0.1-0.1,0.1-0.2,0.1h-0.2C149.4,158.8,149.3,158.8,149.2,158.7z
			 M155.2,796.7c-0.2,0.4-0.4,0.7-0.7,0.9c-0.3,0.3-0.6,0.4-1,0.6c-0.4,0.1-0.7,0.2-1.1,0.2c-0.4,0-0.9-0.1-1.2-0.2s-0.7-0.4-1-0.6
			c-0.3-0.3-0.5-0.6-0.6-0.9c-0.1-0.3-0.2-0.7-0.2-1.1v-0.2c0-0.1,0-0.1,0.1-0.2c0.1-0.1,0.1-0.1,0.2-0.1h0.4c0.1,0,0.1,0,0.2,0.1
			c0.1,0.1,0.1,0.1,0.1,0.2v0.2c0,0.2,0,0.5,0.1,0.7s0.2,0.5,0.4,0.7c0.2,0.2,0.4,0.3,0.7,0.5c0.3,0.1,0.6,0.2,0.9,0.2
			c0.6,0,1.1-0.2,1.5-0.6s0.6-0.9,0.6-1.5c0-0.3-0.1-0.6-0.2-0.8c-0.1-0.2-0.3-0.4-0.5-0.6c-0.2-0.2-0.5-0.3-0.8-0.4
			c-0.3-0.1-0.7-0.2-1.1-0.3c-0.2-0.1-0.5-0.1-0.8-0.2c-0.3-0.1-0.5-0.3-0.8-0.4c-0.3-0.1-0.4-0.4-0.6-0.7c-0.1-0.3-0.2-0.6-0.2-1
			s0.1-0.8,0.2-1.1c0.1-0.3,0.4-0.6,0.6-0.8c0.3-0.2,0.5-0.4,0.9-0.5c0.3-0.1,0.7-0.2,1-0.2c0.4,0,0.8,0.1,1.1,0.2
			c0.3,0.1,0.6,0.3,0.9,0.6c0.2,0.2,0.4,0.5,0.5,0.8c0.1,0.3,0.2,0.7,0.2,1v0.2c0,0.1,0,0.1-0.1,0.2c-0.1,0.1-0.1,0.1-0.2,0.1h-0.3
			c-0.1,0-0.1,0-0.2-0.1c-0.1-0.1-0.1-0.1-0.1-0.2v-0.2c0-0.3,0-0.5-0.1-0.7s-0.2-0.4-0.4-0.5c-0.2-0.2-0.4-0.3-0.6-0.4
			c-0.2-0.1-0.5-0.1-0.7-0.1c-0.3,0-0.6,0-0.8,0.1s-0.4,0.2-0.6,0.4c-0.1,0.2-0.3,0.4-0.3,0.6c-0.1,0.2-0.1,0.4-0.1,0.6
			c0,0.3,0.1,0.6,0.2,0.8c0.1,0.2,0.3,0.3,0.6,0.4c0.2,0.1,0.5,0.2,0.7,0.3s0.5,0.1,0.8,0.2c0.4,0.1,0.7,0.2,1,0.4
			c0.3,0.1,0.6,0.3,0.8,0.5c0.2,0.2,0.4,0.5,0.5,0.8c0.1,0.3,0.2,0.7,0.2,1.1C155.5,795.9,155.4,796.3,155.2,796.7z M160.7,798
			c0,0.1,0,0.1-0.1,0.2c-0.1,0.1-0.1,0.1-0.2,0.1h-0.7c-0.7,0-1.3-0.2-1.6-0.5c-0.3-0.3-0.5-0.9-0.5-1.7v-3.7c0-0.1,0-0.1-0.1-0.1
			h-1.1c-0.1,0-0.1,0-0.2-0.1s-0.1-0.1-0.1-0.2v-0.3c0-0.1,0-0.1,0.1-0.2c0.1-0.1,0.1-0.1,0.2-0.1h1.1c0.1,0,0.1,0,0.1-0.1v-2.2
			c0-0.1,0-0.1,0.1-0.2c0.1-0.1,0.1-0.1,0.2-0.1h0.3c0.1,0,0.1,0,0.2,0.1c0.1,0.1,0.1,0.1,0.1,0.2v2.2c0,0.1,0,0.1,0.1,0.1h1.8
			c0.1,0,0.1,0,0.2,0.1c0.1,0.1,0.1,0.1,0.1,0.2v0.3c0,0.1,0,0.1-0.1,0.2c-0.1,0.1-0.1,0.1-0.2,0.1h-1.8c-0.1,0-0.1,0-0.1,0.1v3.7
			c0,0.5,0.1,0.9,0.3,1.1c0.2,0.2,0.5,0.4,1,0.4h0.7c0.1,0,0.1,0,0.2,0.1c0.1,0.1,0.1,0.1,0.1,0.2L160.7,798L160.7,798z M160.2,664
			c-0.3-0.1-0.6-0.3-0.8-0.5c-0.2-0.2-0.4-0.4-0.5-0.7c-0.1-0.3-0.2-0.6-0.2-0.9c0-0.3,0.1-0.6,0.2-0.8c0.1-0.3,0.3-0.5,0.4-0.7
			c0.2-0.2,0.4-0.3,0.7-0.4c0.3-0.1,0.6-0.2,1-0.2h2c0.1,0,0.1,0,0.1-0.1v-0.5c0-0.4-0.2-0.8-0.5-1.1s-0.7-0.4-1.2-0.4
			c-0.2,0-0.4,0-0.6,0.1s-0.4,0.1-0.5,0.2c-0.1,0.1-0.3,0.2-0.4,0.4c-0.1,0.2-0.1,0.3-0.1,0.5c0,0.1,0,0.2-0.1,0.2
			c-0.1,0-0.1,0-0.2,0h-0.2c-0.2,0-0.3-0.1-0.3-0.3c0-0.3,0.1-0.6,0.2-0.9c0.1-0.3,0.3-0.4,0.6-0.6s0.5-0.3,0.8-0.4
			c0.3-0.1,0.6-0.1,0.9-0.1s0.7,0,1,0.1s0.6,0.2,0.8,0.4s0.4,0.4,0.5,0.7c0.1,0.3,0.2,0.6,0.2,1v4.5c0,0.1,0,0.1-0.1,0.2
			c-0.1,0.1-0.1,0.1-0.2,0.1h-0.1c-0.1,0-0.2,0-0.2-0.1s-0.1-0.1-0.1-0.2c0-0.1-0.1-0.1-0.2-0.1c-0.1,0-0.1,0-0.2,0.1
			c-0.1,0.1-0.2,0.1-0.4,0.2s-0.3,0.1-0.5,0.2c-0.2,0.1-0.4,0.1-0.7,0.1C160.9,664.2,160.5,664.2,160.2,664z M166.3,794.8
			c0,0.1,0,0.1-0.1,0.2c-0.1,0.1-0.1,0.1-0.2,0.1h-3.8c-0.1,0-0.1,0-0.2-0.1s-0.1-0.1-0.1-0.2v-0.5c0-0.1,0-0.1,0.1-0.2
			c0.1-0.1,0.1-0.1,0.2-0.1h3.8c0.1,0,0.1,0,0.2,0.1c0.1,0.1,0.1,0.1,0.1,0.2V794.8z M173.5,796.7c-0.2,0.4-0.4,0.7-0.7,0.9
			c-0.3,0.3-0.6,0.4-1,0.6c-0.4,0.1-0.7,0.2-1.1,0.2c-0.4,0-0.9-0.1-1.2-0.2s-0.7-0.4-1-0.6c-0.3-0.3-0.5-0.6-0.6-0.9
			c-0.1-0.4-0.2-0.7-0.2-1.1v-0.2c0-0.1,0-0.1,0.1-0.2c0.1-0.1,0.1-0.1,0.2-0.1h0.4c0.1,0,0.1,0,0.2,0.1c0.1,0.1,0.1,0.1,0.1,0.2
			v0.2c0,0.2,0,0.5,0.1,0.7c0.1,0.2,0.2,0.5,0.4,0.7s0.4,0.3,0.7,0.5c0.3,0.1,0.6,0.2,0.9,0.2c0.6,0,1.2-0.2,1.5-0.6
			c0.4-0.4,0.6-0.9,0.6-1.5c0-0.3-0.1-0.6-0.2-0.8c-0.1-0.2-0.3-0.4-0.5-0.6s-0.5-0.3-0.8-0.4c-0.3-0.1-0.7-0.2-1.1-0.3
			c-0.3-0.1-0.5-0.1-0.8-0.2c-0.3-0.1-0.5-0.3-0.8-0.4s-0.4-0.4-0.6-0.7c-0.1-0.3-0.2-0.6-0.2-1s0.1-0.8,0.2-1.1
			c0.1-0.3,0.4-0.6,0.6-0.8c0.3-0.2,0.5-0.4,0.9-0.5c0.3-0.1,0.7-0.2,1-0.2c0.4,0,0.8,0.1,1.1,0.2c0.3,0.1,0.6,0.3,0.9,0.6
			c0.2,0.2,0.4,0.5,0.5,0.8c0.1,0.3,0.2,0.7,0.2,1v0.2c0,0.1,0,0.1-0.1,0.2c-0.1,0.1-0.1,0.1-0.2,0.1h-0.3c-0.1,0-0.1,0-0.2-0.1
			s-0.1-0.1-0.1-0.2v-0.2c0-0.3,0-0.5-0.1-0.7c-0.1-0.2-0.2-0.4-0.4-0.5c-0.2-0.2-0.4-0.3-0.6-0.4c-0.2-0.1-0.5-0.1-0.7-0.1
			c-0.3,0-0.6,0-0.8,0.1s-0.4,0.2-0.6,0.4s-0.3,0.4-0.3,0.6c-0.1,0.2-0.1,0.4-0.1,0.6c0,0.3,0.1,0.6,0.2,0.8s0.3,0.3,0.6,0.4
			c0.3,0.1,0.5,0.2,0.7,0.3c0.3,0.1,0.5,0.1,0.8,0.2c0.4,0.1,0.7,0.2,1,0.4c0.3,0.1,0.6,0.3,0.8,0.5c0.2,0.2,0.4,0.5,0.5,0.8
			c0.1,0.3,0.2,0.7,0.2,1.1C173.8,795.9,173.7,796.3,173.5,796.7z M174.1,663.9l-2.7-9.2c0,0,0,0,0-0.1c0,0,0-0.1,0-0.2
			c0-0.1,0.1-0.1,0.2-0.1h0.4c0.1,0,0.2,0.1,0.3,0.2l2.3,8.3c0,0.1,0,0.1,0.1,0.1l0,0c0,0,0.1,0,0.1-0.1l2.3-8.3
			c0-0.1,0.1-0.2,0.3-0.2h0.4c0.1,0,0.2,0,0.2,0.1v0.1c0,0,0,0,0,0.1l-2.7,9.3c0,0.1-0.1,0.2-0.3,0.2h-0.8
			C174.2,664.1,174.1,664,174.1,663.9z M180.2,798c0,0.1,0,0.1-0.1,0.2c-0.1,0.1-0.1,0.1-0.2,0.1h-0.2c-0.1,0-0.1,0-0.2-0.1
			l-0.1-0.1c0-0.1-0.1-0.1-0.2-0.1c-0.1,0-0.2,0-0.3,0.1c-0.1,0-0.2,0.1-0.3,0.2c-0.1,0.1-0.3,0.1-0.4,0.2c-0.1,0.1-0.4,0.1-0.6,0.1
			c-0.4,0-0.7-0.1-1-0.2c-0.3-0.1-0.6-0.3-0.8-0.5s-0.4-0.5-0.5-0.8c-0.1-0.3-0.2-0.7-0.2-1.1v-4.4c0-0.1,0-0.1,0.1-0.2
			c0.1-0.1,0.1-0.1,0.2-0.1h0.3c0.1,0,0.1,0,0.2,0.1c0.1,0.1,0.1,0.1,0.1,0.2v4.4c0,0.6,0.2,1,0.5,1.2s0.8,0.4,1.3,0.4
			c0.2,0,0.5,0,0.7-0.1s0.4-0.2,0.6-0.3c0.2-0.1,0.3-0.3,0.4-0.5s0.1-0.4,0.1-0.6v-4.5c0-0.1,0-0.1,0.1-0.2c0.1-0.1,0.1-0.1,0.2-0.1
			h0.1c0.1,0,0.1,0,0.2,0.1c0.1,0.1,0.1,0.1,0.1,0.2L180.2,798L180.2,798z M179.3,663.8v-6.4c0-0.1,0-0.1,0.1-0.2
			c0-0.1,0.1-0.1,0.2-0.1h0.3c0.1,0,0.2,0,0.2,0.1s0.1,0.1,0.1,0.2v6.4c0,0.1,0,0.1-0.1,0.2c0,0.1-0.1,0.1-0.2,0.1h-0.3
			c-0.1,0-0.2,0-0.2-0.1C179.3,663.9,179.3,663.9,179.3,663.8z M180.3,655.2c0,0.2-0.1,0.2-0.2,0.2h-0.8c-0.1,0-0.2-0.1-0.2-0.2
			v-0.7c0-0.1,0-0.1,0.1-0.2c0,0,0.1-0.1,0.2-0.1h0.7c0.1,0,0.1,0,0.2,0.1c0,0,0.1,0.1,0.1,0.2L180.3,655.2L180.3,655.2z M182.6,798
			c0,0.1,0,0.1-0.1,0.2c-0.1,0.1-0.1,0.1-0.2,0.1h-0.2c-0.1,0-0.1,0-0.2-0.1c-0.1-0.1-0.1-0.1-0.1-0.2v-9.3c0-0.1,0-0.1,0.1-0.2
			c0.1-0.1,0.1-0.1,0.2-0.1h0.3c0.1,0,0.1,0,0.2,0.1c0.1,0.1,0.1,0.1,0.1,0.2L182.6,798L182.6,798z M182.9,663.8
			c0,0.1,0,0.1-0.1,0.2c-0.1,0.1-0.1,0.1-0.2,0.1h-0.2c-0.1,0-0.1,0-0.2-0.1c-0.1-0.1-0.1-0.1-0.1-0.2v-9.3c0-0.1,0-0.1,0.1-0.2
			c0.1-0.1,0.1-0.1,0.2-0.1h0.3c0.1,0,0.1,0,0.2,0.1c0.1,0.1,0.1,0.1,0.1,0.2v9.3H182.9z M189.7,795.8c0,0.4-0.1,0.7-0.3,1
			c-0.1,0.3-0.3,0.6-0.6,0.8c-0.2,0.2-0.5,0.4-0.8,0.6c-0.3,0.1-0.6,0.2-1,0.2c-0.2,0-0.4,0-0.6-0.1c-0.2-0.1-0.3-0.1-0.4-0.1
			s-0.2-0.1-0.3-0.1c-0.1,0-0.2-0.1-0.2-0.1c-0.1,0-0.2,0-0.2,0.1c-0.1,0.1-0.1,0.1-0.1,0.3v2.4c0,0.1,0,0.1-0.1,0.2
			c-0.1,0.1-0.1,0.1-0.2,0.1h-0.2c-0.1,0-0.1,0-0.2-0.1s-0.1-0.1-0.1-0.2v-9.2c0-0.1,0-0.1,0.1-0.2c0.1-0.1,0.1-0.1,0.2-0.1h0.2
			c0.1,0,0.1,0,0.2,0.1c0,0,0.1,0.1,0.2,0.1c0.1,0.1,0.1,0.1,0.2,0.1s0.2,0,0.3-0.1c0.1-0.1,0.2-0.1,0.3-0.2
			c0.1-0.1,0.2-0.1,0.4-0.2s0.4-0.1,0.6-0.1c0.4,0,0.7,0.1,1,0.2c0.3,0.1,0.6,0.3,0.8,0.6c0.2,0.2,0.4,0.5,0.6,0.8
			c0.1,0.3,0.2,0.7,0.3,1c0,0.3,0,0.6,0,1S189.7,795.5,189.7,795.8z M192.3,798c0,0.1,0,0.1-0.1,0.2c0,0.1-0.1,0.1-0.2,0.1h-0.3
			c-0.1,0-0.2,0-0.2-0.1s-0.1-0.1-0.1-0.2v-6.4c0-0.1,0-0.1,0.1-0.2c0-0.1,0.1-0.1,0.2-0.1h0.3c0.1,0,0.2,0,0.2,0.1s0.1,0.1,0.1,0.2
			V798L192.3,798z M192.5,789.3c0,0.2-0.1,0.2-0.2,0.2h-0.7c-0.1,0-0.2-0.1-0.2-0.2v-0.7c0-0.1,0-0.1,0.1-0.2c0,0,0.1-0.1,0.2-0.1
			h0.7c0.1,0,0.1,0,0.2,0.1c0,0,0.1,0.1,0.1,0.2L192.5,789.3L192.5,789.3z M192.8,660.6c0,0.1,0,0.1-0.1,0.2
			c-0.1,0.1-0.1,0.1-0.2,0.1h-4.4c-0.1,0-0.1,0-0.1,0.1c0,0.3,0,0.6,0.1,0.9c0.1,0.3,0.2,0.5,0.4,0.7s0.4,0.4,0.6,0.5
			c0.2,0.1,0.6,0.2,0.9,0.2s0.5,0,0.7-0.1s0.4-0.2,0.5-0.3c0.2-0.1,0.3-0.3,0.4-0.4c0.1-0.2,0.2-0.3,0.2-0.5c0-0.1,0.1-0.2,0.1-0.2
			c0.1,0,0.1-0.1,0.2-0.1h0.3c0.1,0,0.1,0,0.2,0.1c0.1,0,0.1,0.1,0.1,0.2c0,0.3-0.1,0.6-0.3,0.9c-0.1,0.3-0.3,0.5-0.6,0.7
			c-0.2,0.2-0.5,0.3-0.8,0.4c-0.3,0.1-0.7,0.2-1,0.2c-0.4,0-0.8-0.1-1.1-0.2c-0.3-0.1-0.6-0.3-0.9-0.6c-0.2-0.2-0.4-0.5-0.6-0.8
			c-0.1-0.3-0.2-0.7-0.3-1c0-0.3,0-0.6,0-1s0-0.7,0-1c0-0.4,0.1-0.7,0.3-1c0.1-0.3,0.3-0.6,0.6-0.8c0.2-0.2,0.5-0.4,0.9-0.6
			c0.3-0.1,0.7-0.2,1.1-0.2s0.8,0.1,1.1,0.2c0.3,0.1,0.6,0.3,0.9,0.6s0.4,0.5,0.6,0.9c0.1,0.3,0.2,0.7,0.2,1.1V660.6L192.8,660.6z
			 M194.9,795.8c0,0.2,0.1,0.4,0.1,0.6c0.1,0.2,0.2,0.4,0.3,0.6c0.2,0.2,0.4,0.3,0.6,0.5c0.2,0.1,0.5,0.2,0.9,0.2
			c0.3,0,0.6,0,0.8-0.1c0.2-0.1,0.4-0.2,0.6-0.4c0.1-0.2,0.3-0.3,0.3-0.5c0.1-0.2,0.1-0.4,0.1-0.6c0-0.1,0-0.2,0.1-0.2
			c0.1,0,0.1-0.1,0.2-0.1h0.3c0.1,0,0.1,0,0.2,0.1c0.1,0.1,0.1,0.1,0.1,0.2c0,0.3-0.1,0.6-0.2,0.9c-0.1,0.3-0.3,0.5-0.5,0.8
			c-0.2,0.2-0.5,0.4-0.8,0.5s-0.7,0.2-1.1,0.2c-0.4,0-0.8-0.1-1.1-0.2c-0.3-0.1-0.6-0.3-0.9-0.6c-0.3-0.3-0.4-0.5-0.6-0.8
			s-0.2-0.7-0.3-1c0-0.3,0-0.6,0-1s0-0.7,0-1c0-0.4,0.1-0.7,0.3-1c0.1-0.3,0.3-0.6,0.6-0.8c0.3-0.2,0.5-0.4,0.9-0.6
			c0.3-0.1,0.7-0.2,1.1-0.2c0.4,0,0.7,0.1,1.1,0.2c0.3,0.1,0.6,0.3,0.8,0.5s0.4,0.5,0.5,0.8c0.1,0.3,0.2,0.6,0.2,0.9
			c0,0.1,0,0.1-0.1,0.2c-0.1,0.1-0.1,0.1-0.2,0.1h-0.3c-0.1,0-0.1,0-0.2-0.1c-0.1,0-0.1-0.1-0.1-0.2c0-0.2,0-0.4-0.1-0.6
			s-0.2-0.4-0.3-0.5c-0.1-0.1-0.3-0.3-0.6-0.4c-0.2-0.1-0.5-0.1-0.8-0.1c-0.4,0-0.7,0.1-0.9,0.2c-0.2,0.1-0.4,0.3-0.6,0.5
			s-0.3,0.4-0.3,0.6c-0.1,0.2-0.1,0.4-0.1,0.6c0,0.3,0,0.6,0,1S194.8,795.5,194.9,795.8z M206.3,794.8c0,0.1,0,0.1-0.1,0.2
			c-0.1,0.1-0.1,0.1-0.2,0.1h-4.4c-0.1,0-0.1,0-0.1,0.1c0,0.3,0,0.6,0.1,0.9c0.1,0.3,0.2,0.5,0.4,0.7s0.4,0.4,0.6,0.5
			c0.2,0.1,0.6,0.2,0.9,0.2s0.5,0,0.7-0.1s0.4-0.2,0.5-0.3c0.2-0.1,0.3-0.3,0.4-0.4c0.1-0.2,0.2-0.3,0.2-0.5c0-0.1,0.1-0.2,0.1-0.2
			c0.1,0,0.1-0.1,0.2-0.1h0.4c0.1,0,0.1,0,0.2,0.1c0.1,0,0.1,0.1,0.1,0.2c0,0.3-0.1,0.6-0.3,0.9c-0.1,0.3-0.3,0.5-0.6,0.7
			c-0.2,0.2-0.5,0.3-0.8,0.4c-0.3,0.1-0.7,0.2-1,0.2c-0.4,0-0.8-0.1-1.1-0.2c-0.3-0.1-0.6-0.3-0.9-0.6c-0.2-0.2-0.4-0.5-0.6-0.8
			c-0.1-0.3-0.2-0.7-0.3-1c0-0.3,0-0.6,0-1s0-0.7,0-1c0-0.4,0.1-0.7,0.3-1c0.1-0.3,0.3-0.6,0.6-0.8c0.2-0.2,0.5-0.4,0.9-0.6
			c0.3-0.1,0.7-0.2,1.1-0.2c0.4,0,0.8,0.1,1.1,0.2c0.3,0.1,0.6,0.3,0.9,0.6c0.3,0.3,0.4,0.5,0.6,0.9c0.1,0.3,0.2,0.7,0.2,1.1
			L206.3,794.8L206.3,794.8z"/>
		<path class="st0" d="M148.9,153.7c-0.1-0.2-0.2-0.4-0.3-0.6c-0.1-0.2-0.3-0.3-0.5-0.5c-0.2-0.2-0.5-0.2-0.8-0.2s-0.6,0.1-0.9,0.2
			c-0.2,0.1-0.4,0.3-0.6,0.5c-0.1,0.2-0.3,0.4-0.3,0.6c-0.1,0.2-0.1,0.4-0.1,0.6c0,0.3-0.1,0.6-0.1,1s0,0.7,0.1,1
			c0,0.2,0.1,0.4,0.1,0.6c0.1,0.2,0.2,0.4,0.3,0.6c0.1,0.2,0.3,0.3,0.6,0.5c0.2,0.1,0.5,0.2,0.9,0.2c0.3,0,0.6-0.1,0.8-0.2
			c0.2-0.1,0.4-0.3,0.5-0.5c0.1-0.2,0.2-0.4,0.3-0.6c0.1-0.2,0.1-0.4,0.1-0.6c0-0.3,0-0.6,0-1c0,0,0,0,0-0.1c0-0.3,0-0.6,0-0.9
			C149,154.2,149,154,148.9,153.7z"/>
		<path class="st0" d="M205,792.5c-0.2-0.2-0.4-0.3-0.6-0.4c-0.2-0.1-0.5-0.1-0.8-0.1c-0.6,0-1.1,0.2-1.5,0.6
			c-0.4,0.4-0.6,0.9-0.6,1.7c0,0.1,0,0.1,0.1,0.1h3.8c0.1,0,0.1,0,0.1-0.1c0-0.4-0.1-0.7-0.2-0.9C205.3,793,205.2,792.7,205,792.5z"
			/>
		<path class="st0" d="M191.5,658.4c-0.2-0.2-0.4-0.3-0.6-0.4c-0.2-0.1-0.5-0.1-0.8-0.1c-0.6,0-1.1,0.2-1.5,0.6
			c-0.4,0.4-0.6,0.9-0.6,1.7c0,0.1,0,0.1,0.1,0.1h3.8c0.1,0,0.1,0,0.1-0.1c0-0.4-0.1-0.7-0.2-0.9
			C191.8,658.8,191.6,658.5,191.5,658.4z"/>
	</g>
	<g class="st1">
		<path class="st2" d="M172.8,231.6v-9.2c0-0.1,0-0.1,0.1-0.2c0.1-0.1,0.1-0.1,0.2-0.1h0.7c0.1,0,0.1,0,0.2,0c0,0,0.1,0.1,0.1,0.2
			l3.3,8c0,0,0,0,0.1,0s0,0,0-0.1v-7.9c0-0.1,0-0.1,0.1-0.2c0.1-0.1,0.1-0.1,0.2-0.1h0.3c0.1,0,0.1,0,0.2,0.1
			c0.1,0.1,0.1,0.1,0.1,0.2v9.2c0,0.1,0,0.1-0.1,0.2c-0.1,0.1-0.2,0.1-0.2,0.1h-0.7c-0.1,0-0.1,0-0.2,0c-0.1,0-0.1-0.1-0.1-0.2
			l-3.4-8c0,0,0,0-0.1,0c-0.1,0,0,0,0,0.1v8c0,0.1,0,0.1-0.1,0.2c-0.1,0.1-0.1,0.1-0.2,0.1H173c-0.1,0-0.1,0-0.2-0.1
			C172.8,231.7,172.8,231.6,172.8,231.6z"/>
	</g>
	<line class="st3" x1="175.1" y1="238.3" x2="155.5" y2="374.5"/>
	<polyline class="st3" points="170.9,241.7 175.1,238.3 178.1,242.7 	"/>
	<g>
		<g>
			<g>
				<defs>
					<path id="SVGID_1_" d="M79.5,14c7.1,0,15.6,15,16.6,16.7c2.3,3.8,5.7,7.2,8.8,10.3c1.2-1,2.5,0,3.8,0.7c2.1,1,4,2.2,5.8,3.6
						c6.7,5.1,14.9,5.8,22.9,6.8c4.6,0.6,9.7-3.9,11.2-8.5c0.4-1.3,1.2-2.3,2.3-3.2c3.4-2.7,5.6-1.1,9.8-2.7
						c1.8-0.7,6.3,3.7,6.7,2.1c0.7-2.6,2.5-4.1,4.4-5.6c1.5-1.1,5.9-7.8,6.5-9.6c0.7-1.9,2.5-1.8,3.7-2.1c3.6-1,1.4-8.3,5.3-8.4"/>
				</defs>
				<clipPath id="SVGID_2_">
					<use xlink:href="#SVGID_1_"  style="overflow:visible;"/>
				</clipPath>
				<line class="st4" x1="69.6" y1="54.5" x2="111.7" y2="12.4"/>
			</g>
		</g>
		<g>
			<g>
				<defs>
					<path id="SVGID_3_" d="M79.5,14c7.1,0,15.6,15,16.6,16.7c2.3,3.8,5.7,7.2,8.8,10.3c1.2-1,2.5,0,3.8,0.7c2.1,1,4,2.2,5.8,3.6
						c6.7,5.1,14.9,5.8,22.9,6.8c4.6,0.6,9.7-3.9,11.2-8.5c0.4-1.3,1.2-2.3,2.3-3.2c3.4-2.7,5.6-1.1,9.8-2.7
						c1.8-0.7,6.3,3.7,6.7,2.1c0.7-2.6,2.5-4.1,4.4-5.6c1.5-1.1,5.9-7.8,6.5-9.6c0.7-1.9,2.5-1.8,3.7-2.1c3.6-1,1.4-8.3,5.3-8.4"/>
				</defs>
				<clipPath id="SVGID_4_">
					<use xlink:href="#SVGID_3_"  style="overflow:visible;"/>
				</clipPath>
				<line class="st5" x1="55.6" y1="54.5" x2="97.7" y2="12.4"/>
			</g>
		</g>
		<g>
			<g>
				<defs>
					<path id="SVGID_5_" d="M79.5,14c7.1,0,15.6,15,16.6,16.7c2.3,3.8,5.7,7.2,8.8,10.3c1.2-1,2.5,0,3.8,0.7c2.1,1,4,2.2,5.8,3.6
						c6.7,5.1,14.9,5.8,22.9,6.8c4.6,0.6,9.7-3.9,11.2-8.5c0.4-1.3,1.2-2.3,2.3-3.2c3.4-2.7,5.6-1.1,9.8-2.7
						c1.8-0.7,6.3,3.7,6.7,2.1c0.7-2.6,2.5-4.1,4.4-5.6c1.5-1.1,5.9-7.8,6.5-9.6c0.7-1.9,2.5-1.8,3.7-2.1c3.6-1,1.4-8.3,5.3-8.4"/>
				</defs>
				<clipPath id="SVGID_6_">
					<use xlink:href="#SVGID_5_"  style="overflow:visible;"/>
				</clipPath>
				<line class="st6" x1="83.6" y1="54.5" x2="125.7" y2="12.4"/>
			</g>
		</g>
		<g>
			<g>
				<defs>
					<path id="SVGID_7_" d="M79.5,14c7.1,0,15.6,15,16.6,16.7c2.3,3.8,5.7,7.2,8.8,10.3c1.2-1,2.5,0,3.8,0.7c2.1,1,4,2.2,5.8,3.6
						c6.7,5.1,14.9,5.8,22.9,6.8c4.6,0.6,9.7-3.9,11.2-8.5c0.4-1.3,1.2-2.3,2.3-3.2c3.4-2.7,5.6-1.1,9.8-2.7
						c1.8-0.7,6.3,3.7,6.7,2.1c0.7-2.6,2.5-4.1,4.4-5.6c1.5-1.1,5.9-7.8,6.5-9.6c0.7-1.9,2.5-1.8,3.7-2.1c3.6-1,1.4-8.3,5.3-8.4"/>
				</defs>
				<clipPath id="SVGID_8_">
					<use xlink:href="#SVGID_7_"  style="overflow:visible;"/>
				</clipPath>
				<line class="st7" x1="97.6" y1="54.5" x2="139.7" y2="12.4"/>
			</g>
		</g>
		<g>
			<g>
				<defs>
					<path id="SVGID_9_" d="M79.5,14c7.1,0,15.6,15,16.6,16.7c2.3,3.8,5.7,7.2,8.8,10.3c1.2-1,2.5,0,3.8,0.7c2.1,1,4,2.2,5.8,3.6
						c6.7,5.1,14.9,5.8,22.9,6.8c4.6,0.6,9.7-3.9,11.2-8.5c0.4-1.3,1.2-2.3,2.3-3.2c3.4-2.7,5.6-1.1,9.8-2.7
						c1.8-0.7,6.3,3.7,6.7,2.1c0.7-2.6,2.5-4.1,4.4-5.6c1.5-1.1,5.9-7.8,6.5-9.6c0.7-1.9,2.5-1.8,3.7-2.1c3.6-1,1.4-8.3,5.3-8.4"/>
				</defs>
				<clipPath id="SVGID_10_">
					<use xlink:href="#SVGID_9_"  style="overflow:visible;"/>
				</clipPath>
				<line class="st8" x1="111.6" y1="54.5" x2="153.7" y2="12.4"/>
			</g>
		</g>
		<g>
			<g>
				<defs>
					<path id="SVGID_11_" d="M79.5,14c7.1,0,15.6,15,16.6,16.7c2.3,3.8,5.7,7.2,8.8,10.3c1.2-1,2.5,0,3.8,0.7c2.1,1,4,2.2,5.8,3.6
						c6.7,5.1,14.9,5.8,22.9,6.8c4.6,0.6,9.7-3.9,11.2-8.5c0.4-1.3,1.2-2.3,2.3-3.2c3.4-2.7,5.6-1.1,9.8-2.7
						c1.8-0.7,6.3,3.7,6.7,2.1c0.7-2.6,2.5-4.1,4.4-5.6c1.5-1.1,5.9-7.8,6.5-9.6c0.7-1.9,2.5-1.8,3.7-2.1c3.6-1,1.4-8.3,5.3-8.4"/>
				</defs>
				<clipPath id="SVGID_12_">
					<use xlink:href="#SVGID_11_"  style="overflow:visible;"/>
				</clipPath>
				<line class="st9" x1="139.7" y1="54.5" x2="181.7" y2="12.4"/>
			</g>
		</g>
		<g>
			<g>
				<defs>
					<path id="SVGID_13_" d="M79.5,14c7.1,0,15.6,15,16.6,16.7c2.3,3.8,5.7,7.2,8.8,10.3c1.2-1,2.5,0,3.8,0.7c2.1,1,4,2.2,5.8,3.6
						c6.7,5.1,14.9,5.8,22.9,6.8c4.6,0.6,9.7-3.9,11.2-8.5c0.4-1.3,1.2-2.3,2.3-3.2c3.4-2.7,5.6-1.1,9.8-2.7
						c1.8-0.7,6.3,3.7,6.7,2.1c0.7-2.6,2.5-4.1,4.4-5.6c1.5-1.1,5.9-7.8,6.5-9.6c0.7-1.9,2.5-1.8,3.7-2.1c3.6-1,1.4-8.3,5.3-8.4"/>
				</defs>
				<clipPath id="SVGID_14_">
					<use xlink:href="#SVGID_13_"  style="overflow:visible;"/>
				</clipPath>
				<line class="st10" x1="125.6" y1="54.5" x2="167.7" y2="12.4"/>
			</g>
		</g>
		<g>
			<g>
				<defs>
					<path id="SVGID_15_" d="M79.5,14c7.1,0,15.6,15,16.6,16.7c2.3,3.8,5.7,7.2,8.8,10.3c1.2-1,2.5,0,3.8,0.7c2.1,1,4,2.2,5.8,3.6
						c6.7,5.1,14.9,5.8,22.9,6.8c4.6,0.6,9.7-3.9,11.2-8.5c0.4-1.3,1.2-2.3,2.3-3.2c3.4-2.7,5.6-1.1,9.8-2.7
						c1.8-0.7,6.3,3.7,6.7,2.1c0.7-2.6,2.5-4.1,4.4-5.6c1.5-1.1,5.9-7.8,6.5-9.6c0.7-1.9,2.5-1.8,3.7-2.1c3.6-1,1.4-8.3,5.3-8.4"/>
				</defs>
				<clipPath id="SVGID_16_">
					<use xlink:href="#SVGID_15_"  style="overflow:visible;"/>
				</clipPath>
				<line class="st11" x1="156.5" y1="54.5" x2="198.6" y2="12.4"/>
			</g>
		</g>
		<g>
			<g>
				<defs>
					<path id="SVGID_17_" d="M79.5,14c7.1,0,15.6,15,16.6,16.7c2.3,3.8,5.7,7.2,8.8,10.3c1.2-1,2.5,0,3.8,0.7c2.1,1,4,2.2,5.8,3.6
						c6.7,5.1,14.9,5.8,22.9,6.8c4.6,0.6,9.7-3.9,11.2-8.5c0.4-1.3,1.2-2.3,2.3-3.2c3.4-2.7,5.6-1.1,9.8-2.7
						c1.8-0.7,6.3,3.7,6.7,2.1c0.7-2.6,2.5-4.1,4.4-5.6c1.5-1.1,5.9-7.8,6.5-9.6c0.7-1.9,2.5-1.8,3.7-2.1c3.6-1,1.4-8.3,5.3-8.4"/>
				</defs>
				<clipPath id="SVGID_18_">
					<use xlink:href="#SVGID_17_"  style="overflow:visible;"/>
				</clipPath>
				<line class="st12" x1="170.5" y1="54.5" x2="212.6" y2="12.4"/>
			</g>
		</g>
		<g>
			<g>
				<defs>
					<path id="SVGID_19_" d="M79.5,14c7.1,0,15.6,15,16.6,16.7c2.3,3.8,5.7,7.2,8.8,10.3c1.2-1,2.5,0,3.8,0.7c2.1,1,4,2.2,5.8,3.6
						c6.7,5.1,14.9,5.8,22.9,6.8c4.6,0.6,9.7-3.9,11.2-8.5c0.4-1.3,1.2-2.3,2.3-3.2c3.4-2.7,5.6-1.1,9.8-2.7
						c1.8-0.7,6.3,3.7,6.7,2.1c0.7-2.6,2.5-4.1,4.4-5.6c1.5-1.1,5.9-7.8,6.5-9.6c0.7-1.9,2.5-1.8,3.7-2.1c3.6-1,1.4-8.3,5.3-8.4"/>
				</defs>
				<clipPath id="SVGID_20_">
					<use xlink:href="#SVGID_19_"  style="overflow:visible;"/>
				</clipPath>
				<line class="st13" x1="184.5" y1="54.5" x2="226.6" y2="12.4"/>
			</g>
		</g>
	</g>
	<g>
		<g>
			<g>
				<defs>
					<path id="SVGID_21_" d="M183.1,835.6c-11.7-7.5-10.2-17.9-23.2-29c-3.7-3.2-9.9,0.6-14.5,2.5c-4.4,1.7-9,3.1-13.6,4
						c-6.8,1.4-13,4.4-19.5,6.7c-6.2,2.2-12.2,1.6-18.4-0.9c-5.3-2.1-10.2-8-15.7-6.7c-8.7,2-41.3,6.8-50.5,24"/>
				</defs>
				<clipPath id="SVGID_22_">
					<use xlink:href="#SVGID_21_"  style="overflow:visible;"/>
				</clipPath>
				<line class="st14" x1="-5" y1="847.5" x2="37" y2="805.4"/>
			</g>
		</g>
		<g>
			<g>
				<defs>
					<path id="SVGID_23_" d="M183.1,835.6c-11.7-7.5-10.2-17.9-23.2-29c-3.7-3.2-9.9,0.6-14.5,2.5c-4.4,1.7-9,3.1-13.6,4
						c-6.8,1.4-13,4.4-19.5,6.7c-6.2,2.2-12.2,1.6-18.4-0.9c-5.3-2.1-10.2-8-15.7-6.7c-8.7,2-41.3,6.8-50.5,24"/>
				</defs>
				<clipPath id="SVGID_24_">
					<use xlink:href="#SVGID_23_"  style="overflow:visible;"/>
				</clipPath>
				<line class="st15" x1="-19.1" y1="847.5" x2="23" y2="805.4"/>
			</g>
		</g>
		<g>
			<g>
				<defs>
					<path id="SVGID_25_" d="M183.1,835.6c-11.7-7.5-10.2-17.9-23.2-29c-3.7-3.2-9.9,0.6-14.5,2.5c-4.4,1.7-9,3.1-13.6,4
						c-6.8,1.4-13,4.4-19.5,6.7c-6.2,2.2-12.2,1.6-18.4-0.9c-5.3-2.1-10.2-8-15.7-6.7c-8.7,2-41.3,6.8-50.5,24"/>
				</defs>
				<clipPath id="SVGID_26_">
					<use xlink:href="#SVGID_25_"  style="overflow:visible;"/>
				</clipPath>
				<line class="st16" x1="9" y1="847.5" x2="51.1" y2="805.4"/>
			</g>
		</g>
		<g>
			<g>
				<defs>
					<path id="SVGID_27_" d="M183.1,835.6c-11.7-7.5-10.2-17.9-23.2-29c-3.7-3.2-9.9,0.6-14.5,2.5c-4.4,1.7-9,3.1-13.6,4
						c-6.8,1.4-13,4.4-19.5,6.7c-6.2,2.2-12.2,1.6-18.4-0.9c-5.3-2.1-10.2-8-15.7-6.7c-8.7,2-41.3,6.8-50.5,24"/>
				</defs>
				<clipPath id="SVGID_28_">
					<use xlink:href="#SVGID_27_"  style="overflow:visible;"/>
				</clipPath>
				<line class="st17" x1="23" y1="847.5" x2="65.1" y2="805.4"/>
			</g>
		</g>
		<g>
			<g>
				<defs>
					<path id="SVGID_29_" d="M183.1,835.6c-11.7-7.5-10.2-17.9-23.2-29c-3.7-3.2-9.9,0.6-14.5,2.5c-4.4,1.7-9,3.1-13.6,4
						c-6.8,1.4-13,4.4-19.5,6.7c-6.2,2.2-12.2,1.6-18.4-0.9c-5.3-2.1-10.2-8-15.7-6.7c-8.7,2-41.3,6.8-50.5,24"/>
				</defs>
				<clipPath id="SVGID_30_">
					<use xlink:href="#SVGID_29_"  style="overflow:visible;"/>
				</clipPath>
				<line class="st18" x1="37" y1="847.5" x2="79.1" y2="805.4"/>
			</g>
		</g>
		<g>
			<g>
				<defs>
					<path id="SVGID_31_" d="M183.1,835.6c-11.7-7.5-10.2-17.9-23.2-29c-3.7-3.2-9.9,0.6-14.5,2.5c-4.4,1.7-9,3.1-13.6,4
						c-6.8,1.4-13,4.4-19.5,6.7c-6.2,2.2-12.2,1.6-18.4-0.9c-5.3-2.1-10.2-8-15.7-6.7c-8.7,2-41.3,6.8-50.5,24"/>
				</defs>
				<clipPath id="SVGID_32_">
					<use xlink:href="#SVGID_31_"  style="overflow:visible;"/>
				</clipPath>
				<line class="st19" x1="65" y1="847.5" x2="107.1" y2="805.4"/>
			</g>
		</g>
		<g>
			<g>
				<defs>
					<path id="SVGID_33_" d="M183.1,835.6c-11.7-7.5-10.2-17.9-23.2-29c-3.7-3.2-9.9,0.6-14.5,2.5c-4.4,1.7-9,3.1-13.6,4
						c-6.8,1.4-13,4.4-19.5,6.7c-6.2,2.2-12.2,1.6-18.4-0.9c-5.3-2.1-10.2-8-15.7-6.7c-8.7,2-41.3,6.8-50.5,24"/>
				</defs>
				<clipPath id="SVGID_34_">
					<use xlink:href="#SVGID_33_"  style="overflow:visible;"/>
				</clipPath>
				<line class="st20" x1="51" y1="847.5" x2="93.1" y2="805.4"/>
			</g>
		</g>
		<g>
			<g>
				<defs>
					<path id="SVGID_35_" d="M183.1,835.6c-11.7-7.5-10.2-17.9-23.2-29c-3.7-3.2-9.9,0.6-14.5,2.5c-4.4,1.7-9,3.1-13.6,4
						c-6.8,1.4-13,4.4-19.5,6.7c-6.2,2.2-12.2,1.6-18.4-0.9c-5.3-2.1-10.2-8-15.7-6.7c-8.7,2-41.3,6.8-50.5,24"/>
				</defs>
				<clipPath id="SVGID_36_">
					<use xlink:href="#SVGID_35_"  style="overflow:visible;"/>
				</clipPath>
				<line class="st21" x1="79" y1="847.5" x2="121.1" y2="805.4"/>
			</g>
		</g>
		<g>
			<g>
				<defs>
					<path id="SVGID_37_" d="M183.1,835.6c-11.7-7.5-10.2-17.9-23.2-29c-3.7-3.2-9.9,0.6-14.5,2.5c-4.4,1.7-9,3.1-13.6,4
						c-6.8,1.4-13,4.4-19.5,6.7c-6.2,2.2-12.2,1.6-18.4-0.9c-5.3-2.1-10.2-8-15.7-6.7c-8.7,2-41.3,6.8-50.5,24"/>
				</defs>
				<clipPath id="SVGID_38_">
					<use xlink:href="#SVGID_37_"  style="overflow:visible;"/>
				</clipPath>
				<line class="st22" x1="93.1" y1="847.5" x2="135.1" y2="805.4"/>
			</g>
		</g>
		<g>
			<g>
				<defs>
					<path id="SVGID_39_" d="M183.1,835.6c-11.7-7.5-10.2-17.9-23.2-29c-3.7-3.2-9.9,0.6-14.5,2.5c-4.4,1.7-9,3.1-13.6,4
						c-6.8,1.4-13,4.4-19.5,6.7c-6.2,2.2-12.2,1.6-18.4-0.9c-5.3-2.1-10.2-8-15.7-6.7c-8.7,2-41.3,6.8-50.5,24"/>
				</defs>
				<clipPath id="SVGID_40_">
					<use xlink:href="#SVGID_39_"  style="overflow:visible;"/>
				</clipPath>
				<line class="st23" x1="107.1" y1="847.5" x2="149.2" y2="805.4"/>
			</g>
		</g>
		<g>
			<g>
				<defs>
					<path id="SVGID_41_" d="M183.1,835.6c-11.7-7.5-10.2-17.9-23.2-29c-3.7-3.2-9.9,0.6-14.5,2.5c-4.4,1.7-9,3.1-13.6,4
						c-6.8,1.4-13,4.4-19.5,6.7c-6.2,2.2-12.2,1.6-18.4-0.9c-5.3-2.1-10.2-8-15.7-6.7c-8.7,2-41.3,6.8-50.5,24"/>
				</defs>
				<clipPath id="SVGID_42_">
					<use xlink:href="#SVGID_41_"  style="overflow:visible;"/>
				</clipPath>
				<line class="st24" x1="134.7" y1="847.5" x2="176.7" y2="805.4"/>
			</g>
		</g>
		<g>
			<g>
				<defs>
					<path id="SVGID_43_" d="M183.1,835.6c-11.7-7.5-10.2-17.9-23.2-29c-3.7-3.2-9.9,0.6-14.5,2.5c-4.4,1.7-9,3.1-13.6,4
						c-6.8,1.4-13,4.4-19.5,6.7c-6.2,2.2-12.2,1.6-18.4-0.9c-5.3-2.1-10.2-8-15.7-6.7c-8.7,2-41.3,6.8-50.5,24"/>
				</defs>
				<clipPath id="SVGID_44_">
					<use xlink:href="#SVGID_43_"  style="overflow:visible;"/>
				</clipPath>
				<line class="st25" x1="120.7" y1="847.5" x2="162.7" y2="805.4"/>
			</g>
		</g>
		<g>
			<g>
				<defs>
					<path id="SVGID_45_" d="M183.1,835.6c-11.7-7.5-10.2-17.9-23.2-29c-3.7-3.2-9.9,0.6-14.5,2.5c-4.4,1.7-9,3.1-13.6,4
						c-6.8,1.4-13,4.4-19.5,6.7c-6.2,2.2-12.2,1.6-18.4-0.9c-5.3-2.1-10.2-8-15.7-6.7c-8.7,2-41.3,6.8-50.5,24"/>
				</defs>
				<clipPath id="SVGID_46_">
					<use xlink:href="#SVGID_45_"  style="overflow:visible;"/>
				</clipPath>
				<line class="st26" x1="148.7" y1="847.5" x2="190.8" y2="805.4"/>
			</g>
		</g>
		<g>
			<g>
				<defs>
					<path id="SVGID_47_" d="M183.1,835.6c-11.7-7.5-10.2-17.9-23.2-29c-3.7-3.2-9.9,0.6-14.5,2.5c-4.4,1.7-9,3.1-13.6,4
						c-6.8,1.4-13,4.4-19.5,6.7c-6.2,2.2-12.2,1.6-18.4-0.9c-5.3-2.1-10.2-8-15.7-6.7c-8.7,2-41.3,6.8-50.5,24"/>
				</defs>
				<clipPath id="SVGID_48_">
					<use xlink:href="#SVGID_47_"  style="overflow:visible;"/>
				</clipPath>
				<line class="st27" x1="162.7" y1="847.5" x2="204.8" y2="805.4"/>
			</g>
		</g>
		<g>
			<g>
				<defs>
					<path id="SVGID_49_" d="M183.1,835.6c-11.7-7.5-10.2-17.9-23.2-29c-3.7-3.2-9.9,0.6-14.5,2.5c-4.4,1.7-9,3.1-13.6,4
						c-6.8,1.4-13,4.4-19.5,6.7c-6.2,2.2-12.2,1.6-18.4-0.9c-5.3-2.1-10.2-8-15.7-6.7c-8.7,2-41.3,6.8-50.5,24"/>
				</defs>
				<clipPath id="SVGID_50_">
					<use xlink:href="#SVGID_49_"  style="overflow:visible;"/>
				</clipPath>
				<line class="st28" x1="176.7" y1="847.5" x2="218.8" y2="805.4"/>
			</g>
		</g>
		<g>
			<g>
				<defs>
					<path id="SVGID_51_" d="M183.1,835.6c-11.7-7.5-10.2-17.9-23.2-29c-3.7-3.2-9.9,0.6-14.5,2.5c-4.4,1.7-9,3.1-13.6,4
						c-6.8,1.4-13,4.4-19.5,6.7c-6.2,2.2-12.2,1.6-18.4-0.9c-5.3-2.1-10.2-8-15.7-6.7c-8.7,2-41.3,6.8-50.5,24"/>
				</defs>
				<clipPath id="SVGID_52_">
					<use xlink:href="#SVGID_51_"  style="overflow:visible;"/>
				</clipPath>
				<line class="st29" x1="204.7" y1="847.5" x2="246.8" y2="805.4"/>
			</g>
		</g>
		<g>
			<g>
				<defs>
					<path id="SVGID_54_" d="M183.1,835.6c-11.7-7.5-10.2-17.9-23.2-29c-3.7-3.2-9.9,0.6-14.5,2.5c-4.4,1.7-9,3.1-13.6,4
						c-6.8,1.4-13,4.4-19.5,6.7c-6.2,2.2-12.2,1.6-18.4-0.9c-5.3-2.1-10.2-8-15.7-6.7c-8.7,2-41.3,6.8-50.5,24"/>
				</defs>
				<clipPath id="SVGID_55_">
					<use xlink:href="#SVGID_54_"  style="overflow:visible;"/>
				</clipPath>
				<line class="st30" x1="190.7" y1="847.5" x2="232.8" y2="805.4"/>
			</g>
		</g>
		<g>
			<g>
				<defs>
					<path id="SVGID_56_" d="M183.1,835.6c-11.7-7.5-10.2-17.9-23.2-29c-3.7-3.2-9.9,0.6-14.5,2.5c-4.4,1.7-9,3.1-13.6,4
						c-6.8,1.4-13,4.4-19.5,6.7c-6.2,2.2-12.2,1.6-18.4-0.9c-5.3-2.1-10.2-8-15.7-6.7c-8.7,2-41.3,6.8-50.5,24"/>
				</defs>
				<clipPath id="SVGID_57_">
					<use xlink:href="#SVGID_56_"  style="overflow:visible;"/>
				</clipPath>
				<line class="st31" x1="218.7" y1="847.5" x2="260.8" y2="805.4"/>
			</g>
		</g>
		<g>
			<g>
				<defs>
					<path id="SVGID_58_" d="M183.1,835.6c-11.7-7.5-10.2-17.9-23.2-29c-3.7-3.2-9.9,0.6-14.5,2.5c-4.4,1.7-9,3.1-13.6,4
						c-6.8,1.4-13,4.4-19.5,6.7c-6.2,2.2-12.2,1.6-18.4-0.9c-5.3-2.1-10.2-8-15.7-6.7c-8.7,2-41.3,6.8-50.5,24"/>
				</defs>
				<clipPath id="SVGID_59_">
					<use xlink:href="#SVGID_58_"  style="overflow:visible;"/>
				</clipPath>
				<line class="st32" x1="232.8" y1="847.5" x2="274.8" y2="805.4"/>
			</g>
		</g>
	</g>
	<path class="st33" d="M184.1,836.7c-11.7-7.5-11.2-18.7-24.2-29.8c-3.7-3.2-9.9,0.6-14.5,2.5c-4.4,1.7-9,3.1-13.6,4
		c-6.8,1.4-13,4.4-19.5,6.7c-6.2,2.2-12.2,1.6-18.4-0.9c-5.3-2.1-10.2-8-15.7-6.7c-8.7,2-41.3,6.8-50.5,24"/>
	<g>
		<g>
			<path id="SVGID_53_" class="st34" d="M79.5,14c7.1,0,15.6,15,16.6,16.7c2.3,3.8,5.7,7.2,8.8,10.3c1.2-1,2.5,0,3.8,0.7
				c2.1,1,4,2.2,5.8,3.6c6.7,5.1,14.9,5.8,22.9,6.8c4.6,0.6,9.7-3.9,11.2-8.5c0.4-1.3,1.2-2.3,2.3-3.2c3.4-2.7,5.6-1.1,9.8-2.7
				c1.8-0.7,6.3,3.7,6.7,2.1c0.7-2.6,2.5-4.1,4.4-5.6c1.5-1.1,5.9-7.8,6.5-9.6c0.7-1.9,2.5-1.8,3.7-2.1c3.6-1,1.4-8.3,5.3-8.4"/>
		</g>
	</g>
</g>
</svg>
