<?xml version="1.0" encoding="utf-8"?>
<!-- Generator: Adobe Illustrator 19.1.0, SVG Export Plug-In . SVG Version: 6.00 Build 0)  -->
<svg version="1.1" id="Calque_1" xmlns="http://www.w3.org/2000/svg" xmlns:xlink="http://www.w3.org/1999/xlink" x="0px" y="0px"
	 viewBox="0 0 237.496 850.394" style="enable-background:new 0 0 237.496 850.394;" xml:space="preserve">
<style type="text/css">
	.st0{fill:#FFFFFF;}
	.st1{font-family:'GTPressura';}
	.st2{font-size:8px;}
	.st3{fill:none;stroke:#FFFFFF;stroke-width:0.7;stroke-linecap:round;stroke-linejoin:round;}
	.st4{clip-path:url(#SVGID_2_);fill:none;stroke:#FFFFFF;stroke-width:0.45;stroke-miterlimit:10;}
	.st5{clip-path:url(#SVGID_4_);fill:none;stroke:#FFFFFF;stroke-width:0.3;stroke-miterlimit:10;}
	.st6{fill:none;stroke:#FFFFFF;stroke-width:0.7;stroke-miterlimit:10;}
	.st7{clip-path:url(#SVGID_6_);}
	.st8{fill:none;stroke:#FFFFFF;stroke-width:0.3;stroke-linecap:round;stroke-linejoin:round;stroke-miterlimit:10;}
</style>
<g>
	<path d="M63.283,158.17c0.552,0,0.888-0.376,0.92-0.799c0.024-0.328,0.024-0.792,0-1.12c-0.032-0.424-0.368-0.799-0.92-0.799
		c-0.551,0-0.887,0.375-0.919,0.799c-0.024,0.328-0.024,0.792,0,1.12C62.396,157.794,62.732,158.17,63.283,158.17z"/>
	<path d="M69.795,278.148c-0.408,0-0.6,0.216-0.6,0.552c0,0.392,0.248,0.624,0.711,0.624c0.736,0,1.008-0.296,1.008-0.84v-0.256
		c0-0.048-0.031-0.08-0.08-0.08H69.795z"/>
	<path d="M51.26,278.148c-0.408,0-0.6,0.216-0.6,0.552c0,0.392,0.248,0.624,0.711,0.624c0.736,0,1.008-0.296,1.008-0.84v-0.256
		c0-0.048-0.032-0.08-0.08-0.08H51.26z"/>
	<path d="M72.742,482.926h-0.839c-0.048,0-0.08,0.031-0.08,0.079v3.918c0,0.048,0.032,0.08,0.08,0.08h0.839
		c0.488,0,0.864-0.439,0.92-0.919c0.08-0.64,0.08-1.6,0-2.239C73.606,483.365,73.23,482.926,72.742,482.926z"/>
	<path d="M89.263,703.84h-0.815c-0.04-0.024-0.08,0.031-0.08,0.079v1.655c0,0.048,0.032,0.08,0.08,0.08h0.815
		c0.495,0,0.919-0.392,0.919-0.871C90.182,704.224,89.759,703.84,89.263,703.84z"/>
	<path d="M89.263,703.12c0.52,0,0.808-0.352,0.808-0.815c0-0.472-0.392-0.728-0.808-0.728h-0.815c-0.048,0-0.08,0.031-0.08,0.079
		v1.384c0,0.048,0.032,0.08,0.08,0.08H89.263z"/>
	<path d="M68.075,156.403c0.048,0,0.08-0.032,0.08-0.08c0-0.552-0.408-0.871-0.903-0.871c-0.552,0-0.92,0.384-0.92,0.871
		c0,0.048,0.032,0.08,0.08,0.08H68.075z"/>
	<path d="M76.51,486.004c-0.408,0-0.6,0.216-0.6,0.552c0,0.392,0.248,0.623,0.711,0.623c0.736,0,1.008-0.296,1.008-0.839v-0.256
		c0-0.048-0.032-0.08-0.08-0.08H76.51z"/>
	<path d="M75.26,158.17c0.552,0,0.888-0.376,0.919-0.799c0.024-0.328,0.024-0.792,0-1.12c-0.031-0.424-0.367-0.799-0.919-0.799
		s-0.888,0.375-0.92,0.799c-0.023,0.328-0.023,0.792,0,1.12C74.372,157.794,74.708,158.17,75.26,158.17z"/>
	<path d="M80.171,156.403c0.048,0,0.08-0.032,0.08-0.08c0-0.552-0.408-0.871-0.903-0.871c-0.552,0-0.92,0.384-0.92,0.871
		c0,0.048,0.032,0.08,0.08,0.08H80.171z"/>
	<path d="M59.251,276.55c-0.552,0-0.888,0.375-0.919,0.799c-0.025,0.328-0.025,0.792,0,1.12c0.031,0.423,0.367,0.799,0.919,0.799
		s0.888-0.376,0.919-0.799c0.024-0.328,0.024-0.792,0-1.12C60.138,276.925,59.802,276.55,59.251,276.55z"/>
	<path d="M86.933,485.356c0.048,0,0.08-0.032,0.08-0.08c0-0.552-0.408-0.872-0.903-0.872c-0.552,0-0.92,0.384-0.92,0.872
		c0,0.048,0.032,0.08,0.08,0.08H86.933z"/>
	<path d="M117.719,661.666c0.047,0,0.08-0.032,0.08-0.08c0-0.552-0.408-0.872-0.904-0.872c-0.552,0-0.92,0.384-0.92,0.872
		c0,0.048,0.033,0.08,0.08,0.08H117.719z"/>
	<path d="M133.662,662.313c-0.407,0-0.6,0.216-0.6,0.552c0,0.392,0.248,0.623,0.712,0.623c0.735,0,1.007-0.296,1.007-0.839v-0.256
		c0-0.048-0.031-0.08-0.079-0.08H133.662z"/>
	<path d="M237.496,0H0v850.394h237.496 M81.532,157.507c0-0.088,0.072-0.16,0.16-0.16h0.399c0.088,0,0.16,0.072,0.16,0.16v0.104
		c0,0.479,0.496,0.591,0.863,0.591c0.433,0,0.855-0.112,0.855-0.591c0-0.328-0.392-0.416-0.855-0.512
		c-0.655-0.136-1.447-0.304-1.447-1.208c0-0.72,0.72-1.159,1.447-1.159c0.744,0,1.464,0.439,1.464,1.199
		c0,0.088-0.072,0.16-0.16,0.16h-0.399c-0.088,0-0.16-0.072-0.16-0.16c0-0.28-0.216-0.52-0.744-0.52
		c-0.495,0-0.703,0.248-0.703,0.479c0,0.312,0.312,0.416,0.703,0.488c0.672,0.12,1.575,0.256,1.575,1.231
		c0,0.855-0.743,1.279-1.575,1.279c-0.799,0-1.583-0.4-1.583-1.279V157.507z M77.7,156.251c0.064-0.839,0.68-1.519,1.64-1.519
		c0.967,0,1.599,0.6,1.599,1.599v0.552c0,0.088-0.072,0.16-0.16,0.16h-2.286c-0.048,0-0.08,0.032-0.08,0.08
		c0,0.728,0.376,1.047,0.928,1.047c0.415,0,0.728-0.208,0.823-0.504c0.032-0.104,0.112-0.136,0.184-0.136h0.408
		c0.08,0,0.151,0.048,0.136,0.16c-0.096,0.696-0.72,1.2-1.551,1.2c-0.96,0-1.575-0.68-1.64-1.519
		C77.677,157.051,77.677,156.571,77.7,156.251z M73.66,156.251c0.064-0.839,0.68-1.519,1.52-1.519c0.367,0,0.584,0.2,0.743,0.2
		c0.12,0,0.176-0.048,0.176-0.2v-1.416c0-0.088,0.072-0.16,0.16-0.16h0.4c0.088,0,0.159,0.072,0.159,0.16v5.333
		c0,0.088-0.071,0.16-0.159,0.16h-0.272c-0.048,0-0.08-0.024-0.111-0.056c-0.049-0.056-0.12-0.128-0.2-0.128
		c-0.232,0-0.304,0.264-0.896,0.264c-0.84,0-1.455-0.68-1.52-1.519C73.636,157.051,73.636,156.571,73.66,156.251z M69.661,154.972
		c0-0.088,0.071-0.16,0.159-0.16h0.353c0.048,0,0.079,0.024,0.111,0.056c0.048,0.056,0.12,0.128,0.2,0.128
		c0.231,0,0.296-0.264,0.855-0.264c0.896,0,1.52,0.576,1.52,1.519v2.399c0,0.088-0.072,0.16-0.16,0.16h-0.4
		c-0.088,0-0.159-0.072-0.159-0.16v-2.399c0-0.512-0.384-0.799-0.88-0.799s-0.88,0.295-0.88,0.759v2.439
		c0,0.088-0.071,0.16-0.159,0.16h-0.4c-0.088,0-0.159-0.072-0.159-0.16V154.972z M65.604,156.251c0.064-0.839,0.68-1.519,1.64-1.519
		c0.967,0,1.599,0.6,1.599,1.599v0.552c0,0.088-0.072,0.16-0.16,0.16h-2.286c-0.048,0-0.08,0.032-0.08,0.08
		c0,0.728,0.376,1.047,0.928,1.047c0.415,0,0.728-0.208,0.823-0.504c0.032-0.104,0.112-0.136,0.184-0.136h0.408
		c0.08,0,0.151,0.048,0.136,0.16c-0.096,0.696-0.72,1.2-1.551,1.2c-0.96,0-1.575-0.68-1.64-1.519
		C65.581,157.051,65.581,156.571,65.604,156.251z M61.724,154.972c0-0.088,0.072-0.16,0.16-0.16h0.271
		c0.048,0,0.08,0.024,0.112,0.056c0.048,0.056,0.119,0.128,0.199,0.128c0.232,0,0.304-0.264,0.896-0.264
		c0.84,0,1.455,0.68,1.52,1.519c0.024,0.32,0.024,0.799,0,1.12c-0.064,0.839-0.68,1.519-1.52,1.519c-0.367,0-0.583-0.2-0.743-0.2
		c-0.12,0-0.176,0.048-0.176,0.2v1.359c0,0.088-0.072,0.16-0.16,0.16h-0.399c-0.088,0-0.16-0.072-0.16-0.16V154.972z
		 M57.988,153.373c0-0.088,0.072-0.16,0.16-0.16h2.583c0.088,0,0.16,0.072,0.16,0.16v0.44c0,0.088-0.072,0.16-0.16,0.16h-1.903
		c-0.048,0-0.08,0.032-0.08,0.08v1.439c0,0.048,0.032,0.08,0.08,0.08h1.815c0.088,0,0.159,0.072,0.159,0.16v0.439
		c0,0.088-0.071,0.16-0.159,0.16h-1.815c-0.048,0-0.08,0.032-0.08,0.08v1.56c0,0.048,0.032,0.08,0.08,0.08h1.919
		c0.088,0,0.16,0.072,0.16,0.16v0.44c0,0.088-0.072,0.16-0.16,0.16h-2.599c-0.088,0-0.16-0.072-0.16-0.16V153.373z M89.263,706.414
		h-1.479c-0.088,0-0.16-0.072-0.16-0.16v-5.276c0-0.089,0.072-0.16,0.16-0.16h1.479c0.863,0,1.567,0.623,1.567,1.487
		c0,0.367-0.152,0.815-0.456,1.079c-0.064,0.056-0.064,0.128,0,0.176c0.328,0.264,0.567,0.768,0.567,1.224
		C90.942,705.71,90.182,706.414,89.263,706.414z M94.783,706.254c0,0.088-0.072,0.16-0.16,0.16h-0.352
		c-0.049,0-0.08-0.024-0.112-0.056c-0.048-0.057-0.12-0.128-0.2-0.128c-0.231,0-0.264,0.264-0.855,0.264
		c-0.903,0-1.519-0.64-1.519-1.52v-2.398c0-0.088,0.071-0.16,0.159-0.16h0.4c0.088,0,0.159,0.072,0.159,0.16v2.398
		c0,0.464,0.328,0.8,0.88,0.8c0.496,0,0.88-0.296,0.88-0.76v-2.438c0-0.088,0.071-0.16,0.159-0.16h0.4c0.088,0,0.16,0.072,0.16,0.16
		V706.254z M97.103,706.494c-0.799,0-1.583-0.399-1.583-1.279v-0.104c0-0.088,0.072-0.159,0.16-0.159h0.399
		c0.088,0,0.16,0.071,0.16,0.159v0.104c0,0.479,0.496,0.592,0.863,0.592c0.432,0,0.855-0.112,0.855-0.592
		c0-0.328-0.392-0.416-0.855-0.512c-0.655-0.136-1.447-0.304-1.447-1.207c0-0.72,0.72-1.16,1.447-1.16c0.744,0,1.464,0.44,1.464,1.2
		c0,0.088-0.072,0.159-0.16,0.159h-0.399c-0.089,0-0.16-0.071-0.16-0.159c0-0.28-0.216-0.521-0.744-0.521
		c-0.495,0-0.703,0.248-0.703,0.48c0,0.312,0.312,0.415,0.703,0.487c0.672,0.12,1.575,0.256,1.575,1.231
		C98.678,706.07,97.935,706.494,97.103,706.494z M100.775,706.494c-0.799,0-1.583-0.399-1.583-1.279v-0.104
		c0-0.088,0.072-0.159,0.16-0.159h0.399c0.088,0,0.16,0.071,0.16,0.159v0.104c0,0.479,0.496,0.592,0.863,0.592
		c0.432,0,0.855-0.112,0.855-0.592c0-0.328-0.392-0.416-0.855-0.512c-0.655-0.136-1.447-0.304-1.447-1.207
		c0-0.72,0.72-1.16,1.447-1.16c0.744,0,1.464,0.44,1.464,1.2c0,0.088-0.072,0.159-0.16,0.159h-0.399c-0.089,0-0.16-0.071-0.16-0.159
		c0-0.28-0.216-0.521-0.744-0.521c-0.495,0-0.703,0.248-0.703,0.48c0,0.312,0.312,0.415,0.703,0.487
		c0.672,0.12,1.575,0.256,1.575,1.231C102.35,706.07,101.607,706.494,100.775,706.494z M103.904,706.254
		c0,0.088-0.072,0.16-0.16,0.16h-0.416c-0.088,0-0.16-0.072-0.16-0.16v-3.678c0-0.088,0.072-0.16,0.16-0.16h0.416
		c0.088,0,0.16,0.072,0.16,0.16V706.254z M103.927,701.44c0,0.072-0.056,0.128-0.128,0.128h-0.544c-0.071,0-0.128-0.056-0.128-0.128
		v-0.552c0-0.063,0.057-0.128,0.128-0.128h0.544c0.072,0,0.128,0.064,0.128,0.128V701.44z M107.967,706.654
		c0,0.775-0.616,1.438-1.464,1.438c-0.711,0-1.343-0.375-1.455-1.095c-0.016-0.112,0.024-0.185,0.145-0.185h0.384
		c0.168,0,0.176,0.072,0.208,0.16c0.104,0.264,0.312,0.4,0.719,0.4c0.4,0,0.744-0.288,0.744-0.72v-0.177
		c0-0.151-0.064-0.191-0.176-0.184c-0.16,0.008-0.376,0.2-0.744,0.2c-0.839,0-1.455-0.68-1.519-1.52c-0.024-0.319-0.024-0.8,0-1.119
		c0.063-0.84,0.68-1.52,1.519-1.52c0.592,0,0.664,0.265,0.896,0.265c0.08,0,0.152-0.072,0.2-0.128
		c0.032-0.032,0.063-0.057,0.112-0.057h0.271c0.088,0,0.16,0.072,0.16,0.16V706.654z M112.142,706.254c0,0.088-0.072,0.16-0.16,0.16
		h-0.399c-0.088,0-0.16-0.072-0.16-0.16v-2.398c0-0.512-0.384-0.8-0.88-0.8c-0.495,0-0.879,0.296-0.879,0.76v2.438
		c0,0.088-0.072,0.16-0.16,0.16h-0.399c-0.088,0-0.16-0.072-0.16-0.16v-3.678c0-0.088,0.072-0.16,0.16-0.16h0.352
		c0.048,0,0.08,0.024,0.112,0.057c0.048,0.056,0.119,0.128,0.199,0.128c0.232,0,0.296-0.265,0.855-0.265
		c0.896,0,1.52,0.576,1.52,1.52V706.254z M114.151,707.894c-0.031,0.088-0.079,0.119-0.151,0.119h-0.432
		c-0.128,0-0.185-0.104-0.152-0.184l0.592-1.631c0.016-0.04,0.024-0.064,0.008-0.104l-1.375-3.494
		c-0.032-0.08,0.024-0.185,0.152-0.185h0.487c0.072,0,0.12,0.032,0.152,0.12l0.983,2.599c0.016,0.04,0.048,0.04,0.063,0l0.928-2.599
		c0.032-0.088,0.08-0.12,0.151-0.12h0.473c0.128,0,0.184,0.104,0.151,0.185L114.151,707.894z M144.822,663.912
		c0,0.088-0.072,0.16-0.16,0.16h-0.416c-0.088,0-0.16-0.072-0.16-0.16v-3.678c0-0.088,0.072-0.16,0.16-0.16h0.416
		c0.088,0,0.16,0.072,0.16,0.16V663.912z M144.845,659.099c0,0.072-0.056,0.128-0.127,0.128h-0.545
		c-0.071,0-0.127-0.056-0.127-0.128v-0.552c0-0.063,0.056-0.128,0.127-0.128h0.545c0.071,0,0.127,0.064,0.127,0.128V659.099z
		 M146.606,663.912c0,0.088-0.071,0.16-0.159,0.16h-0.4c-0.088,0-0.16-0.072-0.16-0.16v-5.333c0-0.088,0.072-0.16,0.16-0.16h0.4
		c0.088,0,0.159,0.072,0.159,0.16V663.912z M148.366,663.912c0,0.088-0.071,0.16-0.159,0.16h-0.4c-0.088,0-0.16-0.072-0.16-0.16
		v-5.333c0-0.088,0.072-0.16,0.16-0.16h0.4c0.088,0,0.159,0.072,0.159,0.16V663.912z M152.484,662.146c0,0.088-0.072,0.16-0.16,0.16
		h-2.286c-0.048,0-0.08,0.031-0.08,0.079c0,0.729,0.376,1.048,0.928,1.048c0.415,0,0.728-0.208,0.823-0.504
		c0.032-0.104,0.112-0.136,0.184-0.136h0.408c0.08,0,0.152,0.048,0.137,0.16c-0.097,0.695-0.721,1.199-1.552,1.199
		c-0.96,0-1.575-0.68-1.64-1.52c-0.023-0.319-0.023-0.799,0-1.119c0.064-0.84,0.68-1.52,1.64-1.52c0.968,0,1.599,0.6,1.599,1.6
		V662.146z M152.956,62.893c-1.534,3.588-3.646,7.263-6.646,11.563c-2.934,4.208-5.278,8.879-7.168,14.282
		c-2.074,5.934-3.645,11.322-1.849,17.18c0.376,1.229-0.034,2.266-0.566,3.396c-3.407,7.253-8.016,14.004-12.068,19.763
		c-0.475,0.674-0.92,1.388-1.352,2.079c-0.765,1.227-1.556,2.495-2.56,3.628c-4.241,4.792-7.736,10.274-11.116,15.576
		c-0.666,1.045-1.331,2.089-2.003,3.129c-2.197,3.402-4.35,5.35-8.303,4.556c-3.815-0.766-6.636,0.074-10.039,3
		c-9.544,8.205-17.875,15.856-23.176,26.428c-2.537,5.061-5.16,10.292-7.075,15.699c-1.223,3.451-2.117,7.113-2.983,10.655
		c-0.335,1.371-0.67,2.742-1.023,4.104c-2.029,7.816-4.999,15.48-7.87,22.891l-0.244,0.63c-5.261,13.583-8.835,27.614-12.044,40.822
		c-1.027,4.227-0.511,8.629-0.011,12.888c0.147,1.263,0.296,2.527,0.407,3.791c0.712,8.097,2.603,16.045,4.431,23.731
		c0.357,1.506,0.716,3.013,1.066,4.523c0.602,2.591,1.53,5.125,2.429,7.575c0.86,2.347,1.75,4.773,2.349,7.243
		c1.133,4.667,3.056,9.096,4.915,13.379c0.393,0.902,0.783,1.803,1.167,2.705c3.176,7.463,5.643,13.746,6.114,20.971
		c0.128,1.971-0.073,3.906-0.615,5.916c-0.535,1.982-1.377,3.868-2.19,5.691c-0.899,2.017-1.831,4.103-2.335,6.305
		c-0.69,3.023-0.358,3.584,2.543,4.295c2.318,0.566,4.542,0.165,6.444-0.258c6.011-1.332,11.01,0.532,14.066,5.25
		c2.351,3.628,2.275,8.232-0.212,12.965c-2.09,3.979-4.395,7.903-6.574,11.549c-1.782,2.982-2.234,6.021-1.342,9.031l0.182,0.617
		c0.769,2.619,1.563,5.327,3.073,7.429c4.986,6.938,3.787,14.021,1.848,21.897c-1.08,4.382-3.625,7.808-6.087,11.12
		c-0.654,0.881-1.307,1.759-1.93,2.651c-5.09,7.291-9.903,13.684-17.274,18.086c-4.119,2.459-8.685,6.11-7.419,12.573
		c1.301,6.642-0.741,11.688-6.427,15.881c-1.717,1.267-2.787,2.992-2.938,4.733c-0.102,1.182,0.257,2.265,1.009,3.051
		c0.867,0.906,1.686,1.89,2.477,2.842c1.862,2.238,3.787,4.553,6.445,5.948c2.729,1.434,4.557,3.474,5.589,6.238
		c0.483,1.297,1.198,2.068,2.387,2.579c3.929,1.686,8.037,3.688,11.475,6.898c3.391,3.172,7.699,3.984,13.159,2.485
		c2.124-0.58,4.244-0.171,5.674,1.099c1.317,1.172,1.906,2.947,1.615,4.873c-0.067,0.448-0.132,0.9-0.196,1.354
		c-0.719,5.041-1.461,10.254-7.135,13.055c-0.92,0.455-1.99,1.46-2.938,2.757l-0.055,0.076c-0.752,1.028-1.158,1.652-0.781,2.51
		c1.155,2.628-0.069,4.638-1.309,6.315c-2.641,3.577-2.498,3.806-0.128,7.621c1.389,2.233,2.745,4.881,1.271,8.041
		c-0.451,0.965-0.1,2.049,0.964,2.975c1.333,1.159,2.54,2.477,3.708,3.752c1.63,1.779,3.315,3.62,5.347,5.021
		c3.925,2.709,5.512,6.839,4.468,11.629c-0.657,3.019-1.026,6.359-1.162,10.514c-0.147,4.528,1.796,6.768,6.116,7.046
		c1.093,0.072,2.217,0.263,3.074,0.421c1.663,0.307,2.935,1.085,3.582,2.191c0.587,1.003,0.654,2.243,0.194,3.587l-0.214,0.628
		c-1.422,4.177-2.893,8.496-6.594,11.481c-2.366,1.907-3.727,4.925-3.308,7.339c0.335,1.928,1.741,3.375,4.069,4.186
		c2.948,1.025,4.967,2.785,6.17,5.378c0.556,1.195,1.809,2.311,3.656,1.831c1.821-0.468,2.824,0.326,3.772,1.659
		c0.91,1.282,1.977,2.04,3.084,2.191c0.889,0.12,1.778-0.159,2.62-0.84c2.09-1.694,3.5-1.056,5.126-0.042
		c1.488,0.926,2.36,2.238,3.284,3.628c3.092,4.651,6.7,6.925,11.379,7.19c0.191,0.011,0.387,0.019,0.585,0.025
		c1.587,0.059,3.562,0.131,4.579,2.263c0.693,1.451,1.586,2.851,2.449,4.203l0.274,0.432c1.4,2.196,2.818,5.167,1.345,8.668
		c-0.461,1.098-0.292,2.252,0.516,3.531c1.033,1.634,2.071,2.675,3.366,3.375c2.586,1.396,2.84,3.904,2.807,5.67
		c-0.056,2.938-1.753,4.927-3.395,6.85c-0.286,0.337-0.574,0.674-0.854,1.017c-3.129,3.834-3.945,7.415-2.648,11.608
		c0.109,0.351,0.23,0.712,0.354,1.08c0.799,2.369,1.704,5.054,0.157,7.693c-2.061,3.517-0.604,6.547,1.278,9.299
		c2.771,4.047,2.753,5.593-0.108,9.728c-0.093,0.134-0.171,0.28-0.248,0.426c-0.146,0.272-0.295,0.554-0.532,0.781
		c-0.854,0.824-1.289,1.765-1.256,2.718c0.033,0.967,0.534,1.904,1.411,2.639c3.236,2.715,1.634,5.075,0.22,7.156l-0.175,0.26
		c-0.596,0.887-1.213,1.803-2.296,2.449c-1.507,0.897-1.415,2.495-0.826,3.69c0.822,1.666,2.022,2.2,3.562,1.584
		c0.768-0.306,1.927-0.769,3.126,0.152c0.105,0.081,0.156,0.215,0.13,0.346c-0.235,1.188-0.61,2.368-0.973,3.511
		c-0.591,1.862-1.202,3.789-1.228,5.793c-0.002,0.192-0.158,0.346-0.35,0.346c-0.001,0-0.003,0-0.004,0
		c-0.193-0.002-0.349-0.16-0.346-0.354c0.025-2.108,0.653-4.086,1.26-5.997c0.333-1.052,0.678-2.136,0.907-3.213
		c-0.75-0.474-1.446-0.26-2.264,0.066c-1.887,0.753-3.467,0.068-4.45-1.926c-0.912-1.854-0.481-3.66,1.097-4.601
		c0.948-0.565,1.495-1.378,2.073-2.238l0.178-0.262c1.655-2.438,2.476-4.074-0.091-6.227c-1.031-0.864-1.621-1.984-1.662-3.151
		c-0.04-1.157,0.469-2.28,1.471-3.247c0.157-0.15,0.275-0.372,0.399-0.605c0.091-0.17,0.183-0.341,0.291-0.496
		c2.688-3.886,2.704-5.138,0.105-8.934c-2.012-2.941-3.562-6.194-1.304-10.047c1.385-2.365,0.534-4.889-0.217-7.116
		c-0.126-0.374-0.249-0.74-0.359-1.097c-1.374-4.441-0.519-8.223,2.773-12.259c0.283-0.347,0.574-0.688,0.864-1.027
		c1.633-1.914,3.176-3.722,3.228-6.409c0.048-2.549-0.704-4.104-2.439-5.041c-1.406-0.76-2.524-1.875-3.626-3.616
		c-0.938-1.486-1.125-2.853-0.568-4.177c1.339-3.183,0.099-5.841-1.29-8.021l-0.274-0.431c-0.875-1.371-1.779-2.788-2.49-4.279
		c-0.836-1.748-2.431-1.807-3.974-1.863c-0.203-0.008-0.404-0.016-0.6-0.026c-4.917-0.28-8.697-2.652-11.897-7.467
		c-0.904-1.359-1.736-2.611-3.095-3.457c-1.522-0.947-2.575-1.419-4.315-0.009c-0.982,0.797-2.068,1.14-3.157,0.99
		c-1.303-0.179-2.533-1.036-3.559-2.479c-0.845-1.186-1.573-1.761-3.028-1.388c-1.869,0.48-3.619-0.39-4.465-2.214
		c-1.119-2.412-3.005-4.052-5.766-5.012c-3.262-1.136-4.263-3.197-4.528-4.728c-0.46-2.652,1.003-5.943,3.558-8.003
		c3.544-2.858,4.98-7.08,6.37-11.162l0.215-0.629c0.392-1.146,0.345-2.185-0.137-3.007c-0.542-0.928-1.646-1.588-3.104-1.857
		c-0.839-0.154-1.937-0.34-2.992-0.409c-4.717-0.305-6.931-2.845-6.771-7.769c0.137-4.197,0.511-7.578,1.178-10.639
		c0.979-4.495-0.506-8.367-4.183-10.904c-2.096-1.446-3.809-3.316-5.465-5.125c-1.154-1.261-2.348-2.563-3.65-3.697
		c-1.298-1.129-1.724-2.549-1.14-3.799c1.327-2.842,0.12-5.202-1.229-7.375c-2.49-4.007-2.669-4.575,0.159-8.406
		c1.432-1.938,2.137-3.555,1.23-5.618c-0.558-1.268,0.161-2.252,0.856-3.204l0.055-0.075c0.595-0.814,1.801-2.283,3.193-2.972
		c5.343-2.639,6.06-7.665,6.752-12.526c0.064-0.456,0.13-0.91,0.198-1.361c0.259-1.711-0.234-3.219-1.389-4.244
		c-1.252-1.112-3.127-1.469-5.023-0.946c-5.718,1.565-10.24,0.699-13.823-2.649c-3.171-2.963-6.8-4.849-11.271-6.768
		c-1.364-0.585-2.218-1.503-2.768-2.978c-0.981-2.631-2.652-4.494-5.259-5.863c-2.781-1.46-4.752-3.829-6.657-6.12
		c-0.783-0.942-1.594-1.917-2.444-2.805c-0.894-0.935-1.319-2.211-1.2-3.595c0.168-1.942,1.341-3.852,3.219-5.236
		c5.442-4.015,7.398-8.839,6.155-15.184c-1.364-6.969,3.769-10.934,7.747-13.31c7.253-4.33,12.017-10.662,17.06-17.885
		c0.627-0.898,1.283-1.781,1.942-2.668c2.42-3.258,4.923-6.626,5.969-10.871c1.897-7.704,3.076-14.626-1.736-21.321
		c-1.58-2.198-2.392-4.964-3.177-7.64l-0.182-0.615c-0.949-3.205-0.475-6.432,1.412-9.59c2.175-3.638,4.475-7.551,6.557-11.515
		c2.364-4.499,2.451-8.853,0.243-12.259c-2.885-4.455-7.614-6.21-13.326-4.948c-1.98,0.439-4.3,0.856-6.763,0.254
		c-3.296-0.807-3.839-1.718-3.059-5.131c0.519-2.269,1.464-4.386,2.378-6.434c0.802-1.799,1.632-3.659,2.153-5.588
		c0.521-1.934,0.715-3.794,0.592-5.687c-0.464-7.115-2.91-13.342-6.06-20.743c-0.383-0.9-0.773-1.799-1.164-2.7
		c-1.872-4.31-3.808-8.768-4.953-13.493c-0.59-2.432-1.473-4.839-2.326-7.167c-0.906-2.47-1.843-5.025-2.453-7.658
		c-0.351-1.509-0.708-3.014-1.066-4.519c-1.833-7.711-3.729-15.685-4.446-23.832c-0.11-1.258-0.258-2.515-0.405-3.771
		c-0.507-4.319-1.031-8.786,0.026-13.134c3.215-13.231,6.795-27.288,12.071-40.91l0.244-0.63c2.864-7.392,5.825-15.037,7.845-22.813
		c0.353-1.359,0.688-2.726,1.021-4.094c0.87-3.559,1.769-7.238,3.003-10.722c1.93-5.447,4.563-10.7,7.11-15.779
		c5.357-10.688,13.742-18.391,23.344-26.646c3.544-3.046,6.627-3.959,10.635-3.155c3.572,0.721,5.486-1.014,7.576-4.25
		c0.671-1.039,1.336-2.082,2.001-3.125c3.394-5.325,6.904-10.831,11.183-15.664c0.964-1.09,1.739-2.333,2.489-3.535
		c0.437-0.699,0.888-1.422,1.373-2.112c4.035-5.734,8.624-12.455,12.008-19.657c0.485-1.033,0.833-1.902,0.529-2.894
		c-1.857-6.061-0.258-11.564,1.858-17.616c1.911-5.463,4.284-10.19,7.254-14.451c2.972-4.261,5.061-7.896,6.575-11.438
		c0.715-1.671,1.34-3.673,0.559-5.855c-0.866-2.415-1.178-4.958-1.48-7.417c-0.204-1.667-0.416-3.391-0.799-5.046
		c-0.451-1.952,0.328-3.831,2.254-5.435c0.148-0.124,0.37-0.104,0.492,0.045c0.124,0.148,0.104,0.369-0.045,0.493
		c-1.733,1.443-2.412,3.038-2.02,4.739c0.392,1.69,0.605,3.433,0.812,5.119c0.297,2.421,0.604,4.924,1.443,7.266
		C154.397,58.951,153.678,61.202,152.956,62.893z M143.476,658.659l-1.494,5.293c-0.025,0.08-0.08,0.12-0.152,0.12h-0.624
		c-0.071,0-0.128-0.04-0.151-0.12l-1.488-5.285c-0.023-0.08,0.024-0.191,0.152-0.191h0.48c0.071,0,0.127,0.032,0.151,0.12
		l1.111,4.262c0.009,0.031,0.024,0.048,0.048,0.048h0.016c0.024,0,0.041-0.017,0.049-0.048l1.111-4.262
		c0.023-0.088,0.08-0.12,0.152-0.12h0.486C143.453,658.476,143.501,658.571,143.476,658.659z M138.957,661.666v0.543
		c0,0.088-0.072,0.16-0.16,0.16h-2.182c-0.088,0-0.16-0.072-0.16-0.16v-0.543c0-0.088,0.072-0.16,0.16-0.16h2.182
		C138.885,661.506,138.957,661.578,138.957,661.666z M133.974,660.634c-0.279,0-0.744,0.12-0.744,0.504
		c0,0.136-0.111,0.136-0.184,0.136h-0.359c-0.12,0-0.16-0.063-0.16-0.159c0-0.744,0.768-1.12,1.447-1.12
		c0.903,0,1.463,0.393,1.463,1.279v2.639c0,0.088-0.072,0.16-0.16,0.16h-0.271c-0.048,0-0.08-0.016-0.111-0.056
		c-0.049-0.064-0.08-0.168-0.16-0.168c-0.145,0-0.344,0.304-0.936,0.304c-0.984,0-1.455-0.6-1.455-1.279
		c0-0.664,0.479-1.216,1.318-1.216h0.977c0.047,0,0.08-0.031,0.08-0.079v-0.305C134.719,660.842,134.422,660.634,133.974,660.634z
		 M131.478,658.579v5.333c0,0.088-0.072,0.16-0.16,0.16h-0.399c-0.088,0-0.16-0.072-0.16-0.16v-5.333c0-0.088,0.072-0.16,0.16-0.16
		h0.399C131.406,658.419,131.478,658.491,131.478,658.579z M129.677,661.666v0.543c0,0.088-0.072,0.16-0.16,0.16h-2.182
		c-0.088,0-0.16-0.072-0.16-0.16v-0.543c0-0.088,0.072-0.16,0.16-0.16h2.182C129.605,661.506,129.677,661.578,129.677,661.666z
		 M124.782,663.465c0.433,0,0.855-0.112,0.855-0.592c0-0.328-0.392-0.416-0.855-0.512c-0.655-0.136-1.447-0.304-1.447-1.207
		c0-0.72,0.72-1.16,1.447-1.16c0.743,0,1.464,0.44,1.464,1.199c0,0.089-0.072,0.16-0.16,0.16h-0.4c-0.088,0-0.16-0.071-0.16-0.16
		c0-0.279-0.215-0.52-0.743-0.52c-0.495,0-0.704,0.248-0.704,0.48c0,0.312,0.312,0.415,0.704,0.487
		c0.672,0.12,1.575,0.256,1.575,1.231c0,0.855-0.744,1.279-1.575,1.279c-0.8,0-1.583-0.4-1.583-1.279v-0.104
		c0-0.088,0.072-0.159,0.16-0.159h0.399c0.088,0,0.16,0.071,0.16,0.159v0.104C123.919,663.353,124.414,663.465,124.782,663.465z
		 M120.902,660.714c-0.496,0-0.879,0.296-0.879,0.76v2.438c0,0.088-0.072,0.16-0.16,0.16h-0.4c-0.088,0-0.16-0.072-0.16-0.16v-3.678
		c0-0.088,0.072-0.16,0.16-0.16h0.352c0.049,0,0.08,0.024,0.113,0.057c0.047,0.056,0.119,0.128,0.199,0.128
		c0.232,0,0.296-0.265,0.855-0.265c0.896,0,1.52,0.576,1.52,1.52v2.398c0,0.088-0.072,0.16-0.16,0.16h-0.4
		c-0.088,0-0.159-0.072-0.159-0.16v-2.398C121.782,661.002,121.398,660.714,120.902,660.714z M116.886,663.433
		c0.416,0,0.728-0.208,0.823-0.504c0.032-0.104,0.112-0.136,0.185-0.136h0.407c0.08,0,0.151,0.048,0.136,0.16
		c-0.096,0.695-0.719,1.199-1.551,1.199c-0.959,0-1.575-0.68-1.639-1.52c-0.024-0.319-0.024-0.799,0-1.119
		c0.063-0.84,0.68-1.52,1.639-1.52c0.967,0,1.6,0.6,1.6,1.6v0.552c0,0.088-0.072,0.16-0.16,0.16h-2.287
		c-0.048,0-0.08,0.031-0.08,0.079C115.959,663.113,116.335,663.433,116.886,663.433z M113.699,573.086
		c-0.032,0.088-0.08,0.12-0.152,0.12h-0.432c-0.128,0-0.184-0.104-0.152-0.185l0.592-1.631c0.017-0.04,0.024-0.064,0.008-0.104
		l-1.375-3.493c-0.032-0.08,0.024-0.185,0.152-0.185h0.487c0.072,0,0.12,0.032,0.152,0.12l0.983,2.599
		c0.016,0.04,0.048,0.04,0.063,0l0.928-2.599c0.032-0.088,0.08-0.12,0.152-0.12h0.472c0.128,0,0.184,0.104,0.151,0.185
		L113.699,573.086z M114.367,658.579v5.333c0,0.088-0.072,0.16-0.16,0.16h-0.4c-0.088,0-0.16-0.072-0.16-0.16v-5.333
		c0-0.088,0.072-0.16,0.16-0.16h0.4C114.295,658.419,114.367,658.491,114.367,658.579z M110.878,660.834h-1.543
		c-0.048,0-0.08,0.032-0.08,0.08v2.998c0,0.088-0.071,0.16-0.159,0.16h-0.4c-0.088,0-0.16-0.072-0.16-0.16v-2.998
		c0-0.048-0.031-0.08-0.08-0.08h-0.6c-0.088,0-0.16-0.072-0.16-0.16v-0.399c0-0.088,0.072-0.16,0.16-0.16h0.6
		c0.049,0,0.08-0.032,0.08-0.08v-0.12c0-0.839,0.64-1.495,1.479-1.495h0.079c0.088,0,0.16,0.072,0.16,0.16v0.376
		c0,0.088-0.072,0.16-0.16,0.16h-0.079c-0.424,0-0.76,0.399-0.76,0.799v0.12c0,0.048,0.032,0.08,0.08,0.08h1.543
		c0.048,0,0.08-0.032,0.08-0.08v-0.12c0-0.839,0.64-1.495,1.479-1.495h0.08c0.088,0,0.16,0.072,0.16,0.16v0.376
		c0,0.088-0.072,0.16-0.16,0.16h-0.08c-0.424,0-0.76,0.399-0.76,0.799v0.12c0,0.048,0.031,0.08,0.08,0.08h0.815
		c0.088,0,0.159,0.072,0.159,0.16v0.399c0,0.088-0.071,0.16-0.159,0.16h-0.815c-0.049,0-0.08,0.032-0.08,0.08v2.998
		c0,0.088-0.072,0.16-0.16,0.16h-0.4c-0.088,0-0.159-0.072-0.159-0.16v-2.998C110.958,660.866,110.926,660.834,110.878,660.834z
		 M105.574,663.433c0.496,0,0.88-0.296,0.88-0.76v-2.438c0-0.088,0.071-0.16,0.159-0.16h0.4c0.088,0,0.16,0.072,0.16,0.16v3.678
		c0,0.088-0.072,0.16-0.16,0.16h-0.352c-0.049,0-0.08-0.024-0.112-0.056c-0.048-0.057-0.12-0.128-0.2-0.128
		c-0.231,0-0.264,0.264-0.855,0.264c-0.902,0-1.519-0.64-1.519-1.52v-2.398c0-0.088,0.071-0.16,0.159-0.16h0.4
		c0.088,0,0.16,0.072,0.16,0.16v2.398C104.695,663.097,105.023,663.433,105.574,663.433z M107.074,571.446v-2.398
		c0-0.512-0.384-0.8-0.88-0.8s-0.88,0.296-0.88,0.76v2.438c0,0.088-0.071,0.16-0.159,0.16h-0.4c-0.088,0-0.159-0.072-0.159-0.16
		v-3.678c0-0.088,0.071-0.16,0.159-0.16h0.353c0.048,0,0.079,0.024,0.111,0.057c0.048,0.056,0.12,0.128,0.2,0.128
		c0.231,0,0.296-0.265,0.855-0.265c0.896,0,1.52,0.576,1.52,1.52v2.398c0,0.088-0.072,0.16-0.16,0.16h-0.4
		C107.145,571.606,107.074,571.534,107.074,571.446z M110.211,568.168c-0.28,0-0.744,0.12-0.744,0.504
		c0,0.136-0.111,0.136-0.184,0.136h-0.36c-0.119,0-0.159-0.063-0.159-0.159c0-0.744,0.768-1.12,1.447-1.12
		c0.903,0,1.463,0.393,1.463,1.279v2.639c0,0.088-0.072,0.16-0.16,0.16h-0.271c-0.048,0-0.08-0.016-0.112-0.056
		c-0.048-0.064-0.08-0.168-0.16-0.168c-0.144,0-0.344,0.304-0.936,0.304c-0.983,0-1.455-0.6-1.455-1.279
		c0-0.664,0.48-1.216,1.319-1.216h0.976c0.048,0,0.08-0.031,0.08-0.079v-0.305C110.954,568.376,110.658,568.168,110.211,568.168z
		 M98.282,570.999c0.433,0,0.855-0.112,0.855-0.592c0-0.328-0.392-0.416-0.855-0.512c-0.655-0.136-1.447-0.304-1.447-1.207
		c0-0.72,0.72-1.16,1.447-1.16c0.744,0,1.464,0.44,1.464,1.199c0,0.089-0.072,0.16-0.16,0.16h-0.399c-0.088,0-0.16-0.071-0.16-0.16
		c0-0.279-0.216-0.52-0.744-0.52c-0.495,0-0.703,0.248-0.703,0.48c0,0.312,0.312,0.415,0.703,0.487
		c0.672,0.12,1.575,0.256,1.575,1.231c0,0.855-0.743,1.279-1.575,1.279c-0.799,0-1.583-0.4-1.583-1.279v-0.104
		c0-0.088,0.072-0.159,0.16-0.159h0.399c0.088,0,0.16,0.071,0.16,0.159v0.104C97.419,570.887,97.915,570.999,98.282,570.999z
		 M99.727,658.476h0.479c0.072,0,0.129,0.032,0.152,0.12l1.111,4.262c0.008,0.031,0.023,0.048,0.048,0.048h0.017
		c0.023,0,0.039-0.017,0.047-0.048l1.111-4.262c0.025-0.088,0.08-0.12,0.152-0.12h0.488c0.127,0,0.176,0.096,0.152,0.184
		l-1.496,5.293c-0.023,0.08-0.08,0.12-0.152,0.12h-0.623c-0.072,0-0.128-0.04-0.152-0.12l-1.486-5.285
		C99.552,658.587,99.599,658.476,99.727,658.476z M102.114,571.687c-0.959,0-1.575-0.68-1.639-1.52
		c-0.024-0.319-0.024-0.799,0-1.119c0.063-0.84,0.68-1.52,1.639-1.52c0.96,0,1.575,0.68,1.64,1.52c0.023,0.32,0.023,0.8,0,1.119
		C103.689,571.007,103.074,571.687,102.114,571.687z M90.118,484.404c-0.496,0-0.88,0.296-0.88,0.76v2.438
		c0,0.088-0.071,0.16-0.159,0.16h-0.4c-0.088,0-0.159-0.072-0.159-0.16v-3.678c0-0.088,0.071-0.16,0.159-0.16h0.353
		c0.048,0,0.079,0.024,0.111,0.057c0.048,0.056,0.12,0.128,0.2,0.128c0.231,0,0.296-0.265,0.855-0.265c0.896,0,1.52,0.576,1.52,1.52
		v2.398c0,0.088-0.072,0.16-0.16,0.16h-0.4c-0.088,0-0.159-0.072-0.159-0.16v-2.398C90.998,484.692,90.614,484.404,90.118,484.404z
		 M89.131,569.048c0.064-0.84,0.68-1.52,1.64-1.52c0.959,0,1.575,0.68,1.639,1.52c0.024,0.32,0.024,0.8,0,1.119
		c-0.063,0.84-0.68,1.52-1.639,1.52c-0.96,0-1.575-0.68-1.64-1.52C89.107,569.848,89.107,569.368,89.131,569.048z M92.415,486.563
		v-0.104c0-0.088,0.072-0.159,0.16-0.159h0.399c0.088,0,0.16,0.071,0.16,0.159v0.104c0,0.479,0.496,0.592,0.863,0.592
		c0.433,0,0.855-0.112,0.855-0.592c0-0.328-0.392-0.416-0.855-0.512c-0.655-0.136-1.447-0.304-1.447-1.207
		c0-0.72,0.72-1.16,1.447-1.16c0.744,0,1.464,0.44,1.464,1.199c0,0.089-0.072,0.16-0.16,0.16h-0.399c-0.088,0-0.16-0.071-0.16-0.16
		c0-0.279-0.216-0.52-0.744-0.52c-0.495,0-0.703,0.248-0.703,0.48c0,0.312,0.312,0.415,0.703,0.487
		c0.672,0.12,1.575,0.256,1.575,1.231c0,0.855-0.743,1.279-1.575,1.279C93.199,487.843,92.415,487.442,92.415,486.563z
		 M93.027,570.303c0-0.088,0.071-0.159,0.16-0.159h0.399c0.088,0,0.16,0.071,0.16,0.159v0.104c0,0.479,0.495,0.592,0.863,0.592
		c0.432,0,0.855-0.112,0.855-0.592c0-0.328-0.392-0.416-0.855-0.512c-0.655-0.136-1.447-0.304-1.447-1.207
		c0-0.72,0.72-1.16,1.447-1.16c0.743,0,1.463,0.44,1.463,1.199c0,0.089-0.071,0.16-0.16,0.16h-0.399c-0.088,0-0.16-0.071-0.16-0.16
		c0-0.279-0.216-0.52-0.743-0.52c-0.496,0-0.704,0.248-0.704,0.48c0,0.312,0.312,0.415,0.704,0.487
		c0.672,0.12,1.575,0.256,1.575,1.231c0,0.855-0.744,1.279-1.575,1.279c-0.8,0-1.583-0.4-1.583-1.279V570.303z M86.65,566.705
		c-0.52,0-0.968,0.32-1.039,0.903c-0.08,0.656-0.08,1.743,0,2.398c0.063,0.464,0.415,0.904,1.039,0.904
		c0.535,0,1.039-0.32,1.039-0.904v-0.111c0-0.088,0.072-0.16,0.16-0.16h0.439c0.088,0,0.16,0.072,0.16,0.16v0.111
		c0,0.888-0.743,1.664-1.799,1.664c-0.96,0-1.671-0.632-1.799-1.664c-0.08-0.647-0.08-1.759,0-2.398
		c0.104-0.871,0.743-1.663,1.799-1.663c0.959,0,1.799,0.624,1.799,1.663v0.112c0,0.088-0.072,0.16-0.16,0.16h-0.439
		c-0.088,0-0.16-0.072-0.16-0.16v-0.112C87.689,567.129,87.282,566.713,86.65,566.705z M86.102,487.123
		c0.415,0,0.728-0.208,0.823-0.504c0.032-0.104,0.112-0.136,0.184-0.136h0.408c0.08,0,0.151,0.048,0.136,0.16
		c-0.096,0.695-0.72,1.199-1.551,1.199c-0.96,0-1.575-0.68-1.64-1.52c-0.023-0.319-0.023-0.799,0-1.119
		c0.064-0.84,0.68-1.52,1.64-1.52c0.967,0,1.599,0.6,1.599,1.6v0.552c0,0.088-0.072,0.16-0.16,0.16h-2.286
		c-0.048,0-0.08,0.031-0.08,0.079C85.175,486.804,85.551,487.123,86.102,487.123z M83.583,482.27v5.333
		c0,0.088-0.072,0.16-0.16,0.16h-0.399c-0.088,0-0.16-0.072-0.16-0.16v-5.333c0-0.088,0.072-0.16,0.16-0.16h0.399
		C83.51,482.109,83.583,482.182,83.583,482.27z M81.823,482.27v5.333c0,0.088-0.072,0.16-0.16,0.16h-0.399
		c-0.088,0-0.16-0.072-0.16-0.16v-5.333c0-0.088,0.072-0.16,0.16-0.16h0.399C81.751,482.109,81.823,482.182,81.823,482.27z
		 M79.935,482.917h-0.544c-0.072,0-0.128-0.056-0.128-0.128v-0.552c0-0.063,0.056-0.128,0.128-0.128h0.544
		c0.071,0,0.128,0.064,0.128,0.128v0.552C80.063,482.861,80.007,482.917,79.935,482.917z M80.039,483.925v3.678
		c0,0.088-0.072,0.16-0.16,0.16h-0.415c-0.088,0-0.16-0.072-0.16-0.16v-3.678c0-0.088,0.072-0.16,0.16-0.16h0.415
		C79.967,483.765,80.039,483.837,80.039,483.925z M76.822,484.324c-0.279,0-0.743,0.12-0.743,0.504c0,0.136-0.112,0.136-0.185,0.136
		h-0.359c-0.12,0-0.16-0.063-0.16-0.159c0-0.744,0.768-1.12,1.447-1.12c0.903,0,1.463,0.393,1.463,1.279v2.639
		c0,0.088-0.071,0.16-0.159,0.16h-0.272c-0.048,0-0.08-0.016-0.111-0.056c-0.048-0.064-0.08-0.168-0.16-0.168
		c-0.144,0-0.344,0.304-0.936,0.304c-0.983,0-1.455-0.6-1.455-1.279c0-0.664,0.479-1.216,1.319-1.216h0.976
		c0.048,0,0.08-0.031,0.08-0.079v-0.305C77.566,484.532,77.27,484.324,76.822,484.324z M72.084,276.094
		c-0.032-0.08,0.023-0.184,0.152-0.184h0.487c0.071,0,0.12,0.032,0.151,0.12l0.984,2.599c0.016,0.04,0.047,0.04,0.063,0l0.927-2.599
		c0.033-0.088,0.08-0.12,0.152-0.12h0.473c0.127,0,0.184,0.104,0.151,0.184l-2.03,5.293c-0.033,0.088-0.08,0.12-0.152,0.12h-0.432
		c-0.129,0-0.184-0.104-0.152-0.184l0.592-1.631c0.016-0.04,0.023-0.064,0.008-0.104L72.084,276.094z M70.107,276.47
		c-0.281,0-0.744,0.12-0.744,0.503c0,0.136-0.111,0.136-0.184,0.136h-0.36c-0.12,0-0.159-0.064-0.159-0.16
		c0-0.744,0.768-1.119,1.447-1.119c0.902,0,1.463,0.392,1.463,1.279v2.639c0,0.088-0.072,0.16-0.16,0.16h-0.271
		c-0.049,0-0.08-0.016-0.112-0.056c-0.048-0.064-0.08-0.168-0.16-0.168c-0.144,0-0.344,0.304-0.936,0.304
		c-0.983,0-1.455-0.6-1.455-1.279c0-0.664,0.479-1.215,1.319-1.215h0.976c0.048,0,0.079-0.032,0.079-0.08v-0.304
		C70.849,276.678,70.554,276.47,70.107,276.47z M66.09,276.55c-0.495,0-0.879,0.295-0.879,0.759v2.439c0,0.088-0.072,0.16-0.16,0.16
		h-0.399c-0.088,0-0.159-0.072-0.159-0.16v-3.678c0-0.088,0.071-0.16,0.159-0.16h0.353c0.047,0,0.079,0.024,0.111,0.056
		c0.048,0.056,0.119,0.128,0.199,0.128c0.232,0,0.297-0.264,0.855-0.264c0.896,0,1.52,0.576,1.52,1.519v2.399
		c0,0.088-0.072,0.16-0.16,0.16H67.13c-0.088,0-0.159-0.072-0.159-0.16v-2.399C66.97,276.837,66.586,276.55,66.09,276.55z
		 M63.97,276.07v0.392c0,0.088-0.072,0.16-0.16,0.16h-0.16c-0.631,0-1.199,0.328-1.199,1.208v1.919c0,0.088-0.072,0.16-0.16,0.16
		h-0.399c-0.088,0-0.159-0.072-0.159-0.16v-3.678c0-0.088,0.071-0.16,0.159-0.16h0.272c0.088,0,0.135,0.048,0.159,0.16
		c0.024,0.104,0.024,0.28,0.144,0.28c0.192,0,0.328-0.439,1.184-0.439h0.16C63.898,275.91,63.97,275.982,63.97,276.07z
		 M60.89,278.469c-0.064,0.839-0.68,1.519-1.64,1.519s-1.575-0.68-1.64-1.519c-0.023-0.32-0.023-0.8,0-1.12
		c0.064-0.839,0.68-1.519,1.64-1.519s1.575,0.68,1.64,1.519C60.914,277.669,60.914,278.148,60.89,278.469z M57.154,276.094
		l-1.407,3.694c-0.032,0.08-0.08,0.12-0.151,0.12h-0.44c-0.071,0-0.12-0.04-0.151-0.12l-1.416-3.694
		c-0.031-0.08,0.024-0.184,0.152-0.184h0.496c0.071,0,0.119,0.032,0.151,0.12l0.927,2.663c0.017,0.056,0.097,0.056,0.113,0
		l0.927-2.663c0.032-0.088,0.08-0.12,0.151-0.12h0.496C57.131,275.91,57.185,276.014,57.154,276.094z M51.571,276.47
		c-0.28,0-0.743,0.12-0.743,0.503c0,0.136-0.113,0.136-0.185,0.136h-0.36c-0.119,0-0.159-0.064-0.159-0.16
		c0-0.744,0.768-1.119,1.447-1.119c0.903,0,1.463,0.392,1.463,1.279v2.639c0,0.088-0.071,0.16-0.159,0.16h-0.272
		c-0.048,0-0.08-0.016-0.112-0.056c-0.047-0.064-0.08-0.168-0.16-0.168c-0.143,0-0.344,0.304-0.936,0.304
		c-0.982,0-1.455-0.6-1.455-1.279c0-0.664,0.48-1.215,1.32-1.215h0.975c0.049,0,0.08-0.032,0.08-0.08v-0.304
		C52.314,276.678,52.019,276.47,51.571,276.47z M47.578,276.55c-0.495,0-0.855,0.344-0.855,0.759v2.439
		c0,0.088-0.071,0.16-0.159,0.16h-0.399c-0.088,0-0.16-0.072-0.16-0.16v-5.333c0-0.088,0.072-0.16,0.16-0.16h0.399
		c0.088,0,0.159,0.072,0.159,0.16v1.447c0,0.072,0.064,0.168,0.176,0.168c0.16,0,0.369-0.2,0.736-0.2c0.84,0,1.52,0.68,1.52,1.519
		v2.399c0,0.088-0.072,0.16-0.16,0.16h-0.4c-0.088,0-0.16-0.072-0.16-0.16v-2.399C48.433,276.934,48.074,276.55,47.578,276.55z
		 M43.363,275.006c-0.52,0-0.968,0.32-1.039,0.904c-0.08,0.655-0.08,1.743,0,2.398c0.062,0.464,0.415,0.903,1.039,0.903
		c0.535,0,1.039-0.32,1.039-0.903v-0.112c0-0.088,0.072-0.16,0.16-0.16h0.439c0.088,0,0.16,0.072,0.16,0.16v0.112
		c0,0.888-0.744,1.663-1.799,1.663c-0.96,0-1.672-0.632-1.799-1.663c-0.08-0.647-0.08-1.759,0-2.398
		c0.104-0.872,0.743-1.663,1.799-1.663c0.959,0,1.799,0.624,1.799,1.663v0.112c0,0.088-0.072,0.16-0.16,0.16h-0.439
		c-0.088,0-0.16-0.072-0.16-0.16v-0.112C44.402,275.43,43.994,275.015,43.363,275.006z M74.422,486.084
		c-0.104,0.919-0.752,1.679-1.68,1.679h-1.519c-0.088,0-0.16-0.072-0.16-0.16v-5.277c0-0.088,0.072-0.159,0.16-0.159h1.519
		c0.928,0,1.567,0.751,1.68,1.679C74.502,484.484,74.493,485.444,74.422,486.084z"/>
	<path d="M102.114,568.248c-0.552,0-0.888,0.376-0.919,0.8c-0.024,0.328-0.024,0.792,0,1.119c0.031,0.424,0.367,0.8,0.919,0.8
		s0.888-0.376,0.92-0.8c0.023-0.327,0.023-0.791,0-1.119C103.002,568.624,102.666,568.248,102.114,568.248z"/>
	<path d="M109.898,569.848c-0.407,0-0.6,0.216-0.6,0.552c0,0.392,0.248,0.623,0.712,0.623c0.735,0,1.008-0.296,1.008-0.839v-0.256
		c0-0.048-0.032-0.08-0.08-0.08H109.898z"/>
	<path d="M106.407,703.056c-0.552,0-0.888,0.376-0.919,0.8c-0.024,0.328-0.024,0.792,0,1.119c0.031,0.424,0.367,0.8,0.919,0.8
		s0.888-0.376,0.92-0.8c0.023-0.327,0.023-0.791,0-1.119C107.295,703.432,106.959,703.056,106.407,703.056z"/>
	<path d="M150.893,660.714c-0.552,0-0.919,0.384-0.919,0.872c0,0.048,0.031,0.08,0.08,0.08h1.662c0.049,0,0.08-0.032,0.08-0.08
		C151.797,661.034,151.388,660.714,150.893,660.714z"/>
	<path d="M90.77,570.967c0.552,0,0.887-0.376,0.919-0.8c0.024-0.327,0.024-0.791,0-1.119c-0.032-0.424-0.367-0.8-0.919-0.8
		s-0.888,0.376-0.92,0.8c-0.023,0.328-0.023,0.792,0,1.119C89.883,570.591,90.219,570.967,90.77,570.967z"/>
	<text transform="matrix(1 0 0 1 158.8804 63.8976)" class="st0 st1 st2">Yverdon-les-Bains</text>
</g>
<text transform="matrix(1 0 0 1 143.8284 783.8044)"><tspan x="0" y="0" class="st0 st1 st2">St-Sulpic</tspan><tspan x="30.151" y="0" class="st0 st1 st2">e</tspan></text>
<line class="st3" x1="175.088" y1="238.017" x2="155.491" y2="374.216"/>
<polyline class="st3" points="170.946,241.358 175.088,238.016 178.119,242.39 "/>
<g>
	<path class="st0" d="M176.922,231.287c-0.088-0.011-0.125-0.04-0.15-0.155l-1.081-4.12c-0.012-0.034-0.062-0.032-0.065,0.008
		l-0.478,3.889c-0.011,0.087-0.091,0.149-0.179,0.139l-0.404-0.05c-0.087-0.01-0.15-0.09-0.139-0.178l0.643-5.237
		c0.011-0.088,0.091-0.15,0.178-0.14l0.659,0.081c0.087,0.011,0.124,0.039,0.15,0.155l1.083,4.104
		c0.012,0.033,0.061,0.031,0.065-0.009l0.476-3.872c0.011-0.088,0.091-0.15,0.178-0.14l0.404,0.05
		c0.088,0.011,0.15,0.091,0.141,0.179l-0.644,5.237c-0.011,0.088-0.091,0.15-0.179,0.14L176.922,231.287z"/>
</g>
<g>
	<defs>
		<path id="SVGID_1_" d="M79.527,13.748c7.107,0,15.591,14.959,16.629,16.675c2.28,3.772,5.692,7.225,8.813,10.271
			c1.226-1.021,2.548,0.049,3.796,0.668c2.067,1.024,4,2.195,5.845,3.602c6.743,5.139,14.941,5.811,22.886,6.772
			c4.634,0.561,9.735-3.86,11.207-8.519c0.424-1.342,1.198-2.341,2.258-3.18c3.439-2.727,5.557-1.056,9.815-2.7
			c1.849-0.713,6.273,3.682,6.72,2.104c0.733-2.589,2.497-4.138,4.417-5.623c1.451-1.122,5.925-7.766,6.514-9.579
			c0.599-1.845,2.414-1.692,3.551-2.016c3.616-1.033,1.445-8.344,5.307-8.401"/>
	</defs>
	<clipPath id="SVGID_2_">
		<use xlink:href="#SVGID_1_"  style="overflow:visible;"/>
	</clipPath>
	<line class="st4" x1="72.424" y1="54.158" x2="114.508" y2="12.074"/>
	<line class="st4" x1="58.41" y1="54.158" x2="100.494" y2="12.074"/>
	<line class="st4" x1="86.438" y1="54.158" x2="128.522" y2="12.074"/>
	<line class="st4" x1="100.452" y1="54.158" x2="142.536" y2="12.074"/>
	<line class="st4" x1="114.465" y1="54.158" x2="156.55" y2="12.074"/>
	<line class="st4" x1="142.493" y1="54.158" x2="184.577" y2="12.074"/>
	<line class="st4" x1="128.479" y1="54.158" x2="170.563" y2="12.074"/>
	<line class="st4" x1="156.507" y1="54.158" x2="198.591" y2="12.074"/>
	<line class="st4" x1="170.521" y1="54.158" x2="212.605" y2="12.074"/>
	<line class="st4" x1="184.535" y1="54.158" x2="226.619" y2="12.074"/>
</g>
<g>
	<defs>
		<path id="SVGID_3_" d="M183.117,835.282c-11.665-7.519-10.191-17.901-23.167-28.956c-3.721-3.17-9.904,0.649-14.527,2.471
			c-4.441,1.749-8.985,3.058-13.625,3.995c-6.819,1.377-13.028,4.428-19.519,6.703c-6.238,2.186-12.227,1.593-18.407-0.891
			c-5.292-2.126-10.154-7.988-15.696-6.7c-8.688,2.02-41.304,6.844-50.513,24.044"/>
	</defs>
	<clipPath id="SVGID_4_">
		<use xlink:href="#SVGID_3_"  style="overflow:visible;"/>
	</clipPath>
	<line class="st5" x1="-5.038" y1="847.194" x2="37.046" y2="805.11"/>
	<line class="st5" x1="-19.052" y1="847.194" x2="23.033" y2="805.11"/>
	<line class="st5" x1="8.976" y1="847.194" x2="51.06" y2="805.11"/>
	<line class="st5" x1="22.99" y1="847.194" x2="65.074" y2="805.11"/>
	<line class="st5" x1="37.004" y1="847.194" x2="79.088" y2="805.11"/>
	<line class="st5" x1="65.031" y1="847.194" x2="107.116" y2="805.11"/>
	<line class="st5" x1="51.018" y1="847.194" x2="93.102" y2="805.11"/>
	<line class="st5" x1="79.045" y1="847.194" x2="121.129" y2="805.11"/>
	<line class="st5" x1="93.059" y1="847.194" x2="135.143" y2="805.11"/>
	<line class="st5" x1="107.073" y1="847.194" x2="149.157" y2="805.11"/>
	<line class="st5" x1="134.664" y1="847.194" x2="176.748" y2="805.11"/>
	<line class="st5" x1="120.65" y1="847.194" x2="162.734" y2="805.11"/>
	<line class="st5" x1="148.678" y1="847.194" x2="190.762" y2="805.11"/>
	<line class="st5" x1="162.692" y1="847.194" x2="204.776" y2="805.11"/>
	<line class="st5" x1="176.706" y1="847.194" x2="218.79" y2="805.11"/>
	<line class="st5" x1="204.733" y1="847.194" x2="246.817" y2="805.11"/>
	<line class="st5" x1="190.719" y1="847.194" x2="232.804" y2="805.11"/>
	<line class="st5" x1="218.747" y1="847.194" x2="260.831" y2="805.11"/>
	<line class="st5" x1="232.761" y1="847.194" x2="274.845" y2="805.11"/>
</g>
<path class="st6" d="M184.134,836.081c-11.665-7.519-11.207-18.7-24.183-29.755c-3.721-3.17-9.904,0.649-14.527,2.471
	c-4.441,1.749-8.985,3.058-13.625,3.995c-6.819,1.377-13.028,4.428-19.519,6.703c-6.238,2.186-12.227,1.593-18.407-0.891
	c-5.292-2.126-10.154-7.988-15.696-6.7c-8.688,2.02-41.304,6.844-50.513,24.044"/>
<g>
	<defs>
		<path id="SVGID_5_" d="M79.527,13.748c7.107,0,15.591,14.959,16.629,16.675c2.28,3.772,5.692,7.225,8.813,10.271
			c1.226-1.021,2.548,0.049,3.796,0.668c2.067,1.024,4,2.195,5.845,3.602c6.743,5.139,14.941,5.811,22.886,6.772
			c4.634,0.561,9.735-3.86,11.207-8.519c0.424-1.342,1.198-2.341,2.258-3.18c3.439-2.727,5.557-1.056,9.815-2.7
			c1.849-0.713,6.273,3.682,6.72,2.104c0.733-2.589,2.497-4.138,4.417-5.623c1.451-1.122,5.925-7.766,6.514-9.579
			c0.599-1.845,2.414-1.692,3.551-2.016c3.616-1.033,1.445-8.344,5.307-8.401"/>
	</defs>
	<clipPath id="SVGID_6_">
		<use xlink:href="#SVGID_5_"  style="overflow:visible;"/>
	</clipPath>
	<g class="st7">
		<line class="st8" x1="72.424" y1="54.158" x2="114.508" y2="12.074"/>
		<line class="st8" x1="58.41" y1="54.158" x2="100.494" y2="12.074"/>
		<line class="st8" x1="86.438" y1="54.158" x2="128.522" y2="12.074"/>
		<line class="st8" x1="100.452" y1="54.158" x2="142.536" y2="12.074"/>
		<line class="st8" x1="114.465" y1="54.158" x2="156.55" y2="12.074"/>
		<line class="st8" x1="142.493" y1="54.158" x2="184.577" y2="12.074"/>
		<line class="st8" x1="128.479" y1="54.158" x2="170.563" y2="12.074"/>
		<line class="st8" x1="156.507" y1="54.158" x2="198.591" y2="12.074"/>
		<line class="st8" x1="170.521" y1="54.158" x2="212.605" y2="12.074"/>
		<line class="st8" x1="184.535" y1="54.158" x2="226.619" y2="12.074"/>
	</g>
	
		<use xlink:href="#SVGID_5_"  style="overflow:visible;fill:none;stroke:#FFFFFF;stroke-width:0.7;stroke-linecap:round;stroke-linejoin:round;stroke-miterlimit:10;"/>
</g>
</svg>
